<svg viewBox="-480,-400,960,800" width="960" height="800" xmlns="http://www.w3.org/2000/svg" xmlns:xlink="http://www.w3.org/1999/xlink"><g><line stroke-width="1" stroke="gray" class="link" style="opacity: 0.5;" x1="251.11720443469306" y1="-282.50296799365725" x2="221.26862144213487" y2="-309.74972456505884"/><line stroke-width="1" stroke="gray" class="link" style="opacity: 0.5;" x1="251.11720443469306" y1="-282.50296799365725" x2="258.9497034303405" y2="-226.06482856710977"/><line stroke-width="1" stroke="gray" class="link" style="opacity: 0.5;" x1="238.7328747307584" y1="-181.67305179477333" x2="145.8342017800363" y2="-216.73895350728822"/><line stroke-width="1" stroke="gray" class="link" style="opacity: 0.5;" x1="238.7328747307584" y1="-181.67305179477333" x2="204.71866768776178" y2="-108.23100259358769"/><line stroke-width="1" stroke="gray" class="link" style="opacity: 0.5;" x1="238.7328747307584" y1="-181.67305179477333" x2="309.806708351841" y2="-146.50959854645885"/><line stroke-width="1" stroke="gray" class="link" style="opacity: 0.5;" x1="238.7328747307584" y1="-181.67305179477333" x2="320.8880940783601" y2="-185.10057491397666"/><line stroke-width="1" stroke="gray" class="link" style="opacity: 0.5;" x1="238.7328747307584" y1="-181.67305179477333" x2="258.9497034303405" y2="-226.06482856710977"/><line stroke-width="1" stroke="gray" class="link" style="opacity: 0.5;" x1="219.24489314889016" y1="-67.51340154285124" x2="244.86991678900722" y2="-82.64560021990984"/><line stroke-width="1" stroke="gray" class="link" style="opacity: 0.5;" x1="219.24489314889016" y1="-67.51340154285124" x2="204.71866768776178" y2="-108.23100259358769"/><line stroke-width="1" stroke="gray" class="link" style="opacity: 0.5;" x1="301.7417430861034" y1="-228.95985222870786" x2="285.2128655045585" y2="-203.64679285416125"/><line stroke-width="1" stroke="gray" class="link" style="opacity: 0.5;" x1="301.7417430861034" y1="-228.95985222870786" x2="237.50710991443572" y2="-238.42114446475904"/><line stroke-width="1" stroke="gray" class="link" style="opacity: 0.5;" x1="301.7417430861034" y1="-228.95985222870786" x2="320.8880940783601" y2="-185.10057491397666"/><line stroke-width="1" stroke="gray" class="link" style="opacity: 0.5;" x1="123.87475425542111" y1="-211.27144651147367" x2="145.8342017800363" y2="-216.73895350728822"/><line stroke-width="1" stroke="gray" class="link" style="opacity: 0.5;" x1="113.16056162951932" y1="-147.95045121582314" x2="145.8342017800363" y2="-216.73895350728822"/><line stroke-width="1" stroke="gray" class="link" style="opacity: 0.5;" x1="113.16056162951932" y1="-147.95045121582314" x2="91.56163102542739" y2="-142.25240848928598"/><line stroke-width="1" stroke="gray" class="link" style="opacity: 0.5;" x1="113.16056162951932" y1="-147.95045121582314" x2="149.6892979186343" y2="-129.87481057367742"/><line stroke-width="1" stroke="gray" class="link" style="opacity: 0.5;" x1="113.16056162951932" y1="-147.95045121582314" x2="116.62268868252438" y2="-103.28374943731707"/><line stroke-width="1" stroke="gray" class="link" style="opacity: 0.5;" x1="192.5719623929947" y1="-202.1046126449217" x2="285.2128655045585" y2="-203.64679285416125"/><line stroke-width="1" stroke="gray" class="link" style="opacity: 0.5;" x1="192.5719623929947" y1="-202.1046126449217" x2="149.6892979186343" y2="-129.87481057367742"/><line stroke-width="1" stroke="gray" class="link" style="opacity: 0.5;" x1="192.5719623929947" y1="-202.1046126449217" x2="157.0436508719455" y2="-262.37003909290587"/><line stroke-width="1" stroke="gray" class="link" style="opacity: 0.5;" x1="219.29291659975652" y1="-147.05508906427826" x2="241.80796148324444" y2="-105.22149209367697"/><line stroke-width="1" stroke="gray" class="link" style="opacity: 0.5;" x1="219.29291659975652" y1="-147.05508906427826" x2="244.03701867189875" y2="-147.81822980845868"/><line stroke-width="1" stroke="gray" class="link" style="opacity: 0.5;" x1="219.29291659975652" y1="-147.05508906427826" x2="237.50710991443572" y2="-238.42114446475904"/><line stroke-width="1" stroke="gray" class="link" style="opacity: 0.5;" x1="219.29291659975652" y1="-147.05508906427826" x2="244.86991678900722" y2="-82.64560021990984"/><line stroke-width="1" stroke="gray" class="link" style="opacity: 0.5;" x1="293.914373740278" y1="-94.48771935316346" x2="241.80796148324444" y2="-105.22149209367697"/><line stroke-width="1" stroke="gray" class="link" style="opacity: 0.5;" x1="293.914373740278" y1="-94.48771935316346" x2="309.806708351841" y2="-146.50959854645885"/><line stroke-width="1" stroke="gray" class="link" style="opacity: 0.5;" x1="293.914373740278" y1="-94.48771935316346" x2="293.12446843369406" y2="-121.63323434250887"/><line stroke-width="1" stroke="gray" class="link" style="opacity: 0.5;" x1="185.69566469923757" y1="-293.2952793939813" x2="145.8342017800363" y2="-216.73895350728822"/><line stroke-width="1" stroke="gray" class="link" style="opacity: 0.5;" x1="185.69566469923757" y1="-293.2952793939813" x2="237.50710991443572" y2="-238.42114446475904"/><line stroke-width="1" stroke="gray" class="link" style="opacity: 0.5;" x1="185.69566469923757" y1="-293.2952793939813" x2="221.26862144213487" y2="-309.74972456505884"/><line stroke-width="1" stroke="gray" class="link" style="opacity: 0.5;" x1="185.69566469923757" y1="-293.2952793939813" x2="168.4995850736512" y2="-335.03405340437763"/><line stroke-width="1" stroke="gray" class="link" style="opacity: 0.5;" x1="205.57136323963127" y1="-275.77364430106365" x2="237.50710991443572" y2="-238.42114446475904"/><line stroke-width="1" stroke="gray" class="link" style="opacity: 0.5;" x1="205.57136323963127" y1="-275.77364430106365" x2="157.0436508719455" y2="-262.37003909290587"/><line stroke-width="1" stroke="gray" class="link" style="opacity: 0.5;" x1="205.57136323963127" y1="-275.77364430106365" x2="221.26862144213487" y2="-309.74972456505884"/><line stroke-width="1" stroke="gray" class="link" style="opacity: 0.5;" x1="181.81981624566694" y1="-97.62300489535014" x2="241.80796148324444" y2="-105.22149209367697"/><line stroke-width="1" stroke="gray" class="link" style="opacity: 0.5;" x1="181.81981624566694" y1="-97.62300489535014" x2="149.6892979186343" y2="-129.87481057367742"/><line stroke-width="1" stroke="gray" class="link" style="opacity: 0.5;" x1="181.81981624566694" y1="-97.62300489535014" x2="204.71866768776178" y2="-108.23100259358769"/><line stroke-width="1" stroke="gray" class="link" style="opacity: 0.5;" x1="141.90771046383583" y1="-242.78054256742288" x2="145.8342017800363" y2="-216.73895350728822"/><line stroke-width="1" stroke="gray" class="link" style="opacity: 0.5;" x1="141.90771046383583" y1="-242.78054256742288" x2="157.0436508719455" y2="-262.37003909290587"/><line stroke-width="1" stroke="gray" class="link" style="opacity: 0.5;" x1="157.22365533414592" y1="-355.46859627671773" x2="168.4995850736512" y2="-335.03405340437763"/><line stroke-width="1" stroke="gray" class="link" style="opacity: 0.5;" x1="339.623734954683" y1="-175.87397314249628" x2="285.2128655045585" y2="-203.64679285416125"/><line stroke-width="1" stroke="gray" class="link" style="opacity: 0.5;" x1="339.623734954683" y1="-175.87397314249628" x2="309.806708351841" y2="-146.50959854645885"/><line stroke-width="1" stroke="gray" class="link" style="opacity: 0.5;" x1="339.623734954683" y1="-175.87397314249628" x2="320.8880940783601" y2="-185.10057491397666"/><line stroke-width="1" stroke="gray" class="link" style="opacity: 0.5;" x1="327.3061606878348" y1="-101.41169058431487" x2="244.86991678900722" y2="-82.64560021990984"/><line stroke-width="1" stroke="gray" class="link" style="opacity: 0.5;" x1="327.3061606878348" y1="-101.41169058431487" x2="320.8880940783601" y2="-185.10057491397666"/><line stroke-width="1" stroke="gray" class="link" style="opacity: 0.5;" x1="327.3061606878348" y1="-101.41169058431487" x2="361.92157817171" y2="-69.49894276324662"/><line stroke-width="1" stroke="gray" class="link" style="opacity: 0.5;" x1="123.76048494614096" y1="-248.84776518129584" x2="145.8342017800363" y2="-216.73895350728822"/><line stroke-width="1" stroke="gray" class="link" style="opacity: 0.5;" x1="123.76048494614096" y1="-248.84776518129584" x2="157.0436508719455" y2="-262.37003909290587"/><line stroke-width="1" stroke="gray" class="link" style="opacity: 0.5;" x1="285.9535614802126" y1="-241.74837634702922" x2="285.2128655045585" y2="-203.64679285416125"/><line stroke-width="1" stroke="gray" class="link" style="opacity: 0.5;" x1="285.9535614802126" y1="-241.74837634702922" x2="237.50710991443572" y2="-238.42114446475904"/><line stroke-width="1" stroke="gray" class="link" style="opacity: 0.5;" x1="285.9535614802126" y1="-241.74837634702922" x2="320.8880940783601" y2="-185.10057491397666"/><line stroke-width="1" stroke="gray" class="link" style="opacity: 0.5;" x1="285.9535614802126" y1="-241.74837634702922" x2="258.9497034303405" y2="-226.06482856710977"/><line stroke-width="1" stroke="gray" class="link" style="opacity: 0.5;" x1="140.49582539469523" y1="-282.0250577337241" x2="157.0436508719455" y2="-262.37003909290587"/><line stroke-width="1" stroke="gray" class="link" style="opacity: 0.5;" x1="307.7193082272152" y1="-208.90898082601998" x2="285.2128655045585" y2="-203.64679285416125"/><line stroke-width="1" stroke="gray" class="link" style="opacity: 0.5;" x1="384.79190089967955" y1="-44.780931409612" x2="396.1957149272774" y2="-29.290174056643057"/><line stroke-width="1" stroke="gray" class="link" style="opacity: 0.5;" x1="384.79190089967955" y1="-44.780931409612" x2="361.92157817171" y2="-69.49894276324662"/><line stroke-width="1" stroke="gray" class="link" style="opacity: 0.5;" x1="156.74387016968035" y1="-83.99725850452275" x2="149.6892979186343" y2="-129.87481057367742"/><line stroke-width="1" stroke="gray" class="link" style="opacity: 0.5;" x1="156.74387016968035" y1="-83.99725850452275" x2="244.86991678900722" y2="-82.64560021990984"/><line stroke-width="1" stroke="gray" class="link" style="opacity: 0.5;" x1="156.74387016968035" y1="-83.99725850452275" x2="116.62268868252438" y2="-103.28374943731707"/><line stroke-width="1" stroke="gray" class="link" style="opacity: 0.5;" x1="269.32650571729266" y1="-158.66913174910496" x2="241.80796148324444" y2="-105.22149209367697"/><line stroke-width="1" stroke="gray" class="link" style="opacity: 0.5;" x1="269.32650571729266" y1="-158.66913174910496" x2="285.2128655045585" y2="-203.64679285416125"/><line stroke-width="1" stroke="gray" class="link" style="opacity: 0.5;" x1="269.32650571729266" y1="-158.66913174910496" x2="244.03701867189875" y2="-147.81822980845868"/><line stroke-width="1" stroke="gray" class="link" style="opacity: 0.5;" x1="269.32650571729266" y1="-158.66913174910496" x2="237.50710991443572" y2="-238.42114446475904"/><line stroke-width="1" stroke="gray" class="link" style="opacity: 0.5;" x1="269.32650571729266" y1="-158.66913174910496" x2="244.86991678900722" y2="-82.64560021990984"/><line stroke-width="1" stroke="gray" class="link" style="opacity: 0.5;" x1="269.32650571729266" y1="-158.66913174910496" x2="293.12446843369406" y2="-121.63323434250887"/><line stroke-width="1" stroke="gray" class="link" style="opacity: 0.5;" x1="269.32650571729266" y1="-158.66913174910496" x2="258.9497034303405" y2="-226.06482856710977"/><line stroke-width="1" stroke="gray" class="link" style="opacity: 0.5;" x1="246.99737992942352" y1="-129.71558690671694" x2="244.03701867189875" y2="-147.81822980845868"/><line stroke-width="1" stroke="gray" class="link" style="opacity: 0.5;" x1="-215.21260012722342" y1="312.7097537511186" x2="-252.03815354426382" y2="310.26133157440813"/><line stroke-width="1" stroke="gray" class="link" style="opacity: 0.5;" x1="-215.21260012722342" y1="312.7097537511186" x2="-180.7094925013391" y2="305.39173341404"/><line stroke-width="1" stroke="gray" class="link" style="opacity: 0.5;" x1="-215.21260012722342" y1="312.7097537511186" x2="-194.65217234770074" y2="253.31069750761904"/><line stroke-width="1" stroke="gray" class="link" style="opacity: 0.5;" x1="-215.21260012722342" y1="312.7097537511186" x2="-225.15470992608982" y2="274.8944560645504"/><line stroke-width="1" stroke="gray" class="link" style="opacity: 0.5;" x1="-113.97499828773385" y1="245.97255399714433" x2="-134.54600690944378" y2="167.5272076168195"/><line stroke-width="1" stroke="gray" class="link" style="opacity: 0.5;" x1="-113.97499828773385" y1="245.97255399714433" x2="-118.48235334128226" y2="219.81535252709813"/><line stroke-width="1" stroke="gray" class="link" style="opacity: 0.5;" x1="-113.97499828773385" y1="245.97255399714433" x2="-97.66515911036643" y2="286.1629238065395"/><line stroke-width="1" stroke="gray" class="link" style="opacity: 0.5;" x1="-113.97499828773385" y1="245.97255399714433" x2="-180.7094925013391" y2="305.39173341404"/><line stroke-width="1" stroke="gray" class="link" style="opacity: 0.5;" x1="-113.97499828773385" y1="245.97255399714433" x2="-174.76359728194174" y2="146.23242558389208"/><line stroke-width="1" stroke="gray" class="link" style="opacity: 0.5;" x1="-109.43215910290496" y1="127.57695280795397" x2="-134.54600690944378" y2="167.5272076168195"/><line stroke-width="1" stroke="gray" class="link" style="opacity: 0.5;" x1="-109.43215910290496" y1="127.57695280795397" x2="-118.48235334128226" y2="219.81535252709813"/><line stroke-width="1" stroke="gray" class="link" style="opacity: 0.5;" x1="-109.43215910290496" y1="127.57695280795397" x2="-252.3981605859603" y2="152.6015943134698"/><line stroke-width="1" stroke="gray" class="link" style="opacity: 0.5;" x1="-109.43215910290496" y1="127.57695280795397" x2="-76.4875876671027" y2="88.37732366747167"/><line stroke-width="1" stroke="gray" class="link" style="opacity: 0.5;" x1="-109.43215910290496" y1="127.57695280795397" x2="-94.2148736585414" y2="90.88217478172767"/><line stroke-width="1" stroke="gray" class="link" style="opacity: 0.5;" x1="-118.48384280358324" y1="185.0393651989099" x2="-91.82518003093747" y2="177.17736540352087"/><line stroke-width="1" stroke="gray" class="link" style="opacity: 0.5;" x1="-118.48384280358324" y1="185.0393651989099" x2="-134.54600690944378" y2="167.5272076168195"/><line stroke-width="1" stroke="gray" class="link" style="opacity: 0.5;" x1="-118.48384280358324" y1="185.0393651989099" x2="-118.48235334128226" y2="219.81535252709813"/><line stroke-width="1" stroke="gray" class="link" style="opacity: 0.5;" x1="-118.48384280358324" y1="185.0393651989099" x2="-164.12996394064697" y2="231.87557697227624"/><line stroke-width="1" stroke="gray" class="link" style="opacity: 0.5;" x1="-118.48384280358324" y1="185.0393651989099" x2="-221.11083188998208" y2="118.74252440766766"/><line stroke-width="1" stroke="gray" class="link" style="opacity: 0.5;" x1="-118.48384280358324" y1="185.0393651989099" x2="-92.96048723250559" y2="195.50341387263117"/><line stroke-width="1" stroke="gray" class="link" style="opacity: 0.5;" x1="-210.83812287714787" y1="167.71495714721016" x2="-164.12996394064697" y2="231.87557697227624"/><line stroke-width="1" stroke="gray" class="link" style="opacity: 0.5;" x1="-210.83812287714787" y1="167.71495714721016" x2="-229.9861123520786" y2="88.74367748413958"/><line stroke-width="1" stroke="gray" class="link" style="opacity: 0.5;" x1="-210.83812287714787" y1="167.71495714721016" x2="-252.3981605859603" y2="152.6015943134698"/><line stroke-width="1" stroke="gray" class="link" style="opacity: 0.5;" x1="-338.09732987737976" y1="241.1619205644212" x2="-314.7621390066089" y2="236.02367944513628"/><line stroke-width="1" stroke="gray" class="link" style="opacity: 0.5;" x1="-321.07479509036693" y1="93.4661755187117" x2="-321.855665312398" y2="63.22866170387407"/><line stroke-width="1" stroke="gray" class="link" style="opacity: 0.5;" x1="-321.07479509036693" y1="93.4661755187117" x2="-297.67318034506565" y2="79.12788763734112"/><line stroke-width="1" stroke="gray" class="link" style="opacity: 0.5;" x1="-321.07479509036693" y1="93.4661755187117" x2="-252.3981605859603" y2="152.6015943134698"/><line stroke-width="1" stroke="gray" class="link" style="opacity: 0.5;" x1="-226.50245934880098" y1="194.54967078545434" x2="-241.59191242862144" y2="205.42151304360686"/><line stroke-width="1" stroke="gray" class="link" style="opacity: 0.5;" x1="-226.50245934880098" y1="194.54967078545434" x2="-134.54600690944378" y2="167.5272076168195"/><line stroke-width="1" stroke="gray" class="link" style="opacity: 0.5;" x1="-226.50245934880098" y1="194.54967078545434" x2="-164.12996394064697" y2="231.87557697227624"/><line stroke-width="1" stroke="gray" class="link" style="opacity: 0.5;" x1="-226.50245934880098" y1="194.54967078545434" x2="-316.52166006415405" y2="144.8579849437095"/><line stroke-width="1" stroke="gray" class="link" style="opacity: 0.5;" x1="-226.50245934880098" y1="194.54967078545434" x2="-265.97091991158453" y2="215.6404129785823"/><line stroke-width="1" stroke="gray" class="link" style="opacity: 0.5;" x1="-343.1573508895955" y1="43.76511874182697" x2="-321.855665312398" y2="63.22866170387407"/><line stroke-width="1" stroke="gray" class="link" style="opacity: 0.5;" x1="-161.8220697474869" y1="184.6728975229526" x2="-178.13499651425943" y2="98.92759593677987"/><line stroke-width="1" stroke="gray" class="link" style="opacity: 0.5;" x1="-161.8220697474869" y1="184.6728975229526" x2="-134.54600690944378" y2="167.5272076168195"/><line stroke-width="1" stroke="gray" class="link" style="opacity: 0.5;" x1="-161.8220697474869" y1="184.6728975229526" x2="-194.65217234770074" y2="253.31069750761904"/><line stroke-width="1" stroke="gray" class="link" style="opacity: 0.5;" x1="-101.71200556682624" y1="65.35169668070472" x2="-178.13499651425943" y2="98.92759593677987"/><line stroke-width="1" stroke="gray" class="link" style="opacity: 0.5;" x1="-101.71200556682624" y1="65.35169668070472" x2="-76.4875876671027" y2="88.37732366747167"/><line stroke-width="1" stroke="gray" class="link" style="opacity: 0.5;" x1="-101.71200556682624" y1="65.35169668070472" x2="-94.2148736585414" y2="90.88217478172767"/><line stroke-width="1" stroke="gray" class="link" style="opacity: 0.5;" x1="-263.45516089830056" y1="114.60336240686917" x2="-213.39119952123846" y2="144.71484231695808"/><line stroke-width="1" stroke="gray" class="link" style="opacity: 0.5;" x1="-263.45516089830056" y1="114.60336240686917" x2="-178.13499651425943" y2="98.92759593677987"/><line stroke-width="1" stroke="gray" class="link" style="opacity: 0.5;" x1="-263.45516089830056" y1="114.60336240686917" x2="-221.11083188998208" y2="118.74252440766766"/><line stroke-width="1" stroke="gray" class="link" style="opacity: 0.5;" x1="-263.45516089830056" y1="114.60336240686917" x2="-229.9861123520786" y2="88.74367748413958"/><line stroke-width="1" stroke="gray" class="link" style="opacity: 0.5;" x1="-263.45516089830056" y1="114.60336240686917" x2="-321.855665312398" y2="63.22866170387407"/><line stroke-width="1" stroke="gray" class="link" style="opacity: 0.5;" x1="-263.45516089830056" y1="114.60336240686917" x2="-297.67318034506565" y2="79.12788763734112"/><line stroke-width="1" stroke="gray" class="link" style="opacity: 0.5;" x1="-263.45516089830056" y1="114.60336240686917" x2="-265.97091991158453" y2="215.6404129785823"/><line stroke-width="1" stroke="gray" class="link" style="opacity: 0.5;" x1="-263.45516089830056" y1="114.60336240686917" x2="-252.3981605859603" y2="152.6015943134698"/><line stroke-width="1" stroke="gray" class="link" style="opacity: 0.5;" x1="-263.45516089830056" y1="114.60336240686917" x2="-294.0298613828359" y2="137.64876130915962"/><line stroke-width="1" stroke="gray" class="link" style="opacity: 0.5;" x1="-140.61236258392856" y1="355.8561459434806" x2="-114.53148170113802" y2="339.87931127082754"/><line stroke-width="1" stroke="gray" class="link" style="opacity: 0.5;" x1="-140.61236258392856" y1="355.8561459434806" x2="-180.7094925013391" y2="305.39173341404"/><line stroke-width="1" stroke="gray" class="link" style="opacity: 0.5;" x1="-140.61236258392856" y1="355.8561459434806" x2="-128.79448340521202" y2="377.29620416991975"/><line stroke-width="1" stroke="gray" class="link" style="opacity: 0.5;" x1="-298.719581556331" y1="174.47110203143635" x2="-316.52166006415405" y2="144.8579849437095"/><line stroke-width="1" stroke="gray" class="link" style="opacity: 0.5;" x1="-298.719581556331" y1="174.47110203143635" x2="-314.7621390066089" y2="236.02367944513628"/><line stroke-width="1" stroke="gray" class="link" style="opacity: 0.5;" x1="-298.719581556331" y1="174.47110203143635" x2="-174.76359728194174" y2="146.23242558389208"/><line stroke-width="1" stroke="gray" class="link" style="opacity: 0.5;" x1="-298.719581556331" y1="174.47110203143635" x2="-294.0298613828359" y2="137.64876130915962"/><line stroke-width="1" stroke="gray" class="link" style="opacity: 0.5;" x1="-197.65964353337444" y1="217.47107123746096" x2="-213.39119952123846" y2="144.71484231695808"/><line stroke-width="1" stroke="gray" class="link" style="opacity: 0.5;" x1="-197.65964353337444" y1="217.47107123746096" x2="-118.48235334128226" y2="219.81535252709813"/><line stroke-width="1" stroke="gray" class="link" style="opacity: 0.5;" x1="-197.65964353337444" y1="217.47107123746096" x2="-209.53962549535157" y2="76.46638709794631"/><line stroke-width="1" stroke="gray" class="link" style="opacity: 0.5;" x1="-197.65964353337444" y1="217.47107123746096" x2="-164.12996394064697" y2="231.87557697227624"/><line stroke-width="1" stroke="gray" class="link" style="opacity: 0.5;" x1="-197.65964353337444" y1="217.47107123746096" x2="-265.97091991158453" y2="215.6404129785823"/><line stroke-width="1" stroke="gray" class="link" style="opacity: 0.5;" x1="-197.65964353337444" y1="217.47107123746096" x2="-180.7094925013391" y2="305.39173341404"/><line stroke-width="1" stroke="gray" class="link" style="opacity: 0.5;" x1="-197.65964353337444" y1="217.47107123746096" x2="-225.15470992608982" y2="274.8944560645504"/><line stroke-width="1" stroke="gray" class="link" style="opacity: 0.5;" x1="-274.2222254638164" y1="90.5078693680788" x2="-275.00345329574117" y2="41.85545733735175"/><line stroke-width="1" stroke="gray" class="link" style="opacity: 0.5;" x1="-274.2222254638164" y1="90.5078693680788" x2="-209.53962549535157" y2="76.46638709794631"/><line stroke-width="1" stroke="gray" class="link" style="opacity: 0.5;" x1="-274.2222254638164" y1="90.5078693680788" x2="-221.11083188998208" y2="118.74252440766766"/><line stroke-width="1" stroke="gray" class="link" style="opacity: 0.5;" x1="-274.2222254638164" y1="90.5078693680788" x2="-321.855665312398" y2="63.22866170387407"/><line stroke-width="1" stroke="gray" class="link" style="opacity: 0.5;" x1="-274.2222254638164" y1="90.5078693680788" x2="-316.52166006415405" y2="144.8579849437095"/><line stroke-width="1" stroke="gray" class="link" style="opacity: 0.5;" x1="-274.2222254638164" y1="90.5078693680788" x2="-297.67318034506565" y2="79.12788763734112"/><line stroke-width="1" stroke="gray" class="link" style="opacity: 0.5;" x1="-274.2222254638164" y1="90.5078693680788" x2="-194.65217234770074" y2="253.31069750761904"/><line stroke-width="1" stroke="gray" class="link" style="opacity: 0.5;" x1="-239.89799453453534" y1="34.63586601910026" x2="-275.00345329574117" y2="41.85545733735175"/><line stroke-width="1" stroke="gray" class="link" style="opacity: 0.5;" x1="-239.89799453453534" y1="34.63586601910026" x2="-209.53962549535157" y2="76.46638709794631"/><line stroke-width="1" stroke="gray" class="link" style="opacity: 0.5;" x1="-259.4572211188517" y1="251.42081711680325" x2="-265.97091991158453" y2="215.6404129785823"/><line stroke-width="1" stroke="gray" class="link" style="opacity: 0.5;" x1="-259.4572211188517" y1="251.42081711680325" x2="-225.15470992608982" y2="274.8944560645504"/><line stroke-width="1" stroke="gray" class="link" style="opacity: 0.5;" x1="-182.37681193044457" y1="53.45543512752441" x2="-209.53962549535157" y2="76.46638709794631"/><line stroke-width="1" stroke="gray" class="link" style="opacity: 0.5;" x1="-182.37681193044457" y1="53.45543512752441" x2="-229.9861123520786" y2="88.74367748413958"/><line stroke-width="1" stroke="gray" class="link" style="opacity: 0.5;" x1="-182.37681193044457" y1="53.45543512752441" x2="-160.5976637224023" y2="15.643984466331386"/><line stroke-width="1" stroke="gray" class="link" style="opacity: 0.5;" x1="-182.37681193044457" y1="53.45543512752441" x2="-174.76359728194174" y2="146.23242558389208"/><line stroke-width="1" stroke="gray" class="link" style="opacity: 0.5;" x1="-145.04578403361953" y1="-1.7715817950153046" x2="-160.5976637224023" y2="15.643984466331386"/><line stroke-width="1" stroke="gray" class="link" style="opacity: 0.5;" x1="-148.0988046534348" y1="257.1974548578568" x2="-118.48235334128226" y2="219.81535252709813"/><line stroke-width="1" stroke="gray" class="link" style="opacity: 0.5;" x1="-148.0988046534348" y1="257.1974548578568" x2="-164.12996394064697" y2="231.87557697227624"/><line stroke-width="1" stroke="gray" class="link" style="opacity: 0.5;" x1="-148.0988046534348" y1="257.1974548578568" x2="-194.65217234770074" y2="253.31069750761904"/><line stroke-width="1" stroke="gray" class="link" style="opacity: 0.5;" x1="-163.24624494824053" y1="118.4622737441966" x2="-213.39119952123846" y2="144.71484231695808"/><line stroke-width="1" stroke="gray" class="link" style="opacity: 0.5;" x1="-163.24624494824053" y1="118.4622737441966" x2="-134.54600690944378" y2="167.5272076168195"/><line stroke-width="1" stroke="gray" class="link" style="opacity: 0.5;" x1="-163.24624494824053" y1="118.4622737441966" x2="-209.53962549535157" y2="76.46638709794631"/><line stroke-width="1" stroke="gray" class="link" style="opacity: 0.5;" x1="-163.24624494824053" y1="118.4622737441966" x2="-174.76359728194174" y2="146.23242558389208"/><line stroke-width="1" stroke="gray" class="link" style="opacity: 0.5;" x1="-130.07828333716608" y1="298.18629395169853" x2="-114.53148170113802" y2="339.87931127082754"/><line stroke-width="1" stroke="gray" class="link" style="opacity: 0.5;" x1="-130.07828333716608" y1="298.18629395169853" x2="-164.12996394064697" y2="231.87557697227624"/><line stroke-width="1" stroke="gray" class="link" style="opacity: 0.5;" x1="-130.07828333716608" y1="298.18629395169853" x2="-97.66515911036643" y2="286.1629238065395"/><line stroke-width="1" stroke="gray" class="link" style="opacity: 0.5;" x1="-130.07828333716608" y1="298.18629395169853" x2="-194.65217234770074" y2="253.31069750761904"/><line stroke-width="1" stroke="gray" class="link" style="opacity: 0.5;" x1="-265.6374201236298" y1="270.11182376097634" x2="-252.03815354426382" y2="310.26133157440813"/><line stroke-width="1" stroke="gray" class="link" style="opacity: 0.5;" x1="-265.6374201236298" y1="270.11182376097634" x2="-265.97091991158453" y2="215.6404129785823"/><line stroke-width="1" stroke="gray" class="link" style="opacity: 0.5;" x1="-265.6374201236298" y1="270.11182376097634" x2="-314.7621390066089" y2="236.02367944513628"/><line stroke-width="1" stroke="gray" class="link" style="opacity: 0.5;" x1="-265.6374201236298" y1="270.11182376097634" x2="-180.7094925013391" y2="305.39173341404"/><line stroke-width="1" stroke="gray" class="link" style="opacity: 0.5;" x1="-265.6374201236298" y1="270.11182376097634" x2="-194.65217234770074" y2="253.31069750761904"/><line stroke-width="1" stroke="gray" class="link" style="opacity: 0.5;" x1="-265.6374201236298" y1="270.11182376097634" x2="-252.3981605859603" y2="152.6015943134698"/><line stroke-width="1" stroke="gray" class="link" style="opacity: 0.5;" x1="-345.0400196659244" y1="140.89901260436756" x2="-316.52166006415405" y2="144.8579849437095"/><line stroke-width="1" stroke="gray" class="link" style="opacity: 0.5;" x1="52.07811044259586" y1="175.50535007434516" x2="114.83799380417862" y2="222.6994695205136"/><line stroke-width="1" stroke="gray" class="link" style="opacity: 0.5;" x1="52.07811044259586" y1="175.50535007434516" x2="49.65919716155101" y2="101.4741445244527"/><line stroke-width="1" stroke="gray" class="link" style="opacity: 0.5;" x1="52.07811044259586" y1="175.50535007434516" x2="46.7719160356564" y2="210.04963438684635"/><line stroke-width="1" stroke="gray" class="link" style="opacity: 0.5;" x1="135.859597937303" y1="183.6019695524248" x2="216.68604518288382" y2="177.79843865631702"/><line stroke-width="1" stroke="gray" class="link" style="opacity: 0.5;" x1="135.859597937303" y1="183.6019695524248" x2="84.90121604737199" y2="118.29048183562003"/><line stroke-width="1" stroke="gray" class="link" style="opacity: 0.5;" x1="135.859597937303" y1="183.6019695524248" x2="123.61708102388542" y2="276.6670389279931"/><line stroke-width="1" stroke="gray" class="link" style="opacity: 0.5;" x1="155.7530330536511" y1="233.81848184290854" x2="216.68604518288382" y2="177.79843865631702"/><line stroke-width="1" stroke="gray" class="link" style="opacity: 0.5;" x1="155.7530330536511" y1="233.81848184290854" x2="185.15198378360665" y2="250.09587760750793"/><line stroke-width="1" stroke="gray" class="link" style="opacity: 0.5;" x1="155.7530330536511" y1="233.81848184290854" x2="71.4952807425782" y2="268.25772173496887"/><line stroke-width="1" stroke="gray" class="link" style="opacity: 0.5;" x1="219.66664148995017" y1="91.96937284286345" x2="181.99437197599485" y2="63.1926454308785"/><line stroke-width="1" stroke="gray" class="link" style="opacity: 0.5;" x1="219.66664148995017" y1="91.96937284286345" x2="291.0366214078027" y2="138.92907444574038"/><line stroke-width="1" stroke="gray" class="link" style="opacity: 0.5;" x1="219.66664148995017" y1="91.96937284286345" x2="183.1226164839561" y2="140.1303971295318"/><line stroke-width="1" stroke="gray" class="link" style="opacity: 0.5;" x1="109.52642742310753" y1="251.08239449146066" x2="115.72521754547087" y2="307.1252403822953"/><line stroke-width="1" stroke="gray" class="link" style="opacity: 0.5;" x1="109.52642742310753" y1="251.08239449146066" x2="114.83799380417862" y2="222.6994695205136"/><line stroke-width="1" stroke="gray" class="link" style="opacity: 0.5;" x1="109.52642742310753" y1="251.08239449146066" x2="183.1226164839561" y2="140.1303971295318"/><line stroke-width="1" stroke="gray" class="link" style="opacity: 0.5;" x1="109.52642742310753" y1="251.08239449146066" x2="152.6387423311985" y2="269.8381579438016"/><line stroke-width="1" stroke="gray" class="link" style="opacity: 0.5;" x1="109.52642742310753" y1="251.08239449146066" x2="71.4952807425782" y2="268.25772173496887"/><line stroke-width="1" stroke="gray" class="link" style="opacity: 0.5;" x1="282.81560163700965" y1="117.75594335529809" x2="306.7024534196991" y2="91.77914929378778"/><line stroke-width="1" stroke="gray" class="link" style="opacity: 0.5;" x1="282.81560163700965" y1="117.75594335529809" x2="216.68604518288382" y2="177.79843865631702"/><line stroke-width="1" stroke="gray" class="link" style="opacity: 0.5;" x1="282.81560163700965" y1="117.75594335529809" x2="300.5385251797586" y2="75.06016083645001"/><line stroke-width="1" stroke="gray" class="link" style="opacity: 0.5;" x1="282.81560163700965" y1="117.75594335529809" x2="291.0366214078027" y2="138.92907444574038"/><line stroke-width="1" stroke="gray" class="link" style="opacity: 0.5;" x1="282.81560163700965" y1="117.75594335529809" x2="268.3315360431893" y2="168.76438593183394"/><line stroke-width="1" stroke="gray" class="link" style="opacity: 0.5;" x1="282.81560163700965" y1="117.75594335529809" x2="234.5603569302331" y2="130.20701204454258"/><line stroke-width="1" stroke="gray" class="link" style="opacity: 0.5;" x1="153.47442683613193" y1="293.5287307284927" x2="152.6387423311985" y2="269.8381579438016"/><line stroke-width="1" stroke="gray" class="link" style="opacity: 0.5;" x1="62.59168998856265" y1="69.52578060935961" x2="84.90121604737199" y2="118.29048183562003"/><line stroke-width="1" stroke="gray" class="link" style="opacity: 0.5;" x1="62.59168998856265" y1="69.52578060935961" x2="97.60663525148242" y2="55.32906210472518"/><line stroke-width="1" stroke="gray" class="link" style="opacity: 0.5;" x1="62.59168998856265" y1="69.52578060935961" x2="49.65919716155101" y2="101.4741445244527"/><line stroke-width="1" stroke="gray" class="link" style="opacity: 0.5;" x1="278.06983446228793" y1="75.92729741123735" x2="306.7024534196991" y2="91.77914929378778"/><line stroke-width="1" stroke="gray" class="link" style="opacity: 0.5;" x1="278.06983446228793" y1="75.92729741123735" x2="300.5385251797586" y2="75.06016083645001"/><line stroke-width="1" stroke="gray" class="link" style="opacity: 0.5;" x1="278.06983446228793" y1="75.92729741123735" x2="309.2413610440438" y2="173.2622091497933"/><line stroke-width="1" stroke="gray" class="link" style="opacity: 0.5;" x1="278.06983446228793" y1="75.92729741123735" x2="181.99437197599485" y2="63.1926454308785"/><line stroke-width="1" stroke="gray" class="link" style="opacity: 0.5;" x1="39.26790133471563" y1="250.9692169883793" x2="46.7719160356564" y2="210.04963438684635"/><line stroke-width="1" stroke="gray" class="link" style="opacity: 0.5;" x1="39.26790133471563" y1="250.9692169883793" x2="71.4952807425782" y2="268.25772173496887"/><line stroke-width="1" stroke="gray" class="link" style="opacity: 0.5;" x1="228.16046994145796" y1="219.49367487254207" x2="183.1226164839561" y2="140.1303971295318"/><line stroke-width="1" stroke="gray" class="link" style="opacity: 0.5;" x1="228.16046994145796" y1="219.49367487254207" x2="215.017326652321" y2="273.10326922455323"/><line stroke-width="1" stroke="gray" class="link" style="opacity: 0.5;" x1="228.16046994145796" y1="219.49367487254207" x2="185.15198378360665" y2="250.09587760750793"/><line stroke-width="1" stroke="gray" class="link" style="opacity: 0.5;" x1="228.16046994145796" y1="219.49367487254207" x2="268.3315360431893" y2="168.76438593183394"/><line stroke-width="1" stroke="gray" class="link" style="opacity: 0.5;" x1="87.86665605725469" y1="289.7357516881007" x2="115.72521754547087" y2="307.1252403822953"/><line stroke-width="1" stroke="gray" class="link" style="opacity: 0.5;" x1="87.86665605725469" y1="289.7357516881007" x2="97.78449612863459" y2="333.3499965154378"/><line stroke-width="1" stroke="gray" class="link" style="opacity: 0.5;" x1="87.86665605725469" y1="289.7357516881007" x2="152.6387423311985" y2="269.8381579438016"/><line stroke-width="1" stroke="gray" class="link" style="opacity: 0.5;" x1="87.86665605725469" y1="289.7357516881007" x2="123.61708102388542" y2="276.6670389279931"/><line stroke-width="1" stroke="gray" class="link" style="opacity: 0.5;" x1="87.86665605725469" y1="289.7357516881007" x2="92.15231357310219" y2="157.19383727631796"/><line stroke-width="1" stroke="gray" class="link" style="opacity: 0.5;" x1="87.86665605725469" y1="289.7357516881007" x2="71.4952807425782" y2="268.25772173496887"/><line stroke-width="1" stroke="gray" class="link" style="opacity: 0.5;" x1="328.07778071832587" y1="149.299783400007" x2="309.2413610440438" y2="173.2622091497933"/><line stroke-width="1" stroke="gray" class="link" style="opacity: 0.5;" x1="328.07778071832587" y1="149.299783400007" x2="291.0366214078027" y2="138.92907444574038"/><line stroke-width="1" stroke="gray" class="link" style="opacity: 0.5;" x1="244.18802390375603" y1="110.46490988620944" x2="234.5603569302331" y2="130.20701204454258"/><line stroke-width="1" stroke="gray" class="link" style="opacity: 0.5;" x1="296.0216423942672" y1="228.16986229250486" x2="309.2413610440438" y2="173.2622091497933"/><line stroke-width="1" stroke="gray" class="link" style="opacity: 0.5;" x1="296.0216423942672" y1="228.16986229250486" x2="242.8611829733591" y2="285.57897237284783"/><line stroke-width="1" stroke="gray" class="link" style="opacity: 0.5;" x1="149.5526067606346" y1="321.3860708010119" x2="97.78449612863459" y2="333.3499965154378"/><line stroke-width="1" stroke="gray" class="link" style="opacity: 0.5;" x1="149.5526067606346" y1="321.3860708010119" x2="185.15198378360665" y2="250.09587760750793"/><line stroke-width="1" stroke="gray" class="link" style="opacity: 0.5;" x1="171.8290219868912" y1="172.03424472490582" x2="165.439839757662" y2="155.1116072234032"/><line stroke-width="1" stroke="gray" class="link" style="opacity: 0.5;" x1="171.8290219868912" y1="172.03424472490582" x2="114.83799380417862" y2="222.6994695205136"/><line stroke-width="1" stroke="gray" class="link" style="opacity: 0.5;" x1="171.8290219868912" y1="172.03424472490582" x2="183.1226164839561" y2="140.1303971295318"/><line stroke-width="1" stroke="gray" class="link" style="opacity: 0.5;" x1="171.8290219868912" y1="172.03424472490582" x2="135.2024374251152" y2="129.54318235706498"/><line stroke-width="1" stroke="gray" class="link" style="opacity: 0.5;" x1="171.8290219868912" y1="172.03424472490582" x2="185.15198378360665" y2="250.09587760750793"/><line stroke-width="1" stroke="gray" class="link" style="opacity: 0.5;" x1="171.8290219868912" y1="172.03424472490582" x2="234.5603569302331" y2="130.20701204454258"/><line stroke-width="1" stroke="gray" class="link" style="opacity: 0.5;" x1="103.54852103556603" y1="86.3387886607409" x2="181.99437197599485" y2="63.1926454308785"/><line stroke-width="1" stroke="gray" class="link" style="opacity: 0.5;" x1="103.54852103556603" y1="86.3387886607409" x2="92.15231357310219" y2="157.19383727631796"/><line stroke-width="1" stroke="gray" class="link" style="opacity: 0.5;" x1="103.54852103556603" y1="86.3387886607409" x2="49.65919716155101" y2="101.4741445244527"/><line stroke-width="1" stroke="gray" class="link" style="opacity: 0.5;" x1="247.17135962593562" y1="199.49704342865402" x2="216.68604518288382" y2="177.79843865631702"/><line stroke-width="1" stroke="gray" class="link" style="opacity: 0.5;" x1="247.17135962593562" y1="199.49704342865402" x2="309.2413610440438" y2="173.2622091497933"/><line stroke-width="1" stroke="gray" class="link" style="opacity: 0.5;" x1="247.17135962593562" y1="199.49704342865402" x2="291.0366214078027" y2="138.92907444574038"/><line stroke-width="1" stroke="gray" class="link" style="opacity: 0.5;" x1="247.17135962593562" y1="199.49704342865402" x2="152.6387423311985" y2="269.8381579438016"/><line stroke-width="1" stroke="gray" class="link" style="opacity: 0.5;" x1="247.17135962593562" y1="199.49704342865402" x2="188.44235898431927" y2="195.83101032877"/><line stroke-width="1" stroke="gray" class="link" style="opacity: 0.5;" x1="333.79653535992486" y1="298.80538416749494" x2="345.89256571605966" y2="284.0580651522476"/><line stroke-width="1" stroke="gray" class="link" style="opacity: 0.5;" x1="110.53546541161255" y1="180.02215990600183" x2="135.2024374251152" y2="129.54318235706498"/><line stroke-width="1" stroke="gray" class="link" style="opacity: 0.5;" x1="110.53546541161255" y1="180.02215990600183" x2="188.44235898431927" y2="195.83101032877"/><line stroke-width="1" stroke="gray" class="link" style="opacity: 0.5;" x1="110.53546541161255" y1="180.02215990600183" x2="46.7719160356564" y2="210.04963438684635"/><line stroke-width="1" stroke="gray" class="link" style="opacity: 0.5;" x1="135.26723824113208" y1="87.68962533767733" x2="181.99437197599485" y2="63.1926454308785"/><line stroke-width="1" stroke="gray" class="link" style="opacity: 0.5;" x1="135.26723824113208" y1="87.68962533767733" x2="183.1226164839561" y2="140.1303971295318"/><line stroke-width="1" stroke="gray" class="link" style="opacity: 0.5;" x1="135.26723824113208" y1="87.68962533767733" x2="135.2024374251152" y2="129.54318235706498"/><line stroke-width="1" stroke="gray" class="link" style="opacity: 0.5;" x1="135.26723824113208" y1="87.68962533767733" x2="92.15231357310219" y2="157.19383727631796"/><line stroke-width="1" stroke="gray" class="link" style="opacity: 0.5;" x1="135.26723824113208" y1="87.68962533767733" x2="97.60663525148242" y2="55.32906210472518"/><line stroke-width="1" stroke="gray" class="link" style="opacity: 0.5;" x1="179.80630755359664" y1="298.10403710713075" x2="115.72521754547087" y2="307.1252403822953"/><line stroke-width="1" stroke="gray" class="link" style="opacity: 0.5;" x1="179.80630755359664" y1="298.10403710713075" x2="242.8611829733591" y2="285.57897237284783"/><line stroke-width="1" stroke="gray" class="link" style="opacity: 0.5;" x1="179.80630755359664" y1="298.10403710713075" x2="114.83799380417862" y2="222.6994695205136"/><line stroke-width="1" stroke="gray" class="link" style="opacity: 0.5;" x1="179.80630755359664" y1="298.10403710713075" x2="215.017326652321" y2="273.10326922455323"/><line stroke-width="1" stroke="gray" class="link" style="opacity: 0.5;" x1="179.80630755359664" y1="298.10403710713075" x2="123.61708102388542" y2="276.6670389279931"/><line stroke-width="1" stroke="gray" class="link" style="opacity: 0.5;" x1="357.3603478382024" y1="268.81429919097155" x2="345.89256571605966" y2="284.0580651522476"/><line stroke-width="1" stroke="gray" class="link" style="opacity: 0.5;" x1="-249.06618677984687" y1="-232.24592519259204" x2="-191.25923514931156" y2="-272.8811182878993"/><line stroke-width="1" stroke="gray" class="link" style="opacity: 0.5;" x1="-249.06618677984687" y1="-232.24592519259204" x2="-292.0600157637779" y2="-220.82382928285796"/><line stroke-width="1" stroke="gray" class="link" style="opacity: 0.5;" x1="-249.06618677984687" y1="-232.24592519259204" x2="-186.65231717561832" y2="-168.42393355077587"/><line stroke-width="1" stroke="gray" class="link" style="opacity: 0.5;" x1="-165.7889837469541" y1="-276.92430048673" x2="-208.24695667124604" y2="-226.37930941058596"/><line stroke-width="1" stroke="gray" class="link" style="opacity: 0.5;" x1="-165.7889837469541" y1="-276.92430048673" x2="-62.50710922127986" y2="-264.98502489837085"/><line stroke-width="1" stroke="gray" class="link" style="opacity: 0.5;" x1="-165.7889837469541" y1="-276.92430048673" x2="-230.1306481801501" y2="-261.5906280150614"/><line stroke-width="1" stroke="gray" class="link" style="opacity: 0.5;" x1="-165.7889837469541" y1="-276.92430048673" x2="-138.53624424458286" y2="-250.70737921982484"/><line stroke-width="1" stroke="gray" class="link" style="opacity: 0.5;" x1="-165.7889837469541" y1="-276.92430048673" x2="-172.58239887285475" y2="-310.5899717895503"/><line stroke-width="1" stroke="gray" class="link" style="opacity: 0.5;" x1="-247.82719766078492" y1="-137.34701618213313" x2="-198.425566592972" y2="-106.70314940068229"/><line stroke-width="1" stroke="gray" class="link" style="opacity: 0.5;" x1="-247.82719766078492" y1="-137.34701618213313" x2="-288.8948748429701" y2="-131.26434262362255"/><line stroke-width="1" stroke="gray" class="link" style="opacity: 0.5;" x1="-247.82719766078492" y1="-137.34701618213313" x2="-246.01651308826516" y2="-181.11526125923422"/><line stroke-width="1" stroke="gray" class="link" style="opacity: 0.5;" x1="-247.82719766078492" y1="-137.34701618213313" x2="-217.44857170234104" y2="-153.40388306579442"/><line stroke-width="1" stroke="gray" class="link" style="opacity: 0.5;" x1="-247.82719766078492" y1="-137.34701618213313" x2="-208.24695667124604" y2="-226.37930941058596"/><line stroke-width="1" stroke="gray" class="link" style="opacity: 0.5;" x1="-330.69219474581905" y1="-140.0911430751936" x2="-288.8948748429701" y2="-131.26434262362255"/><line stroke-width="1" stroke="gray" class="link" style="opacity: 0.5;" x1="-330.69219474581905" y1="-140.0911430751936" x2="-318.95177473781" y2="-175.1493626843266"/><line stroke-width="1" stroke="gray" class="link" style="opacity: 0.5;" x1="-169.64441682830645" y1="-152.08685609571404" x2="-198.425566592972" y2="-106.70314940068229"/><line stroke-width="1" stroke="gray" class="link" style="opacity: 0.5;" x1="-169.64441682830645" y1="-152.08685609571404" x2="-217.44857170234104" y2="-153.40388306579442"/><line stroke-width="1" stroke="gray" class="link" style="opacity: 0.5;" x1="-169.64441682830645" y1="-152.08685609571404" x2="-186.65231717561832" y2="-168.42393355077587"/><line stroke-width="1" stroke="gray" class="link" style="opacity: 0.5;" x1="-169.64441682830645" y1="-152.08685609571404" x2="-115.80206173475354" y2="-232.15987512634146"/><line stroke-width="1" stroke="gray" class="link" style="opacity: 0.5;" x1="-169.64441682830645" y1="-152.08685609571404" x2="-138.53624424458286" y2="-250.70737921982484"/><line stroke-width="1" stroke="gray" class="link" style="opacity: 0.5;" x1="-38.49288132293391" y1="-146.58703308642285" x2="-57.18672349769943" y2="-168.4320274923489"/><line stroke-width="1" stroke="gray" class="link" style="opacity: 0.5;" x1="-42.70142331230836" y1="-309.8120498116064" x2="-78.34267819181082" y2="-290.98611270974686"/><line stroke-width="1" stroke="gray" class="link" style="opacity: 0.5;" x1="-42.70142331230836" y1="-309.8120498116064" x2="-99.20738833249733" y2="-262.2169515419125"/><line stroke-width="1" stroke="gray" class="link" style="opacity: 0.5;" x1="-42.70142331230836" y1="-309.8120498116064" x2="-22.180831017251574" y2="-326.02942228647146"/><line stroke-width="1" stroke="gray" class="link" style="opacity: 0.5;" x1="-30.68743844544616" y1="-164.16283014503114" x2="-57.18672349769943" y2="-168.4320274923489"/><line stroke-width="1" stroke="gray" class="link" style="opacity: 0.5;" x1="-162.3701734087558" y1="-232.34294630982623" x2="-99.20738833249733" y2="-262.2169515419125"/><line stroke-width="1" stroke="gray" class="link" style="opacity: 0.5;" x1="-162.3701734087558" y1="-232.34294630982623" x2="-246.01651308826516" y2="-181.11526125923422"/><line stroke-width="1" stroke="gray" class="link" style="opacity: 0.5;" x1="-162.3701734087558" y1="-232.34294630982623" x2="-57.18672349769943" y2="-168.4320274923489"/><line stroke-width="1" stroke="gray" class="link" style="opacity: 0.5;" x1="-162.3701734087558" y1="-232.34294630982623" x2="-191.25923514931156" y2="-272.8811182878993"/><line stroke-width="1" stroke="gray" class="link" style="opacity: 0.5;" x1="-162.3701734087558" y1="-232.34294630982623" x2="-172.58239887285475" y2="-310.5899717895503"/><line stroke-width="1" stroke="gray" class="link" style="opacity: 0.5;" x1="-224.71910623641136" y1="-299.8220907592874" x2="-151.0865712550068" y2="-347.98559474291784"/><line stroke-width="1" stroke="gray" class="link" style="opacity: 0.5;" x1="-224.71910623641136" y1="-299.8220907592874" x2="-230.1306481801501" y2="-261.5906280150614"/><line stroke-width="1" stroke="gray" class="link" style="opacity: 0.5;" x1="-224.71910623641136" y1="-299.8220907592874" x2="-228.79479326471127" y2="-214.27462538359157"/><line stroke-width="1" stroke="gray" class="link" style="opacity: 0.5;" x1="-82.25182656242376" y1="-187.32479141857178" x2="-111.77444699792902" y2="-157.15543584433757"/><line stroke-width="1" stroke="gray" class="link" style="opacity: 0.5;" x1="-82.25182656242376" y1="-187.32479141857178" x2="-62.50710922127986" y2="-264.98502489837085"/><line stroke-width="1" stroke="gray" class="link" style="opacity: 0.5;" x1="-82.25182656242376" y1="-187.32479141857178" x2="-122.44308060884698" y2="-132.64149679008324"/><line stroke-width="1" stroke="gray" class="link" style="opacity: 0.5;" x1="-82.25182656242376" y1="-187.32479141857178" x2="-115.80206173475354" y2="-232.15987512634146"/><line stroke-width="1" stroke="gray" class="link" style="opacity: 0.5;" x1="-135.18017393359577" y1="-202.89616445936244" x2="-78.34267819181082" y2="-290.98611270974686"/><line stroke-width="1" stroke="gray" class="link" style="opacity: 0.5;" x1="-135.18017393359577" y1="-202.89616445936244" x2="-76.93421838003799" y2="-236.27710073686268"/><line stroke-width="1" stroke="gray" class="link" style="opacity: 0.5;" x1="-135.18017393359577" y1="-202.89616445936244" x2="-217.44857170234104" y2="-153.40388306579442"/><line stroke-width="1" stroke="gray" class="link" style="opacity: 0.5;" x1="-135.18017393359577" y1="-202.89616445936244" x2="-111.77444699792902" y2="-157.15543584433757"/><line stroke-width="1" stroke="gray" class="link" style="opacity: 0.5;" x1="-135.18017393359577" y1="-202.89616445936244" x2="-230.1306481801501" y2="-261.5906280150614"/><line stroke-width="1" stroke="gray" class="link" style="opacity: 0.5;" x1="-135.18017393359577" y1="-202.89616445936244" x2="-122.44308060884698" y2="-132.64149679008324"/><line stroke-width="1" stroke="gray" class="link" style="opacity: 0.5;" x1="-135.18017393359577" y1="-202.89616445936244" x2="-138.53624424458286" y2="-250.70737921982484"/><line stroke-width="1" stroke="gray" class="link" style="opacity: 0.5;" x1="-101.98910548605495" y1="-321.6615373498809" x2="-151.0865712550068" y2="-347.98559474291784"/><line stroke-width="1" stroke="gray" class="link" style="opacity: 0.5;" x1="-101.98910548605495" y1="-321.6615373498809" x2="-78.34267819181082" y2="-290.98611270974686"/><line stroke-width="1" stroke="gray" class="link" style="opacity: 0.5;" x1="-101.98910548605495" y1="-321.6615373498809" x2="-191.25923514931156" y2="-272.8811182878993"/><line stroke-width="1" stroke="gray" class="link" style="opacity: 0.5;" x1="-101.98910548605495" y1="-321.6615373498809" x2="-62.50710922127986" y2="-264.98502489837085"/><line stroke-width="1" stroke="gray" class="link" style="opacity: 0.5;" x1="-101.98910548605495" y1="-321.6615373498809" x2="-138.53624424458286" y2="-250.70737921982484"/><line stroke-width="1" stroke="gray" class="link" style="opacity: 0.5;" x1="-101.98910548605495" y1="-321.6615373498809" x2="-121.49280454285137" y2="-341.25771086646324"/><line stroke-width="1" stroke="gray" class="link" style="opacity: 0.5;" x1="-127.14675186631713" y1="-278.9128923275379" x2="-99.20738833249733" y2="-262.2169515419125"/><line stroke-width="1" stroke="gray" class="link" style="opacity: 0.5;" x1="-127.14675186631713" y1="-278.9128923275379" x2="-76.93421838003799" y2="-236.27710073686268"/><line stroke-width="1" stroke="gray" class="link" style="opacity: 0.5;" x1="-127.14675186631713" y1="-278.9128923275379" x2="-208.24695667124604" y2="-226.37930941058596"/><line stroke-width="1" stroke="gray" class="link" style="opacity: 0.5;" x1="-127.14675186631713" y1="-278.9128923275379" x2="-191.25923514931156" y2="-272.8811182878993"/><line stroke-width="1" stroke="gray" class="link" style="opacity: 0.5;" x1="-127.14675186631713" y1="-278.9128923275379" x2="-115.80206173475354" y2="-232.15987512634146"/><line stroke-width="1" stroke="gray" class="link" style="opacity: 0.5;" x1="-127.14675186631713" y1="-278.9128923275379" x2="-138.53624424458286" y2="-250.70737921982484"/><line stroke-width="1" stroke="gray" class="link" style="opacity: 0.5;" x1="-127.14675186631713" y1="-278.9128923275379" x2="-121.49280454285137" y2="-341.25771086646324"/><line stroke-width="1" stroke="gray" class="link" style="opacity: 0.5;" x1="-307.40814031687995" y1="-113.59905138947644" x2="-288.8948748429701" y2="-131.26434262362255"/><line stroke-width="1" stroke="gray" class="link" style="opacity: 0.5;" x1="-179.61602816327584" y1="-336.1664421673078" x2="-191.25923514931156" y2="-272.8811182878993"/><line stroke-width="1" stroke="gray" class="link" style="opacity: 0.5;" x1="-179.61602816327584" y1="-336.1664421673078" x2="-121.49280454285137" y2="-341.25771086646324"/><line stroke-width="1" stroke="gray" class="link" style="opacity: 0.5;" x1="-179.61602816327584" y1="-336.1664421673078" x2="-172.58239887285475" y2="-310.5899717895503"/><line stroke-width="1" stroke="gray" class="link" style="opacity: 0.5;" x1="-33.000857261215465" y1="-220.7307341075093" x2="-57.18672349769943" y2="-168.4320274923489"/><line stroke-width="1" stroke="gray" class="link" style="opacity: 0.5;" x1="-33.000857261215465" y1="-220.7307341075093" x2="-76.93421838003799" y2="-236.27710073686268"/><line stroke-width="1" stroke="gray" class="link" style="opacity: 0.5;" x1="-33.000857261215465" y1="-220.7307341075093" x2="-62.50710922127986" y2="-264.98502489837085"/><line stroke-width="1" stroke="gray" class="link" style="opacity: 0.5;" x1="-70.98553768889428" y1="-136.23038484592448" x2="-57.18672349769943" y2="-168.4320274923489"/><line stroke-width="1" stroke="gray" class="link" style="opacity: 0.5;" x1="-70.98553768889428" y1="-136.23038484592448" x2="-111.77444699792902" y2="-157.15543584433757"/><line stroke-width="1" stroke="gray" class="link" style="opacity: 0.5;" x1="-254.15732203485683" y1="-275.28901499576517" x2="-230.1306481801501" y2="-261.5906280150614"/><line stroke-width="1" stroke="gray" class="link" style="opacity: 0.5;" x1="-274.1801160038155" y1="-199.0090309468653" x2="-318.95177473781" y2="-175.1493626843266"/><line stroke-width="1" stroke="gray" class="link" style="opacity: 0.5;" x1="-274.1801160038155" y1="-199.0090309468653" x2="-246.01651308826516" y2="-181.11526125923422"/><line stroke-width="1" stroke="gray" class="link" style="opacity: 0.5;" x1="-274.1801160038155" y1="-199.0090309468653" x2="-217.44857170234104" y2="-153.40388306579442"/><line stroke-width="1" stroke="gray" class="link" style="opacity: 0.5;" x1="-274.1801160038155" y1="-199.0090309468653" x2="-208.24695667124604" y2="-226.37930941058596"/><line stroke-width="1" stroke="gray" class="link" style="opacity: 0.5;" x1="-274.1801160038155" y1="-199.0090309468653" x2="-230.1306481801501" y2="-261.5906280150614"/><line stroke-width="1" stroke="gray" class="link" style="opacity: 0.5;" x1="-274.1801160038155" y1="-199.0090309468653" x2="-292.0600157637779" y2="-220.82382928285796"/><line stroke-width="1" stroke="gray" class="link" style="opacity: 0.5;" x1="-274.1801160038155" y1="-199.0090309468653" x2="-228.79479326471127" y2="-214.27462538359157"/><line stroke-width="1" stroke="gray" class="link" style="opacity: 0.5;" x1="-205.65534794926543" y1="-183.76388490294187" x2="-288.8948748429701" y2="-131.26434262362255"/><line stroke-width="1" stroke="gray" class="link" style="opacity: 0.5;" x1="-205.65534794926543" y1="-183.76388490294187" x2="-111.77444699792902" y2="-157.15543584433757"/><line stroke-width="1" stroke="gray" class="link" style="opacity: 0.5;" x1="-205.65534794926543" y1="-183.76388490294187" x2="-191.25923514931156" y2="-272.8811182878993"/><line stroke-width="1" stroke="gray" class="link" style="opacity: 0.5;" x1="-154.32134343824208" y1="-97.44368456124512" x2="-198.425566592972" y2="-106.70314940068229"/><line stroke-width="1" stroke="gray" class="link" style="opacity: 0.5;" x1="-154.32134343824208" y1="-97.44368456124512" x2="-122.44308060884698" y2="-132.64149679008324"/><line stroke-width="1" stroke="gray" class="link" style="opacity: 0.5;" x1="-96.75096038418005" y1="-223.0362833360117" x2="-115.80206173475354" y2="-232.15987512634146"/><line stroke-width="1" stroke="gray" class="link" style="opacity: 0.5;" x1="-139.3481985315914" y1="-173.46945291216926" x2="-99.20738833249733" y2="-262.2169515419125"/><line stroke-width="1" stroke="gray" class="link" style="opacity: 0.5;" x1="-139.3481985315914" y1="-173.46945291216926" x2="-57.18672349769943" y2="-168.4320274923489"/><line stroke-width="1" stroke="gray" class="link" style="opacity: 0.5;" x1="-139.3481985315914" y1="-173.46945291216926" x2="-186.65231717561832" y2="-168.42393355077587"/><line stroke-width="1" stroke="gray" class="link" style="opacity: 0.5;" x1="-139.3481985315914" y1="-173.46945291216926" x2="-228.79479326471127" y2="-214.27462538359157"/><line stroke-width="1" stroke="gray" class="link" style="opacity: 0.5;" x1="-139.3481985315914" y1="-173.46945291216926" x2="-122.44308060884698" y2="-132.64149679008324"/><line stroke-width="1" stroke="gray" class="link" style="opacity: 0.5;" x1="-138.00388019547984" y1="-312.8669631336076" x2="-151.0865712550068" y2="-347.98559474291784"/><line stroke-width="1" stroke="gray" class="link" style="opacity: 0.5;" x1="-138.00388019547984" y1="-312.8669631336076" x2="-115.80206173475354" y2="-232.15987512634146"/><line stroke-width="1" stroke="gray" class="link" style="opacity: 0.5;" x1="-138.00388019547984" y1="-312.8669631336076" x2="-172.58239887285475" y2="-310.5899717895503"/></g><g><circle fill="#7fc97f" r="8.13118223595458" stroke="black" cx="251.11720443469306" cy="-282.50296799365725"><title>p0: 2 connections</title></circle><circle fill="#7fc97f" r="10.531972647421808" stroke="black" cx="238.7328747307584" cy="-181.67305179477333"><title>p1: 5 connections</title></circle><circle fill="#7fc97f" r="8.13118223595458" stroke="black" cx="219.24489314889016" cy="-67.51340154285124"><title>p2: 2 connections</title></circle><circle fill="#7fc97f" r="9.059644256269406" stroke="black" cx="301.7417430861034" cy="-228.95985222870786"><title>p3: 3 connections</title></circle><circle fill="#7fc97f" r="6.921186973360886" stroke="black" cx="123.87475425542111" cy="-211.27144651147367"><title>p4: 1 connections</title></circle><circle fill="#7fc97f" r="9.842373946721771" stroke="black" cx="113.16056162951932" cy="-147.95045121582314"><title>p5: 4 connections</title></circle><circle fill="#7fc97f" r="9.059644256269406" stroke="black" cx="192.5719623929947" cy="-202.1046126449217"><title>p6: 3 connections</title></circle><circle fill="#7fc97f" r="9.842373946721771" stroke="black" cx="219.29291659975652" cy="-147.05508906427826"><title>p7: 4 connections</title></circle><circle fill="#7fc97f" r="9.059644256269406" stroke="black" cx="293.914373740278" cy="-94.48771935316346"><title>p8: 3 connections</title></circle><circle fill="#7fc97f" r="9.842373946721771" stroke="black" cx="185.69566469923757" cy="-293.2952793939813"><title>p9: 4 connections</title></circle><circle fill="#7fc97f" r="9.059644256269406" stroke="black" cx="205.57136323963127" cy="-275.77364430106365"><title>p10: 3 connections</title></circle><circle fill="#7fc97f" r="9.059644256269406" stroke="black" cx="181.81981624566694" cy="-97.62300489535014"><title>p11: 3 connections</title></circle><circle fill="#7fc97f" r="8.13118223595458" stroke="black" cx="141.90771046383583" cy="-242.78054256742288"><title>p12: 2 connections</title></circle><circle fill="#7fc97f" r="6.921186973360886" stroke="black" cx="157.22365533414592" cy="-355.46859627671773"><title>p13: 1 connections</title></circle><circle fill="#7fc97f" r="9.059644256269406" stroke="black" cx="339.623734954683" cy="-175.87397314249628"><title>p14: 3 connections</title></circle><circle fill="#7fc97f" r="9.059644256269406" stroke="black" cx="327.3061606878348" cy="-101.41169058431487"><title>p15: 3 connections</title></circle><circle fill="#7fc97f" r="8.13118223595458" stroke="black" cx="123.76048494614096" cy="-248.84776518129584"><title>p16: 2 connections</title></circle><circle fill="#7fc97f" r="9.842373946721771" stroke="black" cx="285.9535614802126" cy="-241.74837634702922"><title>p17: 4 connections</title></circle><circle fill="#7fc97f" r="4" stroke="black" cx="89.72173682175675" cy="-422.37120253646884"><title>p18: 0 connections</title></circle><circle fill="#7fc97f" r="6.921186973360886" stroke="black" cx="140.49582539469523" cy="-282.0250577337241"><title>p19: 1 connections</title></circle><circle fill="#7fc97f" r="6.921186973360886" stroke="black" cx="307.7193082272152" cy="-208.90898082601998"><title>p20: 1 connections</title></circle><circle fill="#7fc97f" r="8.13118223595458" stroke="black" cx="384.79190089967955" cy="-44.780931409612"><title>p21: 2 connections</title></circle><circle fill="#7fc97f" r="9.059644256269406" stroke="black" cx="156.74387016968035" cy="-83.99725850452275"><title>p22: 3 connections</title></circle><circle fill="#7fc97f" r="11.728734264634367" stroke="black" cx="269.32650571729266" cy="-158.66913174910496"><title>p23: 7 connections</title></circle><circle fill="#7fc97f" r="6.921186973360886" stroke="black" cx="246.99737992942352" cy="-129.71558690671694"><title>p24: 1 connections</title></circle><circle fill="#beaed4" r="9.842373946721771" stroke="black" cx="-215.21260012722342" cy="312.7097537511186"><title>p25: 4 connections</title></circle><circle fill="#beaed4" r="10.531972647421808" stroke="black" cx="-113.97499828773385" cy="245.97255399714433"><title>p26: 5 connections</title></circle><circle fill="#beaed4" r="10.531972647421808" stroke="black" cx="-109.43215910290496" cy="127.57695280795397"><title>p27: 5 connections</title></circle><circle fill="#beaed4" r="11.155417527999326" stroke="black" cx="-118.48384280358324" cy="185.0393651989099"><title>p28: 6 connections</title></circle><circle fill="#beaed4" r="9.059644256269406" stroke="black" cx="-210.83812287714787" cy="167.71495714721016"><title>p29: 3 connections</title></circle><circle fill="#beaed4" r="6.921186973360886" stroke="black" cx="-338.09732987737976" cy="241.1619205644212"><title>p30: 1 connections</title></circle><circle fill="#beaed4" r="9.059644256269406" stroke="black" cx="-321.07479509036693" cy="93.4661755187117"><title>p31: 3 connections</title></circle><circle fill="#beaed4" r="10.531972647421808" stroke="black" cx="-226.50245934880098" cy="194.54967078545434"><title>p32: 5 connections</title></circle><circle fill="#beaed4" r="6.921186973360886" stroke="black" cx="-343.1573508895955" cy="43.76511874182697"><title>p33: 1 connections</title></circle><circle fill="#beaed4" r="9.059644256269406" stroke="black" cx="-161.8220697474869" cy="184.6728975229526"><title>p34: 3 connections</title></circle><circle fill="#beaed4" r="9.059644256269406" stroke="black" cx="-101.71200556682624" cy="65.35169668070472"><title>p35: 3 connections</title></circle><circle fill="#beaed4" r="12.763560920082657" stroke="black" cx="-263.45516089830056" cy="114.60336240686917"><title>p36: 9 connections</title></circle><circle fill="#beaed4" r="9.059644256269406" stroke="black" cx="-140.61236258392856" cy="355.8561459434806"><title>p37: 3 connections</title></circle><circle fill="#beaed4" r="9.842373946721771" stroke="black" cx="-298.719581556331" cy="174.47110203143635"><title>p38: 4 connections</title></circle><circle fill="#beaed4" r="11.728734264634367" stroke="black" cx="-197.65964353337444" cy="217.47107123746096"><title>p39: 7 connections</title></circle><circle fill="#beaed4" r="11.728734264634367" stroke="black" cx="-274.2222254638164" cy="90.5078693680788"><title>p40: 7 connections</title></circle><circle fill="#beaed4" r="8.13118223595458" stroke="black" cx="-239.89799453453534" cy="34.63586601910026"><title>p41: 2 connections</title></circle><circle fill="#beaed4" r="8.13118223595458" stroke="black" cx="-259.4572211188517" cy="251.42081711680325"><title>p42: 2 connections</title></circle><circle fill="#beaed4" r="9.842373946721771" stroke="black" cx="-182.37681193044457" cy="53.45543512752441"><title>p43: 4 connections</title></circle><circle fill="#beaed4" r="6.921186973360886" stroke="black" cx="-145.04578403361953" cy="-1.7715817950153046"><title>p44: 1 connections</title></circle><circle fill="#beaed4" r="9.059644256269406" stroke="black" cx="-148.0988046534348" cy="257.1974548578568"><title>p45: 3 connections</title></circle><circle fill="#beaed4" r="9.842373946721771" stroke="black" cx="-163.24624494824053" cy="118.4622737441966"><title>p46: 4 connections</title></circle><circle fill="#beaed4" r="9.842373946721771" stroke="black" cx="-130.07828333716608" cy="298.18629395169853"><title>p47: 4 connections</title></circle><circle fill="#beaed4" r="11.155417527999326" stroke="black" cx="-265.6374201236298" cy="270.11182376097634"><title>p48: 6 connections</title></circle><circle fill="#beaed4" r="6.921186973360886" stroke="black" cx="-345.0400196659244" cy="140.89901260436756"><title>p49: 1 connections</title></circle><circle fill="#fdc086" r="9.059644256269406" stroke="black" cx="52.07811044259586" cy="175.50535007434516"><title>p50: 3 connections</title></circle><circle fill="#fdc086" r="9.059644256269406" stroke="black" cx="135.859597937303" cy="183.6019695524248"><title>p51: 3 connections</title></circle><circle fill="#fdc086" r="9.059644256269406" stroke="black" cx="155.7530330536511" cy="233.81848184290854"><title>p52: 3 connections</title></circle><circle fill="#fdc086" r="9.059644256269406" stroke="black" cx="219.66664148995017" cy="91.96937284286345"><title>p53: 3 connections</title></circle><circle fill="#fdc086" r="10.531972647421808" stroke="black" cx="109.52642742310753" cy="251.08239449146066"><title>p54: 5 connections</title></circle><circle fill="#fdc086" r="11.155417527999326" stroke="black" cx="282.81560163700965" cy="117.75594335529809"><title>p55: 6 connections</title></circle><circle fill="#fdc086" r="6.921186973360886" stroke="black" cx="153.47442683613193" cy="293.5287307284927"><title>p56: 1 connections</title></circle><circle fill="#fdc086" r="9.059644256269406" stroke="black" cx="62.59168998856265" cy="69.52578060935961"><title>p57: 3 connections</title></circle><circle fill="#fdc086" r="9.842373946721771" stroke="black" cx="278.06983446228793" cy="75.92729741123735"><title>p58: 4 connections</title></circle><circle fill="#fdc086" r="8.13118223595458" stroke="black" cx="39.26790133471563" cy="250.9692169883793"><title>p59: 2 connections</title></circle><circle fill="#fdc086" r="9.842373946721771" stroke="black" cx="228.16046994145796" cy="219.49367487254207"><title>p60: 4 connections</title></circle><circle fill="#fdc086" r="11.155417527999326" stroke="black" cx="87.86665605725469" cy="289.7357516881007"><title>p61: 6 connections</title></circle><circle fill="#fdc086" r="8.13118223595458" stroke="black" cx="328.07778071832587" cy="149.299783400007"><title>p62: 2 connections</title></circle><circle fill="#fdc086" r="6.921186973360886" stroke="black" cx="244.18802390375603" cy="110.46490988620944"><title>p63: 1 connections</title></circle><circle fill="#fdc086" r="8.13118223595458" stroke="black" cx="296.0216423942672" cy="228.16986229250486"><title>p64: 2 connections</title></circle><circle fill="#fdc086" r="8.13118223595458" stroke="black" cx="149.5526067606346" cy="321.3860708010119"><title>p65: 2 connections</title></circle><circle fill="#fdc086" r="11.155417527999326" stroke="black" cx="171.8290219868912" cy="172.03424472490582"><title>p66: 6 connections</title></circle><circle fill="#fdc086" r="9.059644256269406" stroke="black" cx="103.54852103556603" cy="86.3387886607409"><title>p67: 3 connections</title></circle><circle fill="#fdc086" r="10.531972647421808" stroke="black" cx="247.17135962593562" cy="199.49704342865402"><title>p68: 5 connections</title></circle><circle fill="#fdc086" r="6.921186973360886" stroke="black" cx="333.79653535992486" cy="298.80538416749494"><title>p69: 1 connections</title></circle><circle fill="#fdc086" r="9.059644256269406" stroke="black" cx="110.53546541161255" cy="180.02215990600183"><title>p70: 3 connections</title></circle><circle fill="#fdc086" r="10.531972647421808" stroke="black" cx="135.26723824113208" cy="87.68962533767733"><title>p71: 5 connections</title></circle><circle fill="#fdc086" r="10.531972647421808" stroke="black" cx="179.80630755359664" cy="298.10403710713075"><title>p72: 5 connections</title></circle><circle fill="#fdc086" r="4" stroke="black" cx="31.04556393855739" cy="-407.4858155221585"><title>p73: 0 connections</title></circle><circle fill="#fdc086" r="6.921186973360886" stroke="black" cx="357.3603478382024" cy="268.81429919097155"><title>p74: 1 connections</title></circle><circle fill="#ffff99" r="9.059644256269406" stroke="black" cx="-249.06618677984687" cy="-232.24592519259204"><title>p75: 3 connections</title></circle><circle fill="#ffff99" r="10.531972647421808" stroke="black" cx="-165.7889837469541" cy="-276.92430048673"><title>p76: 5 connections</title></circle><circle fill="#ffff99" r="10.531972647421808" stroke="black" cx="-247.82719766078492" cy="-137.34701618213313"><title>p77: 5 connections</title></circle><circle fill="#ffff99" r="8.13118223595458" stroke="black" cx="-330.69219474581905" cy="-140.0911430751936"><title>p78: 2 connections</title></circle><circle fill="#ffff99" r="10.531972647421808" stroke="black" cx="-169.64441682830645" cy="-152.08685609571404"><title>p79: 5 connections</title></circle><circle fill="#ffff99" r="6.921186973360886" stroke="black" cx="-38.49288132293391" cy="-146.58703308642285"><title>p80: 1 connections</title></circle><circle fill="#ffff99" r="9.059644256269406" stroke="black" cx="-42.70142331230836" cy="-309.8120498116064"><title>p81: 3 connections</title></circle><circle fill="#ffff99" r="6.921186973360886" stroke="black" cx="-30.68743844544616" cy="-164.16283014503114"><title>p82: 1 connections</title></circle><circle fill="#ffff99" r="10.531972647421808" stroke="black" cx="-162.3701734087558" cy="-232.34294630982623"><title>p83: 5 connections</title></circle><circle fill="#ffff99" r="9.059644256269406" stroke="black" cx="-224.71910623641136" cy="-299.8220907592874"><title>p84: 3 connections</title></circle><circle fill="#ffff99" r="9.842373946721771" stroke="black" cx="-82.25182656242376" cy="-187.32479141857178"><title>p85: 4 connections</title></circle><circle fill="#ffff99" r="11.728734264634367" stroke="black" cx="-135.18017393359577" cy="-202.89616445936244"><title>p86: 7 connections</title></circle><circle fill="#ffff99" r="11.155417527999326" stroke="black" cx="-101.98910548605495" cy="-321.6615373498809"><title>p87: 6 connections</title></circle><circle fill="#ffff99" r="11.728734264634367" stroke="black" cx="-127.14675186631713" cy="-278.9128923275379"><title>p88: 7 connections</title></circle><circle fill="#ffff99" r="6.921186973360886" stroke="black" cx="-307.40814031687995" cy="-113.59905138947644"><title>p89: 1 connections</title></circle><circle fill="#ffff99" r="9.059644256269406" stroke="black" cx="-179.61602816327584" cy="-336.1664421673078"><title>p90: 3 connections</title></circle><circle fill="#ffff99" r="9.059644256269406" stroke="black" cx="-33.000857261215465" cy="-220.7307341075093"><title>p91: 3 connections</title></circle><circle fill="#ffff99" r="8.13118223595458" stroke="black" cx="-70.98553768889428" cy="-136.23038484592448"><title>p92: 2 connections</title></circle><circle fill="#ffff99" r="6.921186973360886" stroke="black" cx="-254.15732203485683" cy="-275.28901499576517"><title>p93: 1 connections</title></circle><circle fill="#ffff99" r="11.728734264634367" stroke="black" cx="-274.1801160038155" cy="-199.0090309468653"><title>p94: 7 connections</title></circle><circle fill="#ffff99" r="9.059644256269406" stroke="black" cx="-205.65534794926543" cy="-183.76388490294187"><title>p95: 3 connections</title></circle><circle fill="#ffff99" r="8.13118223595458" stroke="black" cx="-154.32134343824208" cy="-97.44368456124512"><title>p96: 2 connections</title></circle><circle fill="#ffff99" r="6.921186973360886" stroke="black" cx="-96.75096038418005" cy="-223.0362833360117"><title>p97: 1 connections</title></circle><circle fill="#ffff99" r="10.531972647421808" stroke="black" cx="-139.3481985315914" cy="-173.46945291216926"><title>p98: 5 connections</title></circle><circle fill="#ffff99" r="9.059644256269406" stroke="black" cx="-138.00388019547984" cy="-312.8669631336076"><title>p99: 3 connections</title></circle></g><g><rect fill="rgb(255, 255, 255)" width="9.842373946721771" height="9.842373946721771" stroke="black" x="236.88677450988357" y="-110.14267906703786"/><rect fill="rgb(255, 255, 255)" width="6.921186973360886" height="6.921186973360886" stroke="black" x="392.7351214405969" y="-32.7507675433235"/><rect fill="rgb(255, 255, 255)" width="11.155417527999326" height="11.155417527999326" stroke="black" x="140.25649301603664" y="-222.31666227128787"/><rect fill="rgb(255, 255, 255)" width="11.155417527999326" height="11.155417527999326" stroke="black" x="279.63515674055884" y="-209.2245016181609"/><rect fill="rgb(255, 255, 255)" width="9.059644256269406" height="9.059644256269406" stroke="black" x="239.50719654376405" y="-152.34805193659338"/><rect fill="rgb(255, 255, 255)" width="9.059644256269406" height="9.059644256269406" stroke="black" x="-202.9553887211067" y="-111.23297152881699"/><rect fill="rgb(255, 255, 255)" width="9.059644256269406" height="9.059644256269406" stroke="black" x="-155.61639338314149" y="-352.51541687105254"/><rect fill="rgb(255, 255, 255)" width="6.921186973360886" height="6.921186973360886" stroke="black" x="-245.05250591530188" y="201.96091955692643"/><rect fill="rgb(255, 255, 255)" width="8.13118223595458" height="8.13118223595458" stroke="black" x="-118.59707281911531" y="335.81372015285024"/><rect fill="rgb(255, 255, 255)" width="9.059644256269406" height="9.059644256269406" stroke="black" x="-217.92102164937316" y="140.1850201888234"/><rect fill="rgb(255, 255, 255)" width="9.059644256269406" height="9.059644256269406" stroke="black" x="-182.66481864239412" y="94.39777380864517"/><rect fill="rgb(255, 255, 255)" width="6.921186973360886" height="6.921186973360886" stroke="black" x="-95.28577351761791" y="173.71677191684043"/><rect fill="rgb(255, 255, 255)" width="11.155417527999326" height="11.155417527999326" stroke="black" x="231.92940115043606" y="-243.9988532287587"/><rect fill="rgb(255, 255, 255)" width="9.059644256269406" height="9.059644256269406" stroke="black" x="-82.87250031994552" y="-295.51593483788156"/><rect fill="rgb(255, 255, 255)" width="8.13118223595458" height="8.13118223595458" stroke="black" x="302.6368623017218" y="87.71355817581049"/><rect fill="rgb(255, 255, 255)" width="9.842373946721771" height="9.842373946721771" stroke="black" x="-293.816061816331" y="-136.18552959698343"/><rect fill="rgb(255, 255, 255)" width="9.842373946721771" height="9.842373946721771" stroke="black" x="211.76485820952294" y="172.87725168295614"/><rect fill="rgb(255, 255, 255)" width="9.842373946721771" height="9.842373946721771" stroke="black" x="-104.12857530585822" y="-267.1381385152734"/><rect fill="rgb(255, 255, 255)" width="8.13118223595458" height="8.13118223595458" stroke="black" x="-323.0173658557873" y="-179.21495380230388"/><rect fill="rgb(255, 255, 255)" width="6.921186973360886" height="6.921186973360886" stroke="black" x="88.10103753874695" y="-145.71300197596642"/><rect fill="rgb(255, 255, 255)" width="9.059644256269406" height="9.059644256269406" stroke="black" x="111.19539541733617" y="302.5954182541606"/><rect fill="rgb(255, 255, 255)" width="11.155417527999326" height="11.155417527999326" stroke="black" x="-140.12371567344343" y="161.94949885281986"/><rect fill="rgb(255, 255, 255)" width="9.059644256269406" height="9.059644256269406" stroke="black" x="-250.54633521639985" y="-185.6450833873689"/><rect fill="rgb(255, 255, 255)" width="8.13118223595458" height="8.13118223595458" stroke="black" x="-279.0690444137185" y="37.78986621937446"/><rect fill="rgb(255, 255, 255)" width="8.13118223595458" height="8.13118223595458" stroke="black" x="296.4729340617813" y="70.99456971847272"/><rect fill="rgb(255, 255, 255)" width="9.842373946721771" height="9.842373946721771" stroke="black" x="144.76811094527343" y="-134.7959975470383"/><rect fill="rgb(255, 255, 255)" width="9.842373946721771" height="9.842373946721771" stroke="black" x="304.3201740706829" y="168.34102217643243"/><rect fill="rgb(255, 255, 255)" width="10.531972647421808" height="10.531972647421808" stroke="black" x="-123.74833966499317" y="214.54936620338722"/><rect fill="rgb(255, 255, 255)" width="10.531972647421808" height="10.531972647421808" stroke="black" x="-214.80561181906248" y="71.2004007742354"/><rect fill="rgb(255, 255, 255)" width="8.13118223595458" height="8.13118223595458" stroke="black" x="238.79559185538182" y="281.5133812548705"/><rect fill="rgb(255, 255, 255)" width="11.155417527999326" height="11.155417527999326" stroke="black" x="-169.70767270464663" y="226.29786820827658"/><rect fill="rgb(255, 255, 255)" width="6.921186973360886" height="6.921186973360886" stroke="black" x="161.97924627098158" y="151.65101373672277"/><rect fill="rgb(255, 255, 255)" width="9.059644256269406" height="9.059644256269406" stroke="black" x="-225.64065401811678" y="114.21270227953296"/><rect fill="rgb(255, 255, 255)" width="8.13118223595458" height="8.13118223595458" stroke="black" x="-101.73075022834372" y="282.0973326885622"/><rect fill="rgb(255, 255, 255)" width="10.531972647421808" height="10.531972647421808" stroke="black" x="239.60393046529632" y="-87.91158654362074"/><rect fill="rgb(255, 255, 255)" width="11.155417527999326" height="11.155417527999326" stroke="black" x="-62.7644322616991" y="-174.00973625634856"/><rect fill="rgb(255, 255, 255)" width="9.842373946721771" height="9.842373946721771" stroke="black" x="177.07318500263398" y="58.27145845751761"/><rect fill="rgb(255, 255, 255)" width="9.842373946721771" height="9.842373946721771" stroke="black" x="286.11543443444185" y="134.0078874723795"/><rect fill="rgb(255, 255, 255)" width="8.13118223595458" height="8.13118223595458" stroke="black" x="93.7189050106573" y="329.2844053974605"/><rect fill="rgb(255, 255, 255)" width="9.059644256269406" height="9.059644256269406" stroke="black" x="-234.5159344802133" y="84.21385535600488"/><rect fill="rgb(255, 255, 255)" width="9.059644256269406" height="9.059644256269406" stroke="black" x="-81.46404050817269" y="-240.80692286499738"/><rect fill="rgb(255, 255, 255)" width="8.13118223595458" height="8.13118223595458" stroke="black" x="-256.1037446622411" y="306.1957404564308"/><rect fill="rgb(255, 255, 255)" width="10.531972647421808" height="10.531972647421808" stroke="black" x="151.77766454823458" y="-267.63602541661675"/><rect fill="rgb(255, 255, 255)" width="9.842373946721771" height="9.842373946721771" stroke="black" x="-222.36975867570192" y="-158.3250700391553"/><rect fill="rgb(255, 255, 255)" width="9.059644256269406" height="9.059644256269406" stroke="black" x="200.18884555962708" y="-112.76082472172239"/><rect fill="rgb(255, 255, 255)" width="9.842373946721771" height="9.842373946721771" stroke="black" x="-326.7768522857589" y="58.30747473051318"/><rect fill="rgb(255, 255, 255)" width="9.842373946721771" height="9.842373946721771" stroke="black" x="-116.69563397128991" y="-162.07662281769845"/><rect fill="rgb(255, 255, 255)" width="9.059644256269406" height="9.059644256269406" stroke="black" x="305.2768862237063" y="-151.03942067459354"/><rect fill="rgb(255, 255, 255)" width="9.842373946721771" height="9.842373946721771" stroke="black" x="109.91680683081773" y="217.7782825471527"/><rect fill="rgb(255, 255, 255)" width="8.13118223595458" height="8.13118223595458" stroke="black" x="341.82697459808236" y="279.9924740342703"/><rect fill="rgb(255, 255, 255)" width="9.842373946721771" height="9.842373946721771" stroke="black" x="-321.4428470375149" y="139.93679797034864"/><rect fill="rgb(255, 255, 255)" width="10.531972647421808" height="10.531972647421808" stroke="black" x="177.8566301602452" y="134.86441080582088"/><rect fill="rgb(255, 255, 255)" width="9.059644256269406" height="9.059644256269406" stroke="black" x="-302.20300247320034" y="74.59806550920642"/><rect fill="rgb(255, 255, 255)" width="8.13118223595458" height="8.13118223595458" stroke="black" x="-164.66325484037958" y="11.578393348354096"/><rect fill="rgb(255, 255, 255)" width="6.921186973360886" height="6.921186973360886" stroke="black" x="-25.641424503932015" y="-329.4900157731519"/><rect fill="rgb(255, 255, 255)" width="9.842373946721771" height="9.842373946721771" stroke="black" x="-213.16814364460691" y="-231.30049638394684"/><rect fill="rgb(255, 255, 255)" width="10.531972647421808" height="10.531972647421808" stroke="black" x="-271.2369062352954" y="210.3744266548714"/><rect fill="rgb(255, 255, 255)" width="8.13118223595458" height="8.13118223595458" stroke="black" x="210.95173553434373" y="269.0376781065759"/><rect fill="rgb(255, 255, 255)" width="11.155417527999326" height="11.155417527999326" stroke="black" x="-196.83694391331122" y="-278.458827051899"/><rect fill="rgb(255, 255, 255)" width="9.842373946721771" height="9.842373946721771" stroke="black" x="-67.42829619464075" y="-269.9062118717317"/><rect fill="rgb(255, 255, 255)" width="10.531972647421808" height="10.531972647421808" stroke="black" x="-235.396634503861" y="-266.85661433877226"/><rect fill="rgb(255, 255, 255)" width="9.842373946721771" height="9.842373946721771" stroke="black" x="147.71755535783763" y="264.91697097044073"/><rect fill="rgb(255, 255, 255)" width="8.13118223595458" height="8.13118223595458" stroke="black" x="-296.12560688175523" y="-224.88942040083523"/><rect fill="rgb(255, 255, 255)" width="10.531972647421808" height="10.531972647421808" stroke="black" x="315.6221077546492" y="-190.36656123768756"/><rect fill="rgb(255, 255, 255)" width="9.059644256269406" height="9.059644256269406" stroke="black" x="-319.2919611347436" y="231.49385731700158"/><rect fill="rgb(255, 255, 255)" width="10.531972647421808" height="10.531972647421808" stroke="black" x="-185.97547882505" y="300.1257470903291"/><rect fill="rgb(255, 255, 255)" width="9.059644256269406" height="9.059644256269406" stroke="black" x="-191.18213930375302" y="-172.95375567891057"/><rect fill="rgb(255, 255, 255)" width="9.059644256269406" height="9.059644256269406" stroke="black" x="-233.32461539284597" y="-218.80444751172627"/><rect fill="rgb(255, 255, 255)" width="8.13118223595458" height="8.13118223595458" stroke="black" x="80.8356249293947" y="114.22489071764274"/><rect fill="rgb(255, 255, 255)" width="9.059644256269406" height="9.059644256269406" stroke="black" x="130.6726152969805" y="125.01336022893028"/><rect fill="rgb(255, 255, 255)" width="9.842373946721771" height="9.842373946721771" stroke="black" x="180.23079681024578" y="245.17469063414705"/><rect fill="rgb(255, 255, 255)" width="11.155417527999326" height="11.155417527999326" stroke="black" x="-200.2298811117004" y="247.7329887436194"/><rect fill="rgb(255, 255, 255)" width="9.842373946721771" height="9.842373946721771" stroke="black" x="-127.36426758220787" y="-137.5626837634441"/><rect fill="rgb(255, 255, 255)" width="9.842373946721771" height="9.842373946721771" stroke="black" x="-179.68478425530262" y="141.3112386105312"/><rect fill="rgb(255, 255, 255)" width="9.059644256269406" height="9.059644256269406" stroke="black" x="119.08725889575072" y="272.1372167998584"/><rect fill="rgb(255, 255, 255)" width="8.13118223595458" height="8.13118223595458" stroke="black" x="264.265944925212" y="164.69879481385667"/><rect fill="rgb(255, 255, 255)" width="9.059644256269406" height="9.059644256269406" stroke="black" x="87.6224914449675" y="152.66401514818327"/><rect fill="rgb(255, 255, 255)" width="8.13118223595458" height="8.13118223595458" stroke="black" x="357.8559870537327" y="-73.56453388122391"/><rect fill="rgb(255, 255, 255)" width="10.531972647421808" height="10.531972647421808" stroke="black" x="-121.06804805846444" y="-237.42586145005237"/><rect fill="rgb(255, 255, 255)" width="8.13118223595458" height="8.13118223595458" stroke="black" x="289.05887731571676" y="-125.69882546048616"/><rect fill="rgb(255, 255, 255)" width="8.13118223595458" height="8.13118223595458" stroke="black" x="184.376767866342" y="191.76541921079271"/><rect fill="rgb(255, 255, 255)" width="8.13118223595458" height="8.13118223595458" stroke="black" x="93.54104413350512" y="51.26347098674789"/><rect fill="rgb(255, 255, 255)" width="10.531972647421808" height="10.531972647421808" stroke="black" x="-257.6641469096712" y="147.3356079897589"/><rect fill="rgb(255, 255, 255)" width="8.13118223595458" height="8.13118223595458" stroke="black" x="-80.55317878508" y="84.31173254949438"/><rect fill="rgb(255, 255, 255)" width="9.059644256269406" height="9.059644256269406" stroke="black" x="216.73879931400018" y="-314.27954669319354"/><rect fill="rgb(255, 255, 255)" width="9.059644256269406" height="9.059644256269406" stroke="black" x="45.12937503341631" y="96.944322396318"/><rect fill="rgb(255, 255, 255)" width="9.059644256269406" height="9.059644256269406" stroke="black" x="42.2420939075217" y="205.51981225871165"/><rect fill="rgb(255, 255, 255)" width="9.059644256269406" height="9.059644256269406" stroke="black" x="230.0305348020984" y="125.67718991640788"/><rect fill="rgb(255, 255, 255)" width="8.13118223595458" height="8.13118223595458" stroke="black" x="112.55709756454709" y="-107.34934055529436"/><rect fill="rgb(255, 255, 255)" width="10.531972647421808" height="10.531972647421808" stroke="black" x="-143.80223056829377" y="-255.97336554353575"/><rect fill="rgb(255, 255, 255)" width="9.842373946721771" height="9.842373946721771" stroke="black" x="66.57409376921731" y="263.336534761608"/><rect fill="rgb(255, 255, 255)" width="9.059644256269406" height="9.059644256269406" stroke="black" x="-126.02262667098607" y="-345.78753299459794"/><rect fill="rgb(255, 255, 255)" width="8.13118223595458" height="8.13118223595458" stroke="black" x="164.4339939556739" y="-339.09964452235494"/><rect fill="rgb(255, 255, 255)" width="8.13118223595458" height="8.13118223595458" stroke="black" x="-298.0954525008132" y="133.58317019118235"/><rect fill="rgb(255, 255, 255)" width="8.13118223595458" height="8.13118223595458" stroke="black" x="-98.2804647765187" y="86.81658366375038"/><rect fill="rgb(255, 255, 255)" width="6.921186973360886" height="6.921186973360886" stroke="black" x="-132.25507689189246" y="373.8356106832393"/><rect fill="rgb(255, 255, 255)" width="6.921186973360886" height="6.921186973360886" stroke="black" x="-96.42108071918602" y="192.04282038595073"/><rect fill="rgb(255, 255, 255)" width="9.842373946721771" height="9.842373946721771" stroke="black" x="254.02851645697962" y="-230.98601554047065"/><rect fill="rgb(255, 255, 255)" width="9.842373946721771" height="9.842373946721771" stroke="black" x="-177.50358584621563" y="-315.5111587629112"/><rect fill="rgb(255, 255, 255)" width="9.059644256269406" height="9.059644256269406" stroke="black" x="-229.68453205422452" y="270.3646339364157"/></g></svg>