<svg viewBox="-480,-400,960,800" width="960" height="800" xmlns="http://www.w3.org/2000/svg" xmlns:xlink="http://www.w3.org/1999/xlink"><g><line stroke-width="1" stroke="gray" class="link" style="opacity: 0.5;" x1="308.35008196537984" y1="-183.5387038165774" x2="280.67435407764805" y2="-101.9359690951675"/><line stroke-width="1" stroke="gray" class="link" style="opacity: 0.5;" x1="308.35008196537984" y1="-183.5387038165774" x2="238.75047452238866" y2="-265.68035283944334"/><line stroke-width="1" stroke="gray" class="link" style="opacity: 0.5;" x1="308.35008196537984" y1="-183.5387038165774" x2="357.2222648940382" y2="-77.87949515339918"/><line stroke-width="1" stroke="gray" class="link" style="opacity: 0.5;" x1="308.35008196537984" y1="-183.5387038165774" x2="347.09431863702804" y2="-171.72668044421812"/><line stroke-width="1" stroke="gray" class="link" style="opacity: 0.5;" x1="308.35008196537984" y1="-183.5387038165774" x2="184.0541275834334" y2="-148.08899317151398"/><line stroke-width="1" stroke="gray" class="link" style="opacity: 0.5;" x1="308.35008196537984" y1="-183.5387038165774" x2="278.48605924502425" y2="-191.75312069509835"/><line stroke-width="1" stroke="gray" class="link" style="opacity: 0.5;" x1="122.71927710214734" y1="-260.57398046896327" x2="150.04503481104607" y2="-152.97037225024584"/><line stroke-width="1" stroke="gray" class="link" style="opacity: 0.5;" x1="122.71927710214734" y1="-260.57398046896327" x2="150.54808983073508" y2="-283.1683881617885"/><line stroke-width="1" stroke="gray" class="link" style="opacity: 0.5;" x1="122.71927710214734" y1="-260.57398046896327" x2="-47.39283346805999" y2="-279.4129449336553"/><line stroke-width="1" stroke="gray" class="link" style="opacity: 0.5;" x1="122.71927710214734" y1="-260.57398046896327" x2="115.06473783869471" y2="-319.72541348308965"/><line stroke-width="1" stroke="gray" class="link" style="opacity: 0.5;" x1="122.71927710214734" y1="-260.57398046896327" x2="164.2788116697787" y2="-204.45715837660796"/><line stroke-width="1" stroke="gray" class="link" style="opacity: 0.5;" x1="122.71927710214734" y1="-260.57398046896327" x2="184.0541275834334" y2="-148.08899317151398"/><line stroke-width="1" stroke="gray" class="link" style="opacity: 0.5;" x1="219.27367445728405" y1="23.930455134451805" x2="150.04503481104607" y2="-152.97037225024584"/><line stroke-width="1" stroke="gray" class="link" style="opacity: 0.5;" x1="219.27367445728405" y1="23.930455134451805" x2="113.14217014340717" y2="85.0204300963384"/><line stroke-width="1" stroke="gray" class="link" style="opacity: 0.5;" x1="219.27367445728405" y1="23.930455134451805" x2="238.58411183294268" y2="63.66837090932067"/><line stroke-width="1" stroke="gray" class="link" style="opacity: 0.5;" x1="219.27367445728405" y1="23.930455134451805" x2="120.7908851608592" y2="11.296220275788787"/><line stroke-width="1" stroke="gray" class="link" style="opacity: 0.5;" x1="219.27367445728405" y1="23.930455134451805" x2="280.3080004526579" y2="57.59654287766828"/><line stroke-width="1" stroke="gray" class="link" style="opacity: 0.5;" x1="219.27367445728405" y1="23.930455134451805" x2="198.22792751089315" y2="5.369534213448948"/><line stroke-width="1" stroke="gray" class="link" style="opacity: 0.5;" x1="219.27367445728405" y1="23.930455134451805" x2="224.25030743505852" y2="87.43191091663289"/><line stroke-width="1" stroke="gray" class="link" style="opacity: 0.5;" x1="37.420392523915396" y1="-63.629072077299014" x2="66.7337289936094" y2="53.5546008957197"/><line stroke-width="1" stroke="gray" class="link" style="opacity: 0.5;" x1="37.420392523915396" y1="-63.629072077299014" x2="3.610632132199059" y2="-156.0983514411851"/><line stroke-width="1" stroke="gray" class="link" style="opacity: 0.5;" x1="37.420392523915396" y1="-63.629072077299014" x2="166.58800225647158" y2="103.59011398839229"/><line stroke-width="1" stroke="gray" class="link" style="opacity: 0.5;" x1="37.420392523915396" y1="-63.629072077299014" x2="-54.012580822518586" y2="-181.4639521699584"/><line stroke-width="1" stroke="gray" class="link" style="opacity: 0.5;" x1="258.1461919668707" y1="114.21607655035282" x2="290.99079591509974" y2="138.71784478787572"/><line stroke-width="1" stroke="gray" class="link" style="opacity: 0.5;" x1="258.1461919668707" y1="114.21607655035282" x2="131.15216543908485" y2="172.61270673693858"/><line stroke-width="1" stroke="gray" class="link" style="opacity: 0.5;" x1="258.1461919668707" y1="114.21607655035282" x2="280.3080004526579" y2="57.59654287766828"/><line stroke-width="1" stroke="gray" class="link" style="opacity: 0.5;" x1="258.1461919668707" y1="114.21607655035282" x2="198.22792751089315" y2="5.369534213448948"/><line stroke-width="1" stroke="gray" class="link" style="opacity: 0.5;" x1="92.12905050906899" y1="-324.7772450277477" x2="150.54808983073508" y2="-283.1683881617885"/><line stroke-width="1" stroke="gray" class="link" style="opacity: 0.5;" x1="92.12905050906899" y1="-324.7772450277477" x2="-47.39283346805999" y2="-279.4129449336553"/><line stroke-width="1" stroke="gray" class="link" style="opacity: 0.5;" x1="92.12905050906899" y1="-324.7772450277477" x2="238.75047452238866" y2="-265.68035283944334"/><line stroke-width="1" stroke="gray" class="link" style="opacity: 0.5;" x1="92.12905050906899" y1="-324.7772450277477" x2="115.06473783869471" y2="-319.72541348308965"/><line stroke-width="1" stroke="gray" class="link" style="opacity: 0.5;" x1="92.12905050906899" y1="-324.7772450277477" x2="88.31402982796844" y2="-286.76053851753477"/><line stroke-width="1" stroke="gray" class="link" style="opacity: 0.5;" x1="184.200021204034" y1="-234.55560004821055" x2="203.00540074155367" y2="-189.2334281990412"/><line stroke-width="1" stroke="gray" class="link" style="opacity: 0.5;" x1="184.200021204034" y1="-234.55560004821055" x2="238.75047452238866" y2="-265.68035283944334"/><line stroke-width="1" stroke="gray" class="link" style="opacity: 0.5;" x1="184.200021204034" y1="-234.55560004821055" x2="83.32023286630061" y2="-252.58803833734848"/><line stroke-width="1" stroke="gray" class="link" style="opacity: 0.5;" x1="184.200021204034" y1="-234.55560004821055" x2="204.7679231665511" y2="-65.80969544145987"/><line stroke-width="1" stroke="gray" class="link" style="opacity: 0.5;" x1="172.61742209321832" y1="-11.336940965872975" x2="66.7337289936094" y2="53.5546008957197"/><line stroke-width="1" stroke="gray" class="link" style="opacity: 0.5;" x1="172.61742209321832" y1="-11.336940965872975" x2="149.41482982675623" y2="54.95460248456439"/><line stroke-width="1" stroke="gray" class="link" style="opacity: 0.5;" x1="172.61742209321832" y1="-11.336940965872975" x2="277.9957074466358" y2="-24.360908992067984"/><line stroke-width="1" stroke="gray" class="link" style="opacity: 0.5;" x1="172.61742209321832" y1="-11.336940965872975" x2="61.65630724146294" y2="-164.63293227945547"/><line stroke-width="1" stroke="gray" class="link" style="opacity: 0.5;" x1="172.61742209321832" y1="-11.336940965872975" x2="224.25030743505852" y2="87.43191091663289"/><line stroke-width="1" stroke="gray" class="link" style="opacity: 0.5;" x1="315.7677295593656" y1="-145.08723376520823" x2="280.67435407764805" y2="-101.9359690951675"/><line stroke-width="1" stroke="gray" class="link" style="opacity: 0.5;" x1="315.7677295593656" y1="-145.08723376520823" x2="203.00540074155367" y2="-189.2334281990412"/><line stroke-width="1" stroke="gray" class="link" style="opacity: 0.5;" x1="315.7677295593656" y1="-145.08723376520823" x2="228.41657715495464" y2="-208.3765768772245"/><line stroke-width="1" stroke="gray" class="link" style="opacity: 0.5;" x1="315.7677295593656" y1="-145.08723376520823" x2="357.2222648940382" y2="-77.87949515339918"/><line stroke-width="1" stroke="gray" class="link" style="opacity: 0.5;" x1="315.7677295593656" y1="-145.08723376520823" x2="347.09431863702804" y2="-171.72668044421812"/><line stroke-width="1" stroke="gray" class="link" style="opacity: 0.5;" x1="315.7677295593656" y1="-145.08723376520823" x2="297.76530772458113" y2="-82.15715227777405"/><line stroke-width="1" stroke="gray" class="link" style="opacity: 0.5;" x1="151.84376519836022" y1="-100.56253663841224" x2="172.5661932762256" y2="-66.61397697003785"/><line stroke-width="1" stroke="gray" class="link" style="opacity: 0.5;" x1="151.84376519836022" y1="-100.56253663841224" x2="120.7908851608592" y2="11.296220275788787"/><line stroke-width="1" stroke="gray" class="link" style="opacity: 0.5;" x1="151.84376519836022" y1="-100.56253663841224" x2="164.2788116697787" y2="-204.45715837660796"/><line stroke-width="1" stroke="gray" class="link" style="opacity: 0.5;" x1="151.84376519836022" y1="-100.56253663841224" x2="24.161432725333096" y2="-117.48018315669023"/><line stroke-width="1" stroke="gray" class="link" style="opacity: 0.5;" x1="151.84376519836022" y1="-100.56253663841224" x2="156.45667860970767" y2="-54.95557963251623"/><line stroke-width="1" stroke="gray" class="link" style="opacity: 0.5;" x1="151.84376519836022" y1="-100.56253663841224" x2="184.0541275834334" y2="-148.08899317151398"/><line stroke-width="1" stroke="gray" class="link" style="opacity: 0.5;" x1="151.84376519836022" y1="-100.56253663841224" x2="198.22792751089315" y2="5.369534213448948"/><line stroke-width="1" stroke="gray" class="link" style="opacity: 0.5;" x1="313.06432236595157" y1="-17.18992287965341" x2="280.67435407764805" y2="-101.9359690951675"/><line stroke-width="1" stroke="gray" class="link" style="opacity: 0.5;" x1="313.06432236595157" y1="-17.18992287965341" x2="131.15216543908485" y2="172.61270673693858"/><line stroke-width="1" stroke="gray" class="link" style="opacity: 0.5;" x1="313.06432236595157" y1="-17.18992287965341" x2="357.2222648940382" y2="-77.87949515339918"/><line stroke-width="1" stroke="gray" class="link" style="opacity: 0.5;" x1="313.06432236595157" y1="-17.18992287965341" x2="297.76530772458113" y2="-82.15715227777405"/><line stroke-width="1" stroke="gray" class="link" style="opacity: 0.5;" x1="313.06432236595157" y1="-17.18992287965341" x2="277.9957074466358" y2="-24.360908992067984"/><line stroke-width="1" stroke="gray" class="link" style="opacity: 0.5;" x1="259.76441918479134" y1="26.61716732872299" x2="149.41482982675623" y2="54.95460248456439"/><line stroke-width="1" stroke="gray" class="link" style="opacity: 0.5;" x1="259.76441918479134" y1="26.61716732872299" x2="280.3080004526579" y2="57.59654287766828"/><line stroke-width="1" stroke="gray" class="link" style="opacity: 0.5;" x1="259.76441918479134" y1="26.61716732872299" x2="277.9957074466358" y2="-24.360908992067984"/><line stroke-width="1" stroke="gray" class="link" style="opacity: 0.5;" x1="259.76441918479134" y1="26.61716732872299" x2="198.22792751089315" y2="5.369534213448948"/><line stroke-width="1" stroke="gray" class="link" style="opacity: 0.5;" x1="331.73491452971786" y1="44.91110209996907" x2="307.8782943134612" y2="110.52456919020904"/><line stroke-width="1" stroke="gray" class="link" style="opacity: 0.5;" x1="331.73491452971786" y1="44.91110209996907" x2="357.2222648940382" y2="-77.87949515339918"/><line stroke-width="1" stroke="gray" class="link" style="opacity: 0.5;" x1="331.73491452971786" y1="44.91110209996907" x2="224.25030743505852" y2="87.43191091663289"/><line stroke-width="1" stroke="gray" class="link" style="opacity: 0.5;" x1="173.64682782598337" y1="-178.1967285611878" x2="280.67435407764805" y2="-101.9359690951675"/><line stroke-width="1" stroke="gray" class="link" style="opacity: 0.5;" x1="173.64682782598337" y1="-178.1967285611878" x2="3.610632132199059" y2="-156.0983514411851"/><line stroke-width="1" stroke="gray" class="link" style="opacity: 0.5;" x1="173.64682782598337" y1="-178.1967285611878" x2="150.54808983073508" y2="-283.1683881617885"/><line stroke-width="1" stroke="gray" class="link" style="opacity: 0.5;" x1="173.64682782598337" y1="-178.1967285611878" x2="209.48146214306655" y2="-106.69766875278874"/><line stroke-width="1" stroke="gray" class="link" style="opacity: 0.5;" x1="147.37304697330572" y1="5.632916290424294" x2="-122.72733672031451" y2="145.94556633176754"/><line stroke-width="1" stroke="gray" class="link" style="opacity: 0.5;" x1="147.37304697330572" y1="5.632916290424294" x2="238.58411183294268" y2="63.66837090932067"/><line stroke-width="1" stroke="gray" class="link" style="opacity: 0.5;" x1="147.37304697330572" y1="5.632916290424294" x2="172.5661932762256" y2="-66.61397697003785"/><line stroke-width="1" stroke="gray" class="link" style="opacity: 0.5;" x1="147.37304697330572" y1="5.632916290424294" x2="204.7679231665511" y2="-65.80969544145987"/><line stroke-width="1" stroke="gray" class="link" style="opacity: 0.5;" x1="147.37304697330572" y1="5.632916290424294" x2="156.45667860970767" y2="-54.95557963251623"/><line stroke-width="1" stroke="gray" class="link" style="opacity: 0.5;" x1="96.92206285318119" y1="-203.39870648078715" x2="150.04503481104607" y2="-152.97037225024584"/><line stroke-width="1" stroke="gray" class="link" style="opacity: 0.5;" x1="96.92206285318119" y1="-203.39870648078715" x2="150.54808983073508" y2="-283.1683881617885"/><line stroke-width="1" stroke="gray" class="link" style="opacity: 0.5;" x1="96.92206285318119" y1="-203.39870648078715" x2="61.65630724146294" y2="-164.63293227945547"/><line stroke-width="1" stroke="gray" class="link" style="opacity: 0.5;" x1="96.92206285318119" y1="-203.39870648078715" x2="198.22792751089315" y2="5.369534213448948"/><line stroke-width="1" stroke="gray" class="link" style="opacity: 0.5;" x1="96.92206285318119" y1="-203.39870648078715" x2="12.391757835661256" y2="-139.3619936220201"/><line stroke-width="1" stroke="gray" class="link" style="opacity: 0.5;" x1="96.92206285318119" y1="-203.39870648078715" x2="88.31402982796844" y2="-286.76053851753477"/><line stroke-width="1" stroke="gray" class="link" style="opacity: 0.5;" x1="99.39382332465055" y1="-9.706469505792782" x2="66.7337289936094" y2="53.5546008957197"/><line stroke-width="1" stroke="gray" class="link" style="opacity: 0.5;" x1="99.39382332465055" y1="-9.706469505792782" x2="49.186867270873925" y2="73.51127969897807"/><line stroke-width="1" stroke="gray" class="link" style="opacity: 0.5;" x1="99.39382332465055" y1="-9.706469505792782" x2="184.0541275834334" y2="-148.08899317151398"/><line stroke-width="1" stroke="gray" class="link" style="opacity: 0.5;" x1="290.3112610624162" y1="-160.19250484800412" x2="261.64122067861916" y2="-212.71728341164214"/><line stroke-width="1" stroke="gray" class="link" style="opacity: 0.5;" x1="290.3112610624162" y1="-160.19250484800412" x2="280.67435407764805" y2="-101.9359690951675"/><line stroke-width="1" stroke="gray" class="link" style="opacity: 0.5;" x1="290.3112610624162" y1="-160.19250484800412" x2="238.75047452238866" y2="-265.68035283944334"/><line stroke-width="1" stroke="gray" class="link" style="opacity: 0.5;" x1="290.3112610624162" y1="-160.19250484800412" x2="347.09431863702804" y2="-171.72668044421812"/><line stroke-width="1" stroke="gray" class="link" style="opacity: 0.5;" x1="290.3112610624162" y1="-160.19250484800412" x2="297.76530772458113" y2="-82.15715227777405"/><line stroke-width="1" stroke="gray" class="link" style="opacity: 0.5;" x1="290.3112610624162" y1="-160.19250484800412" x2="204.7679231665511" y2="-65.80969544145987"/><line stroke-width="1" stroke="gray" class="link" style="opacity: 0.5;" x1="128.87132786639035" y1="-178.07363759394445" x2="261.64122067861916" y2="-212.71728341164214"/><line stroke-width="1" stroke="gray" class="link" style="opacity: 0.5;" x1="128.87132786639035" y1="-178.07363759394445" x2="203.00540074155367" y2="-189.2334281990412"/><line stroke-width="1" stroke="gray" class="link" style="opacity: 0.5;" x1="128.87132786639035" y1="-178.07363759394445" x2="172.5661932762256" y2="-66.61397697003785"/><line stroke-width="1" stroke="gray" class="link" style="opacity: 0.5;" x1="128.87132786639035" y1="-178.07363759394445" x2="127.59146594222636" y2="-207.44261677322154"/><line stroke-width="1" stroke="gray" class="link" style="opacity: 0.5;" x1="128.87132786639035" y1="-178.07363759394445" x2="24.161432725333096" y2="-117.48018315669023"/><line stroke-width="1" stroke="gray" class="link" style="opacity: 0.5;" x1="128.87132786639035" y1="-178.07363759394445" x2="12.391757835661256" y2="-139.3619936220201"/><line stroke-width="1" stroke="gray" class="link" style="opacity: 0.5;" x1="350.158438945292" y1="-131.99353047231898" x2="261.64122067861916" y2="-212.71728341164214"/><line stroke-width="1" stroke="gray" class="link" style="opacity: 0.5;" x1="350.158438945292" y1="-131.99353047231898" x2="357.2222648940382" y2="-77.87949515339918"/><line stroke-width="1" stroke="gray" class="link" style="opacity: 0.5;" x1="350.158438945292" y1="-131.99353047231898" x2="347.09431863702804" y2="-171.72668044421812"/><line stroke-width="1" stroke="gray" class="link" style="opacity: 0.5;" x1="350.158438945292" y1="-131.99353047231898" x2="297.76530772458113" y2="-82.15715227777405"/><line stroke-width="1" stroke="gray" class="link" style="opacity: 0.5;" x1="-23.79507083055656" y1="-210.03731846548303" x2="83.32023286630061" y2="-252.58803833734848"/><line stroke-width="1" stroke="gray" class="link" style="opacity: 0.5;" x1="-23.79507083055656" y1="-210.03731846548303" x2="-93.07100160529235" y2="-122.8694780530459"/><line stroke-width="1" stroke="gray" class="link" style="opacity: 0.5;" x1="207.77701049625264" y1="-251.1325495003327" x2="261.64122067861916" y2="-212.71728341164214"/><line stroke-width="1" stroke="gray" class="link" style="opacity: 0.5;" x1="207.77701049625264" y1="-251.1325495003327" x2="203.00540074155367" y2="-189.2334281990412"/><line stroke-width="1" stroke="gray" class="link" style="opacity: 0.5;" x1="207.77701049625264" y1="-251.1325495003327" x2="228.41657715495464" y2="-208.3765768772245"/><line stroke-width="1" stroke="gray" class="link" style="opacity: 0.5;" x1="207.77701049625264" y1="-251.1325495003327" x2="150.54808983073508" y2="-283.1683881617885"/><line stroke-width="1" stroke="gray" class="link" style="opacity: 0.5;" x1="207.77701049625264" y1="-251.1325495003327" x2="238.75047452238866" y2="-265.68035283944334"/><line stroke-width="1" stroke="gray" class="link" style="opacity: 0.5;" x1="207.77701049625264" y1="-251.1325495003327" x2="97.56684962687478" y2="-136.15088427304653"/><line stroke-width="1" stroke="gray" class="link" style="opacity: 0.5;" x1="235.12863225171927" y1="-102.21226487724127" x2="203.00540074155367" y2="-189.2334281990412"/><line stroke-width="1" stroke="gray" class="link" style="opacity: 0.5;" x1="235.12863225171927" y1="-102.21226487724127" x2="277.9957074466358" y2="-24.360908992067984"/><line stroke-width="1" stroke="gray" class="link" style="opacity: 0.5;" x1="235.12863225171927" y1="-102.21226487724127" x2="130.27357630528775" y2="-46.65678118181227"/><line stroke-width="1" stroke="gray" class="link" style="opacity: 0.5;" x1="212.58754631884938" y1="-163.4287151428188" x2="280.67435407764805" y2="-101.9359690951675"/><line stroke-width="1" stroke="gray" class="link" style="opacity: 0.5;" x1="212.58754631884938" y1="-163.4287151428188" x2="164.2788116697787" y2="-204.45715837660796"/><line stroke-width="1" stroke="gray" class="link" style="opacity: 0.5;" x1="212.58754631884938" y1="-163.4287151428188" x2="24.161432725333096" y2="-117.48018315669023"/><line stroke-width="1" stroke="gray" class="link" style="opacity: 0.5;" x1="212.58754631884938" y1="-163.4287151428188" x2="278.48605924502425" y2="-191.75312069509835"/><line stroke-width="1" stroke="gray" class="link" style="opacity: 0.5;" x1="213.27867876275891" y1="-20.13652287314383" x2="297.76530772458113" y2="-82.15715227777405"/><line stroke-width="1" stroke="gray" class="link" style="opacity: 0.5;" x1="213.27867876275891" y1="-20.13652287314383" x2="209.48146214306655" y2="-106.69766875278874"/><line stroke-width="1" stroke="gray" class="link" style="opacity: 0.5;" x1="213.27867876275891" y1="-20.13652287314383" x2="198.22792751089315" y2="5.369534213448948"/><line stroke-width="1" stroke="gray" class="link" style="opacity: 0.5;" x1="213.27867876275891" y1="-20.13652287314383" x2="-29.77977831383832" y2="54.87141890210749"/><line stroke-width="1" stroke="gray" class="link" style="opacity: 0.5;" x1="213.27867876275891" y1="-20.13652287314383" x2="224.25030743505852" y2="87.43191091663289"/><line stroke-width="1" stroke="gray" class="link" style="opacity: 0.5;" x1="-102.03557140355798" y1="222.3125516014318" x2="-122.72733672031451" y2="145.94556633176754"/><line stroke-width="1" stroke="gray" class="link" style="opacity: 0.5;" x1="-102.03557140355798" y1="222.3125516014318" x2="-124.8629356033774" y2="218.6291134851638"/><line stroke-width="1" stroke="gray" class="link" style="opacity: 0.5;" x1="-102.03557140355798" y1="222.3125516014318" x2="-7.978018636664622" y2="244.0382758516744"/><line stroke-width="1" stroke="gray" class="link" style="opacity: 0.5;" x1="-55.288522971412895" y1="125.50863132280286" x2="120.7908851608592" y2="11.296220275788787"/><line stroke-width="1" stroke="gray" class="link" style="opacity: 0.5;" x1="-55.288522971412895" y1="125.50863132280286" x2="-91.49021827228992" y2="133.79964473382623"/><line stroke-width="1" stroke="gray" class="link" style="opacity: 0.5;" x1="-55.288522971412895" y1="125.50863132280286" x2="-60.13106406475312" y2="243.7323993940446"/><line stroke-width="1" stroke="gray" class="link" style="opacity: 0.5;" x1="-55.288522971412895" y1="125.50863132280286" x2="-168.01270735321182" y2="65.57569474714484"/><line stroke-width="1" stroke="gray" class="link" style="opacity: 0.5;" x1="42.05956494740347" y1="109.81581142468785" x2="-118.83292909766911" y2="42.621556357764334"/><line stroke-width="1" stroke="gray" class="link" style="opacity: 0.5;" x1="42.05956494740347" y1="109.81581142468785" x2="-7.978018636664622" y2="244.0382758516744"/><line stroke-width="1" stroke="gray" class="link" style="opacity: 0.5;" x1="42.05956494740347" y1="109.81581142468785" x2="198.22792751089315" y2="5.369534213448948"/><line stroke-width="1" stroke="gray" class="link" style="opacity: 0.5;" x1="50.86540498742943" y1="335.5734219990722" x2="71.84650670390056" y2="277.1200056330232"/><line stroke-width="1" stroke="gray" class="link" style="opacity: 0.5;" x1="50.86540498742943" y1="335.5734219990722" x2="7.819184519450767" y2="326.78952258584974"/><line stroke-width="1" stroke="gray" class="link" style="opacity: 0.5;" x1="-199.42234983206254" y1="123.08886263337446" x2="-122.72733672031451" y2="145.94556633176754"/><line stroke-width="1" stroke="gray" class="link" style="opacity: 0.5;" x1="-199.42234983206254" y1="123.08886263337446" x2="-312.38824889137493" y2="15.776435019734233"/><line stroke-width="1" stroke="gray" class="link" style="opacity: 0.5;" x1="-199.42234983206254" y1="123.08886263337446" x2="-124.8629356033774" y2="218.6291134851638"/><line stroke-width="1" stroke="gray" class="link" style="opacity: 0.5;" x1="-199.42234983206254" y1="123.08886263337446" x2="-168.01270735321182" y2="65.57569474714484"/><line stroke-width="1" stroke="gray" class="link" style="opacity: 0.5;" x1="-2.2995184258943224" y1="351.5435992468398" x2="-9.658002555826535" y2="293.60832392798346"/><line stroke-width="1" stroke="gray" class="link" style="opacity: 0.5;" x1="-2.2995184258943224" y1="351.5435992468398" x2="7.819184519450767" y2="326.78952258584974"/><line stroke-width="1" stroke="gray" class="link" style="opacity: 0.5;" x1="-161.93699373031427" y1="12.870419085428631" x2="-168.01270735321182" y2="65.57569474714484"/><line stroke-width="1" stroke="gray" class="link" style="opacity: 0.5;" x1="-161.93699373031427" y1="12.870419085428631" x2="12.391757835661256" y2="-139.3619936220201"/><line stroke-width="1" stroke="gray" class="link" style="opacity: 0.5;" x1="-161.93699373031427" y1="12.870419085428631" x2="-273.5174099718553" y2="105.00601508066144"/><line stroke-width="1" stroke="gray" class="link" style="opacity: 0.5;" x1="43.7810834826967" y1="217.93862741691635" x2="113.14217014340717" y2="85.0204300963384"/><line stroke-width="1" stroke="gray" class="link" style="opacity: 0.5;" x1="43.7810834826967" y1="217.93862741691635" x2="49.186867270873925" y2="73.51127969897807"/><line stroke-width="1" stroke="gray" class="link" style="opacity: 0.5;" x1="43.7810834826967" y1="217.93862741691635" x2="131.15216543908485" y2="172.61270673693858"/><line stroke-width="1" stroke="gray" class="link" style="opacity: 0.5;" x1="43.7810834826967" y1="217.93862741691635" x2="-124.8629356033774" y2="218.6291134851638"/><line stroke-width="1" stroke="gray" class="link" style="opacity: 0.5;" x1="43.7810834826967" y1="217.93862741691635" x2="61.35373826163978" y2="252.0244720125531"/><line stroke-width="1" stroke="gray" class="link" style="opacity: 0.5;" x1="43.7810834826967" y1="217.93862741691635" x2="7.819184519450767" y2="326.78952258584974"/><line stroke-width="1" stroke="gray" class="link" style="opacity: 0.5;" x1="-198.8484823804907" y1="296.6419831150111" x2="-158.1586770708366" y2="302.87503178714314"/><line stroke-width="1" stroke="gray" class="link" style="opacity: 0.5;" x1="-198.8484823804907" y1="296.6419831150111" x2="-226.03906513593088" y2="255.709372369135"/><line stroke-width="1" stroke="gray" class="link" style="opacity: 0.5;" x1="-218.08854237050036" y1="310.741624987104" x2="-158.1586770708366" y2="302.87503178714314"/><line stroke-width="1" stroke="gray" class="link" style="opacity: 0.5;" x1="-218.08854237050036" y1="310.741624987104" x2="-258.89280045106295" y2="272.2094380124145"/><line stroke-width="1" stroke="gray" class="link" style="opacity: 0.5;" x1="-247.97066309990223" y1="220.85844475928363" x2="-103.29351211871075" y2="309.50286999955057"/><line stroke-width="1" stroke="gray" class="link" style="opacity: 0.5;" x1="-247.97066309990223" y1="220.85844475928363" x2="-236.8757367237005" y2="155.2011673089403"/><line stroke-width="1" stroke="gray" class="link" style="opacity: 0.5;" x1="-247.97066309990223" y1="220.85844475928363" x2="-258.89280045106295" y2="272.2094380124145"/><line stroke-width="1" stroke="gray" class="link" style="opacity: 0.5;" x1="-247.97066309990223" y1="220.85844475928363" x2="-273.5174099718553" y2="105.00601508066144"/><line stroke-width="1" stroke="gray" class="link" style="opacity: 0.5;" x1="-249.46492453488264" y1="93.22468764243223" x2="-122.72733672031451" y2="145.94556633176754"/><line stroke-width="1" stroke="gray" class="link" style="opacity: 0.5;" x1="-249.46492453488264" y1="93.22468764243223" x2="-236.8757367237005" y2="155.2011673089403"/><line stroke-width="1" stroke="gray" class="link" style="opacity: 0.5;" x1="-249.46492453488264" y1="93.22468764243223" x2="-342.1435287922182" y2="-29.972366285946638"/><line stroke-width="1" stroke="gray" class="link" style="opacity: 0.5;" x1="-216.9433872192452" y1="201.88398689124023" x2="-246.19783136992802" y2="135.66407628848518"/><line stroke-width="1" stroke="gray" class="link" style="opacity: 0.5;" x1="-216.9433872192452" y1="201.88398689124023" x2="-120.488494957052" y2="175.5035559186484"/><line stroke-width="1" stroke="gray" class="link" style="opacity: 0.5;" x1="-216.9433872192452" y1="201.88398689124023" x2="-226.03906513593088" y2="255.709372369135"/><line stroke-width="1" stroke="gray" class="link" style="opacity: 0.5;" x1="105.36701158230817" y1="288.1812694951537" x2="117.61200553278326" y2="243.62169849786198"/><line stroke-width="1" stroke="gray" class="link" style="opacity: 0.5;" x1="105.36701158230817" y1="288.1812694951537" x2="61.35373826163978" y2="252.0244720125531"/><line stroke-width="1" stroke="gray" class="link" style="opacity: 0.5;" x1="-153.002650471773" y1="270.4910780252188" x2="-158.1586770708366" y2="302.87503178714314"/><line stroke-width="1" stroke="gray" class="link" style="opacity: 0.5;" x1="-153.002650471773" y1="270.4910780252188" x2="-124.8629356033774" y2="218.6291134851638"/><line stroke-width="1" stroke="gray" class="link" style="opacity: 0.5;" x1="-105.84170181659925" y1="272.5875555582699" x2="-103.29351211871075" y2="309.50286999955057"/><line stroke-width="1" stroke="gray" class="link" style="opacity: 0.5;" x1="-105.84170181659925" y1="272.5875555582699" x2="-158.1586770708366" y2="302.87503178714314"/><line stroke-width="1" stroke="gray" class="link" style="opacity: 0.5;" x1="-105.84170181659925" y1="272.5875555582699" x2="7.819184519450767" y2="326.78952258584974"/><line stroke-width="1" stroke="gray" class="link" style="opacity: 0.5;" x1="-105.84170181659925" y1="272.5875555582699" x2="-60.13106406475312" y2="243.7323993940446"/><line stroke-width="1" stroke="gray" class="link" style="opacity: 0.5;" x1="-105.84170181659925" y1="272.5875555582699" x2="-168.01270735321182" y2="65.57569474714484"/><line stroke-width="1" stroke="gray" class="link" style="opacity: 0.5;" x1="-199.8694324135471" y1="34.21995719672773" x2="-118.83292909766911" y2="42.621556357764334"/><line stroke-width="1" stroke="gray" class="link" style="opacity: 0.5;" x1="-199.8694324135471" y1="34.21995719672773" x2="-168.01270735321182" y2="65.57569474714484"/><line stroke-width="1" stroke="gray" class="link" style="opacity: 0.5;" x1="-199.8694324135471" y1="34.21995719672773" x2="-213.5011391180607" y2="-36.30988872121694"/><line stroke-width="1" stroke="gray" class="link" style="opacity: 0.5;" x1="25.876655450161834" y1="281.1978095906788" x2="-103.29351211871075" y2="309.50286999955057"/><line stroke-width="1" stroke="gray" class="link" style="opacity: 0.5;" x1="25.876655450161834" y1="281.1978095906788" x2="71.84650670390056" y2="277.1200056330232"/><line stroke-width="1" stroke="gray" class="link" style="opacity: 0.5;" x1="25.876655450161834" y1="281.1978095906788" x2="-7.978018636664622" y2="244.0382758516744"/><line stroke-width="1" stroke="gray" class="link" style="opacity: 0.5;" x1="25.876655450161834" y1="281.1978095906788" x2="7.819184519450767" y2="326.78952258584974"/><line stroke-width="1" stroke="gray" class="link" style="opacity: 0.5;" x1="25.876655450161834" y1="281.1978095906788" x2="-60.13106406475312" y2="243.7323993940446"/><line stroke-width="1" stroke="gray" class="link" style="opacity: 0.5;" x1="25.876655450161834" y1="281.1978095906788" x2="224.25030743505852" y2="87.43191091663289"/><line stroke-width="1" stroke="gray" class="link" style="opacity: 0.5;" x1="-79.78736077129696" y1="108.40367123398916" x2="-120.488494957052" y2="175.5035559186484"/><line stroke-width="1" stroke="gray" class="link" style="opacity: 0.5;" x1="-79.78736077129696" y1="108.40367123398916" x2="-91.49021827228992" y2="133.79964473382623"/><line stroke-width="1" stroke="gray" class="link" style="opacity: 0.5;" x1="-79.78736077129696" y1="108.40367123398916" x2="24.161432725333096" y2="-117.48018315669023"/><line stroke-width="1" stroke="gray" class="link" style="opacity: 0.5;" x1="-79.78736077129696" y1="108.40367123398916" x2="-60.13106406475312" y2="243.7323993940446"/><line stroke-width="1" stroke="gray" class="link" style="opacity: 0.5;" x1="-104.14732326606907" y1="338.25535899039755" x2="-103.29351211871075" y2="309.50286999955057"/><line stroke-width="1" stroke="gray" class="link" style="opacity: 0.5;" x1="-69.60516960933576" y1="159.26169936610395" x2="-122.72733672031451" y2="145.94556633176754"/><line stroke-width="1" stroke="gray" class="link" style="opacity: 0.5;" x1="-69.60516960933576" y1="159.26169936610395" x2="66.7337289936094" y2="53.5546008957197"/><line stroke-width="1" stroke="gray" class="link" style="opacity: 0.5;" x1="-69.60516960933576" y1="159.26169936610395" x2="-124.8629356033774" y2="218.6291134851638"/><line stroke-width="1" stroke="gray" class="link" style="opacity: 0.5;" x1="-48.83486331979611" y1="197.72080273904606" x2="-122.72733672031451" y2="145.94556633176754"/><line stroke-width="1" stroke="gray" class="link" style="opacity: 0.5;" x1="-48.83486331979611" y1="197.72080273904606" x2="131.15216543908485" y2="172.61270673693858"/><line stroke-width="1" stroke="gray" class="link" style="opacity: 0.5;" x1="-48.83486331979611" y1="197.72080273904606" x2="-246.19783136992802" y2="135.66407628848518"/><line stroke-width="1" stroke="gray" class="link" style="opacity: 0.5;" x1="-48.83486331979611" y1="197.72080273904606" x2="61.35373826163978" y2="252.0244720125531"/><line stroke-width="1" stroke="gray" class="link" style="opacity: 0.5;" x1="-50.09536514167641" y1="224.4562641537169" x2="-158.1586770708366" y2="302.87503178714314"/><line stroke-width="1" stroke="gray" class="link" style="opacity: 0.5;" x1="-50.09536514167641" y1="224.4562641537169" x2="61.35373826163978" y2="252.0244720125531"/><line stroke-width="1" stroke="gray" class="link" style="opacity: 0.5;" x1="-50.09536514167641" y1="224.4562641537169" x2="-29.77977831383832" y2="54.87141890210749"/><line stroke-width="1" stroke="gray" class="link" style="opacity: 0.5;" x1="126.68318656948748" y1="101.28206485311908" x2="113.14217014340717" y2="85.0204300963384"/><line stroke-width="1" stroke="gray" class="link" style="opacity: 0.5;" x1="-273.705768441557" y1="158.9080330503009" x2="-236.8757367237005" y2="155.2011673089403"/><line stroke-width="1" stroke="gray" class="link" style="opacity: 0.5;" x1="-273.705768441557" y1="158.9080330503009" x2="-246.19783136992802" y2="135.66407628848518"/><line stroke-width="1" stroke="gray" class="link" style="opacity: 0.5;" x1="72.01217638821043" y1="-80.27370556563201" x2="-14.739684831903194" y2="-173.0019400158847"/><line stroke-width="1" stroke="gray" class="link" style="opacity: 0.5;" x1="72.01217638821043" y1="-80.27370556563201" x2="113.14217014340717" y2="85.0204300963384"/><line stroke-width="1" stroke="gray" class="link" style="opacity: 0.5;" x1="72.01217638821043" y1="-80.27370556563201" x2="130.27357630528775" y2="-46.65678118181227"/><line stroke-width="1" stroke="gray" class="link" style="opacity: 0.5;" x1="72.01217638821043" y1="-80.27370556563201" x2="12.881910498494724" y2="-74.38756239563521"/><line stroke-width="1" stroke="gray" class="link" style="opacity: 0.5;" x1="72.01217638821043" y1="-80.27370556563201" x2="97.56684962687478" y2="-136.15088427304653"/><line stroke-width="1" stroke="gray" class="link" style="opacity: 0.5;" x1="44.98819191696812" y1="17.989370581444717" x2="49.186867270873925" y2="73.51127969897807"/><line stroke-width="1" stroke="gray" class="link" style="opacity: 0.5;" x1="44.98819191696812" y1="17.989370581444717" x2="149.41482982675623" y2="54.95460248456439"/><line stroke-width="1" stroke="gray" class="link" style="opacity: 0.5;" x1="44.98819191696812" y1="17.989370581444717" x2="41.272601503439894" y2="-0.8365277656742045"/><line stroke-width="1" stroke="gray" class="link" style="opacity: 0.5;" x1="44.98819191696812" y1="17.989370581444717" x2="25.644906067881735" y2="18.361991884834318"/><line stroke-width="1" stroke="gray" class="link" style="opacity: 0.5;" x1="44.98819191696812" y1="17.989370581444717" x2="12.881910498494724" y2="-74.38756239563521"/><line stroke-width="1" stroke="gray" class="link" style="opacity: 0.5;" x1="44.98819191696812" y1="17.989370581444717" x2="-29.77977831383832" y2="54.87141890210749"/><line stroke-width="1" stroke="gray" class="link" style="opacity: 0.5;" x1="27.997903966412554" y1="88.36329496262276" x2="49.186867270873925" y2="73.51127969897807"/><line stroke-width="1" stroke="gray" class="link" style="opacity: 0.5;" x1="27.997903966412554" y1="88.36329496262276" x2="149.41482982675623" y2="54.95460248456439"/><line stroke-width="1" stroke="gray" class="link" style="opacity: 0.5;" x1="27.997903966412554" y1="88.36329496262276" x2="21.742769169684397" y2="60.721282700441854"/><line stroke-width="1" stroke="gray" class="link" style="opacity: 0.5;" x1="27.997903966412554" y1="88.36329496262276" x2="2.550411720740603" y2="94.4956075832858"/><line stroke-width="1" stroke="gray" class="link" style="opacity: 0.5;" x1="27.997903966412554" y1="88.36329496262276" x2="-29.77977831383832" y2="54.87141890210749"/><line stroke-width="1" stroke="gray" class="link" style="opacity: 0.5;" x1="-166.55313791888497" y1="328.04349656917543" x2="-158.1586770708366" y2="302.87503178714314"/><line stroke-width="1" stroke="gray" class="link" style="opacity: 0.5;" x1="58.98559531966566" y1="135.33316844333442" x2="89.78399267419947" y2="201.9532014121369"/><line stroke-width="1" stroke="gray" class="link" style="opacity: 0.5;" x1="58.98559531966566" y1="135.33316844333442" x2="129.1200424557917" y2="132.44752061871893"/><line stroke-width="1" stroke="gray" class="link" style="opacity: 0.5;" x1="58.98559531966566" y1="135.33316844333442" x2="-20.149247991432098" y2="20.210803667244527"/><line stroke-width="1" stroke="gray" class="link" style="opacity: 0.5;" x1="94.95631741229874" y1="158.86815324121721" x2="66.7337289936094" y2="53.5546008957197"/><line stroke-width="1" stroke="gray" class="link" style="opacity: 0.5;" x1="94.95631741229874" y1="158.86815324121721" x2="113.14217014340717" y2="85.0204300963384"/><line stroke-width="1" stroke="gray" class="link" style="opacity: 0.5;" x1="94.95631741229874" y1="158.86815324121721" x2="117.61200553278326" y2="243.62169849786198"/><line stroke-width="1" stroke="gray" class="link" style="opacity: 0.5;" x1="94.95631741229874" y1="158.86815324121721" x2="49.186867270873925" y2="73.51127969897807"/><line stroke-width="1" stroke="gray" class="link" style="opacity: 0.5;" x1="94.95631741229874" y1="158.86815324121721" x2="138.51280713731836" y2="216.4441752897136"/><line stroke-width="1" stroke="gray" class="link" style="opacity: 0.5;" x1="94.95631741229874" y1="158.86815324121721" x2="129.1200424557917" y2="132.44752061871893"/><line stroke-width="1" stroke="gray" class="link" style="opacity: 0.5;" x1="94.95631741229874" y1="158.86815324121721" x2="-20.149247991432098" y2="20.210803667244527"/><line stroke-width="1" stroke="gray" class="link" style="opacity: 0.5;" x1="41.559726391549155" y1="179.65685541619908" x2="-66.31021827312537" y2="85.38603044911657"/><line stroke-width="1" stroke="gray" class="link" style="opacity: 0.5;" x1="41.559726391549155" y1="179.65685541619908" x2="138.51280713731836" y2="216.4441752897136"/><line stroke-width="1" stroke="gray" class="link" style="opacity: 0.5;" x1="214.40822998583255" y1="134.60453835608692" x2="307.8782943134612" y2="110.52456919020904"/><line stroke-width="1" stroke="gray" class="link" style="opacity: 0.5;" x1="214.40822998583255" y1="134.60453835608692" x2="293.3093929408678" y2="79.98985691043366"/><line stroke-width="1" stroke="gray" class="link" style="opacity: 0.5;" x1="214.40822998583255" y1="134.60453835608692" x2="2.550411720740603" y2="94.4956075832858"/><line stroke-width="1" stroke="gray" class="link" style="opacity: 0.5;" x1="214.40822998583255" y1="134.60453835608692" x2="129.1200424557917" y2="132.44752061871893"/><line stroke-width="1" stroke="gray" class="link" style="opacity: 0.5;" x1="1.093488212983693" y1="-9.811637241381982" x2="-109.6730015186689" y2="4.286431994673556"/><line stroke-width="1" stroke="gray" class="link" style="opacity: 0.5;" x1="1.093488212983693" y1="-9.811637241381982" x2="21.742769169684397" y2="60.721282700441854"/><line stroke-width="1" stroke="gray" class="link" style="opacity: 0.5;" x1="1.093488212983693" y1="-9.811637241381982" x2="-40.24099034115217" y2="5.893979024997737"/><line stroke-width="1" stroke="gray" class="link" style="opacity: 0.5;" x1="1.093488212983693" y1="-9.811637241381982" x2="129.1200424557917" y2="132.44752061871893"/><line stroke-width="1" stroke="gray" class="link" style="opacity: 0.5;" x1="1.093488212983693" y1="-9.811637241381982" x2="97.56684962687478" y2="-136.15088427304653"/><line stroke-width="1" stroke="gray" class="link" style="opacity: 0.5;" x1="150.9857090586519" y1="119.54110194026126" x2="113.14217014340717" y2="85.0204300963384"/><line stroke-width="1" stroke="gray" class="link" style="opacity: 0.5;" x1="150.9857090586519" y1="119.54110194026126" x2="193.47035816965754" y2="120.97145192583771"/><line stroke-width="1" stroke="gray" class="link" style="opacity: 0.5;" x1="150.9857090586519" y1="119.54110194026126" x2="149.41482982675623" y2="54.95460248456439"/><line stroke-width="1" stroke="gray" class="link" style="opacity: 0.5;" x1="150.9857090586519" y1="119.54110194026126" x2="-40.24099034115217" y2="5.893979024997737"/><line stroke-width="1" stroke="gray" class="link" style="opacity: 0.5;" x1="150.9857090586519" y1="119.54110194026126" x2="234.71379607801654" y2="184.45312395180343"/><line stroke-width="1" stroke="gray" class="link" style="opacity: 0.5;" x1="164.52268084594056" y1="211.72256044897054" x2="166.58800225647158" y2="103.59011398839229"/><line stroke-width="1" stroke="gray" class="link" style="opacity: 0.5;" x1="164.52268084594056" y1="211.72256044897054" x2="89.78399267419947" y2="201.9532014121369"/><line stroke-width="1" stroke="gray" class="link" style="opacity: 0.5;" x1="164.52268084594056" y1="211.72256044897054" x2="138.51280713731836" y2="216.4441752897136"/><line stroke-width="1" stroke="gray" class="link" style="opacity: 0.5;" x1="91.71170916076522" y1="124.968240789917" x2="113.14217014340717" y2="85.0204300963384"/><line stroke-width="1" stroke="gray" class="link" style="opacity: 0.5;" x1="91.71170916076522" y1="124.968240789917" x2="89.78399267419947" y2="201.9532014121369"/><line stroke-width="1" stroke="gray" class="link" style="opacity: 0.5;" x1="91.71170916076522" y1="124.968240789917" x2="49.186867270873925" y2="73.51127969897807"/><line stroke-width="1" stroke="gray" class="link" style="opacity: 0.5;" x1="91.71170916076522" y1="124.968240789917" x2="71.84650670390056" y2="277.1200056330232"/><line stroke-width="1" stroke="gray" class="link" style="opacity: 0.5;" x1="91.71170916076522" y1="124.968240789917" x2="204.7679231665511" y2="-65.80969544145987"/><line stroke-width="1" stroke="gray" class="link" style="opacity: 0.5;" x1="91.71170916076522" y1="124.968240789917" x2="-20.149247991432098" y2="20.210803667244527"/><line stroke-width="1" stroke="gray" class="link" style="opacity: 0.5;" x1="266.13307031182563" y1="145.09915908425933" x2="166.58800225647158" y2="103.59011398839229"/><line stroke-width="1" stroke="gray" class="link" style="opacity: 0.5;" x1="266.13307031182563" y1="145.09915908425933" x2="238.58411183294268" y2="63.66837090932067"/><line stroke-width="1" stroke="gray" class="link" style="opacity: 0.5;" x1="266.13307031182563" y1="145.09915908425933" x2="293.3093929408678" y2="79.98985691043366"/><line stroke-width="1" stroke="gray" class="link" style="opacity: 0.5;" x1="266.13307031182563" y1="145.09915908425933" x2="234.71379607801654" y2="184.45312395180343"/><line stroke-width="1" stroke="gray" class="link" style="opacity: 0.5;" x1="11.99662456311177" y1="155.72824572470353" x2="131.15216543908485" y2="172.61270673693858"/><line stroke-width="1" stroke="gray" class="link" style="opacity: 0.5;" x1="11.99662456311177" y1="155.72824572470353" x2="-120.488494957052" y2="175.5035559186484"/><line stroke-width="1" stroke="gray" class="link" style="opacity: 0.5;" x1="11.99662456311177" y1="155.72824572470353" x2="21.742769169684397" y2="60.721282700441854"/><line stroke-width="1" stroke="gray" class="link" style="opacity: 0.5;" x1="64.17815434666848" y1="-24.804368674486735" x2="113.14217014340717" y2="85.0204300963384"/><line stroke-width="1" stroke="gray" class="link" style="opacity: 0.5;" x1="64.17815434666848" y1="-24.804368674486735" x2="21.742769169684397" y2="60.721282700441854"/><line stroke-width="1" stroke="gray" class="link" style="opacity: 0.5;" x1="64.17815434666848" y1="-24.804368674486735" x2="297.76530772458113" y2="-82.15715227777405"/><line stroke-width="1" stroke="gray" class="link" style="opacity: 0.5;" x1="64.17815434666848" y1="-24.804368674486735" x2="-93.07100160529235" y2="-122.8694780530459"/><line stroke-width="1" stroke="gray" class="link" style="opacity: 0.5;" x1="64.17815434666848" y1="-24.804368674486735" x2="-20.149247991432098" y2="20.210803667244527"/><line stroke-width="1" stroke="gray" class="link" style="opacity: 0.5;" x1="98.99172050662189" y1="55.98728813584889" x2="166.58800225647158" y2="103.59011398839229"/><line stroke-width="1" stroke="gray" class="link" style="opacity: 0.5;" x1="98.99172050662189" y1="55.98728813584889" x2="49.186867270873925" y2="73.51127969897807"/><line stroke-width="1" stroke="gray" class="link" style="opacity: 0.5;" x1="98.99172050662189" y1="55.98728813584889" x2="149.41482982675623" y2="54.95460248456439"/><line stroke-width="1" stroke="gray" class="link" style="opacity: 0.5;" x1="98.99172050662189" y1="55.98728813584889" x2="21.742769169684397" y2="60.721282700441854"/><line stroke-width="1" stroke="gray" class="link" style="opacity: 0.5;" x1="98.99172050662189" y1="55.98728813584889" x2="2.550411720740603" y2="94.4956075832858"/><line stroke-width="1" stroke="gray" class="link" style="opacity: 0.5;" x1="98.99172050662189" y1="55.98728813584889" x2="130.27357630528775" y2="-46.65678118181227"/><line stroke-width="1" stroke="gray" class="link" style="opacity: 0.5;" x1="-55.41153968861362" y1="-15.545506375258102" x2="2.550411720740603" y2="94.4956075832858"/><line stroke-width="1" stroke="gray" class="link" style="opacity: 0.5;" x1="-55.41153968861362" y1="-15.545506375258102" x2="-93.07100160529235" y2="-122.8694780530459"/><line stroke-width="1" stroke="gray" class="link" style="opacity: 0.5;" x1="-55.41153968861362" y1="-15.545506375258102" x2="-20.149247991432098" y2="20.210803667244527"/><line stroke-width="1" stroke="gray" class="link" style="opacity: 0.5;" x1="281.77417338548867" y1="-66.58691197499408" x2="228.41657715495464" y2="-208.3765768772245"/><line stroke-width="1" stroke="gray" class="link" style="opacity: 0.5;" x1="281.77417338548867" y1="-66.58691197499408" x2="293.3093929408678" y2="79.98985691043366"/><line stroke-width="1" stroke="gray" class="link" style="opacity: 0.5;" x1="-3.6659361740613092" y1="196.9030604231439" x2="89.78399267419947" y2="201.9532014121369"/><line stroke-width="1" stroke="gray" class="link" style="opacity: 0.5;" x1="-3.6659361740613092" y1="196.9030604231439" x2="-9.658002555826535" y2="293.60832392798346"/><line stroke-width="1" stroke="gray" class="link" style="opacity: 0.5;" x1="-3.6659361740613092" y1="196.9030604231439" x2="-66.31021827312537" y2="85.38603044911657"/><line stroke-width="1" stroke="gray" class="link" style="opacity: 0.5;" x1="-3.6659361740613092" y1="196.9030604231439" x2="2.550411720740603" y2="94.4956075832858"/><line stroke-width="1" stroke="gray" class="link" style="opacity: 0.5;" x1="68.4359592935512" y1="-107.79138922097734" x2="203.00540074155367" y2="-189.2334281990412"/><line stroke-width="1" stroke="gray" class="link" style="opacity: 0.5;" x1="68.4359592935512" y1="-107.79138922097734" x2="49.186867270873925" y2="73.51127969897807"/><line stroke-width="1" stroke="gray" class="link" style="opacity: 0.5;" x1="68.4359592935512" y1="-107.79138922097734" x2="-54.012580822518586" y2="-181.4639521699584"/><line stroke-width="1" stroke="gray" class="link" style="opacity: 0.5;" x1="-110.34165384024831" y1="86.38363746772788" x2="-236.8757367237005" y2="155.2011673089403"/><line stroke-width="1" stroke="gray" class="link" style="opacity: 0.5;" x1="-110.34165384024831" y1="86.38363746772788" x2="-109.6730015186689" y2="4.286431994673556"/><line stroke-width="1" stroke="gray" class="link" style="opacity: 0.5;" x1="-110.34165384024831" y1="86.38363746772788" x2="49.186867270873925" y2="73.51127969897807"/><line stroke-width="1" stroke="gray" class="link" style="opacity: 0.5;" x1="-31.0280565673484" y1="-137.93921653029153" x2="-14.739684831903194" y2="-173.0019400158847"/><line stroke-width="1" stroke="gray" class="link" style="opacity: 0.5;" x1="-31.0280565673484" y1="-137.93921653029153" x2="-93.07100160529235" y2="-122.8694780530459"/><line stroke-width="1" stroke="gray" class="link" style="opacity: 0.5;" x1="-31.0280565673484" y1="-137.93921653029153" x2="12.881910498494724" y2="-74.38756239563521"/><line stroke-width="1" stroke="gray" class="link" style="opacity: 0.5;" x1="-31.0280565673484" y1="-137.93921653029153" x2="12.391757835661256" y2="-139.3619936220201"/><line stroke-width="1" stroke="gray" class="link" style="opacity: 0.5;" x1="-126.17896646498261" y1="-19.956886896301885" x2="-314.5952372661442" y2="-66.64776455075742"/><line stroke-width="1" stroke="gray" class="link" style="opacity: 0.5;" x1="-126.17896646498261" y1="-19.956886896301885" x2="-100.77737238928816" y2="-79.42934247450745"/><line stroke-width="1" stroke="gray" class="link" style="opacity: 0.5;" x1="-126.17896646498261" y1="-19.956886896301885" x2="-118.83292909766911" y2="42.621556357764334"/><line stroke-width="1" stroke="gray" class="link" style="opacity: 0.5;" x1="-126.17896646498261" y1="-19.956886896301885" x2="2.550411720740603" y2="94.4956075832858"/><line stroke-width="1" stroke="gray" class="link" style="opacity: 0.5;" x1="-126.17896646498261" y1="-19.956886896301885" x2="-93.07100160529235" y2="-122.8694780530459"/><line stroke-width="1" stroke="gray" class="link" style="opacity: 0.5;" x1="-126.17896646498261" y1="-19.956886896301885" x2="-29.77977831383832" y2="54.87141890210749"/><line stroke-width="1" stroke="gray" class="link" style="opacity: 0.5;" x1="206.35717242073778" y1="165.2570687643583" x2="280.67435407764805" y2="-101.9359690951675"/><line stroke-width="1" stroke="gray" class="link" style="opacity: 0.5;" x1="206.35717242073778" y1="165.2570687643583" x2="61.35373826163978" y2="252.0244720125531"/><line stroke-width="1" stroke="gray" class="link" style="opacity: 0.5;" x1="206.35717242073778" y1="165.2570687643583" x2="138.51280713731836" y2="216.4441752897136"/><line stroke-width="1" stroke="gray" class="link" style="opacity: 0.5;" x1="206.35717242073778" y1="165.2570687643583" x2="234.71379607801654" y2="184.45312395180343"/><line stroke-width="1" stroke="gray" class="link" style="opacity: 0.5;" x1="186.62564712647253" y1="71.28709656305125" x2="193.47035816965754" y2="120.97145192583771"/><line stroke-width="1" stroke="gray" class="link" style="opacity: 0.5;" x1="186.62564712647253" y1="71.28709656305125" x2="172.5661932762256" y2="-66.61397697003785"/><line stroke-width="1" stroke="gray" class="link" style="opacity: 0.5;" x1="186.62564712647253" y1="71.28709656305125" x2="129.1200424557917" y2="132.44752061871893"/><line stroke-width="1" stroke="gray" class="link" style="opacity: 0.5;" x1="-177.9333422160013" y1="-168.35231633577223" x2="-178.7555203076058" y2="-127.98203198842546"/><line stroke-width="1" stroke="gray" class="link" style="opacity: 0.5;" x1="-177.9333422160013" y1="-168.35231633577223" x2="-207.79662580109382" y2="-183.69336546253646"/><line stroke-width="1" stroke="gray" class="link" style="opacity: 0.5;" x1="-177.9333422160013" y1="-168.35231633577223" x2="24.161432725333096" y2="-117.48018315669023"/><line stroke-width="1" stroke="gray" class="link" style="opacity: 0.5;" x1="-177.9333422160013" y1="-168.35231633577223" x2="-230.7988603155069" y2="-167.5579728120451"/><line stroke-width="1" stroke="gray" class="link" style="opacity: 0.5;" x1="-177.9333422160013" y1="-168.35231633577223" x2="-257.07281219729794" y2="-180.3326076071825"/><line stroke-width="1" stroke="gray" class="link" style="opacity: 0.5;" x1="-96.437816033923" y1="-170.387895316966" x2="-147.4311866895147" y2="-92.7713081181387"/><line stroke-width="1" stroke="gray" class="link" style="opacity: 0.5;" x1="-96.437816033923" y1="-170.387895316966" x2="-150.71308147215424" y2="-271.4124404137188"/><line stroke-width="1" stroke="gray" class="link" style="opacity: 0.5;" x1="-96.437816033923" y1="-170.387895316966" x2="-47.39283346805999" y2="-279.4129449336553"/><line stroke-width="1" stroke="gray" class="link" style="opacity: 0.5;" x1="-96.437816033923" y1="-170.387895316966" x2="-20.149247991432098" y2="20.210803667244527"/><line stroke-width="1" stroke="gray" class="link" style="opacity: 0.5;" x1="-181.72986803585542" y1="-238.7682006371415" x2="-47.39283346805999" y2="-279.4129449336553"/><line stroke-width="1" stroke="gray" class="link" style="opacity: 0.5;" x1="-181.72986803585542" y1="-238.7682006371415" x2="-207.79662580109382" y2="-183.69336546253646"/><line stroke-width="1" stroke="gray" class="link" style="opacity: 0.5;" x1="-181.72986803585542" y1="-238.7682006371415" x2="-230.7988603155069" y2="-167.5579728120451"/><line stroke-width="1" stroke="gray" class="link" style="opacity: 0.5;" x1="-181.72986803585542" y1="-238.7682006371415" x2="-253.27762011672746" y2="-205.99186536160374"/><line stroke-width="1" stroke="gray" class="link" style="opacity: 0.5;" x1="-165.0502881364352" y1="-193.91749986235757" x2="-178.7555203076058" y2="-127.98203198842546"/><line stroke-width="1" stroke="gray" class="link" style="opacity: 0.5;" x1="-165.0502881364352" y1="-193.91749986235757" x2="-54.012580822518586" y2="-181.4639521699584"/><line stroke-width="1" stroke="gray" class="link" style="opacity: 0.5;" x1="-165.0502881364352" y1="-193.91749986235757" x2="-253.27762011672746" y2="-205.99186536160374"/><line stroke-width="1" stroke="gray" class="link" style="opacity: 0.5;" x1="-216.02443673340716" y1="-239.09169620780386" x2="-150.71308147215424" y2="-271.4124404137188"/><line stroke-width="1" stroke="gray" class="link" style="opacity: 0.5;" x1="-216.02443673340716" y1="-239.09169620780386" x2="-235.39809777639445" y2="-258.83776810884984"/><line stroke-width="1" stroke="gray" class="link" style="opacity: 0.5;" x1="-216.02443673340716" y1="-239.09169620780386" x2="-230.43036739289312" y2="-282.988949782155"/><line stroke-width="1" stroke="gray" class="link" style="opacity: 0.5;" x1="-216.02443673340716" y1="-239.09169620780386" x2="-93.07100160529235" y2="-122.8694780530459"/><line stroke-width="1" stroke="gray" class="link" style="opacity: 0.5;" x1="-216.02443673340716" y1="-239.09169620780386" x2="-257.07281219729794" y2="-180.3326076071825"/><line stroke-width="1" stroke="gray" class="link" style="opacity: 0.5;" x1="-216.02443673340716" y1="-239.09169620780386" x2="-253.27762011672746" y2="-205.99186536160374"/><line stroke-width="1" stroke="gray" class="link" style="opacity: 0.5;" x1="-298.6731978690152" y1="38.26628853034309" x2="-240.582264791684" y2="-56.427243124406495"/><line stroke-width="1" stroke="gray" class="link" style="opacity: 0.5;" x1="-298.6731978690152" y1="38.26628853034309" x2="-312.38824889137493" y2="15.776435019734233"/><line stroke-width="1" stroke="gray" class="link" style="opacity: 0.5;" x1="-298.6731978690152" y1="38.26628853034309" x2="-273.5174099718553" y2="105.00601508066144"/><line stroke-width="1" stroke="gray" class="link" style="opacity: 0.5;" x1="-207.8347979156941" y1="-272.5903544472421" x2="-282.1196821910629" y2="-173.8794239360202"/><line stroke-width="1" stroke="gray" class="link" style="opacity: 0.5;" x1="-207.8347979156941" y1="-272.5903544472421" x2="-150.71308147215424" y2="-271.4124404137188"/><line stroke-width="1" stroke="gray" class="link" style="opacity: 0.5;" x1="-207.8347979156941" y1="-272.5903544472421" x2="-109.32916482010324" y2="-294.0240387493365"/><line stroke-width="1" stroke="gray" class="link" style="opacity: 0.5;" x1="-207.8347979156941" y1="-272.5903544472421" x2="-230.43036739289312" y2="-282.988949782155"/><line stroke-width="1" stroke="gray" class="link" style="opacity: 0.5;" x1="-207.8347979156941" y1="-272.5903544472421" x2="-257.07281219729794" y2="-180.3326076071825"/><line stroke-width="1" stroke="gray" class="link" style="opacity: 0.5;" x1="-316.608765125564" y1="-14.462947930948594" x2="-314.5952372661442" y2="-66.64776455075742"/><line stroke-width="1" stroke="gray" class="link" style="opacity: 0.5;" x1="-316.608765125564" y1="-14.462947930948594" x2="-342.1435287922182" y2="-29.972366285946638"/><line stroke-width="1" stroke="gray" class="link" style="opacity: 0.5;" x1="-316.608765125564" y1="-14.462947930948594" x2="-246.19783136992802" y2="135.66407628848518"/><line stroke-width="1" stroke="gray" class="link" style="opacity: 0.5;" x1="-316.608765125564" y1="-14.462947930948594" x2="-312.38824889137493" y2="15.776435019734233"/><line stroke-width="1" stroke="gray" class="link" style="opacity: 0.5;" x1="-316.608765125564" y1="-14.462947930948594" x2="-257.07281219729794" y2="-180.3326076071825"/><line stroke-width="1" stroke="gray" class="link" style="opacity: 0.5;" x1="-316.608765125564" y1="-14.462947930948594" x2="-283.6643399374089" y2="-39.091173076053806"/><line stroke-width="1" stroke="gray" class="link" style="opacity: 0.5;" x1="-147.58840463297224" y1="-46.379640130452245" x2="-147.4311866895147" y2="-92.7713081181387"/><line stroke-width="1" stroke="gray" class="link" style="opacity: 0.5;" x1="-147.58840463297224" y1="-46.379640130452245" x2="-178.7555203076058" y2="-127.98203198842546"/><line stroke-width="1" stroke="gray" class="link" style="opacity: 0.5;" x1="-147.58840463297224" y1="-46.379640130452245" x2="-213.5011391180607" y2="-36.30988872121694"/><line stroke-width="1" stroke="gray" class="link" style="opacity: 0.5;" x1="-147.58840463297224" y1="-46.379640130452245" x2="-29.77977831383832" y2="54.87141890210749"/><line stroke-width="1" stroke="gray" class="link" style="opacity: 0.5;" x1="-270.0012975853807" y1="-243.07089561089447" x2="-230.43036739289312" y2="-282.988949782155"/><line stroke-width="1" stroke="gray" class="link" style="opacity: 0.5;" x1="-270.0012975853807" y1="-243.07089561089447" x2="-257.07281219729794" y2="-180.3326076071825"/><line stroke-width="1" stroke="gray" class="link" style="opacity: 0.5;" x1="-152.68541909599347" y1="-302.6711768656103" x2="-150.71308147215424" y2="-271.4124404137188"/><line stroke-width="1" stroke="gray" class="link" style="opacity: 0.5;" x1="-221.54391397038142" y1="-91.08145126525048" x2="-282.1196821910629" y2="-173.8794239360202"/><line stroke-width="1" stroke="gray" class="link" style="opacity: 0.5;" x1="-221.54391397038142" y1="-91.08145126525048" x2="-207.79662580109382" y2="-183.69336546253646"/><line stroke-width="1" stroke="gray" class="link" style="opacity: 0.5;" x1="-221.54391397038142" y1="-91.08145126525048" x2="-40.24099034115217" y2="5.893979024997737"/><line stroke-width="1" stroke="gray" class="link" style="opacity: 0.5;" x1="-221.54391397038142" y1="-91.08145126525048" x2="-283.6643399374089" y2="-39.091173076053806"/><line stroke-width="1" stroke="gray" class="link" style="opacity: 0.5;" x1="-307.4297970642092" y1="-133.463235161834" x2="-282.1196821910629" y2="-173.8794239360202"/><line stroke-width="1" stroke="gray" class="link" style="opacity: 0.5;" x1="-307.4297970642092" y1="-133.463235161834" x2="-314.5952372661442" y2="-66.64776455075742"/><line stroke-width="1" stroke="gray" class="link" style="opacity: 0.5;" x1="-307.4297970642092" y1="-133.463235161834" x2="-312.38824889137493" y2="15.776435019734233"/><line stroke-width="1" stroke="gray" class="link" style="opacity: 0.5;" x1="-307.4297970642092" y1="-133.463235161834" x2="-230.7988603155069" y2="-167.5579728120451"/><line stroke-width="1" stroke="gray" class="link" style="opacity: 0.5;" x1="-307.4297970642092" y1="-133.463235161834" x2="-257.07281219729794" y2="-180.3326076071825"/><line stroke-width="1" stroke="gray" class="link" style="opacity: 0.5;" x1="-239.77724250763669" y1="-132.5716178229091" x2="-282.1196821910629" y2="-173.8794239360202"/><line stroke-width="1" stroke="gray" class="link" style="opacity: 0.5;" x1="-239.77724250763669" y1="-132.5716178229091" x2="-271.95968381778226" y2="-116.81923219691483"/><line stroke-width="1" stroke="gray" class="link" style="opacity: 0.5;" x1="-239.77724250763669" y1="-132.5716178229091" x2="-93.07100160529235" y2="-122.8694780530459"/><line stroke-width="1" stroke="gray" class="link" style="opacity: 0.5;" x1="-239.77724250763669" y1="-132.5716178229091" x2="-213.5011391180607" y2="-36.30988872121694"/><line stroke-width="1" stroke="gray" class="link" style="opacity: 0.5;" x1="-239.77724250763669" y1="-132.5716178229091" x2="-253.27762011672746" y2="-205.99186536160374"/><line stroke-width="1" stroke="gray" class="link" style="opacity: 0.5;" x1="-123.60494028269797" y1="-240.5512723765491" x2="-47.39283346805999" y2="-279.4129449336553"/><line stroke-width="1" stroke="gray" class="link" style="opacity: 0.5;" x1="-123.60494028269797" y1="-240.5512723765491" x2="-54.012580822518586" y2="-181.4639521699584"/><line stroke-width="1" stroke="gray" class="link" style="opacity: 0.5;" x1="-123.60494028269797" y1="-240.5512723765491" x2="-257.07281219729794" y2="-180.3326076071825"/><line stroke-width="1" stroke="gray" class="link" style="opacity: 0.5;" x1="-85.06512394496093" y1="-202.07900449798444" x2="-14.739684831903194" y2="-173.0019400158847"/><line stroke-width="1" stroke="gray" class="link" style="opacity: 0.5;" x1="-85.06512394496093" y1="-202.07900449798444" x2="-240.582264791684" y2="-56.427243124406495"/><line stroke-width="1" stroke="gray" class="link" style="opacity: 0.5;" x1="-85.06512394496093" y1="-202.07900449798444" x2="-150.71308147215424" y2="-271.4124404137188"/><line stroke-width="1" stroke="gray" class="link" style="opacity: 0.5;" x1="-85.06512394496093" y1="-202.07900449798444" x2="61.65630724146294" y2="-164.63293227945547"/><line stroke-width="1" stroke="gray" class="link" style="opacity: 0.5;" x1="-316.8770009660064" y1="-114.1243555275362" x2="-342.1435287922182" y2="-29.972366285946638"/><line stroke-width="1" stroke="gray" class="link" style="opacity: 0.5;" x1="-316.8770009660064" y1="-114.1243555275362" x2="-257.07281219729794" y2="-180.3326076071825"/><line stroke-width="1" stroke="gray" class="link" style="opacity: 0.5;" x1="-54.024967784501264" y1="-139.66259087510605" x2="-100.77737238928816" y2="-79.42934247450745"/><line stroke-width="1" stroke="gray" class="link" style="opacity: 0.5;" x1="-54.024967784501264" y1="-139.66259087510605" x2="-54.012580822518586" y2="-181.4639521699584"/><line stroke-width="1" stroke="gray" class="link" style="opacity: 0.5;" x1="-54.024967784501264" y1="-139.66259087510605" x2="24.161432725333096" y2="-117.48018315669023"/><line stroke-width="1" stroke="gray" class="link" style="opacity: 0.5;" x1="-337.4849011666642" y1="-110.57835171188917" x2="-314.5952372661442" y2="-66.64776455075742"/><line stroke-width="1" stroke="gray" class="link" style="opacity: 0.5;" x1="-337.4849011666642" y1="-110.57835171188917" x2="-342.1435287922182" y2="-29.972366285946638"/><line stroke-width="1" stroke="gray" class="link" style="opacity: 0.5;" x1="-337.4849011666642" y1="-110.57835171188917" x2="-271.95968381778226" y2="-116.81923219691483"/><line stroke-width="1" stroke="gray" class="link" style="opacity: 0.5;" x1="-337.4849011666642" y1="-110.57835171188917" x2="-253.27762011672746" y2="-205.99186536160374"/><line stroke-width="1" stroke="gray" class="link" style="opacity: 0.5;" x1="-175.57612948377445" y1="-106.11947527335798" x2="3.610632132199059" y2="-156.0983514411851"/><line stroke-width="1" stroke="gray" class="link" style="opacity: 0.5;" x1="-175.57612948377445" y1="-106.11947527335798" x2="-66.31021827312537" y2="85.38603044911657"/><line stroke-width="1" stroke="gray" class="link" style="opacity: 0.5;" x1="-175.57612948377445" y1="-106.11947527335798" x2="-271.95968381778226" y2="-116.81923219691483"/><line stroke-width="1" stroke="gray" class="link" style="opacity: 0.5;" x1="-175.57612948377445" y1="-106.11947527335798" x2="-230.7988603155069" y2="-167.5579728120451"/><line stroke-width="1" stroke="gray" class="link" style="opacity: 0.5;" x1="-175.57612948377445" y1="-106.11947527335798" x2="-257.07281219729794" y2="-180.3326076071825"/><line stroke-width="1" stroke="gray" class="link" style="opacity: 0.5;" x1="-296.6294847741108" y1="-57.42032991666861" x2="-240.582264791684" y2="-56.427243124406495"/><line stroke-width="1" stroke="gray" class="link" style="opacity: 0.5;" x1="-296.6294847741108" y1="-57.42032991666861" x2="-314.5952372661442" y2="-66.64776455075742"/><line stroke-width="1" stroke="gray" class="link" style="opacity: 0.5;" x1="20.27219787027732" y1="-291.29840444749817" x2="228.41657715495464" y2="-208.3765768772245"/><line stroke-width="1" stroke="gray" class="link" style="opacity: 0.5;" x1="20.27219787027732" y1="-291.29840444749817" x2="-47.39283346805999" y2="-279.4129449336553"/><line stroke-width="1" stroke="gray" class="link" style="opacity: 0.5;" x1="20.27219787027732" y1="-291.29840444749817" x2="-109.32916482010324" y2="-294.0240387493365"/><line stroke-width="1" stroke="gray" class="link" style="opacity: 0.5;" x1="-172.9895917768117" y1="-46.21127737302729" x2="-147.4311866895147" y2="-92.7713081181387"/><line stroke-width="1" stroke="gray" class="link" style="opacity: 0.5;" x1="-172.9895917768117" y1="-46.21127737302729" x2="-240.582264791684" y2="-56.427243124406495"/><line stroke-width="1" stroke="gray" class="link" style="opacity: 0.5;" x1="-172.9895917768117" y1="-46.21127737302729" x2="-109.6730015186689" y2="4.286431994673556"/><line stroke-width="1" stroke="gray" class="link" style="opacity: 0.5;" x1="-172.9895917768117" y1="-46.21127737302729" x2="-178.7555203076058" y2="-127.98203198842546"/><line stroke-width="1" stroke="gray" class="link" style="opacity: 0.5;" x1="-172.9895917768117" y1="-46.21127737302729" x2="-213.5011391180607" y2="-36.30988872121694"/><line stroke-width="1" stroke="gray" class="link" style="opacity: 0.5;" x1="-172.9895917768117" y1="-46.21127737302729" x2="-20.149247991432098" y2="20.210803667244527"/><line stroke-width="1" stroke="gray" class="link" style="opacity: 0.5;" x1="-135.83137112214575" y1="-212.8548133223057" x2="-47.39283346805999" y2="-279.4129449336553"/><line stroke-width="1" stroke="gray" class="link" style="opacity: 0.5;" x1="-135.83137112214575" y1="-212.8548133223057" x2="-109.32916482010324" y2="-294.0240387493365"/><line stroke-width="1" stroke="gray" class="link" style="opacity: 0.5;" x1="-135.83137112214575" y1="-212.8548133223057" x2="-230.43036739289312" y2="-282.988949782155"/><line stroke-width="1" stroke="gray" class="link" style="opacity: 0.5;" x1="-135.83137112214575" y1="-212.8548133223057" x2="-168.01270735321182" y2="65.57569474714484"/></g><g><circle fill="#7fc97f" r="11.155417527999326" stroke="black" cx="308.35008196537984" cy="-183.5387038165774"><title>p0: 6 connections</title></circle><circle fill="#7fc97f" r="11.155417527999326" stroke="black" cx="122.71927710214734" cy="-260.57398046896327"><title>p1: 6 connections</title></circle><circle fill="#7fc97f" r="11.728734264634367" stroke="black" cx="219.27367445728405" cy="23.930455134451805"><title>p2: 7 connections</title></circle><circle fill="#7fc97f" r="9.842373946721771" stroke="black" cx="37.420392523915396" cy="-63.629072077299014"><title>p3: 4 connections</title></circle><circle fill="#7fc97f" r="9.842373946721771" stroke="black" cx="258.1461919668707" cy="114.21607655035282"><title>p4: 4 connections</title></circle><circle fill="#7fc97f" r="10.531972647421808" stroke="black" cx="92.12905050906899" cy="-324.7772450277477"><title>p5: 5 connections</title></circle><circle fill="#7fc97f" r="9.842373946721771" stroke="black" cx="184.200021204034" cy="-234.55560004821055"><title>p6: 4 connections</title></circle><circle fill="#7fc97f" r="10.531972647421808" stroke="black" cx="172.61742209321832" cy="-11.336940965872975"><title>p7: 5 connections</title></circle><circle fill="#7fc97f" r="11.155417527999326" stroke="black" cx="315.7677295593656" cy="-145.08723376520823"><title>p8: 6 connections</title></circle><circle fill="#7fc97f" r="11.728734264634367" stroke="black" cx="151.84376519836022" cy="-100.56253663841224"><title>p9: 7 connections</title></circle><circle fill="#7fc97f" r="10.531972647421808" stroke="black" cx="313.06432236595157" cy="-17.18992287965341"><title>p10: 5 connections</title></circle><circle fill="#7fc97f" r="9.842373946721771" stroke="black" cx="259.76441918479134" cy="26.61716732872299"><title>p11: 4 connections</title></circle><circle fill="#7fc97f" r="9.059644256269406" stroke="black" cx="331.73491452971786" cy="44.91110209996907"><title>p12: 3 connections</title></circle><circle fill="#7fc97f" r="9.842373946721771" stroke="black" cx="173.64682782598337" cy="-178.1967285611878"><title>p13: 4 connections</title></circle><circle fill="#7fc97f" r="10.531972647421808" stroke="black" cx="147.37304697330572" cy="5.632916290424294"><title>p14: 5 connections</title></circle><circle fill="#7fc97f" r="11.155417527999326" stroke="black" cx="96.92206285318119" cy="-203.39870648078715"><title>p15: 6 connections</title></circle><circle fill="#7fc97f" r="9.059644256269406" stroke="black" cx="99.39382332465055" cy="-9.706469505792782"><title>p16: 3 connections</title></circle><circle fill="#7fc97f" r="11.155417527999326" stroke="black" cx="290.3112610624162" cy="-160.19250484800412"><title>p17: 6 connections</title></circle><circle fill="#7fc97f" r="11.155417527999326" stroke="black" cx="128.87132786639035" cy="-178.07363759394445"><title>p18: 6 connections</title></circle><circle fill="#7fc97f" r="9.842373946721771" stroke="black" cx="350.158438945292" cy="-131.99353047231898"><title>p19: 4 connections</title></circle><circle fill="#7fc97f" r="8.13118223595458" stroke="black" cx="-23.79507083055656" cy="-210.03731846548303"><title>p20: 2 connections</title></circle><circle fill="#7fc97f" r="11.155417527999326" stroke="black" cx="207.77701049625264" cy="-251.1325495003327"><title>p21: 6 connections</title></circle><circle fill="#7fc97f" r="9.059644256269406" stroke="black" cx="235.12863225171927" cy="-102.21226487724127"><title>p22: 3 connections</title></circle><circle fill="#7fc97f" r="9.842373946721771" stroke="black" cx="212.58754631884938" cy="-163.4287151428188"><title>p23: 4 connections</title></circle><circle fill="#7fc97f" r="10.531972647421808" stroke="black" cx="213.27867876275891" cy="-20.13652287314383"><title>p24: 5 connections</title></circle><circle fill="#beaed4" r="9.059644256269406" stroke="black" cx="-102.03557140355798" cy="222.3125516014318"><title>p25: 3 connections</title></circle><circle fill="#beaed4" r="9.842373946721771" stroke="black" cx="-55.288522971412895" cy="125.50863132280286"><title>p26: 4 connections</title></circle><circle fill="#beaed4" r="9.059644256269406" stroke="black" cx="42.05956494740347" cy="109.81581142468785"><title>p27: 3 connections</title></circle><circle fill="#beaed4" r="8.13118223595458" stroke="black" cx="50.86540498742943" cy="335.5734219990722"><title>p28: 2 connections</title></circle><circle fill="#beaed4" r="9.842373946721771" stroke="black" cx="-199.42234983206254" cy="123.08886263337446"><title>p29: 4 connections</title></circle><circle fill="#beaed4" r="8.13118223595458" stroke="black" cx="-2.2995184258943224" cy="351.5435992468398"><title>p30: 2 connections</title></circle><circle fill="#beaed4" r="9.059644256269406" stroke="black" cx="-161.93699373031427" cy="12.870419085428631"><title>p31: 3 connections</title></circle><circle fill="#beaed4" r="11.155417527999326" stroke="black" cx="43.7810834826967" cy="217.93862741691635"><title>p32: 6 connections</title></circle><circle fill="#beaed4" r="8.13118223595458" stroke="black" cx="-198.8484823804907" cy="296.6419831150111"><title>p33: 2 connections</title></circle><circle fill="#beaed4" r="8.13118223595458" stroke="black" cx="-218.08854237050036" cy="310.741624987104"><title>p34: 2 connections</title></circle><circle fill="#beaed4" r="9.842373946721771" stroke="black" cx="-247.97066309990223" cy="220.85844475928363"><title>p35: 4 connections</title></circle><circle fill="#beaed4" r="9.059644256269406" stroke="black" cx="-249.46492453488264" cy="93.22468764243223"><title>p36: 3 connections</title></circle><circle fill="#beaed4" r="9.059644256269406" stroke="black" cx="-216.9433872192452" cy="201.88398689124023"><title>p37: 3 connections</title></circle><circle fill="#beaed4" r="8.13118223595458" stroke="black" cx="105.36701158230817" cy="288.1812694951537"><title>p38: 2 connections</title></circle><circle fill="#beaed4" r="8.13118223595458" stroke="black" cx="-153.002650471773" cy="270.4910780252188"><title>p39: 2 connections</title></circle><circle fill="#beaed4" r="10.531972647421808" stroke="black" cx="-105.84170181659925" cy="272.5875555582699"><title>p40: 5 connections</title></circle><circle fill="#beaed4" r="9.059644256269406" stroke="black" cx="-199.8694324135471" cy="34.21995719672773"><title>p41: 3 connections</title></circle><circle fill="#beaed4" r="11.155417527999326" stroke="black" cx="25.876655450161834" cy="281.1978095906788"><title>p42: 6 connections</title></circle><circle fill="#beaed4" r="9.842373946721771" stroke="black" cx="-79.78736077129696" cy="108.40367123398916"><title>p43: 4 connections</title></circle><circle fill="#beaed4" r="6.921186973360886" stroke="black" cx="-104.14732326606907" cy="338.25535899039755"><title>p44: 1 connections</title></circle><circle fill="#beaed4" r="9.059644256269406" stroke="black" cx="-69.60516960933576" cy="159.26169936610395"><title>p45: 3 connections</title></circle><circle fill="#beaed4" r="9.842373946721771" stroke="black" cx="-48.83486331979611" cy="197.72080273904606"><title>p46: 4 connections</title></circle><circle fill="#beaed4" r="9.059644256269406" stroke="black" cx="-50.09536514167641" cy="224.4562641537169"><title>p47: 3 connections</title></circle><circle fill="#beaed4" r="6.921186973360886" stroke="black" cx="126.68318656948748" cy="101.28206485311908"><title>p48: 1 connections</title></circle><circle fill="#beaed4" r="8.13118223595458" stroke="black" cx="-273.705768441557" cy="158.9080330503009"><title>p49: 2 connections</title></circle><circle fill="#fdc086" r="10.531972647421808" stroke="black" cx="72.01217638821043" cy="-80.27370556563201"><title>p50: 5 connections</title></circle><circle fill="#fdc086" r="11.155417527999326" stroke="black" cx="44.98819191696812" cy="17.989370581444717"><title>p51: 6 connections</title></circle><circle fill="#fdc086" r="10.531972647421808" stroke="black" cx="27.997903966412554" cy="88.36329496262276"><title>p52: 5 connections</title></circle><circle fill="#fdc086" r="6.921186973360886" stroke="black" cx="-166.55313791888497" cy="328.04349656917543"><title>p53: 1 connections</title></circle><circle fill="#fdc086" r="9.059644256269406" stroke="black" cx="58.98559531966566" cy="135.33316844333442"><title>p54: 3 connections</title></circle><circle fill="#fdc086" r="11.728734264634367" stroke="black" cx="94.95631741229874" cy="158.86815324121721"><title>p55: 7 connections</title></circle><circle fill="#fdc086" r="8.13118223595458" stroke="black" cx="41.559726391549155" cy="179.65685541619908"><title>p56: 2 connections</title></circle><circle fill="#fdc086" r="9.842373946721771" stroke="black" cx="214.40822998583255" cy="134.60453835608692"><title>p57: 4 connections</title></circle><circle fill="#fdc086" r="10.531972647421808" stroke="black" cx="1.093488212983693" cy="-9.811637241381982"><title>p58: 5 connections</title></circle><circle fill="#fdc086" r="10.531972647421808" stroke="black" cx="150.9857090586519" cy="119.54110194026126"><title>p59: 5 connections</title></circle><circle fill="#fdc086" r="9.059644256269406" stroke="black" cx="164.52268084594056" cy="211.72256044897054"><title>p60: 3 connections</title></circle><circle fill="#fdc086" r="11.155417527999326" stroke="black" cx="91.71170916076522" cy="124.968240789917"><title>p61: 6 connections</title></circle><circle fill="#fdc086" r="9.842373946721771" stroke="black" cx="266.13307031182563" cy="145.09915908425933"><title>p62: 4 connections</title></circle><circle fill="#fdc086" r="9.059644256269406" stroke="black" cx="11.99662456311177" cy="155.72824572470353"><title>p63: 3 connections</title></circle><circle fill="#fdc086" r="10.531972647421808" stroke="black" cx="64.17815434666848" cy="-24.804368674486735"><title>p64: 5 connections</title></circle><circle fill="#fdc086" r="11.155417527999326" stroke="black" cx="98.99172050662189" cy="55.98728813584889"><title>p65: 6 connections</title></circle><circle fill="#fdc086" r="9.059644256269406" stroke="black" cx="-55.41153968861362" cy="-15.545506375258102"><title>p66: 3 connections</title></circle><circle fill="#fdc086" r="8.13118223595458" stroke="black" cx="281.77417338548867" cy="-66.58691197499408"><title>p67: 2 connections</title></circle><circle fill="#fdc086" r="9.842373946721771" stroke="black" cx="-3.6659361740613092" cy="196.9030604231439"><title>p68: 4 connections</title></circle><circle fill="#fdc086" r="9.059644256269406" stroke="black" cx="68.4359592935512" cy="-107.79138922097734"><title>p69: 3 connections</title></circle><circle fill="#fdc086" r="9.059644256269406" stroke="black" cx="-110.34165384024831" cy="86.38363746772788"><title>p70: 3 connections</title></circle><circle fill="#fdc086" r="9.842373946721771" stroke="black" cx="-31.0280565673484" cy="-137.93921653029153"><title>p71: 4 connections</title></circle><circle fill="#fdc086" r="11.155417527999326" stroke="black" cx="-126.17896646498261" cy="-19.956886896301885"><title>p72: 6 connections</title></circle><circle fill="#fdc086" r="9.842373946721771" stroke="black" cx="206.35717242073778" cy="165.2570687643583"><title>p73: 4 connections</title></circle><circle fill="#fdc086" r="9.059644256269406" stroke="black" cx="186.62564712647253" cy="71.28709656305125"><title>p74: 3 connections</title></circle><circle fill="#ffff99" r="10.531972647421808" stroke="black" cx="-177.9333422160013" cy="-168.35231633577223"><title>p75: 5 connections</title></circle><circle fill="#ffff99" r="9.842373946721771" stroke="black" cx="-96.437816033923" cy="-170.387895316966"><title>p76: 4 connections</title></circle><circle fill="#ffff99" r="9.842373946721771" stroke="black" cx="-181.72986803585542" cy="-238.7682006371415"><title>p77: 4 connections</title></circle><circle fill="#ffff99" r="9.059644256269406" stroke="black" cx="-165.0502881364352" cy="-193.91749986235757"><title>p78: 3 connections</title></circle><circle fill="#ffff99" r="11.155417527999326" stroke="black" cx="-216.02443673340716" cy="-239.09169620780386"><title>p79: 6 connections</title></circle><circle fill="#ffff99" r="9.059644256269406" stroke="black" cx="-298.6731978690152" cy="38.26628853034309"><title>p80: 3 connections</title></circle><circle fill="#ffff99" r="10.531972647421808" stroke="black" cx="-207.8347979156941" cy="-272.5903544472421"><title>p81: 5 connections</title></circle><circle fill="#ffff99" r="11.155417527999326" stroke="black" cx="-316.608765125564" cy="-14.462947930948594"><title>p82: 6 connections</title></circle><circle fill="#ffff99" r="9.842373946721771" stroke="black" cx="-147.58840463297224" cy="-46.379640130452245"><title>p83: 4 connections</title></circle><circle fill="#ffff99" r="8.13118223595458" stroke="black" cx="-270.0012975853807" cy="-243.07089561089447"><title>p84: 2 connections</title></circle><circle fill="#ffff99" r="6.921186973360886" stroke="black" cx="-152.68541909599347" cy="-302.6711768656103"><title>p85: 1 connections</title></circle><circle fill="#ffff99" r="9.842373946721771" stroke="black" cx="-221.54391397038142" cy="-91.08145126525048"><title>p86: 4 connections</title></circle><circle fill="#ffff99" r="10.531972647421808" stroke="black" cx="-307.4297970642092" cy="-133.463235161834"><title>p87: 5 connections</title></circle><circle fill="#ffff99" r="10.531972647421808" stroke="black" cx="-239.77724250763669" cy="-132.5716178229091"><title>p88: 5 connections</title></circle><circle fill="#ffff99" r="9.059644256269406" stroke="black" cx="-123.60494028269797" cy="-240.5512723765491"><title>p89: 3 connections</title></circle><circle fill="#ffff99" r="9.842373946721771" stroke="black" cx="-85.06512394496093" cy="-202.07900449798444"><title>p90: 4 connections</title></circle><circle fill="#ffff99" r="8.13118223595458" stroke="black" cx="-316.8770009660064" cy="-114.1243555275362"><title>p91: 2 connections</title></circle><circle fill="#ffff99" r="9.059644256269406" stroke="black" cx="-54.024967784501264" cy="-139.66259087510605"><title>p92: 3 connections</title></circle><circle fill="#ffff99" r="9.842373946721771" stroke="black" cx="-337.4849011666642" cy="-110.57835171188917"><title>p93: 4 connections</title></circle><circle fill="#ffff99" r="10.531972647421808" stroke="black" cx="-175.57612948377445" cy="-106.11947527335798"><title>p94: 5 connections</title></circle><circle fill="#ffff99" r="8.13118223595458" stroke="black" cx="-296.6294847741108" cy="-57.42032991666861"><title>p95: 2 connections</title></circle><circle fill="#ffff99" r="9.059644256269406" stroke="black" cx="20.27219787027732" cy="-291.29840444749817"><title>p96: 3 connections</title></circle><circle fill="#ffff99" r="11.155417527999326" stroke="black" cx="-172.9895917768117" cy="-46.21127737302729"><title>p97: 6 connections</title></circle><circle fill="#ffff99" r="4" stroke="black" cx="-396.35359544075715" cy="169.21930940360508"><title>p98: 0 connections</title></circle><circle fill="#ffff99" r="9.842373946721771" stroke="black" cx="-135.83137112214575" cy="-212.8548133223057"><title>p99: 4 connections</title></circle></g><g><rect fill="rgb(255, 255, 255)" width="9.842373946721771" height="9.842373946721771" stroke="black" x="256.7200337052583" y="-217.63847038500302"/><rect fill="rgb(231, 231, 231)" width="11.728734264634367" height="11.728734264634367" stroke="black" x="274.8099869453309" y="-107.80033622748468"/><rect fill="rgb(198, 198, 198)" width="9.059644256269406" height="9.059644256269406" stroke="black" x="-19.269506960037898" y="-177.5317621440194"/><rect fill="rgb(227, 227, 227)" width="11.155417527999326" height="11.155417527999326" stroke="black" x="-128.30504548431418" y="140.36785756776789"/><rect fill="rgb(255, 255, 255)" width="9.842373946721771" height="9.842373946721771" stroke="black" x="-287.0408691644238" y="-178.80061090938108"/><rect fill="rgb(153, 153, 153)" width="10.531972647421808" height="10.531972647421808" stroke="black" x="61.4677426698985" y="48.2886145720088"/><rect fill="rgb(255, 255, 255)" width="9.842373946721771" height="9.842373946721771" stroke="black" x="-108.21469909207164" y="304.5816830261897"/><rect fill="rgb(255, 255, 255)" width="9.059644256269406" height="9.059644256269406" stroke="black" x="-151.9610088176494" y="-97.3011302462734"/><rect fill="rgb(255, 255, 255)" width="9.842373946721771" height="9.842373946721771" stroke="black" x="-245.50345176504487" y="-61.34843009776738"/><rect fill="rgb(198, 198, 198)" width="9.059644256269406" height="9.059644256269406" stroke="black" x="-0.919189995935644" y="-160.62817356931978"/><rect fill="rgb(255, 255, 255)" width="9.059644256269406" height="9.059644256269406" stroke="black" x="145.51521268291137" y="-157.50019437838054"/><rect fill="rgb(227, 227, 227)" width="11.155417527999326" height="11.155417527999326" stroke="black" x="-163.73638583483626" y="297.29732302314346"/><rect fill="rgb(170, 170, 170)" width="12.262364471909157" height="12.262364471909157" stroke="black" x="107.01098790745259" y="78.88924786038382"/><rect fill="rgb(170, 170, 170)" width="8.13118223595458" height="8.13118223595458" stroke="black" x="113.54641441480597" y="239.5561073798847"/><rect fill="rgb(213, 213, 213)" width="9.842373946721771" height="9.842373946721771" stroke="black" x="161.6668152831107" y="98.6689270150314"/><rect fill="rgb(227, 227, 227)" width="11.155417527999326" height="11.155417527999326" stroke="black" x="197.42769197755402" y="-194.81113696304087"/><rect fill="rgb(255, 255, 255)" width="8.13118223595458" height="8.13118223595458" stroke="black" x="189.40476705168027" y="116.90586080786042"/><rect fill="rgb(221, 221, 221)" width="10.531972647421808" height="10.531972647421808" stroke="black" x="-319.86122358985506" y="-71.91375087446832"/><rect fill="rgb(255, 255, 255)" width="9.842373946721771" height="9.842373946721771" stroke="black" x="84.86280570083858" y="197.03201443877603"/><rect fill="rgb(213, 213, 213)" width="9.842373946721771" height="9.842373946721771" stroke="black" x="-241.79692369706137" y="150.27998033557944"/><rect fill="rgb(255, 255, 255)" width="6.921186973360886" height="6.921186973360886" stroke="black" x="287.5302024284193" y="135.25725130119528"/><rect fill="rgb(198, 198, 198)" width="9.059644256269406" height="9.059644256269406" stroke="black" x="-114.2028236468036" y="-0.2433901334611468"/><rect fill="rgb(198, 198, 198)" width="12.763560920082657" height="12.763560920082657" stroke="black" x="42.8050868108326" y="67.12949923893675"/><rect fill="rgb(119, 119, 119)" width="10.531972647421808" height="10.531972647421808" stroke="black" x="125.88617911537395" y="167.34672041322767"/><rect fill="rgb(255, 255, 255)" width="10.531972647421808" height="10.531972647421808" stroke="black" x="-155.97906779586515" y="-276.6784267374297"/><rect fill="rgb(198, 198, 198)" width="11.155417527999326" height="11.155417527999326" stroke="black" x="143.83712106275658" y="49.37689372056472"/><rect fill="rgb(198, 198, 198)" width="9.059644256269406" height="9.059644256269406" stroke="black" x="67.31668457576586" y="272.5901835048885"/><rect fill="rgb(213, 213, 213)" width="9.842373946721771" height="9.842373946721771" stroke="black" x="-347.0647157655791" y="-34.893553259307524"/><rect fill="rgb(170, 170, 170)" width="8.13118223595458" height="8.13118223595458" stroke="black" x="303.8127031954839" y="106.45897807223174"/><rect fill="rgb(213, 213, 213)" width="9.842373946721771" height="9.842373946721771" stroke="black" x="-251.1190183432889" y="130.7428893151243"/><rect fill="rgb(128, 128, 128)" width="9.842373946721771" height="9.842373946721771" stroke="black" x="223.49539018159376" y="-213.29776385058537"/><rect fill="rgb(255, 255, 255)" width="10.531972647421808" height="10.531972647421808" stroke="black" x="145.28210350702417" y="-288.4343744854994"/><rect fill="rgb(198, 198, 198)" width="9.059644256269406" height="9.059644256269406" stroke="black" x="-125.0183170851867" y="170.9737337905137"/><rect fill="rgb(206, 206, 206)" width="11.728734264634367" height="11.728734264634367" stroke="black" x="-53.257200600377175" y="-285.27731206597247"/><rect fill="rgb(170, 170, 170)" width="8.13118223595458" height="8.13118223595458" stroke="black" x="-13.723593673803824" y="289.54273281000616"/><rect fill="rgb(198, 198, 198)" width="9.059644256269406" height="9.059644256269406" stroke="black" x="234.05428970480799" y="59.13854878118597"/><rect fill="rgb(198, 198, 198)" width="9.059644256269406" height="9.059644256269406" stroke="black" x="-70.84004040126007" y="80.85620832098188"/><rect fill="rgb(255, 255, 255)" width="9.842373946721771" height="9.842373946721771" stroke="black" x="-183.67670728096667" y="-132.90321896178634"/><rect fill="rgb(255, 255, 255)" width="10.531972647421808" height="10.531972647421808" stroke="black" x="233.48448819867775" y="-270.9463391631542"/><rect fill="rgb(213, 213, 213)" width="9.842373946721771" height="9.842373946721771" stroke="black" x="167.64500630286472" y="-71.53516394339874"/><rect fill="rgb(255, 255, 255)" width="8.13118223595458" height="8.13118223595458" stroke="black" x="110.99914672071742" y="-323.79100460106696"/><rect fill="rgb(213, 213, 213)" width="9.842373946721771" height="9.842373946721771" stroke="black" x="-317.3094358647358" y="10.855248046373347"/><rect fill="rgb(255, 255, 255)" width="10.531972647421808" height="10.531972647421808" stroke="black" x="-130.1289219270883" y="213.3631271614529"/><rect fill="rgb(255, 255, 255)" width="9.059644256269406" height="9.059644256269406" stroke="black" x="-212.32644792922852" y="-188.22318759067116"/><rect fill="rgb(198, 198, 198)" width="9.059644256269406" height="9.059644256269406" stroke="black" x="116.26106303272451" y="6.766398147654084"/><rect fill="rgb(255, 255, 255)" width="6.921186973360886" height="6.921186973360886" stroke="black" x="-238.8586912630749" y="-262.2983615955303"/><rect fill="rgb(255, 255, 255)" width="10.531972647421808" height="10.531972647421808" stroke="black" x="351.9562785703273" y="-83.14548147711008"/><rect fill="rgb(255, 255, 255)" width="10.531972647421808" height="10.531972647421808" stroke="black" x="16.476782845973492" y="55.45529637673095"/><rect fill="rgb(255, 255, 255)" width="6.921186973360886" height="6.921186973360886" stroke="black" x="124.13087245554593" y="-210.90321025990198"/><rect fill="rgb(170, 170, 170)" width="8.13118223595458" height="8.13118223595458" stroke="black" x="-104.84296350726545" y="-83.49493359248474"/><rect fill="rgb(255, 255, 255)" width="9.059644256269406" height="9.059644256269406" stroke="black" x="275.7781783245232" y="53.06672074953357"/><rect fill="rgb(255, 255, 255)" width="9.059644256269406" height="9.059644256269406" stroke="black" x="288.7795708127331" y="75.46003478229896"/><rect fill="rgb(255, 255, 255)" width="8.13118223595458" height="8.13118223595458" stroke="black" x="79.25464174832332" y="-256.65362945532576"/><rect fill="rgb(255, 255, 255)" width="8.13118223595458" height="8.13118223595458" stroke="black" x="-95.55580939026721" y="129.73405361584895"/><rect fill="rgb(255, 255, 255)" width="9.059644256269406" height="9.059644256269406" stroke="black" x="-276.48950594591696" y="-121.34905432504952"/><rect fill="rgb(255, 255, 255)" width="9.842373946721771" height="9.842373946721771" stroke="black" x="342.17313166366716" y="-176.647867417579"/><rect fill="rgb(198, 198, 198)" width="9.059644256269406" height="9.059644256269406" stroke="black" x="-123.3627512258038" y="38.09173422962963"/><rect fill="rgb(221, 221, 221)" width="10.531972647421808" height="10.531972647421808" stroke="black" x="56.08775193792888" y="246.7584856888422"/><rect fill="rgb(227, 227, 227)" width="11.155417527999326" height="11.155417527999326" stroke="black" x="292.18759896058145" y="-87.73486104177371"/><rect fill="rgb(255, 255, 255)" width="6.921186973360886" height="6.921186973360886" stroke="black" x="37.81200801675945" y="-4.297121252354647"/><rect fill="rgb(255, 255, 255)" width="9.059644256269406" height="9.059644256269406" stroke="black" x="-113.85898694823794" y="-298.5538608774712"/><rect fill="rgb(153, 153, 153)" width="10.531972647421808" height="10.531972647421808" stroke="black" x="-59.27856714622949" y="-186.7299384936693"/><rect fill="rgb(255, 255, 255)" width="9.842373946721771" height="9.842373946721771" stroke="black" x="133.5916201639575" y="211.52298831635272"/><rect fill="rgb(255, 255, 255)" width="9.059644256269406" height="9.059644256269406" stroke="black" x="159.748989541644" y="-208.98698050474266"/><rect fill="rgb(255, 255, 255)" width="6.921186973360886" height="6.921186973360886" stroke="black" x="22.18431258120129" y="14.901398398153875"/><rect fill="rgb(255, 255, 255)" width="11.155417527999326" height="11.155417527999326" stroke="black" x="-3.02729704325906" y="88.91789881928614"/><rect fill="rgb(198, 198, 198)" width="9.059644256269406" height="9.059644256269406" stroke="black" x="-44.770812469286874" y="1.364156896863034"/><rect fill="rgb(255, 255, 255)" width="9.059644256269406" height="9.059644256269406" stroke="black" x="-12.507840764799326" y="239.5084537235397"/><rect fill="rgb(213, 213, 213)" width="9.842373946721771" height="9.842373946721771" stroke="black" x="199.84673619319022" y="-70.73088241482075"/><rect fill="rgb(255, 255, 255)" width="9.842373946721771" height="9.842373946721771" stroke="black" x="273.0745204732749" y="-29.28209596542887"/><rect fill="rgb(142, 142, 142)" width="11.155417527999326" height="11.155417527999326" stroke="black" x="18.583723961333433" y="-123.0578919206899"/><rect fill="rgb(255, 255, 255)" width="8.13118223595458" height="8.13118223595458" stroke="black" x="152.3910874917304" y="-59.021170750493525"/><rect fill="rgb(198, 198, 198)" width="9.059644256269406" height="9.059644256269406" stroke="black" x="125.74375417715305" y="-51.186603309946975"/><rect fill="rgb(255, 255, 255)" width="9.842373946721771" height="9.842373946721771" stroke="black" x="-235.351554366254" y="-287.91013675551585"/><rect fill="rgb(255, 255, 255)" width="9.059644256269406" height="9.059644256269406" stroke="black" x="230.18397394988185" y="179.92330182366874"/><rect fill="rgb(255, 255, 255)" width="10.531972647421808" height="10.531972647421808" stroke="black" x="2.5531981957398626" y="321.52353626213886"/><rect fill="rgb(158, 158, 158)" width="11.728734264634367" height="11.728734264634367" stroke="black" x="-98.93536873760954" y="-128.73384518536307"/><rect fill="rgb(255, 255, 255)" width="10.531972647421808" height="10.531972647421808" stroke="black" x="123.85405613208079" y="127.18153429500802"/><rect fill="rgb(255, 255, 255)" width="9.842373946721771" height="9.842373946721771" stroke="black" x="-65.05225103811401" y="238.81121242068372"/><rect fill="rgb(198, 198, 198)" width="9.059644256269406" height="9.059644256269406" stroke="black" x="57.126485113328236" y="-169.16275440759017"/><rect fill="rgb(255, 255, 255)" width="9.842373946721771" height="9.842373946721771" stroke="black" x="-235.72004728886776" y="-172.47915978540598"/><rect fill="rgb(255, 255, 255)" width="8.13118223595458" height="8.13118223595458" stroke="black" x="205.41587102508927" y="-110.76325987076603"/><rect fill="rgb(255, 255, 255)" width="8.13118223595458" height="8.13118223595458" stroke="black" x="-262.95839156904026" y="268.1438468944372"/><rect fill="rgb(255, 255, 255)" width="9.059644256269406" height="9.059644256269406" stroke="black" x="8.352088370360022" y="-78.91738452376991"/><rect fill="rgb(255, 255, 255)" width="9.842373946721771" height="9.842373946721771" stroke="black" x="179.13294061007252" y="-153.01018014487485"/><rect fill="rgb(231, 231, 231)" width="11.728734264634367" height="11.728734264634367" stroke="black" x="192.36356037857598" y="-0.49483291886823544"/><rect fill="rgb(198, 198, 198)" width="9.059644256269406" height="9.059644256269406" stroke="black" x="93.03702749874009" y="-140.68070640118123"/><rect fill="rgb(227, 227, 227)" width="11.155417527999326" height="11.155417527999326" stroke="black" x="-173.59041611721148" y="59.99798598314517"/><rect fill="rgb(213, 213, 213)" width="9.842373946721771" height="9.842373946721771" stroke="black" x="-218.42232609142158" y="-41.231075694577825"/><rect fill="rgb(206, 206, 206)" width="11.728734264634367" height="11.728734264634367" stroke="black" x="-26.013615123749283" y="14.346436534927342"/><rect fill="rgb(85, 85, 85)" width="11.155417527999326" height="11.155417527999326" stroke="black" x="-35.35748707783799" y="49.293710138107826"/><rect fill="rgb(255, 255, 255)" width="8.13118223595458" height="8.13118223595458" stroke="black" x="-230.10465625390816" y="251.64378125115772"/><rect fill="rgb(128, 128, 128)" width="9.842373946721771" height="9.842373946721771" stroke="black" x="7.47057086230037" y="-144.28318059538097"/><rect fill="rgb(255, 255, 255)" width="8.13118223595458" height="8.13118223595458" stroke="black" x="274.42046812704695" y="-195.81871181307562"/><rect fill="rgb(255, 255, 255)" width="8.13118223595458" height="8.13118223595458" stroke="black" x="84.24843870999115" y="-290.8261296355121"/><rect fill="rgb(255, 255, 255)" width="12.763560920082657" height="12.763560920082657" stroke="black" x="-263.4545926573393" y="-186.71438806722384"/><rect fill="rgb(255, 255, 255)" width="8.13118223595458" height="8.13118223595458" stroke="black" x="-287.7299310553862" y="-43.1567641940311"/><rect fill="rgb(255, 255, 255)" width="10.531972647421808" height="10.531972647421808" stroke="black" x="-258.54360644043834" y="-211.25785168531465"/><rect fill="rgb(221, 221, 221)" width="10.531972647421808" height="10.531972647421808" stroke="black" x="218.9843211113476" y="82.16592459292198"/><rect fill="rgb(198, 198, 198)" width="9.059644256269406" height="9.059644256269406" stroke="black" x="-278.04723209998997" y="100.47619295252674"/></g></svg>