<svg xmlns="http://www.w3.org/2000/svg" xmlns:xlink="http://www.w3.org/1999/xlink" version="1.1" class="marks" width="1334" height="358" viewBox="0 0 1334 358"><rect width="1334" height="358" fill="white"/><g fill="none" stroke-miterlimit="10" transform="translate(50,12)"><g class="mark-group role-frame root" role="graphics-object" aria-roledescription="group mark container"><g transform="translate(0,0)"><path class="background" aria-hidden="true" d="M0,0h0v300h0Z" fill="#e5e5e5"/><g><g class="mark-group role-scope concat_0_group" role="graphics-object" aria-roledescription="group mark container"><g transform="translate(0,0)"><path class="background" aria-hidden="true" d="M0.5,0.5h600v300h-600Z" stroke="#ddd"/><g><g class="mark-group role-axis" aria-hidden="true"><g transform="translate(0.5,300.5)"><path class="background" aria-hidden="true" d="M0,0h0v0h0Z" pointer-events="none"/><g><g class="mark-rule role-axis-grid" pointer-events="none"><line transform="translate(0,-300)" x2="0" y2="300" stroke="#FFFFFF" stroke-opacity="1" stroke-width="1" opacity="1"/><line transform="translate(30,-300)" x2="0" y2="300" stroke="#FFFFFF" stroke-opacity="1" stroke-width="1" opacity="1"/><line transform="translate(60,-300)" x2="0" y2="300" stroke="#FFFFFF" stroke-opacity="1" stroke-width="1" opacity="1"/><line transform="translate(90,-300)" x2="0" y2="300" stroke="#FFFFFF" stroke-opacity="1" stroke-width="1" opacity="1"/><line transform="translate(120,-300)" x2="0" y2="300" stroke="#FFFFFF" stroke-opacity="1" stroke-width="1" opacity="1"/><line transform="translate(150,-300)" x2="0" y2="300" stroke="#FFFFFF" stroke-opacity="1" stroke-width="1" opacity="1"/><line transform="translate(180,-300)" x2="0" y2="300" stroke="#FFFFFF" stroke-opacity="1" stroke-width="1" opacity="1"/><line transform="translate(210,-300)" x2="0" y2="300" stroke="#FFFFFF" stroke-opacity="1" stroke-width="1" opacity="1"/><line transform="translate(240,-300)" x2="0" y2="300" stroke="#FFFFFF" stroke-opacity="1" stroke-width="1" opacity="1"/><line transform="translate(270,-300)" x2="0" y2="300" stroke="#FFFFFF" stroke-opacity="1" stroke-width="1" opacity="1"/><line transform="translate(300,-300)" x2="0" y2="300" stroke="#FFFFFF" stroke-opacity="1" stroke-width="1" opacity="1"/><line transform="translate(330,-300)" x2="0" y2="300" stroke="#FFFFFF" stroke-opacity="1" stroke-width="1" opacity="1"/><line transform="translate(360,-300)" x2="0" y2="300" stroke="#FFFFFF" stroke-opacity="1" stroke-width="1" opacity="1"/><line transform="translate(390,-300)" x2="0" y2="300" stroke="#FFFFFF" stroke-opacity="1" stroke-width="1" opacity="1"/><line transform="translate(420,-300)" x2="0" y2="300" stroke="#FFFFFF" stroke-opacity="1" stroke-width="1" opacity="1"/><line transform="translate(450,-300)" x2="0" y2="300" stroke="#FFFFFF" stroke-opacity="1" stroke-width="1" opacity="1"/><line transform="translate(480,-300)" x2="0" y2="300" stroke="#FFFFFF" stroke-opacity="1" stroke-width="1" opacity="1"/><line transform="translate(510,-300)" x2="0" y2="300" stroke="#FFFFFF" stroke-opacity="1" stroke-width="1" opacity="1"/><line transform="translate(540,-300)" x2="0" y2="300" stroke="#FFFFFF" stroke-opacity="1" stroke-width="1" opacity="1"/><line transform="translate(570,-300)" x2="0" y2="300" stroke="#FFFFFF" stroke-opacity="1" stroke-width="1" opacity="1"/><line transform="translate(600,-300)" x2="0" y2="300" stroke="#FFFFFF" stroke-opacity="1" stroke-width="1" opacity="1"/></g></g><path class="foreground" aria-hidden="true" d="" pointer-events="none" display="none"/></g></g><g class="mark-group role-axis" aria-hidden="true"><g transform="translate(0.5,0.5)"><path class="background" aria-hidden="true" d="M0,0h0v0h0Z" pointer-events="none"/><g><g class="mark-rule role-axis-grid" pointer-events="none"><line transform="translate(0,300)" x2="600" y2="0" stroke="#FFFFFF" stroke-opacity="1" stroke-width="1" opacity="1"/><line transform="translate(0,270)" x2="600" y2="0" stroke="#FFFFFF" stroke-opacity="1" stroke-width="1" opacity="1"/><line transform="translate(0,240)" x2="600" y2="0" stroke="#FFFFFF" stroke-opacity="1" stroke-width="1" opacity="1"/><line transform="translate(0,210)" x2="600" y2="0" stroke="#FFFFFF" stroke-opacity="1" stroke-width="1" opacity="1"/><line transform="translate(0,180)" x2="600" y2="0" stroke="#FFFFFF" stroke-opacity="1" stroke-width="1" opacity="1"/><line transform="translate(0,150)" x2="600" y2="0" stroke="#FFFFFF" stroke-opacity="1" stroke-width="1" opacity="1"/><line transform="translate(0,120)" x2="600" y2="0" stroke="#FFFFFF" stroke-opacity="1" stroke-width="1" opacity="1"/><line transform="translate(0,90)" x2="600" y2="0" stroke="#FFFFFF" stroke-opacity="1" stroke-width="1" opacity="1"/><line transform="translate(0,60)" x2="600" y2="0" stroke="#FFFFFF" stroke-opacity="1" stroke-width="1" opacity="1"/><line transform="translate(0,30)" x2="600" y2="0" stroke="#FFFFFF" stroke-opacity="1" stroke-width="1" opacity="1"/><line transform="translate(0,0)" x2="600" y2="0" stroke="#FFFFFF" stroke-opacity="1" stroke-width="1" opacity="1"/></g></g><path class="foreground" aria-hidden="true" d="" pointer-events="none" display="none"/></g></g><g class="mark-group role-axis" role="graphics-symbol" aria-roledescription="axis" aria-label="X-axis titled 'q / p' for a linear scale with values from 0.0 to 1.0"><g transform="translate(0.5,300.5)"><path class="background" aria-hidden="true" d="M0,0h0v0h0Z" pointer-events="none"/><g><g class="mark-rule role-axis-tick" pointer-events="none"><line transform="translate(0,0)" x2="0" y2="5.67" stroke="#7F7F7F" stroke-width="1" opacity="1"/><line transform="translate(30,0)" x2="0" y2="5.67" stroke="#7F7F7F" stroke-width="1" opacity="1"/><line transform="translate(60,0)" x2="0" y2="5.67" stroke="#7F7F7F" stroke-width="1" opacity="1"/><line transform="translate(90,0)" x2="0" y2="5.67" stroke="#7F7F7F" stroke-width="1" opacity="1"/><line transform="translate(120,0)" x2="0" y2="5.67" stroke="#7F7F7F" stroke-width="1" opacity="1"/><line transform="translate(150,0)" x2="0" y2="5.67" stroke="#7F7F7F" stroke-width="1" opacity="1"/><line transform="translate(180,0)" x2="0" y2="5.67" stroke="#7F7F7F" stroke-width="1" opacity="1"/><line transform="translate(210,0)" x2="0" y2="5.67" stroke="#7F7F7F" stroke-width="1" opacity="1"/><line transform="translate(240,0)" x2="0" y2="5.67" stroke="#7F7F7F" stroke-width="1" opacity="1"/><line transform="translate(270,0)" x2="0" y2="5.67" stroke="#7F7F7F" stroke-width="1" opacity="1"/><line transform="translate(300,0)" x2="0" y2="5.67" stroke="#7F7F7F" stroke-width="1" opacity="1"/><line transform="translate(330,0)" x2="0" y2="5.67" stroke="#7F7F7F" stroke-width="1" opacity="1"/><line transform="translate(360,0)" x2="0" y2="5.67" stroke="#7F7F7F" stroke-width="1" opacity="1"/><line transform="translate(390,0)" x2="0" y2="5.67" stroke="#7F7F7F" stroke-width="1" opacity="1"/><line transform="translate(420,0)" x2="0" y2="5.67" stroke="#7F7F7F" stroke-width="1" opacity="1"/><line transform="translate(450,0)" x2="0" y2="5.67" stroke="#7F7F7F" stroke-width="1" opacity="1"/><line transform="translate(480,0)" x2="0" y2="5.67" stroke="#7F7F7F" stroke-width="1" opacity="1"/><line transform="translate(510,0)" x2="0" y2="5.67" stroke="#7F7F7F" stroke-width="1" opacity="1"/><line transform="translate(540,0)" x2="0" y2="5.67" stroke="#7F7F7F" stroke-width="1" opacity="1"/><line transform="translate(570,0)" x2="0" y2="5.67" stroke="#7F7F7F" stroke-width="1" opacity="1"/><line transform="translate(600,0)" x2="0" y2="5.67" stroke="#7F7F7F" stroke-width="1" opacity="1"/></g><g class="mark-text role-axis-label" pointer-events="none"><text text-anchor="start" transform="translate(0,17.67)" font-family="sans-serif" font-size="10px" fill="#7F7F7F" opacity="1">0.00</text><text text-anchor="middle" transform="translate(30,17.67)" font-family="sans-serif" font-size="10px" fill="#7F7F7F" opacity="1">0.05</text><text text-anchor="middle" transform="translate(60,17.67)" font-family="sans-serif" font-size="10px" fill="#7F7F7F" opacity="1">0.10</text><text text-anchor="middle" transform="translate(90,17.67)" font-family="sans-serif" font-size="10px" fill="#7F7F7F" opacity="1">0.15</text><text text-anchor="middle" transform="translate(120,17.67)" font-family="sans-serif" font-size="10px" fill="#7F7F7F" opacity="1">0.20</text><text text-anchor="middle" transform="translate(150,17.67)" font-family="sans-serif" font-size="10px" fill="#7F7F7F" opacity="1">0.25</text><text text-anchor="middle" transform="translate(180,17.67)" font-family="sans-serif" font-size="10px" fill="#7F7F7F" opacity="1">0.30</text><text text-anchor="middle" transform="translate(210,17.67)" font-family="sans-serif" font-size="10px" fill="#7F7F7F" opacity="1">0.35</text><text text-anchor="middle" transform="translate(240,17.67)" font-family="sans-serif" font-size="10px" fill="#7F7F7F" opacity="1">0.40</text><text text-anchor="middle" transform="translate(270,17.67)" font-family="sans-serif" font-size="10px" fill="#7F7F7F" opacity="1">0.45</text><text text-anchor="middle" transform="translate(300,17.67)" font-family="sans-serif" font-size="10px" fill="#7F7F7F" opacity="1">0.50</text><text text-anchor="middle" transform="translate(330,17.67)" font-family="sans-serif" font-size="10px" fill="#7F7F7F" opacity="1">0.55</text><text text-anchor="middle" transform="translate(360,17.67)" font-family="sans-serif" font-size="10px" fill="#7F7F7F" opacity="1">0.60</text><text text-anchor="middle" transform="translate(390,17.67)" font-family="sans-serif" font-size="10px" fill="#7F7F7F" opacity="1">0.65</text><text text-anchor="middle" transform="translate(420,17.67)" font-family="sans-serif" font-size="10px" fill="#7F7F7F" opacity="1">0.70</text><text text-anchor="middle" transform="translate(450,17.67)" font-family="sans-serif" font-size="10px" fill="#7F7F7F" opacity="1">0.75</text><text text-anchor="middle" transform="translate(480,17.67)" font-family="sans-serif" font-size="10px" fill="#7F7F7F" opacity="1">0.80</text><text text-anchor="middle" transform="translate(510,17.67)" font-family="sans-serif" font-size="10px" fill="#7F7F7F" opacity="1">0.85</text><text text-anchor="middle" transform="translate(540,17.67)" font-family="sans-serif" font-size="10px" fill="#7F7F7F" opacity="1">0.90</text><text text-anchor="middle" transform="translate(570,17.67)" font-family="sans-serif" font-size="10px" fill="#7F7F7F" opacity="1">0.95</text><text text-anchor="end" transform="translate(600,17.67)" font-family="sans-serif" font-size="10px" fill="#7F7F7F" opacity="1">1.00</text></g><g class="mark-text role-axis-title" pointer-events="none"><text text-anchor="middle" transform="translate(300,36.67)" font-family="sans-serif" font-size="16px" font-weight="normal" fill="#000" opacity="1">q / p</text></g></g><path class="foreground" aria-hidden="true" d="" pointer-events="none" display="none"/></g></g><g class="mark-group role-axis" role="graphics-symbol" aria-roledescription="axis" aria-label="Y-axis titled 'neff / E' for a linear scale with values from 0.0 to 1.0"><g transform="translate(0.5,0.5)"><path class="background" aria-hidden="true" d="M0,0h0v0h0Z" pointer-events="none"/><g><g class="mark-rule role-axis-tick" pointer-events="none"><line transform="translate(0,300)" x2="-5.67" y2="0" stroke="#7F7F7F" stroke-width="1" opacity="1"/><line transform="translate(0,270)" x2="-5.67" y2="0" stroke="#7F7F7F" stroke-width="1" opacity="1"/><line transform="translate(0,240)" x2="-5.67" y2="0" stroke="#7F7F7F" stroke-width="1" opacity="1"/><line transform="translate(0,210)" x2="-5.67" y2="0" stroke="#7F7F7F" stroke-width="1" opacity="1"/><line transform="translate(0,180)" x2="-5.67" y2="0" stroke="#7F7F7F" stroke-width="1" opacity="1"/><line transform="translate(0,150)" x2="-5.67" y2="0" stroke="#7F7F7F" stroke-width="1" opacity="1"/><line transform="translate(0,120)" x2="-5.67" y2="0" stroke="#7F7F7F" stroke-width="1" opacity="1"/><line transform="translate(0,90)" x2="-5.67" y2="0" stroke="#7F7F7F" stroke-width="1" opacity="1"/><line transform="translate(0,60)" x2="-5.67" y2="0" stroke="#7F7F7F" stroke-width="1" opacity="1"/><line transform="translate(0,30)" x2="-5.67" y2="0" stroke="#7F7F7F" stroke-width="1" opacity="1"/><line transform="translate(0,0)" x2="-5.67" y2="0" stroke="#7F7F7F" stroke-width="1" opacity="1"/></g><g class="mark-text role-axis-label" pointer-events="none"><text text-anchor="end" transform="translate(-9.67,303)" font-family="sans-serif" font-size="10px" fill="#7F7F7F" opacity="1">0.0</text><text text-anchor="end" transform="translate(-9.67,273)" font-family="sans-serif" font-size="10px" fill="#7F7F7F" opacity="1">0.1</text><text text-anchor="end" transform="translate(-9.67,243)" font-family="sans-serif" font-size="10px" fill="#7F7F7F" opacity="1">0.2</text><text text-anchor="end" transform="translate(-9.67,213)" font-family="sans-serif" font-size="10px" fill="#7F7F7F" opacity="1">0.3</text><text text-anchor="end" transform="translate(-9.67,183)" font-family="sans-serif" font-size="10px" fill="#7F7F7F" opacity="1">0.4</text><text text-anchor="end" transform="translate(-9.67,153)" font-family="sans-serif" font-size="10px" fill="#7F7F7F" opacity="1">0.5</text><text text-anchor="end" transform="translate(-9.67,123)" font-family="sans-serif" font-size="10px" fill="#7F7F7F" opacity="1">0.6</text><text text-anchor="end" transform="translate(-9.67,93.00000000000001)" font-family="sans-serif" font-size="10px" fill="#7F7F7F" opacity="1">0.7</text><text text-anchor="end" transform="translate(-9.67,62.999999999999986)" font-family="sans-serif" font-size="10px" fill="#7F7F7F" opacity="1">0.8</text><text text-anchor="end" transform="translate(-9.67,32.99999999999999)" font-family="sans-serif" font-size="10px" fill="#7F7F7F" opacity="1">0.9</text><text text-anchor="end" transform="translate(-9.67,3)" font-family="sans-serif" font-size="10px" fill="#7F7F7F" opacity="1">1.0</text></g><g class="mark-text role-axis-title" pointer-events="none"><text text-anchor="middle" transform="translate(-27.5713671875,150) rotate(-90) translate(0,-3)" font-family="sans-serif" font-size="16px" font-weight="normal" fill="#000" opacity="1">neff / E</text></g></g><path class="foreground" aria-hidden="true" d="" pointer-events="none" display="none"/></g></g><g class="mark-symbol role-mark concat_0_layer_0_marks" role="graphics-object" aria-roledescription="symbol mark container"><path aria-label="q / p: 1; neff / E: 1" role="graphics-symbol" aria-roledescription="point" transform="translate(600,0)" d="M3.873,0A3.873,3.873,0,1,1,-3.873,0A3.873,3.873,0,1,1,3.873,0" fill="black" stroke="black" stroke-width="2" opacity="0.7"/><path aria-label="q / p: 0.9; neff / E: 0.95" role="graphics-symbol" aria-roledescription="point" transform="translate(540,15.000000000000014)" d="M3.873,0A3.873,3.873,0,1,1,-3.873,0A3.873,3.873,0,1,1,3.873,0" fill="black" stroke="black" stroke-width="2" opacity="0.7"/><path aria-label="q / p: 0.8; neff / E: 0.903333333333" role="graphics-symbol" aria-roledescription="point" transform="translate(480,29.000000000000004)" d="M3.873,0A3.873,3.873,0,1,1,-3.873,0A3.873,3.873,0,1,1,3.873,0" fill="black" stroke="black" stroke-width="2" opacity="0.7"/><path aria-label="q / p: 0.7; neff / E: 0.85" role="graphics-symbol" aria-roledescription="point" transform="translate(420.00000000000006,45.00000000000001)" d="M3.873,0A3.873,3.873,0,1,1,-3.873,0A3.873,3.873,0,1,1,3.873,0" fill="black" stroke="black" stroke-width="2" opacity="0.7"/><path aria-label="q / p: 0.6; neff / E: 0.81" role="graphics-symbol" aria-roledescription="point" transform="translate(360,56.999999999999986)" d="M3.873,0A3.873,3.873,0,1,1,-3.873,0A3.873,3.873,0,1,1,3.873,0" fill="black" stroke="black" stroke-width="2" opacity="0.7"/><path aria-label="q / p: 0.5; neff / E: 0.756666666667" role="graphics-symbol" aria-roledescription="point" transform="translate(300,72.99999999999999)" d="M3.873,0A3.873,3.873,0,1,1,-3.873,0A3.873,3.873,0,1,1,3.873,0" fill="black" stroke="black" stroke-width="2" opacity="0.7"/><path aria-label="q / p: 0.4; neff / E: 0.706666666667" role="graphics-symbol" aria-roledescription="point" transform="translate(240,88)" d="M3.873,0A3.873,3.873,0,1,1,-3.873,0A3.873,3.873,0,1,1,3.873,0" fill="black" stroke="black" stroke-width="2" opacity="0.7"/><path aria-label="q / p: 0.3; neff / E: 0.663333333333" role="graphics-symbol" aria-roledescription="point" transform="translate(180,101)" d="M3.873,0A3.873,3.873,0,1,1,-3.873,0A3.873,3.873,0,1,1,3.873,0" fill="black" stroke="black" stroke-width="2" opacity="0.7"/><path aria-label="q / p: 0.2; neff / E: 0.613333333333" role="graphics-symbol" aria-roledescription="point" transform="translate(120,116.00000000000001)" d="M3.873,0A3.873,3.873,0,1,1,-3.873,0A3.873,3.873,0,1,1,3.873,0" fill="black" stroke="black" stroke-width="2" opacity="0.7"/><path aria-label="q / p: 0.1; neff / E: 0.566666666667" role="graphics-symbol" aria-roledescription="point" transform="translate(60,130)" d="M3.873,0A3.873,3.873,0,1,1,-3.873,0A3.873,3.873,0,1,1,3.873,0" fill="black" stroke="black" stroke-width="2" opacity="0.7"/><path aria-label="q / p: 0; neff / E: 0.516666666667" role="graphics-symbol" aria-roledescription="point" transform="translate(0,144.99999999999997)" d="M3.873,0A3.873,3.873,0,1,1,-3.873,0A3.873,3.873,0,1,1,3.873,0" fill="black" stroke="black" stroke-width="2" opacity="0.7"/></g><g class="mark-line role-mark concat_0_layer_1_marks" role="graphics-object" aria-roledescription="line mark container"><path aria-label="q / p: 0; neff / E: 0.517121212121" role="graphics-symbol" aria-roledescription="line mark" d="M0,144.864L600,0.409" stroke="black" stroke-width="2"/></g></g><path class="foreground" aria-hidden="true" d="" display="none"/></g></g><g class="mark-group role-scope concat_1_group" role="graphics-object" aria-roledescription="group mark container"><g transform="translate(672,0)"><path class="background" aria-hidden="true" d="M0.5,0.5h600v300h-600Z" stroke="#ddd"/><g><g class="mark-group role-axis" aria-hidden="true"><g transform="translate(0.5,300.5)"><path class="background" aria-hidden="true" d="M0,0h0v0h0Z" pointer-events="none"/><g><g class="mark-rule role-axis-grid" pointer-events="none"><line transform="translate(0,-300)" x2="0" y2="300" stroke="#FFFFFF" stroke-opacity="1" stroke-width="1" opacity="1"/><line transform="translate(30,-300)" x2="0" y2="300" stroke="#FFFFFF" stroke-opacity="1" stroke-width="1" opacity="1"/><line transform="translate(60,-300)" x2="0" y2="300" stroke="#FFFFFF" stroke-opacity="1" stroke-width="1" opacity="1"/><line transform="translate(90,-300)" x2="0" y2="300" stroke="#FFFFFF" stroke-opacity="1" stroke-width="1" opacity="1"/><line transform="translate(120,-300)" x2="0" y2="300" stroke="#FFFFFF" stroke-opacity="1" stroke-width="1" opacity="1"/><line transform="translate(150,-300)" x2="0" y2="300" stroke="#FFFFFF" stroke-opacity="1" stroke-width="1" opacity="1"/><line transform="translate(180,-300)" x2="0" y2="300" stroke="#FFFFFF" stroke-opacity="1" stroke-width="1" opacity="1"/><line transform="translate(210,-300)" x2="0" y2="300" stroke="#FFFFFF" stroke-opacity="1" stroke-width="1" opacity="1"/><line transform="translate(240,-300)" x2="0" y2="300" stroke="#FFFFFF" stroke-opacity="1" stroke-width="1" opacity="1"/><line transform="translate(270,-300)" x2="0" y2="300" stroke="#FFFFFF" stroke-opacity="1" stroke-width="1" opacity="1"/><line transform="translate(300,-300)" x2="0" y2="300" stroke="#FFFFFF" stroke-opacity="1" stroke-width="1" opacity="1"/><line transform="translate(330,-300)" x2="0" y2="300" stroke="#FFFFFF" stroke-opacity="1" stroke-width="1" opacity="1"/><line transform="translate(360,-300)" x2="0" y2="300" stroke="#FFFFFF" stroke-opacity="1" stroke-width="1" opacity="1"/><line transform="translate(390,-300)" x2="0" y2="300" stroke="#FFFFFF" stroke-opacity="1" stroke-width="1" opacity="1"/><line transform="translate(420,-300)" x2="0" y2="300" stroke="#FFFFFF" stroke-opacity="1" stroke-width="1" opacity="1"/><line transform="translate(450,-300)" x2="0" y2="300" stroke="#FFFFFF" stroke-opacity="1" stroke-width="1" opacity="1"/><line transform="translate(480,-300)" x2="0" y2="300" stroke="#FFFFFF" stroke-opacity="1" stroke-width="1" opacity="1"/><line transform="translate(510,-300)" x2="0" y2="300" stroke="#FFFFFF" stroke-opacity="1" stroke-width="1" opacity="1"/><line transform="translate(540,-300)" x2="0" y2="300" stroke="#FFFFFF" stroke-opacity="1" stroke-width="1" opacity="1"/><line transform="translate(570,-300)" x2="0" y2="300" stroke="#FFFFFF" stroke-opacity="1" stroke-width="1" opacity="1"/><line transform="translate(600,-300)" x2="0" y2="300" stroke="#FFFFFF" stroke-opacity="1" stroke-width="1" opacity="1"/></g></g><path class="foreground" aria-hidden="true" d="" pointer-events="none" display="none"/></g></g><g class="mark-group role-axis" aria-hidden="true"><g transform="translate(0.5,0.5)"><path class="background" aria-hidden="true" d="M0,0h0v0h0Z" pointer-events="none"/><g><g class="mark-rule role-axis-grid" pointer-events="none"><line transform="translate(0,300)" x2="600" y2="0" stroke="#FFFFFF" stroke-opacity="1" stroke-width="1" opacity="1"/><line transform="translate(0,273)" x2="600" y2="0" stroke="#FFFFFF" stroke-opacity="1" stroke-width="1" opacity="1"/><line transform="translate(0,245)" x2="600" y2="0" stroke="#FFFFFF" stroke-opacity="1" stroke-width="1" opacity="1"/><line transform="translate(0,218)" x2="600" y2="0" stroke="#FFFFFF" stroke-opacity="1" stroke-width="1" opacity="1"/><line transform="translate(0,191)" x2="600" y2="0" stroke="#FFFFFF" stroke-opacity="1" stroke-width="1" opacity="1"/><line transform="translate(0,164)" x2="600" y2="0" stroke="#FFFFFF" stroke-opacity="1" stroke-width="1" opacity="1"/><line transform="translate(0,136)" x2="600" y2="0" stroke="#FFFFFF" stroke-opacity="1" stroke-width="1" opacity="1"/><line transform="translate(0,109)" x2="600" y2="0" stroke="#FFFFFF" stroke-opacity="1" stroke-width="1" opacity="1"/><line transform="translate(0,82)" x2="600" y2="0" stroke="#FFFFFF" stroke-opacity="1" stroke-width="1" opacity="1"/><line transform="translate(0,55)" x2="600" y2="0" stroke="#FFFFFF" stroke-opacity="1" stroke-width="1" opacity="1"/><line transform="translate(0,27)" x2="600" y2="0" stroke="#FFFFFF" stroke-opacity="1" stroke-width="1" opacity="1"/><line transform="translate(0,0)" x2="600" y2="0" stroke="#FFFFFF" stroke-opacity="1" stroke-width="1" opacity="1"/></g></g><path class="foreground" aria-hidden="true" d="" pointer-events="none" display="none"/></g></g><g class="mark-group role-axis" role="graphics-symbol" aria-roledescription="axis" aria-label="X-axis titled 'q / p' for a linear scale with values from 0.0 to 1.0"><g transform="translate(0.5,300.5)"><path class="background" aria-hidden="true" d="M0,0h0v0h0Z" pointer-events="none"/><g><g class="mark-rule role-axis-tick" pointer-events="none"><line transform="translate(0,0)" x2="0" y2="5.67" stroke="#7F7F7F" stroke-width="1" opacity="1"/><line transform="translate(30,0)" x2="0" y2="5.67" stroke="#7F7F7F" stroke-width="1" opacity="1"/><line transform="translate(60,0)" x2="0" y2="5.67" stroke="#7F7F7F" stroke-width="1" opacity="1"/><line transform="translate(90,0)" x2="0" y2="5.67" stroke="#7F7F7F" stroke-width="1" opacity="1"/><line transform="translate(120,0)" x2="0" y2="5.67" stroke="#7F7F7F" stroke-width="1" opacity="1"/><line transform="translate(150,0)" x2="0" y2="5.67" stroke="#7F7F7F" stroke-width="1" opacity="1"/><line transform="translate(180,0)" x2="0" y2="5.67" stroke="#7F7F7F" stroke-width="1" opacity="1"/><line transform="translate(210,0)" x2="0" y2="5.67" stroke="#7F7F7F" stroke-width="1" opacity="1"/><line transform="translate(240,0)" x2="0" y2="5.67" stroke="#7F7F7F" stroke-width="1" opacity="1"/><line transform="translate(270,0)" x2="0" y2="5.67" stroke="#7F7F7F" stroke-width="1" opacity="1"/><line transform="translate(300,0)" x2="0" y2="5.67" stroke="#7F7F7F" stroke-width="1" opacity="1"/><line transform="translate(330,0)" x2="0" y2="5.67" stroke="#7F7F7F" stroke-width="1" opacity="1"/><line transform="translate(360,0)" x2="0" y2="5.67" stroke="#7F7F7F" stroke-width="1" opacity="1"/><line transform="translate(390,0)" x2="0" y2="5.67" stroke="#7F7F7F" stroke-width="1" opacity="1"/><line transform="translate(420,0)" x2="0" y2="5.67" stroke="#7F7F7F" stroke-width="1" opacity="1"/><line transform="translate(450,0)" x2="0" y2="5.67" stroke="#7F7F7F" stroke-width="1" opacity="1"/><line transform="translate(480,0)" x2="0" y2="5.67" stroke="#7F7F7F" stroke-width="1" opacity="1"/><line transform="translate(510,0)" x2="0" y2="5.67" stroke="#7F7F7F" stroke-width="1" opacity="1"/><line transform="translate(540,0)" x2="0" y2="5.67" stroke="#7F7F7F" stroke-width="1" opacity="1"/><line transform="translate(570,0)" x2="0" y2="5.67" stroke="#7F7F7F" stroke-width="1" opacity="1"/><line transform="translate(600,0)" x2="0" y2="5.67" stroke="#7F7F7F" stroke-width="1" opacity="1"/></g><g class="mark-text role-axis-label" pointer-events="none"><text text-anchor="start" transform="translate(0,17.67)" font-family="sans-serif" font-size="10px" fill="#7F7F7F" opacity="1">0.00</text><text text-anchor="middle" transform="translate(30,17.67)" font-family="sans-serif" font-size="10px" fill="#7F7F7F" opacity="1">0.05</text><text text-anchor="middle" transform="translate(60,17.67)" font-family="sans-serif" font-size="10px" fill="#7F7F7F" opacity="1">0.10</text><text text-anchor="middle" transform="translate(90,17.67)" font-family="sans-serif" font-size="10px" fill="#7F7F7F" opacity="1">0.15</text><text text-anchor="middle" transform="translate(120,17.67)" font-family="sans-serif" font-size="10px" fill="#7F7F7F" opacity="1">0.20</text><text text-anchor="middle" transform="translate(150,17.67)" font-family="sans-serif" font-size="10px" fill="#7F7F7F" opacity="1">0.25</text><text text-anchor="middle" transform="translate(180,17.67)" font-family="sans-serif" font-size="10px" fill="#7F7F7F" opacity="1">0.30</text><text text-anchor="middle" transform="translate(210,17.67)" font-family="sans-serif" font-size="10px" fill="#7F7F7F" opacity="1">0.35</text><text text-anchor="middle" transform="translate(240,17.67)" font-family="sans-serif" font-size="10px" fill="#7F7F7F" opacity="1">0.40</text><text text-anchor="middle" transform="translate(270,17.67)" font-family="sans-serif" font-size="10px" fill="#7F7F7F" opacity="1">0.45</text><text text-anchor="middle" transform="translate(300,17.67)" font-family="sans-serif" font-size="10px" fill="#7F7F7F" opacity="1">0.50</text><text text-anchor="middle" transform="translate(330,17.67)" font-family="sans-serif" font-size="10px" fill="#7F7F7F" opacity="1">0.55</text><text text-anchor="middle" transform="translate(360,17.67)" font-family="sans-serif" font-size="10px" fill="#7F7F7F" opacity="1">0.60</text><text text-anchor="middle" transform="translate(390,17.67)" font-family="sans-serif" font-size="10px" fill="#7F7F7F" opacity="1">0.65</text><text text-anchor="middle" transform="translate(420,17.67)" font-family="sans-serif" font-size="10px" fill="#7F7F7F" opacity="1">0.70</text><text text-anchor="middle" transform="translate(450,17.67)" font-family="sans-serif" font-size="10px" fill="#7F7F7F" opacity="1">0.75</text><text text-anchor="middle" transform="translate(480,17.67)" font-family="sans-serif" font-size="10px" fill="#7F7F7F" opacity="1">0.80</text><text text-anchor="middle" transform="translate(510,17.67)" font-family="sans-serif" font-size="10px" fill="#7F7F7F" opacity="1">0.85</text><text text-anchor="middle" transform="translate(540,17.67)" font-family="sans-serif" font-size="10px" fill="#7F7F7F" opacity="1">0.90</text><text text-anchor="middle" transform="translate(570,17.67)" font-family="sans-serif" font-size="10px" fill="#7F7F7F" opacity="1">0.95</text><text text-anchor="end" transform="translate(600,17.67)" font-family="sans-serif" font-size="10px" fill="#7F7F7F" opacity="1">1.00</text></g><g class="mark-text role-axis-title" pointer-events="none"><text text-anchor="middle" transform="translate(300,36.67)" font-family="sans-serif" font-size="16px" font-weight="normal" fill="#000" opacity="1">q / p</text></g></g><path class="foreground" aria-hidden="true" d="" pointer-events="none" display="none"/></g></g><g class="mark-group role-axis" role="graphics-symbol" aria-roledescription="axis" aria-label="Y-axis titled 'neff / N' for a linear scale with values from 0.0 to 1.1"><g transform="translate(0.5,0.5)"><path class="background" aria-hidden="true" d="M0,0h0v0h0Z" pointer-events="none"/><g><g class="mark-rule role-axis-tick" pointer-events="none"><line transform="translate(0,300)" x2="-5.67" y2="0" stroke="#7F7F7F" stroke-width="1" opacity="1"/><line transform="translate(0,273)" x2="-5.67" y2="0" stroke="#7F7F7F" stroke-width="1" opacity="1"/><line transform="translate(0,245)" x2="-5.67" y2="0" stroke="#7F7F7F" stroke-width="1" opacity="1"/><line transform="translate(0,218)" x2="-5.67" y2="0" stroke="#7F7F7F" stroke-width="1" opacity="1"/><line transform="translate(0,191)" x2="-5.67" y2="0" stroke="#7F7F7F" stroke-width="1" opacity="1"/><line transform="translate(0,164)" x2="-5.67" y2="0" stroke="#7F7F7F" stroke-width="1" opacity="1"/><line transform="translate(0,136)" x2="-5.67" y2="0" stroke="#7F7F7F" stroke-width="1" opacity="1"/><line transform="translate(0,109)" x2="-5.67" y2="0" stroke="#7F7F7F" stroke-width="1" opacity="1"/><line transform="translate(0,82)" x2="-5.67" y2="0" stroke="#7F7F7F" stroke-width="1" opacity="1"/><line transform="translate(0,55)" x2="-5.67" y2="0" stroke="#7F7F7F" stroke-width="1" opacity="1"/><line transform="translate(0,27)" x2="-5.67" y2="0" stroke="#7F7F7F" stroke-width="1" opacity="1"/><line transform="translate(0,0)" x2="-5.67" y2="0" stroke="#7F7F7F" stroke-width="1" opacity="1"/></g><g class="mark-text role-axis-label" pointer-events="none"><text text-anchor="end" transform="translate(-9.67,303)" font-family="sans-serif" font-size="10px" fill="#7F7F7F" opacity="1">0.0</text><text text-anchor="end" transform="translate(-9.67,275.7272727272727)" font-family="sans-serif" font-size="10px" fill="#7F7F7F" opacity="1">0.1</text><text text-anchor="end" transform="translate(-9.67,248.45454545454544)" font-family="sans-serif" font-size="10px" fill="#7F7F7F" opacity="1">0.2</text><text text-anchor="end" transform="translate(-9.67,221.1818181818182)" font-family="sans-serif" font-size="10px" fill="#7F7F7F" opacity="1">0.3</text><text text-anchor="end" transform="translate(-9.67,193.9090909090909)" font-family="sans-serif" font-size="10px" fill="#7F7F7F" opacity="1">0.4</text><text text-anchor="end" transform="translate(-9.67,166.63636363636363)" font-family="sans-serif" font-size="10px" fill="#7F7F7F" opacity="1">0.5</text><text text-anchor="end" transform="translate(-9.67,139.36363636363637)" font-family="sans-serif" font-size="10px" fill="#7F7F7F" opacity="1">0.6</text><text text-anchor="end" transform="translate(-9.67,112.09090909090912)" font-family="sans-serif" font-size="10px" fill="#7F7F7F" opacity="1">0.7</text><text text-anchor="end" transform="translate(-9.67,84.81818181818181)" font-family="sans-serif" font-size="10px" fill="#7F7F7F" opacity="1">0.8</text><text text-anchor="end" transform="translate(-9.67,57.54545454545456)" font-family="sans-serif" font-size="10px" fill="#7F7F7F" opacity="1">0.9</text><text text-anchor="end" transform="translate(-9.67,30.27272727272728)" font-family="sans-serif" font-size="10px" fill="#7F7F7F" opacity="1">1.0</text><text text-anchor="end" transform="translate(-9.67,3)" font-family="sans-serif" font-size="10px" fill="#7F7F7F" opacity="1">1.1</text></g><g class="mark-text role-axis-title" pointer-events="none"><text text-anchor="middle" transform="translate(-27.5713671875,150) rotate(-90) translate(0,-3)" font-family="sans-serif" font-size="16px" font-weight="normal" fill="#000" opacity="1">neff / N</text></g></g><path class="foreground" aria-hidden="true" d="" pointer-events="none" display="none"/></g></g><g class="mark-symbol role-mark concat_1_layer_0_marks" role="graphics-object" aria-roledescription="symbol mark container"><path aria-label="q / p: 1; neff / N: 1" role="graphics-symbol" aria-roledescription="point" transform="translate(600,27.27272727272728)" d="M3.873,0A3.873,3.873,0,1,1,-3.873,0A3.873,3.873,0,1,1,3.873,0" fill="black" stroke="black" stroke-width="2" opacity="0.7"/><path aria-label="q / p: 0.9; neff / N: 0.951" role="graphics-symbol" aria-roledescription="point" transform="translate(540,40.63636363636368)" d="M3.873,0A3.873,3.873,0,1,1,-3.873,0A3.873,3.873,0,1,1,3.873,0" fill="black" stroke="black" stroke-width="2" opacity="0.7"/><path aria-label="q / p: 0.8; neff / N: 0.904" role="graphics-symbol" aria-roledescription="point" transform="translate(480,53.45454545454547)" d="M3.873,0A3.873,3.873,0,1,1,-3.873,0A3.873,3.873,0,1,1,3.873,0" fill="black" stroke="black" stroke-width="2" opacity="0.7"/><path aria-label="q / p: 0.7; neff / N: 0.854" role="graphics-symbol" aria-roledescription="point" transform="translate(420.00000000000006,67.09090909090912)" d="M3.873,0A3.873,3.873,0,1,1,-3.873,0A3.873,3.873,0,1,1,3.873,0" fill="black" stroke="black" stroke-width="2" opacity="0.7"/><path aria-label="q / p: 0.6; neff / N: 0.809" role="graphics-symbol" aria-roledescription="point" transform="translate(360,79.36363636363636)" d="M3.873,0A3.873,3.873,0,1,1,-3.873,0A3.873,3.873,0,1,1,3.873,0" fill="black" stroke="black" stroke-width="2" opacity="0.7"/><path aria-label="q / p: 0.5; neff / N: 0.759" role="graphics-symbol" aria-roledescription="point" transform="translate(300,93.00000000000001)" d="M3.873,0A3.873,3.873,0,1,1,-3.873,0A3.873,3.873,0,1,1,3.873,0" fill="black" stroke="black" stroke-width="2" opacity="0.7"/><path aria-label="q / p: 0.4; neff / N: 0.709" role="graphics-symbol" aria-roledescription="point" transform="translate(240,106.63636363636367)" d="M3.873,0A3.873,3.873,0,1,1,-3.873,0A3.873,3.873,0,1,1,3.873,0" fill="black" stroke="black" stroke-width="2" opacity="0.7"/><path aria-label="q / p: 0.3; neff / N: 0.662" role="graphics-symbol" aria-roledescription="point" transform="translate(180,119.45454545454545)" d="M3.873,0A3.873,3.873,0,1,1,-3.873,0A3.873,3.873,0,1,1,3.873,0" fill="black" stroke="black" stroke-width="2" opacity="0.7"/><path aria-label="q / p: 0.2; neff / N: 0.612" role="graphics-symbol" aria-roledescription="point" transform="translate(120,133.09090909090912)" d="M3.873,0A3.873,3.873,0,1,1,-3.873,0A3.873,3.873,0,1,1,3.873,0" fill="black" stroke="black" stroke-width="2" opacity="0.7"/><path aria-label="q / p: 0.1; neff / N: 0.566" role="graphics-symbol" aria-roledescription="point" transform="translate(60,145.63636363636368)" d="M3.873,0A3.873,3.873,0,1,1,-3.873,0A3.873,3.873,0,1,1,3.873,0" fill="black" stroke="black" stroke-width="2" opacity="0.7"/><path aria-label="q / p: 0; neff / N: 0.517" role="graphics-symbol" aria-roledescription="point" transform="translate(0,159)" d="M3.873,0A3.873,3.873,0,1,1,-3.873,0A3.873,3.873,0,1,1,3.873,0" fill="black" stroke="black" stroke-width="2" opacity="0.7"/></g><g class="mark-line role-mark concat_1_layer_1_marks" role="graphics-object" aria-roledescription="line mark container"><path aria-label="q / p: 0; neff / N: 0.516863636364" role="graphics-symbol" aria-roledescription="line mark" d="M0,159.037L600,27.26" stroke="#000" stroke-width="2"/></g></g><path class="foreground" aria-hidden="true" d="" display="none"/></g></g></g><path class="foreground" aria-hidden="true" d="" display="none"/></g></g></g></svg>