<svg xmlns="http://www.w3.org/2000/svg" xmlns:xlink="http://www.w3.org/1999/xlink" version="1.1" class="marks" width="400" height="355" viewBox="0 0 400 355"><rect width="400" height="355" fill="white"/><g fill="none" stroke-miterlimit="10" transform="translate(41,10)"><g class="mark-group role-frame root" role="graphics-object" aria-roledescription="group mark container"><g transform="translate(0,0)"><path class="background" aria-hidden="true" d="M0.5,0.5h300v300h-300Z" stroke="#ddd"/><g><g class="mark-group role-axis" aria-hidden="true"><g transform="translate(0.5,300.5)"><path class="background" aria-hidden="true" d="M0,0h0v0h0Z" pointer-events="none"/><g><g class="mark-rule role-axis-grid" pointer-events="none"><line transform="translate(0,-300)" x2="0" y2="300" stroke="#FFFFFF" stroke-opacity="1" stroke-width="1" opacity="1"/><line transform="translate(30,-300)" x2="0" y2="300" stroke="#FFFFFF" stroke-opacity="1" stroke-width="1" opacity="1"/><line transform="translate(60,-300)" x2="0" y2="300" stroke="#FFFFFF" stroke-opacity="1" stroke-width="1" opacity="1"/><line transform="translate(90,-300)" x2="0" y2="300" stroke="#FFFFFF" stroke-opacity="1" stroke-width="1" opacity="1"/><line transform="translate(120,-300)" x2="0" y2="300" stroke="#FFFFFF" stroke-opacity="1" stroke-width="1" opacity="1"/><line transform="translate(150,-300)" x2="0" y2="300" stroke="#FFFFFF" stroke-opacity="1" stroke-width="1" opacity="1"/><line transform="translate(180,-300)" x2="0" y2="300" stroke="#FFFFFF" stroke-opacity="1" stroke-width="1" opacity="1"/><line transform="translate(210,-300)" x2="0" y2="300" stroke="#FFFFFF" stroke-opacity="1" stroke-width="1" opacity="1"/><line transform="translate(240,-300)" x2="0" y2="300" stroke="#FFFFFF" stroke-opacity="1" stroke-width="1" opacity="1"/><line transform="translate(270,-300)" x2="0" y2="300" stroke="#FFFFFF" stroke-opacity="1" stroke-width="1" opacity="1"/><line transform="translate(300,-300)" x2="0" y2="300" stroke="#FFFFFF" stroke-opacity="1" stroke-width="1" opacity="1"/></g></g><path class="foreground" aria-hidden="true" d="" pointer-events="none" display="none"/></g></g><g class="mark-group role-axis" aria-hidden="true"><g transform="translate(0.5,0.5)"><path class="background" aria-hidden="true" d="M0,0h0v0h0Z" pointer-events="none"/><g><g class="mark-rule role-axis-grid" pointer-events="none"><line transform="translate(0,300)" x2="300" y2="0" stroke="#FFFFFF" stroke-opacity="1" stroke-width="1" opacity="1"/><line transform="translate(0,267)" x2="300" y2="0" stroke="#FFFFFF" stroke-opacity="1" stroke-width="1" opacity="1"/><line transform="translate(0,233)" x2="300" y2="0" stroke="#FFFFFF" stroke-opacity="1" stroke-width="1" opacity="1"/><line transform="translate(0,200)" x2="300" y2="0" stroke="#FFFFFF" stroke-opacity="1" stroke-width="1" opacity="1"/><line transform="translate(0,167)" x2="300" y2="0" stroke="#FFFFFF" stroke-opacity="1" stroke-width="1" opacity="1"/><line transform="translate(0,133)" x2="300" y2="0" stroke="#FFFFFF" stroke-opacity="1" stroke-width="1" opacity="1"/><line transform="translate(0,100)" x2="300" y2="0" stroke="#FFFFFF" stroke-opacity="1" stroke-width="1" opacity="1"/><line transform="translate(0,67)" x2="300" y2="0" stroke="#FFFFFF" stroke-opacity="1" stroke-width="1" opacity="1"/><line transform="translate(0,33)" x2="300" y2="0" stroke="#FFFFFF" stroke-opacity="1" stroke-width="1" opacity="1"/><line transform="translate(0,0)" x2="300" y2="0" stroke="#FFFFFF" stroke-opacity="1" stroke-width="1" opacity="1"/></g></g><path class="foreground" aria-hidden="true" d="" pointer-events="none" display="none"/></g></g><g class="mark-group role-axis" role="graphics-symbol" aria-roledescription="axis" aria-label="X-axis titled 'c' for a linear scale with values from 0.5 to 1.0"><g transform="translate(0.5,300.5)"><path class="background" aria-hidden="true" d="M0,0h0v0h0Z" pointer-events="none"/><g><g class="mark-rule role-axis-tick" pointer-events="none"><line transform="translate(0,0)" x2="0" y2="5.67" stroke="#7F7F7F" stroke-width="1" opacity="1"/><line transform="translate(30,0)" x2="0" y2="5.67" stroke="#7F7F7F" stroke-width="1" opacity="1"/><line transform="translate(60,0)" x2="0" y2="5.67" stroke="#7F7F7F" stroke-width="1" opacity="1"/><line transform="translate(90,0)" x2="0" y2="5.67" stroke="#7F7F7F" stroke-width="1" opacity="1"/><line transform="translate(120,0)" x2="0" y2="5.67" stroke="#7F7F7F" stroke-width="1" opacity="1"/><line transform="translate(150,0)" x2="0" y2="5.67" stroke="#7F7F7F" stroke-width="1" opacity="1"/><line transform="translate(180,0)" x2="0" y2="5.67" stroke="#7F7F7F" stroke-width="1" opacity="1"/><line transform="translate(210,0)" x2="0" y2="5.67" stroke="#7F7F7F" stroke-width="1" opacity="1"/><line transform="translate(240,0)" x2="0" y2="5.67" stroke="#7F7F7F" stroke-width="1" opacity="1"/><line transform="translate(270,0)" x2="0" y2="5.67" stroke="#7F7F7F" stroke-width="1" opacity="1"/><line transform="translate(300,0)" x2="0" y2="5.67" stroke="#7F7F7F" stroke-width="1" opacity="1"/></g><g class="mark-text role-axis-label" pointer-events="none"><text text-anchor="start" transform="translate(0,17.67)" font-family="sans-serif" font-size="10px" fill="#7F7F7F" opacity="1">0.50</text><text text-anchor="middle" transform="translate(30.00000000000003,17.67)" font-family="sans-serif" font-size="10px" fill="#7F7F7F" opacity="1">0.55</text><text text-anchor="middle" transform="translate(59.999999999999986,17.67)" font-family="sans-serif" font-size="10px" fill="#7F7F7F" opacity="1">0.60</text><text text-anchor="middle" transform="translate(90.00000000000001,17.67)" font-family="sans-serif" font-size="10px" fill="#7F7F7F" opacity="1">0.65</text><text text-anchor="middle" transform="translate(119.99999999999997,17.67)" font-family="sans-serif" font-size="10px" fill="#7F7F7F" opacity="1">0.70</text><text text-anchor="middle" transform="translate(150,17.67)" font-family="sans-serif" font-size="10px" fill="#7F7F7F" opacity="1">0.75</text><text text-anchor="middle" transform="translate(180.00000000000003,17.67)" font-family="sans-serif" font-size="10px" fill="#7F7F7F" opacity="1">0.80</text><text text-anchor="middle" transform="translate(210,17.67)" font-family="sans-serif" font-size="10px" fill="#7F7F7F" opacity="1">0.85</text><text text-anchor="middle" transform="translate(240,17.67)" font-family="sans-serif" font-size="10px" fill="#7F7F7F" opacity="1">0.90</text><text text-anchor="middle" transform="translate(270,17.67)" font-family="sans-serif" font-size="10px" fill="#7F7F7F" opacity="1">0.95</text><text text-anchor="end" transform="translate(300,17.67)" font-family="sans-serif" font-size="10px" fill="#7F7F7F" opacity="1">1.00</text></g><g class="mark-text role-axis-title" pointer-events="none"><text text-anchor="middle" transform="translate(150,36.67)" font-family="sans-serif" font-size="16px" font-weight="normal" fill="#000" opacity="1">c</text></g></g><path class="foreground" aria-hidden="true" d="" pointer-events="none" display="none"/></g></g><g class="mark-group role-axis" role="graphics-symbol" aria-roledescription="axis" aria-label="Y-axis titled 'density' for a linear scale with values from 0 to 9"><g transform="translate(0.5,0.5)"><path class="background" aria-hidden="true" d="M0,0h0v0h0Z" pointer-events="none"/><g><g class="mark-rule role-axis-tick" pointer-events="none"><line transform="translate(0,300)" x2="-5.67" y2="0" stroke="#7F7F7F" stroke-width="1" opacity="1"/><line transform="translate(0,267)" x2="-5.67" y2="0" stroke="#7F7F7F" stroke-width="1" opacity="1"/><line transform="translate(0,233)" x2="-5.67" y2="0" stroke="#7F7F7F" stroke-width="1" opacity="1"/><line transform="translate(0,200)" x2="-5.67" y2="0" stroke="#7F7F7F" stroke-width="1" opacity="1"/><line transform="translate(0,167)" x2="-5.67" y2="0" stroke="#7F7F7F" stroke-width="1" opacity="1"/><line transform="translate(0,133)" x2="-5.67" y2="0" stroke="#7F7F7F" stroke-width="1" opacity="1"/><line transform="translate(0,100)" x2="-5.67" y2="0" stroke="#7F7F7F" stroke-width="1" opacity="1"/><line transform="translate(0,67)" x2="-5.67" y2="0" stroke="#7F7F7F" stroke-width="1" opacity="1"/><line transform="translate(0,33)" x2="-5.67" y2="0" stroke="#7F7F7F" stroke-width="1" opacity="1"/><line transform="translate(0,0)" x2="-5.67" y2="0" stroke="#7F7F7F" stroke-width="1" opacity="1"/></g><g class="mark-text role-axis-label" pointer-events="none"><text text-anchor="end" transform="translate(-9.67,303)" font-family="sans-serif" font-size="10px" fill="#7F7F7F" opacity="1">0</text><text text-anchor="end" transform="translate(-9.67,269.66666666666663)" font-family="sans-serif" font-size="10px" fill="#7F7F7F" opacity="1">1</text><text text-anchor="end" transform="translate(-9.67,236.33333333333334)" font-family="sans-serif" font-size="10px" fill="#7F7F7F" opacity="1">2</text><text text-anchor="end" transform="translate(-9.67,203.00000000000003)" font-family="sans-serif" font-size="10px" fill="#7F7F7F" opacity="1">3</text><text text-anchor="end" transform="translate(-9.67,169.66666666666669)" font-family="sans-serif" font-size="10px" fill="#7F7F7F" opacity="1">4</text><text text-anchor="end" transform="translate(-9.67,136.33333333333331)" font-family="sans-serif" font-size="10px" fill="#7F7F7F" opacity="1">5</text><text text-anchor="end" transform="translate(-9.67,103.00000000000001)" font-family="sans-serif" font-size="10px" fill="#7F7F7F" opacity="1">6</text><text text-anchor="end" transform="translate(-9.67,69.66666666666666)" font-family="sans-serif" font-size="10px" fill="#7F7F7F" opacity="1">7</text><text text-anchor="end" transform="translate(-9.67,36.33333333333335)" font-family="sans-serif" font-size="10px" fill="#7F7F7F" opacity="1">8</text><text text-anchor="end" transform="translate(-9.67,3)" font-family="sans-serif" font-size="10px" fill="#7F7F7F" opacity="1">9</text></g><g class="mark-text role-axis-title" pointer-events="none"><text text-anchor="middle" transform="translate(-19.2315234375,150) rotate(-90) translate(0,-3)" font-family="sans-serif" font-size="16px" font-weight="normal" fill="#000" opacity="1">density</text></g></g><path class="foreground" aria-hidden="true" d="" pointer-events="none" display="none"/></g></g><g class="mark-group role-scope pathgroup" role="graphics-object" aria-roledescription="group mark container"><g transform="translate(0,0)"><path class="background" aria-hidden="true" d="M0,0h300v300h-300Z"/><g><g class="mark-line role-mark marks" role="graphics-object" aria-roledescription="line mark container"><path aria-label="c: 0.5; density: 4.51255448039; q / p: 1" role="graphics-symbol" aria-roledescription="line mark" d="M0,149.582L1.5,131.563L3,114.203L4.5,95.812L6,75.828L7.5,55.5L9,37.465L10.5,24.453L12,17.919L13.5,17.398L15,20.89L16.5,25.91L18,30.549L19.5,33.983L21,36.347L22.5,38.238L24,40.214L25.5,42.546L27,45.241L28.5,48.198L30,51.366L31.5,54.803L33,58.642L34.5,62.996L36,67.873L37.5,73.132L39,78.518L40.5,83.743L42,88.587L43.5,92.965L45,96.934L46.5,100.639L48,104.243L49.5,107.864L51,111.566L52.5,115.37L54,119.302L55.5,123.413L57,127.777L58.5,132.469L60,137.519L61.5,142.883L63,148.43L64.5,153.969L66,159.295L67.5,164.258L69,168.802L70.5,172.985L72,176.948L73.5,180.863L75,184.868L76.5,189.022L78,193.295L79.5,197.588L81,201.778L82.5,205.762L84,209.488L85.5,212.967L87,216.268L88.5,219.497L90,222.754L91.5,226.094L93,229.495L94.5,232.872L96,236.129L97.5,239.223L99,242.172L100.5,245.02L102,247.774L103.5,250.39L105,252.81L106.5,255.019L108,257.071L109.5,259.057L111,261.043L112.5,263.036L114,264.989L115.5,266.843L117,268.564L118.5,270.159L120,271.664L121.5,273.126L123,274.576L124.5,276.027L126,277.47L127.5,278.886L129,280.253L130.5,281.558L132,282.792L133.5,283.956L135,285.052L136.5,286.082L138,287.056L139.5,287.988L141,288.893L142.5,289.783L144,290.653L145.5,291.483L147,292.241L148.5,292.896L150,293.43L151.5,293.845L153,294.169L154.5,294.441L156,294.701L157.5,294.981L159,295.292L160.5,295.632L162,295.985L163.5,296.331L165,296.657L166.5,296.956L168,297.227L169.5,297.478L171,297.716L172.5,297.945L174,298.164L175.5,298.362L177,298.526L178.5,298.645L180,298.716L181.5,298.752L183,298.777L184.5,298.816L186,298.89L187.5,299.005L189,299.152L190.5,299.309L192,299.454L193.5,299.572L195,299.659L196.5,299.719L198,299.761L199.5,299.795L201,299.827L202.5,299.858L204,299.887L205.5,299.909L207,299.92L208.5,299.915L210,299.894L211.5,299.856L213,299.808L214.5,299.758L216,299.717L217.5,299.694L219,299.695L220.5,299.721L222,299.765L223.5,299.818L225,299.869L226.5,299.912L228,299.942L229.5,299.959L231,299.963L232.5,299.957L234,299.945L235.5,299.928L237,299.913L238.5,299.901L240,299.897L241.5,299.901L243,299.913L244.5,299.93L246,299.948L247.5,299.964L249,299.977L250.5,299.987L252,299.993L253.5,299.997L255,299.998L256.5,299.999L258,300L259.5,300L261,300L262.5,300L264,300L265.5,300L267,300L268.5,300L270,300L271.5,300L273,300L274.5,300L276,300L277.5,300L279,300L280.5,300L282,300L283.5,300L285,300L286.5,300L288,300L289.5,300L291,300L292.5,300L294,300L295.5,300L297,300L298.5,300L300,300" stroke="rgb(30, 30, 30)" stroke-width="2"/></g></g><path class="foreground" aria-hidden="true" d="" display="none"/></g><g transform="translate(0,0)"><path class="background" aria-hidden="true" d="M0,0h300v300h-300Z"/><g><g class="mark-line role-mark marks" role="graphics-object" aria-roledescription="line mark container"><path aria-label="c: 0.5; density: 4.12577325006; q / p: 0.9" role="graphics-symbol" aria-roledescription="line mark" d="M0,162.474L1.5,147.221L3,132.884L4.5,118.279L6,102.79L7.5,86.867L9,71.93L10.5,59.73L12,51.534L13.5,47.577L15,47.035L16.5,48.476L18,50.482L19.5,52.123L21,53.102L22.5,53.603L24,54.005L25.5,54.644L27,55.699L28.5,57.206L30,59.13L31.5,61.439L33,64.134L34.5,67.257L36,70.857L37.5,74.959L39,79.533L40.5,84.476L42,89.629L43.5,94.801L45,99.824L46.5,104.587L48,109.055L49.5,113.253L51,117.234L52.5,121.052L54,124.741L55.5,128.331L57,131.861L58.5,135.394L60,139.006L61.5,142.764L63,146.704L64.5,150.81L66,155.027L67.5,159.279L69,163.497L70.5,167.636L72,171.683L73.5,175.642L75,179.52L76.5,183.316L78,187.021L79.5,190.613L81,194.073L82.5,197.385L84,200.544L85.5,203.563L87,206.481L88.5,209.361L90,212.269L91.5,215.252L93,218.313L94.5,221.413L96,224.498L97.5,227.532L99,230.503L100.5,233.408L102,236.222L103.5,238.888L105,241.346L106.5,243.572L108,245.606L109.5,247.544L111,249.51L112.5,251.609L114,253.899L115.5,256.384L117,259.019L118.5,261.719L120,264.382L121.5,266.904L123,269.2L124.5,271.222L126,272.96L127.5,274.441L129,275.719L130.5,276.854L132,277.902L133.5,278.903L135,279.881L136.5,280.843L138,281.789L139.5,282.715L141,283.619L142.5,284.505L144,285.373L145.5,286.223L147,287.051L148.5,287.852L150,288.62L151.5,289.353L153,290.054L154.5,290.728L156,291.381L157.5,292.01L159,292.608L160.5,293.162L162,293.656L163.5,294.083L165,294.444L166.5,294.753L168,295.028L169.5,295.29L171,295.551L172.5,295.818L174,296.091L175.5,296.368L177,296.647L178.5,296.926L180,297.207L181.5,297.487L183,297.762L184.5,298.023L186,298.256L187.5,298.449L189,298.591L190.5,298.679L192,298.718L193.5,298.721L195,298.706L196.5,298.694L198,298.704L199.5,298.748L201,298.831L202.5,298.947L204,299.088L205.5,299.241L207,299.392L208.5,299.532L210,299.655L211.5,299.755L213,299.834L214.5,299.893L216,299.933L217.5,299.958L219,299.972L220.5,299.975L222,299.968L223.5,299.952L225,299.927L226.5,299.893L228,299.852L229.5,299.809L231,299.77L232.5,299.74L234,299.726L235.5,299.73L237,299.75L238.5,299.784L240,299.825L241.5,299.868L243,299.906L244.5,299.937L246,299.961L247.5,299.977L249,299.988L250.5,299.994L252,299.997L253.5,299.999L255,299.999L256.5,300L258,300L259.5,300L261,300L262.5,300L264,300L265.5,300L267,300L268.5,300L270,300L271.5,300L273,300L274.5,300L276,300L277.5,300L279,300L280.5,300L282,300L283.5,300L285,300L286.5,300L288,300L289.5,300L291,300L292.5,300L294,300L295.5,300L297,300L298.5,300L300,300" stroke="rgb(56, 56, 56)" stroke-width="2"/></g></g><path class="foreground" aria-hidden="true" d="" display="none"/></g><g transform="translate(0,0)"><path class="background" aria-hidden="true" d="M0,0h300v300h-300Z"/><g><g class="mark-line role-mark marks" role="graphics-object" aria-roledescription="line mark container"><path aria-label="c: 0.5; density: 3.68026887784; q / p: 0.8" role="graphics-symbol" aria-roledescription="line mark" d="M0,177.324L1.5,163.175L3,149.517L4.5,135.796L6,121.752L7.5,107.673L9,94.39L10.5,82.995L12,74.426L13.5,69.117L15,66.857L16.5,66.914L18,68.325L19.5,70.215L21,72.014L22.5,73.508L24,74.758L25.5,75.954L27,77.275L28.5,78.811L30,80.551L31.5,82.409L33,84.28L34.5,86.088L36,87.82L37.5,89.534L39,91.349L40.5,93.408L42,95.846L43.5,98.747L45,102.124L46.5,105.908L48,109.959L49.5,114.099L51,118.147L52.5,121.959L54,125.459L55.5,128.644L57,131.58L58.5,134.376L60,137.16L61.5,140.041L63,143.097L64.5,146.355L66,149.802L67.5,153.392L69,157.067L70.5,160.777L72,164.494L73.5,168.215L75,171.957L76.5,175.741L78,179.58L79.5,183.466L81,187.368L82.5,191.237L84,195.02L85.5,198.673L87,202.171L88.5,205.502L90,208.666L91.5,211.661L93,214.483L94.5,217.142L96,219.665L97.5,222.108L99,224.54L100.5,227.012L102,229.542L103.5,232.102L105,234.639L106.5,237.097L108,239.446L109.5,241.685L111,243.836L112.5,245.923L114,247.966L115.5,249.971L117,251.938L118.5,253.86L120,255.725L121.5,257.522L123,259.235L124.5,260.853L126,262.367L127.5,263.781L129,265.107L130.5,266.364L132,267.573L133.5,268.754L135,269.924L136.5,271.095L138,272.272L139.5,273.46L141,274.658L142.5,275.862L144,277.067L145.5,278.264L147,279.448L148.5,280.611L150,281.743L151.5,282.832L153,283.86L154.5,284.81L156,285.668L157.5,286.431L159,287.108L160.5,287.723L162,288.304L163.5,288.883L165,289.482L166.5,290.114L168,290.778L169.5,291.459L171,292.137L172.5,292.785L174,293.378L175.5,293.896L177,294.327L178.5,294.665L180,294.919L181.5,295.104L183,295.243L184.5,295.362L186,295.489L187.5,295.643L189,295.839L190.5,296.076L192,296.345L193.5,296.627L195,296.901L196.5,297.147L198,297.356L199.5,297.526L201,297.666L202.5,297.789L204,297.911L205.5,298.041L207,298.186L208.5,298.344L210,298.508L211.5,298.669L213,298.818L214.5,298.947L216,299.054L217.5,299.139L219,299.202L220.5,299.248L222,299.278L223.5,299.295L225,299.301L226.5,299.3L228,299.293L229.5,299.287L231,299.286L232.5,299.295L234,299.318L235.5,299.359L237,299.417L238.5,299.489L240,299.571L241.5,299.656L243,299.737L244.5,299.809L246,299.868L247.5,299.914L249,299.947L250.5,299.969L252,299.983L253.5,299.991L255,299.996L256.5,299.998L258,299.999L259.5,300L261,300L262.5,300L264,300L265.5,300L267,300L268.5,300L270,300L271.5,300L273,300L274.5,300L276,300L277.5,300L279,300L280.5,300L282,300L283.5,300L285,300L286.5,300L288,300L289.5,300L291,300L292.5,300L294,300L295.5,300L297,300L298.5,300L300,300" stroke="rgb(82, 82, 82)" stroke-width="2"/></g></g><path class="foreground" aria-hidden="true" d="" display="none"/></g><g transform="translate(0,0)"><path class="background" aria-hidden="true" d="M0,0h300v300h-300Z"/><g><g class="mark-line role-mark marks" role="graphics-object" aria-roledescription="line mark container"><path aria-label="c: 0.5; density: 3.21087359308; q / p: 0.7" role="graphics-symbol" aria-roledescription="line mark" d="M0,192.971L1.5,180.577L3,168.43L4.5,156.33L6,144.22L7.5,132.3L9,121.041L10.5,111.08L12,103.027L13.5,97.281L15,93.906L16.5,92.618L18,92.887L19.5,94.086L21,95.646L22.5,97.163L24,98.43L25.5,99.408L27,100.171L28.5,100.836L30,101.522L31.5,102.323L33,103.307L34.5,104.518L36,105.985L37.5,107.72L39,109.723L40.5,111.971L42,114.431L43.5,117.052L45,119.778L46.5,122.548L48,125.307L49.5,128.006L51,130.605L52.5,133.083L54,135.429L55.5,137.653L57,139.773L58.5,141.819L60,143.825L61.5,145.819L63,147.826L64.5,149.864L66,151.945L67.5,154.078L69,156.272L70.5,158.535L72,160.875L73.5,163.296L75,165.8L76.5,168.385L78,171.045L79.5,173.772L81,176.554L82.5,179.381L84,182.24L85.5,185.116L87,187.995L88.5,190.855L90,193.672L91.5,196.421L93,199.08L94.5,201.64L96,204.111L97.5,206.523L99,208.914L100.5,211.33L102,213.802L103.5,216.352L105,218.984L106.5,221.693L108,224.462L109.5,227.266L111,230.068L112.5,232.815L114,235.449L115.5,237.91L117,240.157L118.5,242.173L120,243.971L121.5,245.594L123,247.1L124.5,248.553L126,250.011L127.5,251.516L129,253.09L130.5,254.738L132,256.446L133.5,258.193L135,259.952L136.5,261.696L138,263.406L139.5,265.063L141,266.658L142.5,268.182L144,269.633L145.5,271.008L147,272.309L148.5,273.541L150,274.712L151.5,275.83L153,276.907L154.5,277.948L156,278.956L157.5,279.928L159,280.856L160.5,281.729L162,282.538L163.5,283.279L165,283.956L166.5,284.583L168,285.179L169.5,285.764L171,286.355L172.5,286.962L174,287.58L175.5,288.197L177,288.793L178.5,289.349L180,289.849L181.5,290.287L183,290.667L184.5,291.002L186,291.312L187.5,291.62L189,291.946L190.5,292.303L192,292.7L193.5,293.134L195,293.599L196.5,294.08L198,294.56L199.5,295.025L201,295.458L202.5,295.851L204,296.196L205.5,296.493L207,296.745L208.5,296.956L210,297.131L211.5,297.277L213,297.399L214.5,297.5L216,297.586L217.5,297.661L219,297.731L220.5,297.801L222,297.876L223.5,297.961L225,298.056L226.5,298.162L228,298.276L229.5,298.395L231,298.515L232.5,298.631L234,298.742L235.5,298.845L237,298.942L238.5,299.033L240,299.121L241.5,299.207L243,299.291L244.5,299.372L246,299.449L247.5,299.518L249,299.574L250.5,299.617L252,299.644L253.5,299.655L255,299.652L256.5,299.638L258,299.618L259.5,299.594L261,299.572L262.5,299.554L264,299.544L265.5,299.542L267,299.55L268.5,299.568L270,299.595L271.5,299.63L273,299.672L274.5,299.718L276,299.766L277.5,299.813L279,299.856L280.5,299.894L282,299.925L283.5,299.949L285,299.967L286.5,299.98L288,299.988L289.5,299.993L291,299.996L292.5,299.998L294,299.999L295.5,300L297,300L298.5,300L300,300" stroke="rgb(104, 104, 104)" stroke-width="2"/></g></g><path class="foreground" aria-hidden="true" d="" display="none"/></g><g transform="translate(0,0)"><path class="background" aria-hidden="true" d="M0,0h300v300h-300Z"/><g><g class="mark-line role-mark marks" role="graphics-object" aria-roledescription="line mark container"><path aria-label="c: 0.5; density: 2.89046525267; q / p: 0.6" role="graphics-symbol" aria-roledescription="line mark" d="M0,203.651L1.5,193.067L3,182.644L4.5,172.33L6,162.126L7.5,152.141L9,142.603L10.5,133.837L12,126.193L13.5,119.969L15,115.342L16.5,112.332L18,110.809L19.5,110.527L21,111.188L22.5,112.492L24,114.187L25.5,116.078L27,118.031L28.5,119.957L30,121.795L31.5,123.502L33,125.05L34.5,126.429L36,127.653L37.5,128.762L39,129.816L40.5,130.891L42,132.061L43.5,133.387L45,134.903L46.5,136.612L48,138.482L49.5,140.457L51,142.465L52.5,144.433L54,146.298L55.5,148.023L57,149.597L58.5,151.039L60,152.393L61.5,153.72L63,155.083L64.5,156.539L66,158.129L67.5,159.872L69,161.767L70.5,163.795L72,165.931L73.5,168.143L75,170.406L76.5,172.698L78,175.003L79.5,177.31L81,179.61L82.5,181.892L84,184.15L85.5,186.375L87,188.565L88.5,190.72L90,192.845L91.5,194.948L93,197.046L94.5,199.156L96,201.3L97.5,203.496L99,205.751L100.5,208.063L102,210.409L103.5,212.755L105,215.057L106.5,217.274L108,219.372L109.5,221.335L111,223.161L112.5,224.864L114,226.463L115.5,227.981L117,229.44L118.5,230.856L120,232.246L121.5,233.623L123,235L124.5,236.391L126,237.807L127.5,239.255L129,240.736L130.5,242.246L132,243.775L133.5,245.309L135,246.834L136.5,248.339L138,249.815L139.5,251.259L141,252.675L142.5,254.065L144,255.435L145.5,256.787L147,258.121L148.5,259.437L150,260.733L151.5,262.006L153,263.256L154.5,264.485L156,265.695L157.5,266.887L159,268.063L160.5,269.221L162,270.36L163.5,271.475L165,272.565L166.5,273.626L168,274.659L169.5,275.666L171,276.647L172.5,277.604L174,278.537L175.5,279.445L177,280.327L178.5,281.181L180,282.006L181.5,282.803L183,283.577L184.5,284.33L186,285.066L187.5,285.788L189,286.496L190.5,287.187L192,287.853L193.5,288.486L195,289.078L196.5,289.621L198,290.109L199.5,290.544L201,290.929L202.5,291.275L204,291.594L205.5,291.9L207,292.208L208.5,292.525L210,292.859L211.5,293.207L213,293.565L214.5,293.923L216,294.272L217.5,294.601L219,294.906L220.5,295.183L222,295.437L223.5,295.674L225,295.902L226.5,296.13L228,296.365L229.5,296.61L231,296.865L232.5,297.125L234,297.383L235.5,297.632L237,297.862L238.5,298.068L240,298.246L241.5,298.395L243,298.517L244.5,298.614L246,298.689L247.5,298.746L249,298.787L250.5,298.815L252,298.832L253.5,298.838L255,298.837L256.5,298.831L258,298.826L259.5,298.825L261,298.835L262.5,298.86L264,298.903L265.5,298.964L267,299.043L268.5,299.136L270,299.239L271.5,299.344L273,299.449L274.5,299.547L276,299.636L277.5,299.713L279,299.777L280.5,299.829L282,299.867L283.5,299.894L285,299.91L286.5,299.916L288,299.912L289.5,299.902L291,299.885L292.5,299.864L294,299.842L295.5,299.821L297,299.804L298.5,299.793L300,299.789" stroke="rgb(125, 125, 125)" stroke-width="2"/></g></g><path class="foreground" aria-hidden="true" d="" display="none"/></g><g transform="translate(0,0)"><path class="background" aria-hidden="true" d="M0,0h300v300h-300Z"/><g><g class="mark-line role-mark marks" role="graphics-object" aria-roledescription="line mark container"><path aria-label="c: 0.5; density: 2.43610519513; q / p: 0.5" role="graphics-symbol" aria-roledescription="line mark" d="M0,218.796L1.5,210.646L3,202.67L4.5,194.89L6,187.336L7.5,180.063L9,173.162L10.5,166.753L12,160.969L13.5,155.934L15,151.736L16.5,148.415L18,145.951L19.5,144.273L21,143.27L22.5,142.814L24,142.776L25.5,143.039L27,143.512L28.5,144.126L30,144.833L31.5,145.6L33,146.409L34.5,147.244L36,148.1L37.5,148.973L39,149.867L40.5,150.786L42,151.737L43.5,152.724L45,153.749L46.5,154.804L48,155.88L49.5,156.962L51,158.035L52.5,159.088L54,160.116L55.5,161.121L57,162.115L58.5,163.114L60,164.135L61.5,165.194L63,166.303L64.5,167.463L66,168.669L67.5,169.907L69,171.16L70.5,172.411L72,173.646L73.5,174.856L75,176.04L76.5,177.205L78,178.366L79.5,179.539L81,180.743L82.5,181.99L84,183.288L85.5,184.635L87,186.022L88.5,187.433L90,188.85L91.5,190.259L93,191.65L94.5,193.026L96,194.398L97.5,195.785L99,197.211L100.5,198.698L102,200.261L103.5,201.906L105,203.626L106.5,205.407L108,207.226L109.5,209.059L111,210.881L112.5,212.672L114,214.418L115.5,216.107L117,217.737L118.5,219.307L120,220.821L121.5,222.286L123,223.709L124.5,225.099L126,226.463L127.5,227.81L129,229.147L130.5,230.483L132,231.825L133.5,233.18L135,234.55L136.5,235.938L138,237.342L139.5,238.755L141,240.165L142.5,241.559L144,242.92L145.5,244.233L147,245.485L148.5,246.67L150,247.786L151.5,248.84L153,249.847L154.5,250.827L156,251.803L157.5,252.798L159,253.835L160.5,254.929L162,256.091L163.5,257.322L165,258.615L166.5,259.958L168,261.334L169.5,262.724L171,264.108L172.5,265.469L174,266.792L175.5,268.069L177,269.295L178.5,270.467L180,271.589L181.5,272.664L183,273.697L184.5,274.691L186,275.65L187.5,276.574L189,277.463L190.5,278.311L192,279.116L193.5,279.873L195,280.579L196.5,281.232L198,281.833L199.5,282.387L201,282.9L202.5,283.378L204,283.832L205.5,284.268L207,284.694L208.5,285.116L210,285.539L211.5,285.966L213,286.4L214.5,286.844L216,287.3L217.5,287.771L219,288.256L220.5,288.756L222,289.268L223.5,289.786L225,290.303L226.5,290.811L228,291.3L229.5,291.764L231,292.197L232.5,292.595L234,292.96L235.5,293.294L237,293.602L238.5,293.891L240,294.165L241.5,294.43L243,294.687L244.5,294.936L246,295.174L247.5,295.397L249,295.601L250.5,295.782L252,295.938L253.5,296.068L255,296.175L256.5,296.262L258,296.337L259.5,296.406L261,296.479L262.5,296.563L264,296.667L265.5,296.798L267,296.958L268.5,297.149L270,297.37L271.5,297.615L273,297.877L274.5,298.146L276,298.413L277.5,298.667L279,298.9L280.5,299.103L282,299.272L283.5,299.404L285,299.498L286.5,299.556L288,299.582L289.5,299.581L291,299.559L292.5,299.524L294,299.482L295.5,299.44L297,299.406L298.5,299.384L300,299.378" stroke="rgb(148, 148, 148)" stroke-width="2"/></g></g><path class="foreground" aria-hidden="true" d="" display="none"/></g><g transform="translate(0,0)"><path class="background" aria-hidden="true" d="M0,0h300v300h-300Z"/><g><g class="mark-line role-mark marks" role="graphics-object" aria-roledescription="line mark container"><path aria-label="c: 0.5; density: 1.96213596968; q / p: 0.4" role="graphics-symbol" aria-roledescription="line mark" d="M0,234.595L1.5,228.435L3,222.346L4.5,216.37L6,210.555L7.5,204.952L9,199.622L10.5,194.634L12,190.056L13.5,185.955L15,182.383L16.5,179.372L18,176.929L19.5,175.036L21,173.647L22.5,172.699L24,172.114L25.5,171.814L27,171.723L28.5,171.777L30,171.926L31.5,172.14L33,172.401L34.5,172.706L36,173.061L37.5,173.477L39,173.965L40.5,174.536L42,175.194L43.5,175.939L45,176.764L46.5,177.659L48,178.608L49.5,179.593L51,180.596L52.5,181.599L54,182.585L55.5,183.539L57,184.448L58.5,185.304L60,186.099L61.5,186.827L63,187.485L64.5,188.075L66,188.596L67.5,189.056L69,189.46L70.5,189.821L72,190.149L73.5,190.46L75,190.769L76.5,191.09L78,191.435L79.5,191.816L81,192.237L82.5,192.701L84,193.209L85.5,193.755L87,194.334L88.5,194.94L90,195.569L91.5,196.217L93,196.884L94.5,197.573L96,198.29L97.5,199.039L99,199.826L100.5,200.656L102,201.529L103.5,202.444L105,203.395L106.5,204.375L108,205.375L109.5,206.386L111,207.401L112.5,208.414L114,209.423L115.5,210.428L117,211.433L118.5,212.443L120,213.463L121.5,214.501L123,215.562L124.5,216.65L126,217.766L127.5,218.909L129,220.074L130.5,221.253L132,222.436L133.5,223.611L135,224.765L136.5,225.888L138,226.967L139.5,227.997L141,228.973L142.5,229.895L144,230.768L145.5,231.598L147,232.394L148.5,233.168L150,233.932L151.5,234.695L153,235.466L154.5,236.251L156,237.054L157.5,237.874L159,238.71L160.5,239.556L162,240.408L163.5,241.259L165,242.105L166.5,242.942L168,243.768L169.5,244.584L171,245.394L172.5,246.203L174,247.019L175.5,247.849L177,248.702L178.5,249.584L180,250.501L181.5,251.457L183,252.453L184.5,253.488L186,254.557L187.5,255.657L189,256.779L190.5,257.917L192,259.064L193.5,260.21L195,261.349L196.5,262.474L198,263.58L199.5,264.66L201,265.712L202.5,266.73L204,267.714L205.5,268.663L207,269.575L208.5,270.454L210,271.302L211.5,272.121L213,272.916L214.5,273.689L216,274.444L217.5,275.183L219,275.908L220.5,276.618L222,277.314L223.5,277.995L225,278.66L226.5,279.309L228,279.944L229.5,280.564L231,281.175L232.5,281.777L234,282.376L235.5,282.974L237,283.573L238.5,284.172L240,284.769L241.5,285.361L243,285.941L244.5,286.503L246,287.039L247.5,287.543L249,288.01L250.5,288.436L252,288.822L253.5,289.171L255,289.489L256.5,289.785L258,290.069L259.5,290.353L261,290.65L262.5,290.97L264,291.323L265.5,291.716L267,292.151L268.5,292.628L270,293.142L271.5,293.687L273,294.25L274.5,294.818L276,295.378L277.5,295.914L279,296.412L280.5,296.86L282,297.248L283.5,297.569L285,297.82L286.5,298.002L288,298.119L289.5,298.18L291,298.195L292.5,298.178L294,298.141L295.5,298.1L297,298.067L298.5,298.053L300,298.066" stroke="rgb(170, 170, 170)" stroke-width="2"/></g></g><path class="foreground" aria-hidden="true" d="" display="none"/></g><g transform="translate(0,0)"><path class="background" aria-hidden="true" d="M0,0h300v300h-300Z"/><g><g class="mark-line role-mark marks" role="graphics-object" aria-roledescription="line mark container"><path aria-label="c: 0.5; density: 1.3731984552; q / p: 0.3" role="graphics-symbol" aria-roledescription="line mark" d="M0,254.227L1.5,250.254L3,246.302L4.5,242.401L6,238.578L7.5,234.863L9,231.287L10.5,227.882L12,224.678L13.5,221.706L15,218.991L16.5,216.553L18,214.403L19.5,212.546L21,210.976L22.5,209.677L24,208.629L25.5,207.803L27,207.169L28.5,206.695L30,206.35L31.5,206.107L33,205.94L34.5,205.83L36,205.761L37.5,205.721L39,205.701L40.5,205.695L42,205.7L43.5,205.713L45,205.731L46.5,205.755L48,205.785L49.5,205.821L51,205.867L52.5,205.924L54,205.997L55.5,206.089L57,206.205L58.5,206.349L60,206.525L61.5,206.736L63,206.981L64.5,207.262L66,207.576L67.5,207.918L69,208.284L70.5,208.665L72,209.053L73.5,209.44L75,209.814L76.5,210.166L78,210.488L79.5,210.77L81,211.007L82.5,211.194L84,211.327L85.5,211.408L87,211.438L88.5,211.423L90,211.369L91.5,211.288L93,211.191L94.5,211.088L96,210.994L97.5,210.918L99,210.872L100.5,210.862L102,210.894L103.5,210.97L105,211.089L106.5,211.25L108,211.446L109.5,211.673L111,211.924L112.5,212.193L114,212.475L115.5,212.765L117,213.06L118.5,213.358L120,213.656L121.5,213.955L123,214.253L124.5,214.551L126,214.847L127.5,215.141L129,215.433L130.5,215.723L132,216.01L133.5,216.294L135,216.577L136.5,216.86L138,217.146L139.5,217.437L141,217.739L142.5,218.054L144,218.387L145.5,218.743L147,219.124L148.5,219.534L150,219.974L151.5,220.445L153,220.946L154.5,221.477L156,222.035L157.5,222.619L159,223.226L160.5,223.854L162,224.5L163.5,225.163L165,225.841L166.5,226.533L168,227.238L169.5,227.957L171,228.687L172.5,229.43L174,230.185L175.5,230.952L177,231.73L178.5,232.52L180,233.32L181.5,234.129L183,234.947L184.5,235.771L186,236.598L187.5,237.427L189,238.253L190.5,239.072L192,239.881L193.5,240.676L195,241.455L196.5,242.213L198,242.95L199.5,243.666L201,244.361L202.5,245.038L204,245.7L205.5,246.351L207,246.995L208.5,247.64L210,248.289L211.5,248.95L213,249.626L214.5,250.324L216,251.047L217.5,251.799L219,252.584L220.5,253.404L222,254.262L223.5,255.156L225,256.089L226.5,257.058L228,258.06L229.5,259.093L231,260.151L232.5,261.228L234,262.317L235.5,263.409L237,264.496L238.5,265.568L240,266.615L241.5,267.625L243,268.591L244.5,269.502L246,270.352L247.5,271.136L249,271.853L250.5,272.505L252,273.098L253.5,273.641L255,274.15L256.5,274.642L258,275.137L259.5,275.656L261,276.221L262.5,276.851L264,277.562L265.5,278.363L267,279.259L268.5,280.247L270,281.317L271.5,282.45L273,283.623L274.5,284.807L276,285.97L277.5,287.078L279,288.1L280.5,289.009L282,289.78L283.5,290.401L285,290.865L286.5,291.174L288,291.341L289.5,291.388L291,291.342L292.5,291.237L294,291.107L295.5,290.988L297,290.914L298.5,290.912L300,291.003" stroke="rgb(192, 192, 192)" stroke-width="2"/></g></g><path class="foreground" aria-hidden="true" d="" display="none"/></g><g transform="translate(0,0)"><path class="background" aria-hidden="true" d="M0,0h300v300h-300Z"/><g><g class="mark-line role-mark marks" role="graphics-object" aria-roledescription="line mark container"><path aria-label="c: 0.5; density: 0.910364970829; q / p: 0.2" role="graphics-symbol" aria-roledescription="line mark" d="M0,269.655L1.5,267.375L3,265.125L4.5,262.92L6,260.772L7.5,258.696L9,256.703L10.5,254.805L12,253.012L13.5,251.333L15,249.777L16.5,248.348L18,247.049L19.5,245.881L21,244.841L22.5,243.923L24,243.12L25.5,242.421L27,241.814L28.5,241.287L30,240.827L31.5,240.424L33,240.065L34.5,239.743L36,239.451L37.5,239.183L39,238.936L40.5,238.709L42,238.5L43.5,238.31L45,238.137L46.5,237.983L48,237.846L49.5,237.726L51,237.619L52.5,237.523L54,237.435L55.5,237.35L57,237.266L58.5,237.179L60,237.085L61.5,236.981L63,236.866L64.5,236.737L66,236.596L67.5,236.442L69,236.276L70.5,236.102L72,235.919L73.5,235.732L75,235.542L76.5,235.353L78,235.165L79.5,234.98L81,234.799L82.5,234.621L84,234.448L85.5,234.276L87,234.105L88.5,233.933L90,233.756L91.5,233.573L93,233.38L94.5,233.175L96,232.956L97.5,232.72L99,232.465L100.5,232.191L102,231.897L103.5,231.581L105,231.245L106.5,230.89L108,230.518L109.5,230.13L111,229.731L112.5,229.325L114,228.915L115.5,228.508L117,228.108L118.5,227.722L120,227.353L121.5,227.008L123,226.689L124.5,226.401L126,226.145L127.5,225.921L129,225.729L130.5,225.567L132,225.433L133.5,225.323L135,225.233L136.5,225.158L138,225.096L139.5,225.042L141,224.994L142.5,224.948L144,224.905L145.5,224.863L147,224.822L148.5,224.784L150,224.75L151.5,224.72L153,224.696L154.5,224.679L156,224.669L157.5,224.666L159,224.668L160.5,224.675L162,224.685L163.5,224.696L165,224.704L166.5,224.709L168,224.708L169.5,224.699L171,224.68L172.5,224.652L174,224.613L175.5,224.564L177,224.505L178.5,224.438L180,224.363L181.5,224.283L183,224.199L184.5,224.113L186,224.028L187.5,223.944L189,223.864L190.5,223.791L192,223.725L193.5,223.671L195,223.628L196.5,223.601L198,223.59L199.5,223.599L201,223.628L202.5,223.68L204,223.756L205.5,223.857L207,223.986L208.5,224.142L210,224.325L211.5,224.538L213,224.779L214.5,225.048L216,225.347L217.5,225.674L219,226.03L220.5,226.416L222,226.833L223.5,227.28L225,227.758L226.5,228.269L228,228.812L229.5,229.385L231,229.988L232.5,230.617L234,231.266L235.5,231.93L237,232.601L238.5,233.27L240,233.928L241.5,234.566L243,235.176L244.5,235.753L246,236.294L247.5,236.801L249,237.282L250.5,237.749L252,238.218L253.5,238.713L255,239.259L256.5,239.886L258,240.622L259.5,241.495L261,242.528L262.5,243.74L264,245.138L265.5,246.721L267,248.477L268.5,250.381L270,252.396L271.5,254.477L273,256.57L274.5,258.614L276,260.55L277.5,262.317L279,263.864L280.5,265.147L282,266.137L283.5,266.821L285,267.202L286.5,267.303L288,267.164L289.5,266.84L291,266.398L292.5,265.914L294,265.468L295.5,265.136L297,264.99L298.5,265.089L300,265.478" stroke="rgb(210, 210, 210)" stroke-width="2"/></g></g><path class="foreground" aria-hidden="true" d="" display="none"/></g><g transform="translate(0,0)"><path class="background" aria-hidden="true" d="M0,0h300v300h-300Z"/><g><g class="mark-line role-mark marks" role="graphics-object" aria-roledescription="line mark container"><path aria-label="c: 0.5; density: 0.387180134081; q / p: 0.1" role="graphics-symbol" aria-roledescription="line mark" d="M0,287.094L1.5,286.173L3,285.261L4.5,284.361L6,283.475L7.5,282.606L9,281.759L10.5,280.935L12,280.138L13.5,279.373L15,278.644L16.5,277.954L18,277.306L19.5,276.704L21,276.15L22.5,275.642L24,275.182L25.5,274.766L27,274.391L28.5,274.053L30,273.745L31.5,273.463L33,273.199L34.5,272.948L36,272.704L37.5,272.462L39,272.218L40.5,271.969L42,271.712L43.5,271.446L45,271.173L46.5,270.891L48,270.604L49.5,270.313L51,270.023L52.5,269.735L54,269.455L55.5,269.185L57,268.929L58.5,268.691L60,268.473L61.5,268.278L63,268.105L64.5,267.955L66,267.828L67.5,267.721L69,267.632L70.5,267.556L72,267.489L73.5,267.426L75,267.361L76.5,267.29L78,267.206L79.5,267.106L81,266.985L82.5,266.84L84,266.671L85.5,266.475L87,266.255L88.5,266.012L90,265.748L91.5,265.467L93,265.174L94.5,264.872L96,264.564L97.5,264.254L99,263.944L100.5,263.634L102,263.326L103.5,263.018L105,262.708L106.5,262.395L108,262.076L109.5,261.748L111,261.409L112.5,261.059L114,260.695L115.5,260.319L117,259.931L118.5,259.534L120,259.129L121.5,258.72L123,258.309L124.5,257.901L126,257.499L127.5,257.104L129,256.719L130.5,256.346L132,255.986L133.5,255.638L135,255.303L136.5,254.98L138,254.668L139.5,254.365L141,254.069L142.5,253.779L144,253.492L145.5,253.206L147,252.92L148.5,252.631L150,252.337L151.5,252.035L153,251.725L154.5,251.404L156,251.07L157.5,250.723L159,250.361L160.5,249.982L162,249.587L163.5,249.176L165,248.747L166.5,248.303L168,247.843L169.5,247.369L171,246.882L172.5,246.382L174,245.87L175.5,245.347L177,244.814L178.5,244.269L180,243.711L181.5,243.14L183,242.551L184.5,241.942L186,241.308L187.5,240.646L189,239.949L190.5,239.214L192,238.435L193.5,237.608L195,236.729L196.5,235.797L198,234.809L199.5,233.768L201,232.674L202.5,231.533L204,230.35L205.5,229.133L207,227.891L208.5,226.636L210,225.378L211.5,224.131L213,222.906L214.5,221.716L216,220.571L217.5,219.481L219,218.454L220.5,217.493L222,216.6L223.5,215.773L225,215.005L226.5,214.286L228,213.602L229.5,212.932L231,212.255L232.5,211.546L234,210.778L235.5,209.925L237,208.96L238.5,207.861L240,206.612L241.5,205.204L243,203.636L244.5,201.919L246,200.077L247.5,198.145L249,196.171L250.5,194.216L252,192.348L253.5,190.643L255,189.179L256.5,188.032L258,187.27L259.5,186.949L261,187.106L262.5,187.755L264,188.883L265.5,190.448L267,192.374L268.5,194.556L270,196.864L271.5,199.144L273,201.225L274.5,202.935L276,204.105L277.5,204.582L279,204.242L280.5,203.001L282,200.823L283.5,197.728L285,193.795L286.5,189.163L288,184.025L289.5,178.621L291,173.227L292.5,168.139L294,163.654L295.5,160.057L297,157.599L298.5,156.483L300,156.852" stroke="rgb(226, 226, 226)" stroke-width="2"/></g></g><path class="foreground" aria-hidden="true" d="" display="none"/></g></g><g class="mark-group role-legend" role="graphics-symbol" aria-roledescription="legend" aria-label="Gradient legend titled 'q / p' for stroke color with values from 0.1 to 1.0"><g transform="translate(320,0)"><path class="background" aria-hidden="true" d="M0,0h34v216h-34Z" pointer-events="none"/><g><g class="mark-group role-legend-entry"><g transform="translate(0,16)"><path class="background" aria-hidden="true" d="M0,0h0v0h0Z" pointer-events="none"/><g><g class="mark-rect role-legend-gradient" pointer-events="none"><path d="M0,0h16v200h-16Z" fill="url(#gradient_0)" stroke="#ddd" stroke-width="0" opacity="1"/></g><g class="mark-text role-legend-label" pointer-events="none"><text text-anchor="start" transform="translate(18,180.77777777777777)" font-family="sans-serif" font-size="11px" fill="#000" opacity="1">0.2</text><text text-anchor="start" transform="translate(18,136.33333333333331)" font-family="sans-serif" font-size="11px" fill="#000" opacity="1">0.4</text><text text-anchor="start" transform="translate(18,91.88888888888889)" font-family="sans-serif" font-size="11px" fill="#000" opacity="1">0.6</text><text text-anchor="start" transform="translate(18,47.44444444444444)" font-family="sans-serif" font-size="11px" fill="#000" opacity="1">0.8</text><text text-anchor="start" transform="translate(18,9)" font-family="sans-serif" font-size="11px" fill="#000" opacity="1">1.0</text></g></g><path class="foreground" aria-hidden="true" d="" pointer-events="none" display="none"/></g></g><g class="mark-text role-legend-title" pointer-events="none"><text text-anchor="start" transform="translate(0,9)" font-family="sans-serif" font-size="11px" font-weight="bold" fill="#000" opacity="1">q / p</text></g></g><path class="foreground" aria-hidden="true" d="" pointer-events="none" display="none"/></g></g></g><path class="foreground" aria-hidden="true" d="" display="none"/></g></g></g><defs><linearGradient id="gradient_0" x1="0" x2="0" y1="1" y2="0"><stop offset="0" stop-color="rgb(226, 226, 226)"/><stop offset="0.05555555555555554" stop-color="rgb(218, 218, 218)"/><stop offset="0.11111111111111112" stop-color="rgb(210, 210, 210)"/><stop offset="0.16666666666666666" stop-color="rgb(201, 201, 201)"/><stop offset="0.2222222222222222" stop-color="rgb(192, 192, 192)"/><stop offset="0.27777777777777773" stop-color="rgb(181, 181, 181)"/><stop offset="0.33333333333333337" stop-color="rgb(170, 170, 170)"/><stop offset="0.38888888888888884" stop-color="rgb(159, 159, 159)"/><stop offset="0.4444444444444445" stop-color="rgb(148, 148, 148)"/><stop offset="0.5000000000000001" stop-color="rgb(136, 136, 136)"/><stop offset="0.5555555555555556" stop-color="rgb(125, 125, 125)"/><stop offset="0.6111111111111112" stop-color="rgb(115, 115, 115)"/><stop offset="0.6666666666666666" stop-color="rgb(104, 104, 104)"/><stop offset="0.7222222222222222" stop-color="rgb(93, 93, 93)"/><stop offset="0.7777777777777778" stop-color="rgb(82, 82, 82)"/><stop offset="0.8333333333333333" stop-color="rgb(69, 69, 69)"/><stop offset="0.888888888888889" stop-color="rgb(56, 56, 56)"/><stop offset="0.9444444444444444" stop-color="rgb(43, 43, 43)"/><stop offset="1" stop-color="rgb(30, 30, 30)"/></linearGradient></defs></svg>