<svg xmlns="http://www.w3.org/2000/svg" xmlns:xlink="http://www.w3.org/1999/xlink" version="1.1" class="marks" width="356" height="355" viewBox="0 0 356 355"><rect width="356" height="355" fill="white"/><g fill="none" stroke-miterlimit="10" transform="translate(49,10)"><g class="mark-group role-frame root" role="graphics-object" aria-roledescription="group mark container"><g transform="translate(0,0)"><path class="background" aria-hidden="true" d="M0.5,0.5h300v300h-300Z" stroke="#ddd"/><g><g class="mark-group role-axis" aria-hidden="true"><g transform="translate(0.5,300.5)"><path class="background" aria-hidden="true" d="M0,0h0v0h0Z" pointer-events="none"/><g><g class="mark-rule role-axis-grid" pointer-events="none"><line transform="translate(0,-300)" x2="0" y2="300" stroke="#FFFFFF" stroke-opacity="1" stroke-width="1" opacity="1"/><line transform="translate(30,-300)" x2="0" y2="300" stroke="#FFFFFF" stroke-opacity="1" stroke-width="1" opacity="1"/><line transform="translate(60,-300)" x2="0" y2="300" stroke="#FFFFFF" stroke-opacity="1" stroke-width="1" opacity="1"/><line transform="translate(90,-300)" x2="0" y2="300" stroke="#FFFFFF" stroke-opacity="1" stroke-width="1" opacity="1"/><line transform="translate(120,-300)" x2="0" y2="300" stroke="#FFFFFF" stroke-opacity="1" stroke-width="1" opacity="1"/><line transform="translate(150,-300)" x2="0" y2="300" stroke="#FFFFFF" stroke-opacity="1" stroke-width="1" opacity="1"/><line transform="translate(180,-300)" x2="0" y2="300" stroke="#FFFFFF" stroke-opacity="1" stroke-width="1" opacity="1"/><line transform="translate(210,-300)" x2="0" y2="300" stroke="#FFFFFF" stroke-opacity="1" stroke-width="1" opacity="1"/><line transform="translate(240,-300)" x2="0" y2="300" stroke="#FFFFFF" stroke-opacity="1" stroke-width="1" opacity="1"/><line transform="translate(270,-300)" x2="0" y2="300" stroke="#FFFFFF" stroke-opacity="1" stroke-width="1" opacity="1"/><line transform="translate(300,-300)" x2="0" y2="300" stroke="#FFFFFF" stroke-opacity="1" stroke-width="1" opacity="1"/></g></g><path class="foreground" aria-hidden="true" d="" pointer-events="none" display="none"/></g></g><g class="mark-group role-axis" aria-hidden="true"><g transform="translate(0.5,0.5)"><path class="background" aria-hidden="true" d="M0,0h0v0h0Z" pointer-events="none"/><g><g class="mark-rule role-axis-grid" pointer-events="none"><line transform="translate(0,300)" x2="300" y2="0" stroke="#FFFFFF" stroke-opacity="1" stroke-width="1" opacity="1"/><line transform="translate(0,270)" x2="300" y2="0" stroke="#FFFFFF" stroke-opacity="1" stroke-width="1" opacity="1"/><line transform="translate(0,240)" x2="300" y2="0" stroke="#FFFFFF" stroke-opacity="1" stroke-width="1" opacity="1"/><line transform="translate(0,210)" x2="300" y2="0" stroke="#FFFFFF" stroke-opacity="1" stroke-width="1" opacity="1"/><line transform="translate(0,180)" x2="300" y2="0" stroke="#FFFFFF" stroke-opacity="1" stroke-width="1" opacity="1"/><line transform="translate(0,150)" x2="300" y2="0" stroke="#FFFFFF" stroke-opacity="1" stroke-width="1" opacity="1"/><line transform="translate(0,120)" x2="300" y2="0" stroke="#FFFFFF" stroke-opacity="1" stroke-width="1" opacity="1"/><line transform="translate(0,90)" x2="300" y2="0" stroke="#FFFFFF" stroke-opacity="1" stroke-width="1" opacity="1"/><line transform="translate(0,60)" x2="300" y2="0" stroke="#FFFFFF" stroke-opacity="1" stroke-width="1" opacity="1"/><line transform="translate(0,30)" x2="300" y2="0" stroke="#FFFFFF" stroke-opacity="1" stroke-width="1" opacity="1"/><line transform="translate(0,0)" x2="300" y2="0" stroke="#FFFFFF" stroke-opacity="1" stroke-width="1" opacity="1"/></g></g><path class="foreground" aria-hidden="true" d="" pointer-events="none" display="none"/></g></g><g class="mark-group role-axis" role="graphics-symbol" aria-roledescription="axis" aria-label="X-axis titled 'q / p' for a linear scale with values from 0.0 to 1.0"><g transform="translate(0.5,300.5)"><path class="background" aria-hidden="true" d="M0,0h0v0h0Z" pointer-events="none"/><g><g class="mark-rule role-axis-tick" pointer-events="none"><line transform="translate(0,0)" x2="0" y2="5.67" stroke="#7F7F7F" stroke-width="1" opacity="1"/><line transform="translate(30,0)" x2="0" y2="5.67" stroke="#7F7F7F" stroke-width="1" opacity="1"/><line transform="translate(60,0)" x2="0" y2="5.67" stroke="#7F7F7F" stroke-width="1" opacity="1"/><line transform="translate(90,0)" x2="0" y2="5.67" stroke="#7F7F7F" stroke-width="1" opacity="1"/><line transform="translate(120,0)" x2="0" y2="5.67" stroke="#7F7F7F" stroke-width="1" opacity="1"/><line transform="translate(150,0)" x2="0" y2="5.67" stroke="#7F7F7F" stroke-width="1" opacity="1"/><line transform="translate(180,0)" x2="0" y2="5.67" stroke="#7F7F7F" stroke-width="1" opacity="1"/><line transform="translate(210,0)" x2="0" y2="5.67" stroke="#7F7F7F" stroke-width="1" opacity="1"/><line transform="translate(240,0)" x2="0" y2="5.67" stroke="#7F7F7F" stroke-width="1" opacity="1"/><line transform="translate(270,0)" x2="0" y2="5.67" stroke="#7F7F7F" stroke-width="1" opacity="1"/><line transform="translate(300,0)" x2="0" y2="5.67" stroke="#7F7F7F" stroke-width="1" opacity="1"/></g><g class="mark-text role-axis-label" pointer-events="none"><text text-anchor="start" transform="translate(0,17.67)" font-family="sans-serif" font-size="10px" fill="#7F7F7F" opacity="1">0.0</text><text text-anchor="middle" transform="translate(30,17.67)" font-family="sans-serif" font-size="10px" fill="#7F7F7F" opacity="1">0.1</text><text text-anchor="middle" transform="translate(60,17.67)" font-family="sans-serif" font-size="10px" fill="#7F7F7F" opacity="1">0.2</text><text text-anchor="middle" transform="translate(90,17.67)" font-family="sans-serif" font-size="10px" fill="#7F7F7F" opacity="1">0.3</text><text text-anchor="middle" transform="translate(120,17.67)" font-family="sans-serif" font-size="10px" fill="#7F7F7F" opacity="1">0.4</text><text text-anchor="middle" transform="translate(150,17.67)" font-family="sans-serif" font-size="10px" fill="#7F7F7F" opacity="1">0.5</text><text text-anchor="middle" transform="translate(180,17.67)" font-family="sans-serif" font-size="10px" fill="#7F7F7F" opacity="1">0.6</text><text text-anchor="middle" transform="translate(210,17.67)" font-family="sans-serif" font-size="10px" fill="#7F7F7F" opacity="1">0.7</text><text text-anchor="middle" transform="translate(240,17.67)" font-family="sans-serif" font-size="10px" fill="#7F7F7F" opacity="1">0.8</text><text text-anchor="middle" transform="translate(270,17.67)" font-family="sans-serif" font-size="10px" fill="#7F7F7F" opacity="1">0.9</text><text text-anchor="end" transform="translate(300,17.67)" font-family="sans-serif" font-size="10px" fill="#7F7F7F" opacity="1">1.0</text></g><g class="mark-text role-axis-title" pointer-events="none"><text text-anchor="middle" transform="translate(150,36.67)" font-family="sans-serif" font-size="16px" font-weight="normal" fill="#000" opacity="1">q / p</text></g></g><path class="foreground" aria-hidden="true" d="" pointer-events="none" display="none"/></g></g><g class="mark-group role-axis" role="graphics-symbol" aria-roledescription="axis" aria-label="Y-axis titled 'c' for a linear scale with values from 0.0 to 1.0"><g transform="translate(0.5,0.5)"><path class="background" aria-hidden="true" d="M0,0h0v0h0Z" pointer-events="none"/><g><g class="mark-rule role-axis-tick" pointer-events="none"><line transform="translate(0,300)" x2="-5.67" y2="0" stroke="#7F7F7F" stroke-width="1" opacity="1"/><line transform="translate(0,270)" x2="-5.67" y2="0" stroke="#7F7F7F" stroke-width="1" opacity="1"/><line transform="translate(0,240)" x2="-5.67" y2="0" stroke="#7F7F7F" stroke-width="1" opacity="1"/><line transform="translate(0,210)" x2="-5.67" y2="0" stroke="#7F7F7F" stroke-width="1" opacity="1"/><line transform="translate(0,180)" x2="-5.67" y2="0" stroke="#7F7F7F" stroke-width="1" opacity="1"/><line transform="translate(0,150)" x2="-5.67" y2="0" stroke="#7F7F7F" stroke-width="1" opacity="1"/><line transform="translate(0,120)" x2="-5.67" y2="0" stroke="#7F7F7F" stroke-width="1" opacity="1"/><line transform="translate(0,90)" x2="-5.67" y2="0" stroke="#7F7F7F" stroke-width="1" opacity="1"/><line transform="translate(0,60)" x2="-5.67" y2="0" stroke="#7F7F7F" stroke-width="1" opacity="1"/><line transform="translate(0,30)" x2="-5.67" y2="0" stroke="#7F7F7F" stroke-width="1" opacity="1"/><line transform="translate(0,0)" x2="-5.67" y2="0" stroke="#7F7F7F" stroke-width="1" opacity="1"/></g><g class="mark-text role-axis-label" pointer-events="none"><text text-anchor="end" transform="translate(-9.67,303)" font-family="sans-serif" font-size="10px" fill="#7F7F7F" opacity="1">0.0</text><text text-anchor="end" transform="translate(-9.67,273)" font-family="sans-serif" font-size="10px" fill="#7F7F7F" opacity="1">0.1</text><text text-anchor="end" transform="translate(-9.67,243)" font-family="sans-serif" font-size="10px" fill="#7F7F7F" opacity="1">0.2</text><text text-anchor="end" transform="translate(-9.67,213)" font-family="sans-serif" font-size="10px" fill="#7F7F7F" opacity="1">0.3</text><text text-anchor="end" transform="translate(-9.67,183)" font-family="sans-serif" font-size="10px" fill="#7F7F7F" opacity="1">0.4</text><text text-anchor="end" transform="translate(-9.67,153)" font-family="sans-serif" font-size="10px" fill="#7F7F7F" opacity="1">0.5</text><text text-anchor="end" transform="translate(-9.67,123)" font-family="sans-serif" font-size="10px" fill="#7F7F7F" opacity="1">0.6</text><text text-anchor="end" transform="translate(-9.67,93.00000000000001)" font-family="sans-serif" font-size="10px" fill="#7F7F7F" opacity="1">0.7</text><text text-anchor="end" transform="translate(-9.67,62.999999999999986)" font-family="sans-serif" font-size="10px" fill="#7F7F7F" opacity="1">0.8</text><text text-anchor="end" transform="translate(-9.67,32.99999999999999)" font-family="sans-serif" font-size="10px" fill="#7F7F7F" opacity="1">0.9</text><text text-anchor="end" transform="translate(-9.67,3)" font-family="sans-serif" font-size="10px" fill="#7F7F7F" opacity="1">1.0</text></g><g class="mark-text role-axis-title" pointer-events="none"><text text-anchor="middle" transform="translate(-27.5713671875,150) rotate(-90) translate(0,-3)" font-family="sans-serif" font-size="16px" font-weight="normal" fill="#000" opacity="1">c</text></g></g><path class="foreground" aria-hidden="true" d="" pointer-events="none" display="none"/></g></g><g class="mark-area role-mark layer_0_layer_0_marks" role="graphics-object" aria-roledescription="area mark container"><path aria-label="q / p: 0; c: 1; upper_value: 1; Mean of c: 1; Mean + stdev of c: 1; Mean - stdev of c: 1" role="graphics-symbol" aria-roledescription="errorband" d="M0,0L30,89.328L60,116.62L90,129.153L120,136.069L150,139.509L180,141.608L210,142.889L240,143.807L270,144.413L300,144.933L300,111.595L270,108.234L240,104.286L210,99.296L180,92.678L150,83.873L120,72.013L90,55.239L60,32.956L30,3.98L0,0Z" fill="#000" opacity="0.3"/></g><g class="mark-line role-mark layer_1_marks" role="graphics-object" aria-roledescription="line mark container"><path aria-label="q / p: 0; c: 1" role="graphics-symbol" aria-roledescription="line mark" d="M0,0L30,46.654L60,74.788L90,92.196L120,104.041L150,111.691L180,117.143L210,121.092L240,124.046L270,126.324L300,128.264" stroke="#000" stroke-width="2"/></g></g><path class="foreground" aria-hidden="true" d="" display="none"/></g></g></g></svg>