<svg xmlns="http://www.w3.org/2000/svg" xmlns:xlink="http://www.w3.org/1999/xlink" version="1.1" class="marks" width="414" height="355" viewBox="0 0 414 355"><rect width="414" height="355" fill="white"/><g fill="none" stroke-miterlimit="10" transform="translate(55,10)"><g class="mark-group role-frame root" role="graphics-object" aria-roledescription="group mark container"><g transform="translate(0,0)"><path class="background" aria-hidden="true" d="M0.5,0.5h300v300h-300Z" stroke="#ddd"/><g><g class="mark-group role-axis" aria-hidden="true"><g transform="translate(0.5,300.5)"><path class="background" aria-hidden="true" d="M0,0h0v0h0Z" pointer-events="none"/><g><g class="mark-rule role-axis-grid" pointer-events="none"><line transform="translate(0,-300)" x2="0" y2="300" stroke="#FFFFFF" stroke-opacity="1" stroke-width="1" opacity="1"/><line transform="translate(30,-300)" x2="0" y2="300" stroke="#FFFFFF" stroke-opacity="1" stroke-width="1" opacity="1"/><line transform="translate(60,-300)" x2="0" y2="300" stroke="#FFFFFF" stroke-opacity="1" stroke-width="1" opacity="1"/><line transform="translate(90,-300)" x2="0" y2="300" stroke="#FFFFFF" stroke-opacity="1" stroke-width="1" opacity="1"/><line transform="translate(120,-300)" x2="0" y2="300" stroke="#FFFFFF" stroke-opacity="1" stroke-width="1" opacity="1"/><line transform="translate(150,-300)" x2="0" y2="300" stroke="#FFFFFF" stroke-opacity="1" stroke-width="1" opacity="1"/><line transform="translate(180,-300)" x2="0" y2="300" stroke="#FFFFFF" stroke-opacity="1" stroke-width="1" opacity="1"/><line transform="translate(210,-300)" x2="0" y2="300" stroke="#FFFFFF" stroke-opacity="1" stroke-width="1" opacity="1"/><line transform="translate(240,-300)" x2="0" y2="300" stroke="#FFFFFF" stroke-opacity="1" stroke-width="1" opacity="1"/><line transform="translate(270,-300)" x2="0" y2="300" stroke="#FFFFFF" stroke-opacity="1" stroke-width="1" opacity="1"/><line transform="translate(300,-300)" x2="0" y2="300" stroke="#FFFFFF" stroke-opacity="1" stroke-width="1" opacity="1"/></g></g><path class="foreground" aria-hidden="true" d="" pointer-events="none" display="none"/></g></g><g class="mark-group role-axis" aria-hidden="true"><g transform="translate(0.5,0.5)"><path class="background" aria-hidden="true" d="M0,0h0v0h0Z" pointer-events="none"/><g><g class="mark-rule role-axis-grid" pointer-events="none"><line transform="translate(0,300)" x2="300" y2="0" stroke="#FFFFFF" stroke-opacity="1" stroke-width="1" opacity="1"/><line transform="translate(0,270)" x2="300" y2="0" stroke="#FFFFFF" stroke-opacity="1" stroke-width="1" opacity="1"/><line transform="translate(0,240)" x2="300" y2="0" stroke="#FFFFFF" stroke-opacity="1" stroke-width="1" opacity="1"/><line transform="translate(0,210)" x2="300" y2="0" stroke="#FFFFFF" stroke-opacity="1" stroke-width="1" opacity="1"/><line transform="translate(0,180)" x2="300" y2="0" stroke="#FFFFFF" stroke-opacity="1" stroke-width="1" opacity="1"/><line transform="translate(0,150)" x2="300" y2="0" stroke="#FFFFFF" stroke-opacity="1" stroke-width="1" opacity="1"/><line transform="translate(0,120)" x2="300" y2="0" stroke="#FFFFFF" stroke-opacity="1" stroke-width="1" opacity="1"/><line transform="translate(0,90)" x2="300" y2="0" stroke="#FFFFFF" stroke-opacity="1" stroke-width="1" opacity="1"/><line transform="translate(0,60)" x2="300" y2="0" stroke="#FFFFFF" stroke-opacity="1" stroke-width="1" opacity="1"/><line transform="translate(0,30)" x2="300" y2="0" stroke="#FFFFFF" stroke-opacity="1" stroke-width="1" opacity="1"/><line transform="translate(0,0)" x2="300" y2="0" stroke="#FFFFFF" stroke-opacity="1" stroke-width="1" opacity="1"/></g></g><path class="foreground" aria-hidden="true" d="" pointer-events="none" display="none"/></g></g><g class="mark-group role-axis" role="graphics-symbol" aria-roledescription="axis" aria-label="X-axis titled 'q / p' for a linear scale with values from 0.0 to 1.0"><g transform="translate(0.5,300.5)"><path class="background" aria-hidden="true" d="M0,0h0v0h0Z" pointer-events="none"/><g><g class="mark-rule role-axis-tick" pointer-events="none"><line transform="translate(0,0)" x2="0" y2="5.67" stroke="#7F7F7F" stroke-width="1" opacity="1"/><line transform="translate(30,0)" x2="0" y2="5.67" stroke="#7F7F7F" stroke-width="1" opacity="1"/><line transform="translate(60,0)" x2="0" y2="5.67" stroke="#7F7F7F" stroke-width="1" opacity="1"/><line transform="translate(90,0)" x2="0" y2="5.67" stroke="#7F7F7F" stroke-width="1" opacity="1"/><line transform="translate(120,0)" x2="0" y2="5.67" stroke="#7F7F7F" stroke-width="1" opacity="1"/><line transform="translate(150,0)" x2="0" y2="5.67" stroke="#7F7F7F" stroke-width="1" opacity="1"/><line transform="translate(180,0)" x2="0" y2="5.67" stroke="#7F7F7F" stroke-width="1" opacity="1"/><line transform="translate(210,0)" x2="0" y2="5.67" stroke="#7F7F7F" stroke-width="1" opacity="1"/><line transform="translate(240,0)" x2="0" y2="5.67" stroke="#7F7F7F" stroke-width="1" opacity="1"/><line transform="translate(270,0)" x2="0" y2="5.67" stroke="#7F7F7F" stroke-width="1" opacity="1"/><line transform="translate(300,0)" x2="0" y2="5.67" stroke="#7F7F7F" stroke-width="1" opacity="1"/></g><g class="mark-text role-axis-label" pointer-events="none"><text text-anchor="start" transform="translate(0,17.67)" font-family="sans-serif" font-size="10px" fill="#7F7F7F" opacity="1">0.0</text><text text-anchor="middle" transform="translate(30,17.67)" font-family="sans-serif" font-size="10px" fill="#7F7F7F" opacity="1">0.1</text><text text-anchor="middle" transform="translate(60,17.67)" font-family="sans-serif" font-size="10px" fill="#7F7F7F" opacity="1">0.2</text><text text-anchor="middle" transform="translate(90,17.67)" font-family="sans-serif" font-size="10px" fill="#7F7F7F" opacity="1">0.3</text><text text-anchor="middle" transform="translate(120,17.67)" font-family="sans-serif" font-size="10px" fill="#7F7F7F" opacity="1">0.4</text><text text-anchor="middle" transform="translate(150,17.67)" font-family="sans-serif" font-size="10px" fill="#7F7F7F" opacity="1">0.5</text><text text-anchor="middle" transform="translate(180,17.67)" font-family="sans-serif" font-size="10px" fill="#7F7F7F" opacity="1">0.6</text><text text-anchor="middle" transform="translate(210,17.67)" font-family="sans-serif" font-size="10px" fill="#7F7F7F" opacity="1">0.7</text><text text-anchor="middle" transform="translate(240,17.67)" font-family="sans-serif" font-size="10px" fill="#7F7F7F" opacity="1">0.8</text><text text-anchor="middle" transform="translate(270,17.67)" font-family="sans-serif" font-size="10px" fill="#7F7F7F" opacity="1">0.9</text><text text-anchor="end" transform="translate(300,17.67)" font-family="sans-serif" font-size="10px" fill="#7F7F7F" opacity="1">1.0</text></g><g class="mark-text role-axis-title" pointer-events="none"><text text-anchor="middle" transform="translate(150,36.67)" font-family="sans-serif" font-size="16px" font-weight="normal" fill="#000" opacity="1">q / p</text></g></g><path class="foreground" aria-hidden="true" d="" pointer-events="none" display="none"/></g></g><g class="mark-group role-axis" role="graphics-symbol" aria-roledescription="axis" aria-label="Y-axis titled 'std(c)' for a linear scale with values from 0.00 to 0.20"><g transform="translate(0.5,0.5)"><path class="background" aria-hidden="true" d="M0,0h0v0h0Z" pointer-events="none"/><g><g class="mark-rule role-axis-tick" pointer-events="none"><line transform="translate(0,300)" x2="-5.67" y2="0" stroke="#7F7F7F" stroke-width="1" opacity="1"/><line transform="translate(0,270)" x2="-5.67" y2="0" stroke="#7F7F7F" stroke-width="1" opacity="1"/><line transform="translate(0,240)" x2="-5.67" y2="0" stroke="#7F7F7F" stroke-width="1" opacity="1"/><line transform="translate(0,210)" x2="-5.67" y2="0" stroke="#7F7F7F" stroke-width="1" opacity="1"/><line transform="translate(0,180)" x2="-5.67" y2="0" stroke="#7F7F7F" stroke-width="1" opacity="1"/><line transform="translate(0,150)" x2="-5.67" y2="0" stroke="#7F7F7F" stroke-width="1" opacity="1"/><line transform="translate(0,120)" x2="-5.67" y2="0" stroke="#7F7F7F" stroke-width="1" opacity="1"/><line transform="translate(0,90)" x2="-5.67" y2="0" stroke="#7F7F7F" stroke-width="1" opacity="1"/><line transform="translate(0,60)" x2="-5.67" y2="0" stroke="#7F7F7F" stroke-width="1" opacity="1"/><line transform="translate(0,30)" x2="-5.67" y2="0" stroke="#7F7F7F" stroke-width="1" opacity="1"/><line transform="translate(0,0)" x2="-5.67" y2="0" stroke="#7F7F7F" stroke-width="1" opacity="1"/></g><g class="mark-text role-axis-label" pointer-events="none"><text text-anchor="end" transform="translate(-9.67,303)" font-family="sans-serif" font-size="10px" fill="#7F7F7F" opacity="1">0.00</text><text text-anchor="end" transform="translate(-9.67,273)" font-family="sans-serif" font-size="10px" fill="#7F7F7F" opacity="1">0.02</text><text text-anchor="end" transform="translate(-9.67,243)" font-family="sans-serif" font-size="10px" fill="#7F7F7F" opacity="1">0.04</text><text text-anchor="end" transform="translate(-9.67,213)" font-family="sans-serif" font-size="10px" fill="#7F7F7F" opacity="1">0.06</text><text text-anchor="end" transform="translate(-9.67,183.00000000000003)" font-family="sans-serif" font-size="10px" fill="#7F7F7F" opacity="1">0.08</text><text text-anchor="end" transform="translate(-9.67,153)" font-family="sans-serif" font-size="10px" fill="#7F7F7F" opacity="1">0.10</text><text text-anchor="end" transform="translate(-9.67,123)" font-family="sans-serif" font-size="10px" fill="#7F7F7F" opacity="1">0.12</text><text text-anchor="end" transform="translate(-9.67,92.99999999999999)" font-family="sans-serif" font-size="10px" fill="#7F7F7F" opacity="1">0.14</text><text text-anchor="end" transform="translate(-9.67,63.00000000000002)" font-family="sans-serif" font-size="10px" fill="#7F7F7F" opacity="1">0.16</text><text text-anchor="end" transform="translate(-9.67,33.00000000000003)" font-family="sans-serif" font-size="10px" fill="#7F7F7F" opacity="1">0.18</text><text text-anchor="end" transform="translate(-9.67,3)" font-family="sans-serif" font-size="10px" fill="#7F7F7F" opacity="1">0.20</text></g><g class="mark-text role-axis-title" pointer-events="none"><text text-anchor="middle" transform="translate(-33.132890625,150) rotate(-90) translate(0,-3)" font-family="sans-serif" font-size="16px" font-weight="normal" fill="#000" opacity="1">std(c)</text></g></g><path class="foreground" aria-hidden="true" d="" pointer-events="none" display="none"/></g></g><g class="mark-group role-scope pathgroup" role="graphics-object" aria-roledescription="group mark container"><g transform="translate(0,0)"><path class="background" aria-hidden="true" d="M0,0h300v300h-300Z"/><g><g class="mark-line role-mark marks" role="graphics-object" aria-roledescription="line mark container"><path aria-label="q / p: 0; std(c): 0; E / N: 0.1" role="graphics-symbol" aria-roledescription="line mark" d="M0,300L30,48.814L60,17.997L90,32.142L120,56.935L150,77.993L180,100.823L210,115.546L240,133.713L270,141.912L300,155.036" stroke="rgb(226, 226, 226)" stroke-width="2"/></g></g><path class="foreground" aria-hidden="true" d="" display="none"/></g><g transform="translate(0,0)"><path class="background" aria-hidden="true" d="M0,0h300v300h-300Z"/><g><g class="mark-line role-mark marks" role="graphics-object" aria-roledescription="line mark container"><path aria-label="q / p: 0; std(c): 0; E / N: 0.2" role="graphics-symbol" aria-roledescription="line mark" d="M0,300L30,48.105L60,23.687L90,32.513L120,55.342L150,78.387L180,99.606L210,113.872L240,131.603L270,142.165L300,156.116" stroke="rgb(187, 187, 187)" stroke-width="2"/></g></g><path class="foreground" aria-hidden="true" d="" display="none"/></g><g transform="translate(0,0)"><path class="background" aria-hidden="true" d="M0,0h300v300h-300Z"/><g><g class="mark-line role-mark marks" role="graphics-object" aria-roledescription="line mark container"><path aria-label="q / p: 0; std(c): 0; E / N: 0.3" role="graphics-symbol" aria-roledescription="line mark" d="M0,300L30,49.194L60,22.288L90,33.42L120,53.224L150,78.375L180,98.841L210,117.603L240,132.146L270,145.029L300,154.226" stroke="rgb(136, 136, 136)" stroke-width="2"/></g></g><path class="foreground" aria-hidden="true" d="" display="none"/></g><g transform="translate(0,0)"><path class="background" aria-hidden="true" d="M0,0h300v300h-300Z"/><g><g class="mark-line role-mark marks" role="graphics-object" aria-roledescription="line mark container"><path aria-label="q / p: 0; std(c): 0; E / N: 0.5" role="graphics-symbol" aria-roledescription="line mark" d="M0,300L30,45.642L60,20.602L90,33.621L120,55.211L150,78.53L180,99.174L210,118.775L240,130.725L270,144.031L300,153.728" stroke="rgb(30, 30, 30)" stroke-width="2"/></g></g><path class="foreground" aria-hidden="true" d="" display="none"/></g></g><g class="mark-group role-legend" role="graphics-symbol" aria-roledescription="legend" aria-label="Gradient legend titled 'E / N' for stroke color with values from 0.1 to 0.5"><g transform="translate(320,0)"><path class="background" aria-hidden="true" d="M0,0h34v216h-34Z" pointer-events="none"/><g><g class="mark-group role-legend-entry"><g transform="translate(0,16)"><path class="background" aria-hidden="true" d="M0,0h0v0h0Z" pointer-events="none"/><g><g class="mark-rect role-legend-gradient" pointer-events="none"><path d="M0,0h16v200h-16Z" fill="url(#gradient_1)" stroke="#ddd" stroke-width="0" opacity="1"/></g><g class="mark-text role-legend-label" pointer-events="none"><text text-anchor="start" transform="translate(18,198)" font-family="sans-serif" font-size="11px" fill="#000" opacity="1">0.1</text><text text-anchor="start" transform="translate(18,153)" font-family="sans-serif" font-size="11px" fill="#000" opacity="1">0.2</text><text text-anchor="start" transform="translate(18,103)" font-family="sans-serif" font-size="11px" fill="#000" opacity="1">0.3</text><text text-anchor="start" transform="translate(18,52.99999999999998)" font-family="sans-serif" font-size="11px" fill="#000" opacity="1">0.4</text><text text-anchor="start" transform="translate(18,9)" font-family="sans-serif" font-size="11px" fill="#000" opacity="1">0.5</text></g></g><path class="foreground" aria-hidden="true" d="" pointer-events="none" display="none"/></g></g><g class="mark-text role-legend-title" pointer-events="none"><text text-anchor="start" transform="translate(0,9)" font-family="sans-serif" font-size="11px" font-weight="bold" fill="#000" opacity="1">E / N</text></g></g><path class="foreground" aria-hidden="true" d="" pointer-events="none" display="none"/></g></g></g><path class="foreground" aria-hidden="true" d="" display="none"/></g></g></g><defs><linearGradient id="gradient_1" x1="0" x2="0" y1="1" y2="0"><stop offset="0" stop-color="rgb(226, 226, 226)"/><stop offset="0.049999999999999975" stop-color="rgb(219, 219, 219)"/><stop offset="0.10000000000000002" stop-color="rgb(212, 212, 212)"/><stop offset="0.15" stop-color="rgb(204, 204, 204)"/><stop offset="0.19999999999999996" stop-color="rgb(196, 196, 196)"/><stop offset="0.25" stop-color="rgb(187, 187, 187)"/><stop offset="0.3" stop-color="rgb(177, 177, 177)"/><stop offset="0.3499999999999999" stop-color="rgb(167, 167, 167)"/><stop offset="0.39999999999999997" stop-color="rgb(157, 157, 157)"/><stop offset="0.45" stop-color="rgb(146, 146, 146)"/><stop offset="0.49999999999999994" stop-color="rgb(136, 136, 136)"/><stop offset="0.5499999999999999" stop-color="rgb(127, 127, 127)"/><stop offset="0.6" stop-color="rgb(117, 117, 117)"/><stop offset="0.65" stop-color="rgb(108, 108, 108)"/><stop offset="0.7000000000000001" stop-color="rgb(98, 98, 98)"/><stop offset="0.7500000000000001" stop-color="rgb(87, 87, 87)"/><stop offset="0.7999999999999998" stop-color="rgb(77, 77, 77)"/><stop offset="0.8499999999999999" stop-color="rgb(65, 65, 65)"/><stop offset="0.8999999999999999" stop-color="rgb(53, 53, 53)"/><stop offset="0.95" stop-color="rgb(42, 42, 42)"/><stop offset="1" stop-color="rgb(30, 30, 30)"/></linearGradient></defs></svg>