<svg xmlns="http://www.w3.org/2000/svg" xmlns:xlink="http://www.w3.org/1999/xlink" version="1.1" class="marks" width="737" height="419" viewBox="0 0 737 419"><rect width="737" height="419" fill="white"/><g fill="none" stroke-miterlimit="10" transform="translate(109,64)"><g class="mark-group role-frame root" role="graphics-object" aria-roledescription="group mark container"><g transform="translate(0,0)"><path class="background" aria-hidden="true" d="M0,0h0v0h0Z"/><g><g class="mark-group role-column-title facet-title" role="graphics-object" aria-roledescription="group mark container"><g transform="translate(311,-29)"><path class="background" aria-hidden="true" d="M0,0h0v0h0Z"/><g><g class="mark-group role-title"><g transform="translate(0,-30)"><path class="background" aria-hidden="true" d="M0,0h0v0h0Z" pointer-events="none"/><g><g class="mark-text role-title-text" role="graphics-symbol" aria-roledescription="title" aria-label="Title text 'q / p'" pointer-events="none"><text text-anchor="middle" transform="translate(0,16)" font-family="sans-serif" font-size="20px" font-weight="bold" fill="#000" opacity="1">q / p</text></g></g><path class="foreground" aria-hidden="true" d="" pointer-events="none" display="none"/></g></g></g><path class="foreground" aria-hidden="true" d="" display="none"/></g></g><g class="mark-group role-row-header row_header" role="graphics-object" aria-roledescription="group mark container"><g transform="translate(-1,0)"><path class="background" aria-hidden="true" d="M0,0h0v300h0Z"/><g><g class="mark-group role-axis" role="graphics-symbol" aria-roledescription="axis" aria-label="Y-axis titled 'P(m)' for a linear scale with values from 0.00 to 0.12"><g transform="translate(0.5,0.5)"><path class="background" aria-hidden="true" d="M0,0h0v0h0Z" pointer-events="none"/><g><g class="mark-rule role-axis-tick" pointer-events="none"><line transform="translate(0,300)" x2="-5" y2="0" stroke="#888" stroke-width="1" opacity="1"/><line transform="translate(0,250)" x2="-5" y2="0" stroke="#888" stroke-width="1" opacity="1"/><line transform="translate(0,200)" x2="-5" y2="0" stroke="#888" stroke-width="1" opacity="1"/><line transform="translate(0,150)" x2="-5" y2="0" stroke="#888" stroke-width="1" opacity="1"/><line transform="translate(0,100)" x2="-5" y2="0" stroke="#888" stroke-width="1" opacity="1"/><line transform="translate(0,50)" x2="-5" y2="0" stroke="#888" stroke-width="1" opacity="1"/><line transform="translate(0,0)" x2="-5" y2="0" stroke="#888" stroke-width="1" opacity="1"/></g><g class="mark-text role-axis-label" pointer-events="none"><text text-anchor="end" transform="translate(-7,305)" font-family="monospace" font-size="16px" fill="#000" opacity="1">0.00</text><text text-anchor="end" transform="translate(-7,254.99999999999997)" font-family="monospace" font-size="16px" fill="#000" opacity="1">0.02</text><text text-anchor="end" transform="translate(-7,205)" font-family="monospace" font-size="16px" fill="#000" opacity="1">0.04</text><text text-anchor="end" transform="translate(-7,155)" font-family="monospace" font-size="16px" fill="#000" opacity="1">0.06</text><text text-anchor="end" transform="translate(-7,104.99999999999997)" font-family="monospace" font-size="16px" fill="#000" opacity="1">0.08</text><text text-anchor="end" transform="translate(-7,54.999999999999986)" font-family="monospace" font-size="16px" fill="#000" opacity="1">0.10</text><text text-anchor="end" transform="translate(-7,5)" font-family="monospace" font-size="16px" fill="#000" opacity="1">0.12</text></g><g class="mark-text role-axis-title" pointer-events="none"><text text-anchor="middle" transform="translate(-80,146)" font-family="sans-serif" font-size="20px" font-weight="bold" fill="#000" opacity="1">P(m)</text></g></g><path class="foreground" aria-hidden="true" d="" pointer-events="none" display="none"/></g></g></g><path class="foreground" aria-hidden="true" d="" display="none"/></g></g><g class="mark-group role-column-footer column_footer" role="graphics-object" aria-roledescription="group mark container"><g transform="translate(0,303)"><path class="background" aria-hidden="true" d="M0,0h300v0h-300Z"/><g><g class="mark-group role-axis" role="graphics-symbol" aria-roledescription="axis" aria-label="X-axis titled 'm' for a linear scale with values from 0 to 50"><g transform="translate(0.5,0.5)"><path class="background" aria-hidden="true" d="M0,0h0v0h0Z" pointer-events="none"/><g><g class="mark-rule role-axis-tick" pointer-events="none"><line transform="translate(0,0)" x2="0" y2="5" stroke="#888" stroke-width="1" opacity="1"/><line transform="translate(30,0)" x2="0" y2="5" stroke="#888" stroke-width="1" opacity="1"/><line transform="translate(60,0)" x2="0" y2="5" stroke="#888" stroke-width="1" opacity="1"/><line transform="translate(90,0)" x2="0" y2="5" stroke="#888" stroke-width="1" opacity="1"/><line transform="translate(120,0)" x2="0" y2="5" stroke="#888" stroke-width="1" opacity="1"/><line transform="translate(150,0)" x2="0" y2="5" stroke="#888" stroke-width="1" opacity="1"/><line transform="translate(180,0)" x2="0" y2="5" stroke="#888" stroke-width="1" opacity="1"/><line transform="translate(210,0)" x2="0" y2="5" stroke="#888" stroke-width="1" opacity="1"/><line transform="translate(240,0)" x2="0" y2="5" stroke="#888" stroke-width="1" opacity="1"/><line transform="translate(270,0)" x2="0" y2="5" stroke="#888" stroke-width="1" opacity="1"/><line transform="translate(300,0)" x2="0" y2="5" stroke="#888" stroke-width="1" opacity="1"/></g><g class="mark-text role-axis-label" pointer-events="none"><text text-anchor="start" transform="translate(0,20)" font-family="monospace" font-size="16px" fill="#000" opacity="1">0</text><text text-anchor="middle" transform="translate(30,20)" font-family="monospace" font-size="16px" fill="#000" opacity="1">5</text><text text-anchor="middle" transform="translate(60,20)" font-family="monospace" font-size="16px" fill="#000" opacity="1">10</text><text text-anchor="middle" transform="translate(90,20)" font-family="monospace" font-size="16px" fill="#000" opacity="1">15</text><text text-anchor="middle" transform="translate(120,20)" font-family="monospace" font-size="16px" fill="#000" opacity="1">20</text><text text-anchor="middle" transform="translate(150,20)" font-family="monospace" font-size="16px" fill="#000" opacity="1">25</text><text text-anchor="middle" transform="translate(180,20)" font-family="monospace" font-size="16px" fill="#000" opacity="1">30</text><text text-anchor="middle" transform="translate(210,20)" font-family="monospace" font-size="16px" fill="#000" opacity="1">35</text><text text-anchor="middle" transform="translate(240,20)" font-family="monospace" font-size="16px" fill="#000" opacity="1">40</text><text text-anchor="middle" transform="translate(270,20)" font-family="monospace" font-size="16px" fill="#000" opacity="1">45</text><text text-anchor="end" transform="translate(300,20)" font-family="monospace" font-size="16px" fill="#000" opacity="1">50</text></g><g class="mark-rule role-axis-domain" pointer-events="none"><line transform="translate(0,0)" x2="300" y2="0" stroke="#888" stroke-width="1" opacity="1"/></g><g class="mark-text role-axis-title" pointer-events="none"><text text-anchor="middle" transform="translate(150,43)" font-family="sans-serif" font-size="20px" font-weight="bold" fill="#000" opacity="1">m</text></g></g><path class="foreground" aria-hidden="true" d="" pointer-events="none" display="none"/></g></g></g><path class="foreground" aria-hidden="true" d="" display="none"/></g><g transform="translate(322,303)"><path class="background" aria-hidden="true" d="M0,0h300v0h-300Z"/><g><g class="mark-group role-axis" role="graphics-symbol" aria-roledescription="axis" aria-label="X-axis titled 'm' for a linear scale with values from 0 to 50"><g transform="translate(0.5,0.5)"><path class="background" aria-hidden="true" d="M0,0h0v0h0Z" pointer-events="none"/><g><g class="mark-rule role-axis-tick" pointer-events="none"><line transform="translate(0,0)" x2="0" y2="5" stroke="#888" stroke-width="1" opacity="1"/><line transform="translate(30,0)" x2="0" y2="5" stroke="#888" stroke-width="1" opacity="1"/><line transform="translate(60,0)" x2="0" y2="5" stroke="#888" stroke-width="1" opacity="1"/><line transform="translate(90,0)" x2="0" y2="5" stroke="#888" stroke-width="1" opacity="1"/><line transform="translate(120,0)" x2="0" y2="5" stroke="#888" stroke-width="1" opacity="1"/><line transform="translate(150,0)" x2="0" y2="5" stroke="#888" stroke-width="1" opacity="1"/><line transform="translate(180,0)" x2="0" y2="5" stroke="#888" stroke-width="1" opacity="1"/><line transform="translate(210,0)" x2="0" y2="5" stroke="#888" stroke-width="1" opacity="1"/><line transform="translate(240,0)" x2="0" y2="5" stroke="#888" stroke-width="1" opacity="1"/><line transform="translate(270,0)" x2="0" y2="5" stroke="#888" stroke-width="1" opacity="1"/><line transform="translate(300,0)" x2="0" y2="5" stroke="#888" stroke-width="1" opacity="1"/></g><g class="mark-text role-axis-label" pointer-events="none"><text text-anchor="start" transform="translate(0,20)" font-family="monospace" font-size="16px" fill="#000" opacity="1">0</text><text text-anchor="middle" transform="translate(30,20)" font-family="monospace" font-size="16px" fill="#000" opacity="1">5</text><text text-anchor="middle" transform="translate(60,20)" font-family="monospace" font-size="16px" fill="#000" opacity="1">10</text><text text-anchor="middle" transform="translate(90,20)" font-family="monospace" font-size="16px" fill="#000" opacity="1">15</text><text text-anchor="middle" transform="translate(120,20)" font-family="monospace" font-size="16px" fill="#000" opacity="1">20</text><text text-anchor="middle" transform="translate(150,20)" font-family="monospace" font-size="16px" fill="#000" opacity="1">25</text><text text-anchor="middle" transform="translate(180,20)" font-family="monospace" font-size="16px" fill="#000" opacity="1">30</text><text text-anchor="middle" transform="translate(210,20)" font-family="monospace" font-size="16px" fill="#000" opacity="1">35</text><text text-anchor="middle" transform="translate(240,20)" font-family="monospace" font-size="16px" fill="#000" opacity="1">40</text><text text-anchor="middle" transform="translate(270,20)" font-family="monospace" font-size="16px" fill="#000" opacity="1">45</text><text text-anchor="end" transform="translate(300,20)" font-family="monospace" font-size="16px" fill="#000" opacity="1">50</text></g><g class="mark-rule role-axis-domain" pointer-events="none"><line transform="translate(0,0)" x2="300" y2="0" stroke="#888" stroke-width="1" opacity="1"/></g><g class="mark-text role-axis-title" pointer-events="none"><text text-anchor="middle" transform="translate(150,43)" font-family="sans-serif" font-size="20px" font-weight="bold" fill="#000" opacity="1">m</text></g></g><path class="foreground" aria-hidden="true" d="" pointer-events="none" display="none"/></g></g></g><path class="foreground" aria-hidden="true" d="" display="none"/></g></g><g class="mark-group role-scope cell" role="graphics-object" aria-roledescription="group mark container"><g transform="translate(0,0)"><path class="background" aria-hidden="true" d="M0.5,0.5h300v300h-300Z" stroke="#ddd"/><g><g class="mark-rect role-mark child_layer_0_marks" role="graphics-object" aria-roledescription="rect mark container"><path aria-label="m: 24; P(m): 0.05065" role="graphics-symbol" aria-roledescription="bar" d="M141.5,173.375h5v126.625h-5Z" fill="#9ebcda"/><path aria-label="m: 25; P(m): 0.048" role="graphics-symbol" aria-roledescription="bar" d="M147.5,180h5v120h-5Z" fill="#9ebcda"/><path aria-label="m: 26; P(m): 0.04665" role="graphics-symbol" aria-roledescription="bar" d="M153.5,183.37500000000003h5v116.62499999999997h-5Z" fill="#9ebcda"/><path aria-label="m: 23; P(m): 0.04595" role="graphics-symbol" aria-roledescription="bar" d="M135.5,185.125h5v114.875h-5Z" fill="#9ebcda"/><path aria-label="m: 22; P(m): 0.04525" role="graphics-symbol" aria-roledescription="bar" d="M129.5,186.875h5v113.125h-5Z" fill="#9ebcda"/><path aria-label="m: 27; P(m): 0.04505" role="graphics-symbol" aria-roledescription="bar" d="M159.5,187.37499999999997h5v112.62500000000003h-5Z" fill="#9ebcda"/><path aria-label="m: 21; P(m): 0.0403" role="graphics-symbol" aria-roledescription="bar" d="M123.5,199.24999999999997h5v100.75000000000003h-5Z" fill="#9ebcda"/><path aria-label="m: 28; P(m): 0.03945" role="graphics-symbol" aria-roledescription="bar" d="M165.50000000000003,201.375h5v98.625h-5Z" fill="#9ebcda"/><path aria-label="m: 20; P(m): 0.0378" role="graphics-symbol" aria-roledescription="bar" d="M117.5,205.50000000000003h5v94.49999999999997h-5Z" fill="#9ebcda"/><path aria-label="m: 29; P(m): 0.0347" role="graphics-symbol" aria-roledescription="bar" d="M171.5,213.25h5v86.75h-5Z" fill="#9ebcda"/><path aria-label="m: 30; P(m): 0.03185" role="graphics-symbol" aria-roledescription="bar" d="M177.5,220.375h5v79.625h-5Z" fill="#9ebcda"/><path aria-label="m: 19; P(m): 0.0316" role="graphics-symbol" aria-roledescription="bar" d="M111.5,220.99999999999997h5v79.00000000000003h-5Z" fill="#9ebcda"/><path aria-label="m: 6; P(m): 0.02865" role="graphics-symbol" aria-roledescription="bar" d="M33.5,228.375h5v71.625h-5Z" fill="#9ebcda"/><path aria-label="m: 18; P(m): 0.02785" role="graphics-symbol" aria-roledescription="bar" d="M105.5,230.375h5v69.625h-5Z" fill="#9ebcda"/><path aria-label="m: 5; P(m): 0.02785" role="graphics-symbol" aria-roledescription="bar" d="M27.5,230.375h5v69.625h-5Z" fill="#9ebcda"/><path aria-label="m: 4; P(m): 0.02665" role="graphics-symbol" aria-roledescription="bar" d="M21.5,233.37499999999997h5v66.62500000000003h-5Z" fill="#9ebcda"/><path aria-label="m: 7; P(m): 0.0264" role="graphics-symbol" aria-roledescription="bar" d="M39.50000000000001,234h5v66h-5Z" fill="#9ebcda"/><path aria-label="m: 15; P(m): 0.02635" role="graphics-symbol" aria-roledescription="bar" d="M87.5,234.125h5v65.875h-5Z" fill="#9ebcda"/><path aria-label="m: 17; P(m): 0.0257" role="graphics-symbol" aria-roledescription="bar" d="M99.50000000000001,235.75000000000003h5v64.24999999999997h-5Z" fill="#9ebcda"/><path aria-label="m: 11; P(m): 0.0252" role="graphics-symbol" aria-roledescription="bar" d="M63.5,237h5v63h-5Z" fill="#9ebcda"/><path aria-label="m: 16; P(m): 0.02475" role="graphics-symbol" aria-roledescription="bar" d="M93.5,238.125h5v61.875h-5Z" fill="#9ebcda"/><path aria-label="m: 10; P(m): 0.02445" role="graphics-symbol" aria-roledescription="bar" d="M57.5,238.875h5v61.125h-5Z" fill="#9ebcda"/><path aria-label="m: 9; P(m): 0.0242" role="graphics-symbol" aria-roledescription="bar" d="M51.5,239.5h5v60.5h-5Z" fill="#9ebcda"/><path aria-label="m: 8; P(m): 0.02385" role="graphics-symbol" aria-roledescription="bar" d="M45.5,240.375h5v59.625h-5Z" fill="#9ebcda"/><path aria-label="m: 31; P(m): 0.02355" role="graphics-symbol" aria-roledescription="bar" d="M183.5,241.125h5v58.875h-5Z" fill="#9ebcda"/><path aria-label="m: 12; P(m): 0.0231" role="graphics-symbol" aria-roledescription="bar" d="M69.5,242.25h5v57.75h-5Z" fill="#9ebcda"/><path aria-label="m: 14; P(m): 0.02305" role="graphics-symbol" aria-roledescription="bar" d="M81.50000000000001,242.37499999999997h5v57.62500000000003h-5Z" fill="#9ebcda"/><path aria-label="m: 13; P(m): 0.023" role="graphics-symbol" aria-roledescription="bar" d="M75.5,242.5h5v57.5h-5Z" fill="#9ebcda"/><path aria-label="m: 3; P(m): 0.02295" role="graphics-symbol" aria-roledescription="bar" d="M15.5,242.625h5v57.375h-5Z" fill="#9ebcda"/><path aria-label="m: 32; P(m): 0.0184" role="graphics-symbol" aria-roledescription="bar" d="M189.5,254h5v46h-5Z" fill="#9ebcda"/><path aria-label="m: 33; P(m): 0.01475" role="graphics-symbol" aria-roledescription="bar" d="M195.5,263.125h5v36.875h-5Z" fill="#9ebcda"/><path aria-label="m: 2; P(m): 0.01085" role="graphics-symbol" aria-roledescription="bar" d="M9.5,272.875h5v27.125h-5Z" fill="#9ebcda"/><path aria-label="m: 34; P(m): 0.0095" role="graphics-symbol" aria-roledescription="bar" d="M201.50000000000003,276.25h5v23.75h-5Z" fill="#9ebcda"/><path aria-label="m: 35; P(m): 0.00735" role="graphics-symbol" aria-roledescription="bar" d="M207.5,281.625h5v18.375h-5Z" fill="#9ebcda"/><path aria-label="m: 36; P(m): 0.0052" role="graphics-symbol" aria-roledescription="bar" d="M213.5,287h5v13h-5Z" fill="#9ebcda"/><path aria-label="m: 37; P(m): 0.0031" role="graphics-symbol" aria-roledescription="bar" d="M219.5,292.25h5v7.75h-5Z" fill="#9ebcda"/><path aria-label="m: 38; P(m): 0.0022" role="graphics-symbol" aria-roledescription="bar" d="M225.5,294.5h5v5.5h-5Z" fill="#9ebcda"/><path aria-label="m: 39; P(m): 0.0017" role="graphics-symbol" aria-roledescription="bar" d="M231.5,295.75h5v4.25h-5Z" fill="#9ebcda"/><path aria-label="m: 40; P(m): 0.00095" role="graphics-symbol" aria-roledescription="bar" d="M237.5,297.625h5v2.375h-5Z" fill="#9ebcda"/><path aria-label="m: 41; P(m): 0.0008" role="graphics-symbol" aria-roledescription="bar" d="M243.49999999999997,298h5v2h-5Z" fill="#9ebcda"/><path aria-label="m: 43; P(m): 0.0002" role="graphics-symbol" aria-roledescription="bar" d="M255.5,299.5h5v0.5h-5Z" fill="#9ebcda"/><path aria-label="m: 42; P(m): 0.00015" role="graphics-symbol" aria-roledescription="bar" d="M249.5,299.625h5v0.375h-5Z" fill="#9ebcda"/><path aria-label="m: 45; P(m): 0.00005" role="graphics-symbol" aria-roledescription="bar" d="M267.5,299.875h5v0.125h-5Z" fill="#9ebcda"/></g><g class="mark-line role-mark child_layer_1_marks" role="graphics-object" aria-roledescription="line mark container"><path aria-label="hsize: 2; pdf: null" role="graphics-symbol" aria-roledescription="line mark" stroke="black" stroke-width="2"/></g><g class="mark-group role-title"><g transform="translate(150,-28)"><path class="background" aria-hidden="true" d="M0,0h0v0h0Z" pointer-events="none"/><g><g class="mark-text role-title-text" role="graphics-symbol" aria-roledescription="title" aria-label="Title text '0.01'" pointer-events="none"><text text-anchor="middle" transform="translate(0,14)" font-family="sans-serif" font-size="18px" fill="#000" opacity="1">0.01</text></g></g><path class="foreground" aria-hidden="true" d="" pointer-events="none" display="none"/></g></g></g><path class="foreground" aria-hidden="true" d="" display="none"/></g><g transform="translate(322,0)"><path class="background" aria-hidden="true" d="M0.5,0.5h300v300h-300Z" stroke="#ddd"/><g><g class="mark-rect role-mark child_layer_0_marks" role="graphics-object" aria-roledescription="rect mark container"><path aria-label="m: 12; P(m): 0.10265" role="graphics-symbol" aria-roledescription="bar" d="M69.5,43.374999999999986h5v256.625h-5Z" fill="#9ebcda"/><path aria-label="m: 14; P(m): 0.1014" role="graphics-symbol" aria-roledescription="bar" d="M81.50000000000001,46.49999999999997h5v253.50000000000003h-5Z" fill="#9ebcda"/><path aria-label="m: 13; P(m): 0.1006" role="graphics-symbol" aria-roledescription="bar" d="M75.5,48.499999999999986h5v251.5h-5Z" fill="#9ebcda"/><path aria-label="m: 15; P(m): 0.09345" role="graphics-symbol" aria-roledescription="bar" d="M87.5,66.37499999999999h5v233.625h-5Z" fill="#9ebcda"/><path aria-label="m: 11; P(m): 0.0895" role="graphics-symbol" aria-roledescription="bar" d="M63.5,76.25h5v223.75h-5Z" fill="#9ebcda"/><path aria-label="m: 16; P(m): 0.08105" role="graphics-symbol" aria-roledescription="bar" d="M93.5,97.375h5v202.625h-5Z" fill="#9ebcda"/><path aria-label="m: 10; P(m): 0.07655" role="graphics-symbol" aria-roledescription="bar" d="M57.5,108.62499999999996h5v191.37500000000006h-5Z" fill="#9ebcda"/><path aria-label="m: 17; P(m): 0.0649" role="graphics-symbol" aria-roledescription="bar" d="M99.50000000000001,137.74999999999997h5v162.25000000000003h-5Z" fill="#9ebcda"/><path aria-label="m: 9; P(m): 0.05165" role="graphics-symbol" aria-roledescription="bar" d="M51.5,170.875h5v129.125h-5Z" fill="#9ebcda"/><path aria-label="m: 18; P(m): 0.0496" role="graphics-symbol" aria-roledescription="bar" d="M105.5,176h5v124h-5Z" fill="#9ebcda"/><path aria-label="m: 19; P(m): 0.0379" role="graphics-symbol" aria-roledescription="bar" d="M111.5,205.24999999999997h5v94.75000000000003h-5Z" fill="#9ebcda"/><path aria-label="m: 8; P(m): 0.03455" role="graphics-symbol" aria-roledescription="bar" d="M45.5,213.62500000000003h5v86.37499999999997h-5Z" fill="#9ebcda"/><path aria-label="m: 20; P(m): 0.0263" role="graphics-symbol" aria-roledescription="bar" d="M117.5,234.24999999999997h5v65.75000000000003h-5Z" fill="#9ebcda"/><path aria-label="m: 21; P(m): 0.01865" role="graphics-symbol" aria-roledescription="bar" d="M123.5,253.375h5v46.625h-5Z" fill="#9ebcda"/><path aria-label="m: 7; P(m): 0.0172" role="graphics-symbol" aria-roledescription="bar" d="M39.50000000000001,257h5v43h-5Z" fill="#9ebcda"/><path aria-label="m: 22; P(m): 0.0133" role="graphics-symbol" aria-roledescription="bar" d="M129.5,266.75h5v33.25h-5Z" fill="#9ebcda"/><path aria-label="m: 23; P(m): 0.01065" role="graphics-symbol" aria-roledescription="bar" d="M135.5,273.375h5v26.625h-5Z" fill="#9ebcda"/><path aria-label="m: 6; P(m): 0.0072" role="graphics-symbol" aria-roledescription="bar" d="M33.5,282h5v18h-5Z" fill="#9ebcda"/><path aria-label="m: 24; P(m): 0.00575" role="graphics-symbol" aria-roledescription="bar" d="M141.5,285.625h5v14.375h-5Z" fill="#9ebcda"/><path aria-label="m: 25; P(m): 0.00445" role="graphics-symbol" aria-roledescription="bar" d="M147.5,288.875h5v11.125h-5Z" fill="#9ebcda"/><path aria-label="m: 5; P(m): 0.00335" role="graphics-symbol" aria-roledescription="bar" d="M27.5,291.625h5v8.375h-5Z" fill="#9ebcda"/><path aria-label="m: 26; P(m): 0.0026" role="graphics-symbol" aria-roledescription="bar" d="M153.5,293.5h5v6.5h-5Z" fill="#9ebcda"/><path aria-label="m: 27; P(m): 0.00185" role="graphics-symbol" aria-roledescription="bar" d="M159.5,295.375h5v4.625h-5Z" fill="#9ebcda"/><path aria-label="m: 28; P(m): 0.0013" role="graphics-symbol" aria-roledescription="bar" d="M165.50000000000003,296.75h5v3.25h-5Z" fill="#9ebcda"/><path aria-label="m: 29; P(m): 0.001" role="graphics-symbol" aria-roledescription="bar" d="M171.5,297.5h5v2.5h-5Z" fill="#9ebcda"/><path aria-label="m: 4; P(m): 0.0009" role="graphics-symbol" aria-roledescription="bar" d="M21.5,297.75h5v2.25h-5Z" fill="#9ebcda"/><path aria-label="m: 30; P(m): 0.00055" role="graphics-symbol" aria-roledescription="bar" d="M177.5,298.625h5v1.375h-5Z" fill="#9ebcda"/><path aria-label="m: 31; P(m): 0.00055" role="graphics-symbol" aria-roledescription="bar" d="M183.5,298.625h5v1.375h-5Z" fill="#9ebcda"/><path aria-label="m: 33; P(m): 0.0002" role="graphics-symbol" aria-roledescription="bar" d="M195.5,299.5h5v0.5h-5Z" fill="#9ebcda"/><path aria-label="m: 3; P(m): 0.00015" role="graphics-symbol" aria-roledescription="bar" d="M15.5,299.625h5v0.375h-5Z" fill="#9ebcda"/><path aria-label="m: 32; P(m): 0.00005" role="graphics-symbol" aria-roledescription="bar" d="M189.5,299.875h5v0.125h-5Z" fill="#9ebcda"/><path aria-label="m: 34; P(m): 0.00005" role="graphics-symbol" aria-roledescription="bar" d="M201.50000000000003,299.875h5v0.125h-5Z" fill="#9ebcda"/><path aria-label="m: 35; P(m): 0.00005" role="graphics-symbol" aria-roledescription="bar" d="M207.5,299.875h5v0.125h-5Z" fill="#9ebcda"/><path aria-label="m: 36; P(m): 0.00005" role="graphics-symbol" aria-roledescription="bar" d="M213.5,299.875h5v0.125h-5Z" fill="#9ebcda"/><path aria-label="m: 37; P(m): 0.00005" role="graphics-symbol" aria-roledescription="bar" d="M219.5,299.875h5v0.125h-5Z" fill="#9ebcda"/></g><g class="mark-line role-mark child_layer_1_marks" role="graphics-object" aria-roledescription="line mark container"><path aria-label="hsize: 3; pdf: 0.000241042967391" role="graphics-symbol" aria-roledescription="line mark" d="M18,299.397L24,297.707L30,293.069L36,282.673L42,263.146L48,231.923L54,189.059L60,138.52L66,87.955L72,46.724L78,22.912L84,20.713L90,39.332L96,73.725L102,116.614L108,160.763L114,200.661L120,233.222L126,257.601L132,274.518L138,285.474L144,292.132L150,295.943L156,298.006L162,299.065L168,299.581L174,299.82L180,299.926L186,299.971L192,299.989L198,299.996L204,299.999L210,300L216,300L222,300" stroke="black" stroke-width="2"/></g><g class="mark-group role-title"><g transform="translate(150,-28)"><path class="background" aria-hidden="true" d="M0,0h0v0h0Z" pointer-events="none"/><g><g class="mark-text role-title-text" role="graphics-symbol" aria-roledescription="title" aria-label="Title text '0.1'" pointer-events="none"><text text-anchor="middle" transform="translate(0,14)" font-family="sans-serif" font-size="18px" fill="#000" opacity="1">0.1</text></g></g><path class="foreground" aria-hidden="true" d="" pointer-events="none" display="none"/></g></g></g><path class="foreground" aria-hidden="true" d="" display="none"/></g></g></g><path class="foreground" aria-hidden="true" d="" display="none"/></g></g></g></svg>