<svg xmlns="http://www.w3.org/2000/svg" xmlns:xlink="http://www.w3.org/1999/xlink" version="1.1" class="marks" width="739" height="771" viewBox="0 0 739 771"><rect width="739" height="771" fill="white"/><g fill="none" stroke-miterlimit="10" transform="translate(108,64)"><g class="mark-group role-frame root" role="graphics-object" aria-roledescription="group mark container"><g transform="translate(0,0)"><path class="background" aria-hidden="true" d="M0,0h0v0h0Z"/><g><g class="mark-group role-column-title facet-title" role="graphics-object" aria-roledescription="group mark container"><g transform="translate(311,-29)"><path class="background" aria-hidden="true" d="M0,0h0v0h0Z"/><g><g class="mark-group role-title"><g transform="translate(0,-30)"><path class="background" aria-hidden="true" d="M0,0h0v0h0Z" pointer-events="none"/><g><g class="mark-text role-title-text" role="graphics-symbol" aria-roledescription="title" aria-label="Title text 'q / p'" pointer-events="none"><text text-anchor="middle" transform="translate(0,16)" font-family="sans-serif" font-size="20px" font-weight="bold" fill="#000" opacity="1">q / p</text></g></g><path class="foreground" aria-hidden="true" d="" pointer-events="none" display="none"/></g></g></g><path class="foreground" aria-hidden="true" d="" display="none"/></g></g><g class="mark-group role-row-header row_header" role="graphics-object" aria-roledescription="group mark container"><g transform="translate(-4,0)"><path class="background" aria-hidden="true" d="M0,0h0v300h0Z"/><g><g class="mark-group role-axis" role="graphics-symbol" aria-roledescription="axis" aria-label="Y-axis titled 'P(k)' for a linear scale with values from 0.00 to 0.35"><g transform="translate(0.5,0.5)"><path class="background" aria-hidden="true" d="M0,0h0v0h0Z" pointer-events="none"/><g><g class="mark-rule role-axis-tick" pointer-events="none"><line transform="translate(0,300)" x2="-5" y2="0" stroke="#888" stroke-width="1" opacity="1"/><line transform="translate(0,257)" x2="-5" y2="0" stroke="#888" stroke-width="1" opacity="1"/><line transform="translate(0,214)" x2="-5" y2="0" stroke="#888" stroke-width="1" opacity="1"/><line transform="translate(0,171)" x2="-5" y2="0" stroke="#888" stroke-width="1" opacity="1"/><line transform="translate(0,129)" x2="-5" y2="0" stroke="#888" stroke-width="1" opacity="1"/><line transform="translate(0,86)" x2="-5" y2="0" stroke="#888" stroke-width="1" opacity="1"/><line transform="translate(0,43)" x2="-5" y2="0" stroke="#888" stroke-width="1" opacity="1"/><line transform="translate(0,0)" x2="-5" y2="0" stroke="#888" stroke-width="1" opacity="1"/></g><g class="mark-text role-axis-label" pointer-events="none"><text text-anchor="end" transform="translate(-7,305)" font-family="monospace" font-size="16px" fill="#000" opacity="1">0.00</text><text text-anchor="end" transform="translate(-7,262.1428571428571)" font-family="monospace" font-size="16px" fill="#000" opacity="1">0.05</text><text text-anchor="end" transform="translate(-7,219.28571428571425)" font-family="monospace" font-size="16px" fill="#000" opacity="1">0.10</text><text text-anchor="end" transform="translate(-7,176.42857142857142)" font-family="monospace" font-size="16px" fill="#000" opacity="1">0.15</text><text text-anchor="end" transform="translate(-7,133.57142857142856)" font-family="monospace" font-size="16px" fill="#000" opacity="1">0.20</text><text text-anchor="end" transform="translate(-7,90.71428571428571)" font-family="monospace" font-size="16px" fill="#000" opacity="1">0.25</text><text text-anchor="end" transform="translate(-7,47.85714285714284)" font-family="monospace" font-size="16px" fill="#000" opacity="1">0.30</text><text text-anchor="end" transform="translate(-7,5)" font-family="monospace" font-size="16px" fill="#000" opacity="1">0.35</text></g><g class="mark-text role-axis-title" pointer-events="none"><text text-anchor="middle" transform="translate(-80,146)" font-family="sans-serif" font-size="20px" font-weight="bold" fill="#000" opacity="1">P(k)</text></g></g><path class="foreground" aria-hidden="true" d="" pointer-events="none" display="none"/></g></g></g><path class="foreground" aria-hidden="true" d="" display="none"/></g><g transform="translate(-4,352)"><path class="background" aria-hidden="true" d="M0,0h0v300h0Z"/><g><g class="mark-group role-axis" role="graphics-symbol" aria-roledescription="axis" aria-label="Y-axis titled 'P(k)' for a linear scale with values from 0.00 to 0.35"><g transform="translate(0.5,0.5)"><path class="background" aria-hidden="true" d="M0,0h0v0h0Z" pointer-events="none"/><g><g class="mark-rule role-axis-tick" pointer-events="none"><line transform="translate(0,300)" x2="-5" y2="0" stroke="#888" stroke-width="1" opacity="1"/><line transform="translate(0,257)" x2="-5" y2="0" stroke="#888" stroke-width="1" opacity="1"/><line transform="translate(0,214)" x2="-5" y2="0" stroke="#888" stroke-width="1" opacity="1"/><line transform="translate(0,171)" x2="-5" y2="0" stroke="#888" stroke-width="1" opacity="1"/><line transform="translate(0,129)" x2="-5" y2="0" stroke="#888" stroke-width="1" opacity="1"/><line transform="translate(0,86)" x2="-5" y2="0" stroke="#888" stroke-width="1" opacity="1"/><line transform="translate(0,43)" x2="-5" y2="0" stroke="#888" stroke-width="1" opacity="1"/><line transform="translate(0,0)" x2="-5" y2="0" stroke="#888" stroke-width="1" opacity="1"/></g><g class="mark-text role-axis-label" pointer-events="none"><text text-anchor="end" transform="translate(-7,305)" font-family="monospace" font-size="16px" fill="#000" opacity="1">0.00</text><text text-anchor="end" transform="translate(-7,262.1428571428571)" font-family="monospace" font-size="16px" fill="#000" opacity="1">0.05</text><text text-anchor="end" transform="translate(-7,219.28571428571425)" font-family="monospace" font-size="16px" fill="#000" opacity="1">0.10</text><text text-anchor="end" transform="translate(-7,176.42857142857142)" font-family="monospace" font-size="16px" fill="#000" opacity="1">0.15</text><text text-anchor="end" transform="translate(-7,133.57142857142856)" font-family="monospace" font-size="16px" fill="#000" opacity="1">0.20</text><text text-anchor="end" transform="translate(-7,90.71428571428571)" font-family="monospace" font-size="16px" fill="#000" opacity="1">0.25</text><text text-anchor="end" transform="translate(-7,47.85714285714284)" font-family="monospace" font-size="16px" fill="#000" opacity="1">0.30</text><text text-anchor="end" transform="translate(-7,5)" font-family="monospace" font-size="16px" fill="#000" opacity="1">0.35</text></g><g class="mark-text role-axis-title" pointer-events="none"><text text-anchor="middle" transform="translate(-80,146)" font-family="sans-serif" font-size="20px" font-weight="bold" fill="#000" opacity="1">P(k)</text></g></g><path class="foreground" aria-hidden="true" d="" pointer-events="none" display="none"/></g></g></g><path class="foreground" aria-hidden="true" d="" display="none"/></g></g><g class="mark-group role-column-footer column_footer" role="graphics-object" aria-roledescription="group mark container"><g transform="translate(0,655)"><path class="background" aria-hidden="true" d="M0,0h300v0h-300Z"/><g><g class="mark-group role-axis" role="graphics-symbol" aria-roledescription="axis" aria-label="X-axis titled 'k' for a linear scale with values from 0 to 19"><g transform="translate(0.5,0.5)"><path class="background" aria-hidden="true" d="M0,0h0v0h0Z" pointer-events="none"/><g><g class="mark-rule role-axis-tick" pointer-events="none"><line transform="translate(0,0)" x2="0" y2="5" stroke="#888" stroke-width="1" opacity="1"/><line transform="translate(31,0)" x2="0" y2="5" stroke="#888" stroke-width="1" opacity="1"/><line transform="translate(62,0)" x2="0" y2="5" stroke="#888" stroke-width="1" opacity="1"/><line transform="translate(93,0)" x2="0" y2="5" stroke="#888" stroke-width="1" opacity="1"/><line transform="translate(124,0)" x2="0" y2="5" stroke="#888" stroke-width="1" opacity="1"/><line transform="translate(155,0)" x2="0" y2="5" stroke="#888" stroke-width="1" opacity="1"/><line transform="translate(186,0)" x2="0" y2="5" stroke="#888" stroke-width="1" opacity="1"/><line transform="translate(217,0)" x2="0" y2="5" stroke="#888" stroke-width="1" opacity="1"/><line transform="translate(248,0)" x2="0" y2="5" stroke="#888" stroke-width="1" opacity="1"/><line transform="translate(279,0)" x2="0" y2="5" stroke="#888" stroke-width="1" opacity="1"/></g><g class="mark-text role-axis-label" pointer-events="none"><text text-anchor="start" transform="translate(0,20)" font-family="monospace" font-size="16px" fill="#000" opacity="1">0</text><text text-anchor="middle" transform="translate(31.04371097234612,20)" font-family="monospace" font-size="16px" fill="#000" opacity="1"/><text text-anchor="middle" transform="translate(62.08742194469224,20)" font-family="monospace" font-size="16px" fill="#000" opacity="1">4</text><text text-anchor="middle" transform="translate(93.13113291703837,20)" font-family="monospace" font-size="16px" fill="#000" opacity="1"/><text text-anchor="middle" transform="translate(124.17484388938448,20)" font-family="monospace" font-size="16px" fill="#000" opacity="1">8</text><text text-anchor="middle" transform="translate(155.2185548617306,20)" font-family="monospace" font-size="16px" fill="#000" opacity="1"/><text text-anchor="middle" transform="translate(186.26226583407674,20)" font-family="monospace" font-size="16px" fill="#000" opacity="1">12</text><text text-anchor="middle" transform="translate(217.30597680642282,20)" font-family="monospace" font-size="16px" fill="#000" opacity="1"/><text text-anchor="middle" transform="translate(248.34968777876895,20)" font-family="monospace" font-size="16px" fill="#000" opacity="1">16</text><text text-anchor="middle" transform="translate(279.39339875111506,20)" font-family="monospace" font-size="16px" fill="#000" opacity="1"/></g><g class="mark-rule role-axis-domain" pointer-events="none"><line transform="translate(0,0)" x2="300" y2="0" stroke="#888" stroke-width="1" opacity="1"/></g><g class="mark-text role-axis-title" pointer-events="none"><text text-anchor="middle" transform="translate(150,43)" font-family="sans-serif" font-size="20px" font-weight="bold" fill="#000" opacity="1">k</text></g></g><path class="foreground" aria-hidden="true" d="" pointer-events="none" display="none"/></g></g></g><path class="foreground" aria-hidden="true" d="" display="none"/></g><g transform="translate(325,655)"><path class="background" aria-hidden="true" d="M0,0h300v0h-300Z"/><g><g class="mark-group role-axis" role="graphics-symbol" aria-roledescription="axis" aria-label="X-axis titled 'k' for a linear scale with values from 0 to 19"><g transform="translate(0.5,0.5)"><path class="background" aria-hidden="true" d="M0,0h0v0h0Z" pointer-events="none"/><g><g class="mark-rule role-axis-tick" pointer-events="none"><line transform="translate(0,0)" x2="0" y2="5" stroke="#888" stroke-width="1" opacity="1"/><line transform="translate(31,0)" x2="0" y2="5" stroke="#888" stroke-width="1" opacity="1"/><line transform="translate(62,0)" x2="0" y2="5" stroke="#888" stroke-width="1" opacity="1"/><line transform="translate(93,0)" x2="0" y2="5" stroke="#888" stroke-width="1" opacity="1"/><line transform="translate(124,0)" x2="0" y2="5" stroke="#888" stroke-width="1" opacity="1"/><line transform="translate(155,0)" x2="0" y2="5" stroke="#888" stroke-width="1" opacity="1"/><line transform="translate(186,0)" x2="0" y2="5" stroke="#888" stroke-width="1" opacity="1"/><line transform="translate(217,0)" x2="0" y2="5" stroke="#888" stroke-width="1" opacity="1"/><line transform="translate(248,0)" x2="0" y2="5" stroke="#888" stroke-width="1" opacity="1"/><line transform="translate(279,0)" x2="0" y2="5" stroke="#888" stroke-width="1" opacity="1"/></g><g class="mark-text role-axis-label" pointer-events="none"><text text-anchor="start" transform="translate(0,20)" font-family="monospace" font-size="16px" fill="#000" opacity="1">0</text><text text-anchor="middle" transform="translate(31.04371097234612,20)" font-family="monospace" font-size="16px" fill="#000" opacity="1"/><text text-anchor="middle" transform="translate(62.08742194469224,20)" font-family="monospace" font-size="16px" fill="#000" opacity="1">4</text><text text-anchor="middle" transform="translate(93.13113291703837,20)" font-family="monospace" font-size="16px" fill="#000" opacity="1"/><text text-anchor="middle" transform="translate(124.17484388938448,20)" font-family="monospace" font-size="16px" fill="#000" opacity="1">8</text><text text-anchor="middle" transform="translate(155.2185548617306,20)" font-family="monospace" font-size="16px" fill="#000" opacity="1"/><text text-anchor="middle" transform="translate(186.26226583407674,20)" font-family="monospace" font-size="16px" fill="#000" opacity="1">12</text><text text-anchor="middle" transform="translate(217.30597680642282,20)" font-family="monospace" font-size="16px" fill="#000" opacity="1"/><text text-anchor="middle" transform="translate(248.34968777876895,20)" font-family="monospace" font-size="16px" fill="#000" opacity="1">16</text><text text-anchor="middle" transform="translate(279.39339875111506,20)" font-family="monospace" font-size="16px" fill="#000" opacity="1"/></g><g class="mark-rule role-axis-domain" pointer-events="none"><line transform="translate(0,0)" x2="300" y2="0" stroke="#888" stroke-width="1" opacity="1"/></g><g class="mark-text role-axis-title" pointer-events="none"><text text-anchor="middle" transform="translate(150,43)" font-family="sans-serif" font-size="20px" font-weight="bold" fill="#000" opacity="1">k</text></g></g><path class="foreground" aria-hidden="true" d="" pointer-events="none" display="none"/></g></g></g><path class="foreground" aria-hidden="true" d="" display="none"/></g></g><g class="mark-group role-scope cell" role="graphics-object" aria-roledescription="group mark container"><g transform="translate(0,0)"><path class="background" aria-hidden="true" d="M0.5,0.5h300v300h-300Z" stroke="#ddd"/><g><g class="mark-line role-mark child_layer_0_marks" role="graphics-object" aria-roledescription="line mark container"><path aria-label="k: 0; P(k): 0.187260157638" role="graphics-symbol" aria-roledescription="line mark" d="M0,139.491L15.522,26.97L31.044,72.006L46.566,175.426L62.087,249.913L77.609,284.2L93.131,295.928L108.653,299.118L124.175,299.836L139.697,299.974L155.219,299.996L170.74,300" stroke="black" stroke-width="2" opacity="0.7"/></g><g class="mark-rect role-mark child_layer_1_marks" role="graphics-object" aria-roledescription="rect mark container"><path aria-label="k: 1; Percentage: 0.31566" role="graphics-symbol" aria-roledescription="bar" d="M13.02185548617306,29.434285714285714h5v270.5657142857143h-5Z" fill="#9ebcda" opacity="0.7"/><path aria-label="k: 2; Percentage: 0.261" role="graphics-symbol" aria-roledescription="bar" d="M28.54371097234612,76.28571428571426h5v223.71428571428572h-5Z" fill="#9ebcda" opacity="0.7"/><path aria-label="k: 0; Percentage: 0.19388" role="graphics-symbol" aria-roledescription="bar" d="M-2.5,133.81714285714284h5v166.18285714285716h-5Z" fill="#9ebcda" opacity="0.7"/><path aria-label="k: 3; Percentage: 0.14599" role="graphics-symbol" aria-roledescription="bar" d="M44.065566458519186,174.86571428571426h5v125.13428571428574h-5Z" fill="#9ebcda" opacity="0.7"/><path aria-label="k: 4; Percentage: 0.05832" role="graphics-symbol" aria-roledescription="bar" d="M59.58742194469224,250.01142857142855h5v49.98857142857145h-5Z" fill="#9ebcda" opacity="0.7"/><path aria-label="k: 5; Percentage: 0.01855" role="graphics-symbol" aria-roledescription="bar" d="M75.1092774308653,284.09999999999997h5v15.900000000000034h-5Z" fill="#9ebcda" opacity="0.7"/><path aria-label="k: 6; Percentage: 0.00514" role="graphics-symbol" aria-roledescription="bar" d="M90.63113291703837,295.5942857142857h5v4.405714285714282h-5Z" fill="#9ebcda" opacity="0.7"/><path aria-label="k: 7; Percentage: 0.00121" role="graphics-symbol" aria-roledescription="bar" d="M106.15298840321141,298.96285714285716h5v1.0371428571428396h-5Z" fill="#9ebcda" opacity="0.7"/><path aria-label="k: 8; Percentage: 0.00018" role="graphics-symbol" aria-roledescription="bar" d="M121.67484388938448,299.8457142857143h5v0.15428571428572013h-5Z" fill="#9ebcda" opacity="0.7"/><path aria-label="k: 9; Percentage: 0.00004" role="graphics-symbol" aria-roledescription="bar" d="M137.19669937555753,299.9657142857143h5v0.034285714285715585h-5Z" fill="#9ebcda" opacity="0.7"/><path aria-label="k: 10; Percentage: 0.00002" role="graphics-symbol" aria-roledescription="bar" d="M152.7185548617306,299.98285714285714h5v0.017142857142857792h-5Z" fill="#9ebcda" opacity="0.7"/><path aria-label="k: 11; Percentage: 0.00001" role="graphics-symbol" aria-roledescription="bar" d="M168.24041034790366,299.99142857142857h5v0.008571428571428896h-5Z" fill="#9ebcda" opacity="0.7"/></g><g class="mark-group role-title"><g transform="translate(150,-28)"><path class="background" aria-hidden="true" d="M0,0h0v0h0Z" pointer-events="none"/><g><g class="mark-text role-title-text" role="graphics-symbol" aria-roledescription="title" aria-label="Title text '0'" pointer-events="none"><text text-anchor="middle" transform="translate(0,14)" font-family="sans-serif" font-size="18px" fill="#000" opacity="1">0</text></g></g><path class="foreground" aria-hidden="true" d="" pointer-events="none" display="none"/></g></g></g><path class="foreground" aria-hidden="true" d="" display="none"/></g><g transform="translate(325,0)"><path class="background" aria-hidden="true" d="M0.5,0.5h300v300h-300Z" stroke="#ddd"/><g><g class="mark-line role-mark child_layer_0_marks" role="graphics-object" aria-roledescription="line mark container"><path aria-label="k: 0; P(k): 0.0505393856153" role="graphics-symbol" aria-roledescription="line mark" d="M0,256.681L15.522,168.702L31.044,103.053L46.566,105.083L62.087,156.826L77.609,216.753L93.131,260.093L108.653,283.779L124.175,294.293L139.697,298.235L155.219,299.514L170.74,299.88L186.262,299.973L201.784,299.994" stroke="black" stroke-width="2" opacity="0.7"/></g><g class="mark-rect role-mark child_layer_1_marks" role="graphics-object" aria-roledescription="rect mark container"><path aria-label="k: 2; Percentage: 0.22718" role="graphics-symbol" aria-roledescription="bar" d="M28.54371097234612,105.27428571428572h5v194.72571428571428h-5Z" fill="#9ebcda" opacity="0.7"/><path aria-label="k: 3; Percentage: 0.22624" role="graphics-symbol" aria-roledescription="bar" d="M44.065566458519186,106.07999999999997h5v193.92000000000002h-5Z" fill="#9ebcda" opacity="0.7"/><path aria-label="k: 4; Percentage: 0.16712" role="graphics-symbol" aria-roledescription="bar" d="M59.58742194469224,156.75428571428571h5v143.24571428571429h-5Z" fill="#9ebcda" opacity="0.7"/><path aria-label="k: 1; Percentage: 0.15319" role="graphics-symbol" aria-roledescription="bar" d="M13.02185548617306,168.69428571428574h5v131.30571428571426h-5Z" fill="#9ebcda" opacity="0.7"/><path aria-label="k: 5; Percentage: 0.09668" role="graphics-symbol" aria-roledescription="bar" d="M75.1092774308653,217.13142857142856h5v82.86857142857144h-5Z" fill="#9ebcda" opacity="0.7"/><path aria-label="k: 0; Percentage: 0.05221" role="graphics-symbol" aria-roledescription="bar" d="M-2.5,255.24857142857144h5v44.75142857142856h-5Z" fill="#9ebcda" opacity="0.7"/><path aria-label="k: 6; Percentage: 0.04823" role="graphics-symbol" aria-roledescription="bar" d="M90.63113291703837,258.65999999999997h5v41.34000000000003h-5Z" fill="#9ebcda" opacity="0.7"/><path aria-label="k: 7; Percentage: 0.01909" role="graphics-symbol" aria-roledescription="bar" d="M106.15298840321141,283.63714285714286h5v16.362857142857138h-5Z" fill="#9ebcda" opacity="0.7"/><path aria-label="k: 8; Percentage: 0.00705" role="graphics-symbol" aria-roledescription="bar" d="M121.67484388938448,293.95714285714286h5v6.0428571428571445h-5Z" fill="#9ebcda" opacity="0.7"/><path aria-label="k: 9; Percentage: 0.00218" role="graphics-symbol" aria-roledescription="bar" d="M137.19669937555753,298.13142857142856h5v1.8685714285714425h-5Z" fill="#9ebcda" opacity="0.7"/><path aria-label="k: 10; Percentage: 0.00059" role="graphics-symbol" aria-roledescription="bar" d="M152.7185548617306,299.4942857142857h5v0.5057142857143049h-5Z" fill="#9ebcda" opacity="0.7"/><path aria-label="k: 11; Percentage: 0.0002" role="graphics-symbol" aria-roledescription="bar" d="M168.24041034790366,299.8285714285714h5v0.17142857142857792h-5Z" fill="#9ebcda" opacity="0.7"/><path aria-label="k: 12; Percentage: 0.00003" role="graphics-symbol" aria-roledescription="bar" d="M183.76226583407674,299.9742857142857h5v0.02571428571428669h-5Z" fill="#9ebcda" opacity="0.7"/><path aria-label="k: 13; Percentage: 0.00001" role="graphics-symbol" aria-roledescription="bar" d="M199.28412132024977,299.99142857142857h5v0.008571428571428896h-5Z" fill="#9ebcda" opacity="0.7"/></g><g class="mark-group role-title"><g transform="translate(150,-28)"><path class="background" aria-hidden="true" d="M0,0h0v0h0Z" pointer-events="none"/><g><g class="mark-text role-title-text" role="graphics-symbol" aria-roledescription="title" aria-label="Title text '0.3'" pointer-events="none"><text text-anchor="middle" transform="translate(0,14)" font-family="sans-serif" font-size="18px" fill="#000" opacity="1">0.3</text></g></g><path class="foreground" aria-hidden="true" d="" pointer-events="none" display="none"/></g></g></g><path class="foreground" aria-hidden="true" d="" display="none"/></g><g transform="translate(0,352)"><path class="background" aria-hidden="true" d="M0.5,0.5h300v300h-300Z" stroke="#ddd"/><g><g class="mark-line role-mark child_layer_0_marks" role="graphics-object" aria-roledescription="line mark container"><path aria-label="k: 0; P(k): 0.00863754942628" role="graphics-symbol" aria-roledescription="line mark" d="M0,292.596L15.522,264.279L31.044,214.381L46.566,164.069L62.087,139.195L77.609,148.81L93.131,182.321L108.653,222.01L124.175,255.075L139.697,277.152L155.219,289.612L170.74,295.736L186.262,298.406L201.784,299.454L217.306,299.828L232.828,299.95L248.35,299.986" stroke="black" stroke-width="2" opacity="0.7"/></g><g class="mark-rect role-mark child_layer_1_marks" role="graphics-object" aria-roledescription="rect mark container"><path aria-label="k: 4; Percentage: 0.1852" role="graphics-symbol" aria-roledescription="bar" d="M59.58742194469224,141.25714285714287h5v158.74285714285713h-5Z" fill="#9ebcda" opacity="0.7"/><path aria-label="k: 5; Percentage: 0.17601" role="graphics-symbol" aria-roledescription="bar" d="M75.1092774308653,149.1342857142857h5v150.8657142857143h-5Z" fill="#9ebcda" opacity="0.7"/><path aria-label="k: 3; Percentage: 0.15907" role="graphics-symbol" aria-roledescription="bar" d="M44.065566458519186,163.65428571428572h5v136.34571428571428h-5Z" fill="#9ebcda" opacity="0.7"/><path aria-label="k: 6; Percentage: 0.13708" role="graphics-symbol" aria-roledescription="bar" d="M90.63113291703837,182.50285714285712h5v117.49714285714288h-5Z" fill="#9ebcda" opacity="0.7"/><path aria-label="k: 2; Percentage: 0.0995" role="graphics-symbol" aria-roledescription="bar" d="M28.54371097234612,214.71428571428572h5v85.28571428571428h-5Z" fill="#9ebcda" opacity="0.7"/><path aria-label="k: 7; Percentage: 0.09255" role="graphics-symbol" aria-roledescription="bar" d="M106.15298840321141,220.67142857142855h5v79.32857142857145h-5Z" fill="#9ebcda" opacity="0.7"/><path aria-label="k: 8; Percentage: 0.05199" role="graphics-symbol" aria-roledescription="bar" d="M121.67484388938448,255.43714285714287h5v44.562857142857126h-5Z" fill="#9ebcda" opacity="0.7"/><path aria-label="k: 1; Percentage: 0.04243" role="graphics-symbol" aria-roledescription="bar" d="M13.02185548617306,263.63142857142856h5v36.36857142857144h-5Z" fill="#9ebcda" opacity="0.7"/><path aria-label="k: 9; Percentage: 0.02701" role="graphics-symbol" aria-roledescription="bar" d="M137.19669937555753,276.84857142857146h5v23.15142857142854h-5Z" fill="#9ebcda" opacity="0.7"/><path aria-label="k: 10; Percentage: 0.01221" role="graphics-symbol" aria-roledescription="bar" d="M152.7185548617306,289.5342857142857h5v10.465714285714284h-5Z" fill="#9ebcda" opacity="0.7"/><path aria-label="k: 0; Percentage: 0.00866" role="graphics-symbol" aria-roledescription="bar" d="M-2.5,292.57714285714286h5v7.42285714285714h-5Z" fill="#9ebcda" opacity="0.7"/><path aria-label="k: 11; Percentage: 0.00534" role="graphics-symbol" aria-roledescription="bar" d="M168.24041034790366,295.42285714285714h5v4.57714285714286h-5Z" fill="#9ebcda" opacity="0.7"/><path aria-label="k: 12; Percentage: 0.00187" role="graphics-symbol" aria-roledescription="bar" d="M183.76226583407674,298.39714285714285h5v1.6028571428571468h-5Z" fill="#9ebcda" opacity="0.7"/><path aria-label="k: 13; Percentage: 0.00073" role="graphics-symbol" aria-roledescription="bar" d="M199.28412132024977,299.37428571428575h5v0.6257142857142526h-5Z" fill="#9ebcda" opacity="0.7"/><path aria-label="k: 14; Percentage: 0.00025" role="graphics-symbol" aria-roledescription="bar" d="M214.80597680642282,299.7857142857143h5v0.2142857142857224h-5Z" fill="#9ebcda" opacity="0.7"/><path aria-label="k: 15; Percentage: 0.00008" role="graphics-symbol" aria-roledescription="bar" d="M230.3278322925959,299.93142857142857h5v0.06857142857143117h-5Z" fill="#9ebcda" opacity="0.7"/><path aria-label="k: 16; Percentage: 0.00002" role="graphics-symbol" aria-roledescription="bar" d="M245.84968777876895,299.98285714285714h5v0.017142857142857792h-5Z" fill="#9ebcda" opacity="0.7"/></g><g class="mark-group role-title"><g transform="translate(150,-28)"><path class="background" aria-hidden="true" d="M0,0h0v0h0Z" pointer-events="none"/><g><g class="mark-text role-title-text" role="graphics-symbol" aria-roledescription="title" aria-label="Title text '0.7'" pointer-events="none"><text text-anchor="middle" transform="translate(0,14)" font-family="sans-serif" font-size="18px" fill="#000" opacity="1">0.7</text></g></g><path class="foreground" aria-hidden="true" d="" pointer-events="none" display="none"/></g></g></g><path class="foreground" aria-hidden="true" d="" display="none"/></g><g transform="translate(325,352)"><path class="background" aria-hidden="true" d="M0.5,0.5h300v300h-300Z" stroke="#ddd"/><g><g class="mark-line role-mark child_layer_0_marks" role="graphics-object" aria-roledescription="line mark container"><path aria-label="k: 0; P(k): 0.00226124101" role="graphics-symbol" aria-roledescription="line mark" d="M0,298.062L15.522,288.011L31.044,263.106L46.566,224.691L62.087,185.29L77.609,160.929L93.131,160.212L108.653,180.182L124.175,210.6L139.697,241.014L155.219,265.156L170.74,281.386L186.262,290.933L201.784,295.945L217.306,298.325L232.828,299.358L248.35,299.77L263.872,299.923L279.393,299.976L294.915,300" stroke="black" stroke-width="2" opacity="0.7"/></g><g class="mark-rect role-mark child_layer_1_marks" role="graphics-object" aria-roledescription="rect mark container"><path aria-label="k: 6; Percentage: 0.16296" role="graphics-symbol" aria-roledescription="bar" d="M90.63113291703837,160.32h5v139.68h-5Z" fill="#9ebcda" opacity="0.7"/><path aria-label="k: 5; Percentage: 0.1607" role="graphics-symbol" aria-roledescription="bar" d="M75.1092774308653,162.25714285714284h5v137.74285714285716h-5Z" fill="#9ebcda" opacity="0.7"/><path aria-label="k: 7; Percentage: 0.13834" role="graphics-symbol" aria-roledescription="bar" d="M106.15298840321141,181.42285714285714h5v118.57714285714286h-5Z" fill="#9ebcda" opacity="0.7"/><path aria-label="k: 4; Percentage: 0.1342" role="graphics-symbol" aria-roledescription="bar" d="M59.58742194469224,184.97142857142856h5v115.02857142857144h-5Z" fill="#9ebcda" opacity="0.7"/><path aria-label="k: 8; Percentage: 0.10511" role="graphics-symbol" aria-roledescription="bar" d="M121.67484388938448,209.90571428571428h5v90.09428571428572h-5Z" fill="#9ebcda" opacity="0.7"/><path aria-label="k: 3; Percentage: 0.08936" role="graphics-symbol" aria-roledescription="bar" d="M44.065566458519186,223.40571428571428h5v76.59428571428572h-5Z" fill="#9ebcda" opacity="0.7"/><path aria-label="k: 9; Percentage: 0.07011" role="graphics-symbol" aria-roledescription="bar" d="M137.19669937555753,239.90571428571425h5v60.094285714285746h-5Z" fill="#9ebcda" opacity="0.7"/><path aria-label="k: 2; Percentage: 0.04421" role="graphics-symbol" aria-roledescription="bar" d="M28.54371097234612,262.10571428571427h5v37.89428571428573h-5Z" fill="#9ebcda" opacity="0.7"/><path aria-label="k: 10; Percentage: 0.03943" role="graphics-symbol" aria-roledescription="bar" d="M152.7185548617306,266.2028571428571h5v33.79714285714289h-5Z" fill="#9ebcda" opacity="0.7"/><path aria-label="k: 11; Percentage: 0.02146" role="graphics-symbol" aria-roledescription="bar" d="M168.24041034790366,281.60571428571427h5v18.39428571428573h-5Z" fill="#9ebcda" opacity="0.7"/><path aria-label="k: 1; Percentage: 0.01368" role="graphics-symbol" aria-roledescription="bar" d="M13.02185548617306,288.2742857142857h5v11.725714285714275h-5Z" fill="#9ebcda" opacity="0.7"/><path aria-label="k: 12; Percentage: 0.01053" role="graphics-symbol" aria-roledescription="bar" d="M183.76226583407674,290.9742857142857h5v9.025714285714287h-5Z" fill="#9ebcda" opacity="0.7"/><path aria-label="k: 13; Percentage: 0.00428" role="graphics-symbol" aria-roledescription="bar" d="M199.28412132024977,296.33142857142855h5v3.668571428571454h-5Z" fill="#9ebcda" opacity="0.7"/><path aria-label="k: 0; Percentage: 0.00244" role="graphics-symbol" aria-roledescription="bar" d="M-2.5,297.90857142857146h5v2.091428571428537h-5Z" fill="#9ebcda" opacity="0.7"/><path aria-label="k: 14; Percentage: 0.00221" role="graphics-symbol" aria-roledescription="bar" d="M214.80597680642282,298.10571428571427h5v1.8942857142857292h-5Z" fill="#9ebcda" opacity="0.7"/><path aria-label="k: 15; Percentage: 0.00064" role="graphics-symbol" aria-roledescription="bar" d="M230.3278322925959,299.4514285714286h5v0.5485714285713925h-5Z" fill="#9ebcda" opacity="0.7"/><path aria-label="k: 16; Percentage: 0.00024" role="graphics-symbol" aria-roledescription="bar" d="M245.84968777876895,299.7942857142857h5v0.2057142857142935h-5Z" fill="#9ebcda" opacity="0.7"/><path aria-label="k: 17; Percentage: 0.00005" role="graphics-symbol" aria-roledescription="bar" d="M261.37154326494203,299.95714285714286h5v0.04285714285714448h-5Z" fill="#9ebcda" opacity="0.7"/><path aria-label="k: 18; Percentage: 0.00003" role="graphics-symbol" aria-roledescription="bar" d="M276.89339875111506,299.9742857142857h5v0.02571428571428669h-5Z" fill="#9ebcda" opacity="0.7"/><path aria-label="k: 19; Percentage: 0.00002" role="graphics-symbol" aria-roledescription="bar" d="M292.41525423728814,299.98285714285714h5v0.017142857142857792h-5Z" fill="#9ebcda" opacity="0.7"/></g><g class="mark-group role-title"><g transform="translate(150,-28)"><path class="background" aria-hidden="true" d="M0,0h0v0h0Z" pointer-events="none"/><g><g class="mark-text role-title-text" role="graphics-symbol" aria-roledescription="title" aria-label="Title text '1'" pointer-events="none"><text text-anchor="middle" transform="translate(0,14)" font-family="sans-serif" font-size="18px" fill="#000" opacity="1">1</text></g></g><path class="foreground" aria-hidden="true" d="" pointer-events="none" display="none"/></g></g></g><path class="foreground" aria-hidden="true" d="" display="none"/></g></g></g><path class="foreground" aria-hidden="true" d="" display="none"/></g></g></g></svg>