<svg xmlns="http://www.w3.org/2000/svg" xmlns:xlink="http://www.w3.org/1999/xlink" version="1.1" class="marks" width="676" height="365" viewBox="0 0 676 365"><rect width="676" height="365" fill="white"/><g fill="none" stroke-miterlimit="10" transform="translate(65,13)"><g class="mark-group role-frame root" role="graphics-object" aria-roledescription="group mark container"><g transform="translate(0,0)"><path class="background" aria-hidden="true" d="M0.5,0.5h600v300h-600Z" stroke="#ddd"/><g><g class="mark-group role-axis" role="graphics-symbol" aria-roledescription="axis" aria-label="X-axis titled 'q / p' for a linear scale with values from 0.0 to 1.0"><g transform="translate(0.5,300.5)"><path class="background" aria-hidden="true" d="M0,0h0v0h0Z" pointer-events="none"/><g><g class="mark-rule role-axis-tick" pointer-events="none"><line transform="translate(0,0)" x2="0" y2="5" stroke="#888" stroke-width="1" opacity="1"/><line transform="translate(30,0)" x2="0" y2="5" stroke="#888" stroke-width="1" opacity="1"/><line transform="translate(60,0)" x2="0" y2="5" stroke="#888" stroke-width="1" opacity="1"/><line transform="translate(90,0)" x2="0" y2="5" stroke="#888" stroke-width="1" opacity="1"/><line transform="translate(120,0)" x2="0" y2="5" stroke="#888" stroke-width="1" opacity="1"/><line transform="translate(150,0)" x2="0" y2="5" stroke="#888" stroke-width="1" opacity="1"/><line transform="translate(180,0)" x2="0" y2="5" stroke="#888" stroke-width="1" opacity="1"/><line transform="translate(210,0)" x2="0" y2="5" stroke="#888" stroke-width="1" opacity="1"/><line transform="translate(240,0)" x2="0" y2="5" stroke="#888" stroke-width="1" opacity="1"/><line transform="translate(270,0)" x2="0" y2="5" stroke="#888" stroke-width="1" opacity="1"/><line transform="translate(300,0)" x2="0" y2="5" stroke="#888" stroke-width="1" opacity="1"/><line transform="translate(330,0)" x2="0" y2="5" stroke="#888" stroke-width="1" opacity="1"/><line transform="translate(360,0)" x2="0" y2="5" stroke="#888" stroke-width="1" opacity="1"/><line transform="translate(390,0)" x2="0" y2="5" stroke="#888" stroke-width="1" opacity="1"/><line transform="translate(420,0)" x2="0" y2="5" stroke="#888" stroke-width="1" opacity="1"/><line transform="translate(450,0)" x2="0" y2="5" stroke="#888" stroke-width="1" opacity="1"/><line transform="translate(480,0)" x2="0" y2="5" stroke="#888" stroke-width="1" opacity="1"/><line transform="translate(510,0)" x2="0" y2="5" stroke="#888" stroke-width="1" opacity="1"/><line transform="translate(540,0)" x2="0" y2="5" stroke="#888" stroke-width="1" opacity="1"/><line transform="translate(570,0)" x2="0" y2="5" stroke="#888" stroke-width="1" opacity="1"/><line transform="translate(600,0)" x2="0" y2="5" stroke="#888" stroke-width="1" opacity="1"/></g><g class="mark-text role-axis-label" pointer-events="none"><text text-anchor="start" transform="translate(0,20)" font-family="monospace" font-size="16px" fill="#000" opacity="1">0.00</text><text text-anchor="middle" transform="translate(30,20)" font-family="monospace" font-size="16px" fill="#000" opacity="0">0.05</text><text text-anchor="middle" transform="translate(60,20)" font-family="monospace" font-size="16px" fill="#000" opacity="1">0.10</text><text text-anchor="middle" transform="translate(90,20)" font-family="monospace" font-size="16px" fill="#000" opacity="0">0.15</text><text text-anchor="middle" transform="translate(120,20)" font-family="monospace" font-size="16px" fill="#000" opacity="1">0.20</text><text text-anchor="middle" transform="translate(150,20)" font-family="monospace" font-size="16px" fill="#000" opacity="0">0.25</text><text text-anchor="middle" transform="translate(180,20)" font-family="monospace" font-size="16px" fill="#000" opacity="1">0.30</text><text text-anchor="middle" transform="translate(210,20)" font-family="monospace" font-size="16px" fill="#000" opacity="0">0.35</text><text text-anchor="middle" transform="translate(240,20)" font-family="monospace" font-size="16px" fill="#000" opacity="1">0.40</text><text text-anchor="middle" transform="translate(270,20)" font-family="monospace" font-size="16px" fill="#000" opacity="0">0.45</text><text text-anchor="middle" transform="translate(300,20)" font-family="monospace" font-size="16px" fill="#000" opacity="1">0.50</text><text text-anchor="middle" transform="translate(330,20)" font-family="monospace" font-size="16px" fill="#000" opacity="0">0.55</text><text text-anchor="middle" transform="translate(360,20)" font-family="monospace" font-size="16px" fill="#000" opacity="1">0.60</text><text text-anchor="middle" transform="translate(390,20)" font-family="monospace" font-size="16px" fill="#000" opacity="0">0.65</text><text text-anchor="middle" transform="translate(420,20)" font-family="monospace" font-size="16px" fill="#000" opacity="1">0.70</text><text text-anchor="middle" transform="translate(450,20)" font-family="monospace" font-size="16px" fill="#000" opacity="0">0.75</text><text text-anchor="middle" transform="translate(480,20)" font-family="monospace" font-size="16px" fill="#000" opacity="1">0.80</text><text text-anchor="middle" transform="translate(510,20)" font-family="monospace" font-size="16px" fill="#000" opacity="0">0.85</text><text text-anchor="middle" transform="translate(540,20)" font-family="monospace" font-size="16px" fill="#000" opacity="1">0.90</text><text text-anchor="middle" transform="translate(570,20)" font-family="monospace" font-size="16px" fill="#000" opacity="0">0.95</text><text text-anchor="end" transform="translate(600,20)" font-family="monospace" font-size="16px" fill="#000" opacity="1">1.00</text></g><g class="mark-rule role-axis-domain" pointer-events="none"><line transform="translate(0,0)" x2="600" y2="0" stroke="#888" stroke-width="1" opacity="1"/></g><g class="mark-text role-axis-title" pointer-events="none"><text text-anchor="middle" transform="translate(300,43)" font-family="sans-serif" font-size="20px" font-weight="bold" fill="#000" opacity="1">q / p</text></g></g><path class="foreground" aria-hidden="true" d="" pointer-events="none" display="none"/></g></g><g class="mark-group role-axis" role="graphics-symbol" aria-roledescription="axis" aria-label="Y-axis titled 'N* / N' for a linear scale with values from 0.0 to 1.1"><g transform="translate(0.5,0.5)"><path class="background" aria-hidden="true" d="M0,0h0v0h0Z" pointer-events="none"/><g><g class="mark-rule role-axis-tick" pointer-events="none"><line transform="translate(0,300)" x2="-5" y2="0" stroke="#888" stroke-width="1" opacity="1"/><line transform="translate(0,273)" x2="-5" y2="0" stroke="#888" stroke-width="1" opacity="1"/><line transform="translate(0,245)" x2="-5" y2="0" stroke="#888" stroke-width="1" opacity="1"/><line transform="translate(0,218)" x2="-5" y2="0" stroke="#888" stroke-width="1" opacity="1"/><line transform="translate(0,191)" x2="-5" y2="0" stroke="#888" stroke-width="1" opacity="1"/><line transform="translate(0,164)" x2="-5" y2="0" stroke="#888" stroke-width="1" opacity="1"/><line transform="translate(0,136)" x2="-5" y2="0" stroke="#888" stroke-width="1" opacity="1"/><line transform="translate(0,109)" x2="-5" y2="0" stroke="#888" stroke-width="1" opacity="1"/><line transform="translate(0,82)" x2="-5" y2="0" stroke="#888" stroke-width="1" opacity="1"/><line transform="translate(0,55)" x2="-5" y2="0" stroke="#888" stroke-width="1" opacity="1"/><line transform="translate(0,27)" x2="-5" y2="0" stroke="#888" stroke-width="1" opacity="1"/><line transform="translate(0,0)" x2="-5" y2="0" stroke="#888" stroke-width="1" opacity="1"/></g><g class="mark-text role-axis-label" pointer-events="none"><text text-anchor="end" transform="translate(-7,305)" font-family="monospace" font-size="16px" fill="#000" opacity="1">0.0</text><text text-anchor="end" transform="translate(-7,277.7272727272727)" font-family="monospace" font-size="16px" fill="#000" opacity="1">0.1</text><text text-anchor="end" transform="translate(-7,250.45454545454544)" font-family="monospace" font-size="16px" fill="#000" opacity="1">0.2</text><text text-anchor="end" transform="translate(-7,223.1818181818182)" font-family="monospace" font-size="16px" fill="#000" opacity="1">0.3</text><text text-anchor="end" transform="translate(-7,195.9090909090909)" font-family="monospace" font-size="16px" fill="#000" opacity="1">0.4</text><text text-anchor="end" transform="translate(-7,168.63636363636363)" font-family="monospace" font-size="16px" fill="#000" opacity="1">0.5</text><text text-anchor="end" transform="translate(-7,141.36363636363637)" font-family="monospace" font-size="16px" fill="#000" opacity="1">0.6</text><text text-anchor="end" transform="translate(-7,114.09090909090912)" font-family="monospace" font-size="16px" fill="#000" opacity="1">0.7</text><text text-anchor="end" transform="translate(-7,86.81818181818181)" font-family="monospace" font-size="16px" fill="#000" opacity="1">0.8</text><text text-anchor="end" transform="translate(-7,59.54545454545456)" font-family="monospace" font-size="16px" fill="#000" opacity="1">0.9</text><text text-anchor="end" transform="translate(-7,32.27272727272728)" font-family="monospace" font-size="16px" fill="#000" opacity="1">1.0</text><text text-anchor="end" transform="translate(-7,5)" font-family="monospace" font-size="16px" fill="#000" opacity="1">1.1</text></g><g class="mark-text role-axis-title" pointer-events="none"><text text-anchor="middle" transform="translate(-39.8984375,150) rotate(-90) translate(0,-4)" font-family="sans-serif" font-size="20px" font-weight="bold" fill="#000" opacity="1">N* / N</text></g></g><path class="foreground" aria-hidden="true" d="" pointer-events="none" display="none"/></g></g><g class="mark-symbol role-mark layer_0_marks" role="graphics-object" aria-roledescription="symbol mark container"><path aria-label="q / p: 0; N* / N: 0.274" role="graphics-symbol" aria-roledescription="point" transform="translate(0,225.27272727272728)" d="M3.873,0A3.873,3.873,0,1,1,-3.873,0A3.873,3.873,0,1,1,3.873,0" fill="#9ebcda" stroke="black" stroke-width="2" opacity="0.8"/><path aria-label="q / p: 0.1; N* / N: 0.346" role="graphics-symbol" aria-roledescription="point" transform="translate(60,205.63636363636365)" d="M3.873,0A3.873,3.873,0,1,1,-3.873,0A3.873,3.873,0,1,1,3.873,0" fill="#9ebcda" stroke="black" stroke-width="2" opacity="0.8"/><path aria-label="q / p: 0.2; N* / N: 0.419" role="graphics-symbol" aria-roledescription="point" transform="translate(120,185.72727272727275)" d="M3.873,0A3.873,3.873,0,1,1,-3.873,0A3.873,3.873,0,1,1,3.873,0" fill="#9ebcda" stroke="black" stroke-width="2" opacity="0.8"/><path aria-label="q / p: 0.3; N* / N: 0.491" role="graphics-symbol" aria-roledescription="point" transform="translate(180,166.09090909090912)" d="M3.873,0A3.873,3.873,0,1,1,-3.873,0A3.873,3.873,0,1,1,3.873,0" fill="#9ebcda" stroke="black" stroke-width="2" opacity="0.8"/><path aria-label="q / p: 0.4; N* / N: 0.566" role="graphics-symbol" aria-roledescription="point" transform="translate(240,145.63636363636368)" d="M3.873,0A3.873,3.873,0,1,1,-3.873,0A3.873,3.873,0,1,1,3.873,0" fill="#9ebcda" stroke="black" stroke-width="2" opacity="0.8"/><path aria-label="q / p: 0.5; N* / N: 0.639" role="graphics-symbol" aria-roledescription="point" transform="translate(300,125.72727272727275)" d="M3.873,0A3.873,3.873,0,1,1,-3.873,0A3.873,3.873,0,1,1,3.873,0" fill="#9ebcda" stroke="black" stroke-width="2" opacity="0.8"/><path aria-label="q / p: 0.6; N* / N: 0.711" role="graphics-symbol" aria-roledescription="point" transform="translate(360,106.09090909090912)" d="M3.873,0A3.873,3.873,0,1,1,-3.873,0A3.873,3.873,0,1,1,3.873,0" fill="#9ebcda" stroke="black" stroke-width="2" opacity="0.8"/><path aria-label="q / p: 0.7; N* / N: 0.78" role="graphics-symbol" aria-roledescription="point" transform="translate(420.00000000000006,87.27272727272727)" d="M3.873,0A3.873,3.873,0,1,1,-3.873,0A3.873,3.873,0,1,1,3.873,0" fill="#9ebcda" stroke="black" stroke-width="2" opacity="0.8"/><path aria-label="q / p: 0.8; N* / N: 0.854" role="graphics-symbol" aria-roledescription="point" transform="translate(480,67.09090909090912)" d="M3.873,0A3.873,3.873,0,1,1,-3.873,0A3.873,3.873,0,1,1,3.873,0" fill="#9ebcda" stroke="black" stroke-width="2" opacity="0.8"/><path aria-label="q / p: 0.9; N* / N: 0.928" role="graphics-symbol" aria-roledescription="point" transform="translate(540,46.909090909090914)" d="M3.873,0A3.873,3.873,0,1,1,-3.873,0A3.873,3.873,0,1,1,3.873,0" fill="#9ebcda" stroke="black" stroke-width="2" opacity="0.8"/><path aria-label="q / p: 1; N* / N: 0.997" role="graphics-symbol" aria-roledescription="point" transform="translate(600,28.090909090909122)" d="M3.873,0A3.873,3.873,0,1,1,-3.873,0A3.873,3.873,0,1,1,3.873,0" fill="#9ebcda" stroke="black" stroke-width="2" opacity="0.8"/></g><g class="mark-line role-mark layer_1_marks" role="graphics-object" aria-roledescription="line mark container"><path aria-label="q / p: 0; N* / N: 0.2745" role="graphics-symbol" aria-roledescription="line mark" d="M0,225.136L600,27.508" stroke="#9ebcda" stroke-width="2"/></g></g><path class="foreground" aria-hidden="true" d="" display="none"/></g></g></g></svg>