<svg xmlns="http://www.w3.org/2000/svg" xmlns:xlink="http://www.w3.org/1999/xlink" version="1.1" class="marks" width="1424" height="419" viewBox="0 0 1424 419"><rect width="1424" height="419" fill="white"/><g fill="none" stroke-miterlimit="10" transform="translate(75,64)"><g class="mark-group role-frame root" role="graphics-object" aria-roledescription="group mark container"><g transform="translate(0,0)"><path class="background" aria-hidden="true" d="M0,0h0v0h0Z"/><g><g class="mark-group role-column-title facet-title" role="graphics-object" aria-roledescription="group mark container"><g transform="translate(639,-29)"><path class="background" aria-hidden="true" d="M0,0h0v0h0Z"/><g><g class="mark-group role-title"><g transform="translate(0,-30)"><path class="background" aria-hidden="true" d="M0,0h0v0h0Z" pointer-events="none"/><g><g class="mark-text role-title-text" role="graphics-symbol" aria-roledescription="title" aria-label="Title text 'Strategy'" pointer-events="none"><text text-anchor="middle" transform="translate(0,16)" font-family="sans-serif" font-size="20px" font-weight="bold" fill="#000" opacity="1">Strategy</text></g></g><path class="foreground" aria-hidden="true" d="" pointer-events="none" display="none"/></g></g></g><path class="foreground" aria-hidden="true" d="" display="none"/></g></g><g class="mark-group role-row-header row_header" role="graphics-object" aria-roledescription="group mark container"><g transform="translate(-3,0)"><path class="background" aria-hidden="true" d="M0,0h0v300h0Z"/><g><g class="mark-group role-axis" role="graphics-symbol" aria-roledescription="axis" aria-label="Y-axis titled 'δ' for a linear scale with values from 0.0 to 0.6"><g transform="translate(0.5,0.5)"><path class="background" aria-hidden="true" d="M0,0h0v0h0Z" pointer-events="none"/><g><g class="mark-rule role-axis-tick" pointer-events="none"><line transform="translate(0,300)" x2="-5" y2="0" stroke="#888" stroke-width="1" opacity="1"/><line transform="translate(0,273)" x2="-5" y2="0" stroke="#888" stroke-width="1" opacity="1"/><line transform="translate(0,245)" x2="-5" y2="0" stroke="#888" stroke-width="1" opacity="1"/><line transform="translate(0,218)" x2="-5" y2="0" stroke="#888" stroke-width="1" opacity="1"/><line transform="translate(0,191)" x2="-5" y2="0" stroke="#888" stroke-width="1" opacity="1"/><line transform="translate(0,164)" x2="-5" y2="0" stroke="#888" stroke-width="1" opacity="1"/><line transform="translate(0,136)" x2="-5" y2="0" stroke="#888" stroke-width="1" opacity="1"/><line transform="translate(0,109)" x2="-5" y2="0" stroke="#888" stroke-width="1" opacity="1"/><line transform="translate(0,82)" x2="-5" y2="0" stroke="#888" stroke-width="1" opacity="1"/><line transform="translate(0,55)" x2="-5" y2="0" stroke="#888" stroke-width="1" opacity="1"/><line transform="translate(0,27)" x2="-5" y2="0" stroke="#888" stroke-width="1" opacity="1"/><line transform="translate(0,0)" x2="-5" y2="0" stroke="#888" stroke-width="1" opacity="1"/></g><g class="mark-text role-axis-label" pointer-events="none"><text text-anchor="end" transform="translate(-7,305)" font-family="monospace" font-size="16px" fill="#000" opacity="1">0.00</text><text text-anchor="end" transform="translate(-7,277.7272727272727)" font-family="monospace" font-size="16px" fill="#000" opacity="1">0.05</text><text text-anchor="end" transform="translate(-7,250.45454545454544)" font-family="monospace" font-size="16px" fill="#000" opacity="1">0.10</text><text text-anchor="end" transform="translate(-7,223.1818181818182)" font-family="monospace" font-size="16px" fill="#000" opacity="1">0.15</text><text text-anchor="end" transform="translate(-7,195.9090909090909)" font-family="monospace" font-size="16px" fill="#000" opacity="1">0.20</text><text text-anchor="end" transform="translate(-7,168.63636363636363)" font-family="monospace" font-size="16px" fill="#000" opacity="1">0.25</text><text text-anchor="end" transform="translate(-7,141.36363636363637)" font-family="monospace" font-size="16px" fill="#000" opacity="1">0.30</text><text text-anchor="end" transform="translate(-7,114.09090909090912)" font-family="monospace" font-size="16px" fill="#000" opacity="1">0.35</text><text text-anchor="end" transform="translate(-7,86.81818181818181)" font-family="monospace" font-size="16px" fill="#000" opacity="1">0.40</text><text text-anchor="end" transform="translate(-7,59.54545454545456)" font-family="monospace" font-size="16px" fill="#000" opacity="1">0.45</text><text text-anchor="end" transform="translate(-7,32.27272727272728)" font-family="monospace" font-size="16px" fill="#000" opacity="1">0.50</text><text text-anchor="end" transform="translate(-7,5)" font-family="monospace" font-size="16px" fill="#000" opacity="1">0.55</text></g><g class="mark-text role-axis-title" pointer-events="none"><text text-anchor="middle" transform="translate(-60,146)" font-family="sans-serif" font-size="20px" font-weight="bold" fill="#000" opacity="1">δ</text></g></g><path class="foreground" aria-hidden="true" d="" pointer-events="none" display="none"/></g></g></g><path class="foreground" aria-hidden="true" d="" display="none"/></g></g><g class="mark-group role-column-footer column_footer" role="graphics-object" aria-roledescription="group mark container"><g transform="translate(0,303)"><path class="background" aria-hidden="true" d="M0,0h300v0h-300Z"/><g><g class="mark-group role-axis" role="graphics-symbol" aria-roledescription="axis" aria-label="X-axis titled 'q / p' for a linear scale with values from 0.0 to 1.0"><g transform="translate(0.5,0.5)"><path class="background" aria-hidden="true" d="M0,0h0v0h0Z" pointer-events="none"/><g><g class="mark-rule role-axis-tick" pointer-events="none"><line transform="translate(0,0)" x2="0" y2="5" stroke="#888" stroke-width="1" opacity="1"/><line transform="translate(30,0)" x2="0" y2="5" stroke="#888" stroke-width="1" opacity="1"/><line transform="translate(60,0)" x2="0" y2="5" stroke="#888" stroke-width="1" opacity="1"/><line transform="translate(90,0)" x2="0" y2="5" stroke="#888" stroke-width="1" opacity="1"/><line transform="translate(120,0)" x2="0" y2="5" stroke="#888" stroke-width="1" opacity="1"/><line transform="translate(150,0)" x2="0" y2="5" stroke="#888" stroke-width="1" opacity="1"/><line transform="translate(180,0)" x2="0" y2="5" stroke="#888" stroke-width="1" opacity="1"/><line transform="translate(210,0)" x2="0" y2="5" stroke="#888" stroke-width="1" opacity="1"/><line transform="translate(240,0)" x2="0" y2="5" stroke="#888" stroke-width="1" opacity="1"/><line transform="translate(270,0)" x2="0" y2="5" stroke="#888" stroke-width="1" opacity="1"/><line transform="translate(300,0)" x2="0" y2="5" stroke="#888" stroke-width="1" opacity="1"/></g><g class="mark-text role-axis-label" pointer-events="none"><text text-anchor="start" transform="translate(0,20)" font-family="monospace" font-size="16px" fill="#000" opacity="1">0.0</text><text text-anchor="middle" transform="translate(30,20)" font-family="monospace" font-size="16px" fill="#000" opacity="0">0.1</text><text text-anchor="middle" transform="translate(60,20)" font-family="monospace" font-size="16px" fill="#000" opacity="1">0.2</text><text text-anchor="middle" transform="translate(90,20)" font-family="monospace" font-size="16px" fill="#000" opacity="0">0.3</text><text text-anchor="middle" transform="translate(120,20)" font-family="monospace" font-size="16px" fill="#000" opacity="1">0.4</text><text text-anchor="middle" transform="translate(150,20)" font-family="monospace" font-size="16px" fill="#000" opacity="0">0.5</text><text text-anchor="middle" transform="translate(180,20)" font-family="monospace" font-size="16px" fill="#000" opacity="1">0.6</text><text text-anchor="middle" transform="translate(210,20)" font-family="monospace" font-size="16px" fill="#000" opacity="0">0.7</text><text text-anchor="middle" transform="translate(240,20)" font-family="monospace" font-size="16px" fill="#000" opacity="1">0.8</text><text text-anchor="middle" transform="translate(270,20)" font-family="monospace" font-size="16px" fill="#000" opacity="0">0.9</text><text text-anchor="end" transform="translate(300,20)" font-family="monospace" font-size="16px" fill="#000" opacity="1">1.0</text></g><g class="mark-rule role-axis-domain" pointer-events="none"><line transform="translate(0,0)" x2="300" y2="0" stroke="#888" stroke-width="1" opacity="1"/></g><g class="mark-text role-axis-title" pointer-events="none"><text text-anchor="middle" transform="translate(150,43)" font-family="sans-serif" font-size="20px" font-weight="bold" fill="#000" opacity="1">q / p</text></g></g><path class="foreground" aria-hidden="true" d="" pointer-events="none" display="none"/></g></g></g><path class="foreground" aria-hidden="true" d="" display="none"/></g><g transform="translate(326,303)"><path class="background" aria-hidden="true" d="M0,0h300v0h-300Z"/><g><g class="mark-group role-axis" role="graphics-symbol" aria-roledescription="axis" aria-label="X-axis titled 'q / p' for a linear scale with values from 0.0 to 1.0"><g transform="translate(0.5,0.5)"><path class="background" aria-hidden="true" d="M0,0h0v0h0Z" pointer-events="none"/><g><g class="mark-rule role-axis-tick" pointer-events="none"><line transform="translate(0,0)" x2="0" y2="5" stroke="#888" stroke-width="1" opacity="1"/><line transform="translate(30,0)" x2="0" y2="5" stroke="#888" stroke-width="1" opacity="1"/><line transform="translate(60,0)" x2="0" y2="5" stroke="#888" stroke-width="1" opacity="1"/><line transform="translate(90,0)" x2="0" y2="5" stroke="#888" stroke-width="1" opacity="1"/><line transform="translate(120,0)" x2="0" y2="5" stroke="#888" stroke-width="1" opacity="1"/><line transform="translate(150,0)" x2="0" y2="5" stroke="#888" stroke-width="1" opacity="1"/><line transform="translate(180,0)" x2="0" y2="5" stroke="#888" stroke-width="1" opacity="1"/><line transform="translate(210,0)" x2="0" y2="5" stroke="#888" stroke-width="1" opacity="1"/><line transform="translate(240,0)" x2="0" y2="5" stroke="#888" stroke-width="1" opacity="1"/><line transform="translate(270,0)" x2="0" y2="5" stroke="#888" stroke-width="1" opacity="1"/><line transform="translate(300,0)" x2="0" y2="5" stroke="#888" stroke-width="1" opacity="1"/></g><g class="mark-text role-axis-label" pointer-events="none"><text text-anchor="start" transform="translate(0,20)" font-family="monospace" font-size="16px" fill="#000" opacity="1">0.0</text><text text-anchor="middle" transform="translate(30,20)" font-family="monospace" font-size="16px" fill="#000" opacity="0">0.1</text><text text-anchor="middle" transform="translate(60,20)" font-family="monospace" font-size="16px" fill="#000" opacity="1">0.2</text><text text-anchor="middle" transform="translate(90,20)" font-family="monospace" font-size="16px" fill="#000" opacity="0">0.3</text><text text-anchor="middle" transform="translate(120,20)" font-family="monospace" font-size="16px" fill="#000" opacity="1">0.4</text><text text-anchor="middle" transform="translate(150,20)" font-family="monospace" font-size="16px" fill="#000" opacity="0">0.5</text><text text-anchor="middle" transform="translate(180,20)" font-family="monospace" font-size="16px" fill="#000" opacity="1">0.6</text><text text-anchor="middle" transform="translate(210,20)" font-family="monospace" font-size="16px" fill="#000" opacity="0">0.7</text><text text-anchor="middle" transform="translate(240,20)" font-family="monospace" font-size="16px" fill="#000" opacity="1">0.8</text><text text-anchor="middle" transform="translate(270,20)" font-family="monospace" font-size="16px" fill="#000" opacity="0">0.9</text><text text-anchor="end" transform="translate(300,20)" font-family="monospace" font-size="16px" fill="#000" opacity="1">1.0</text></g><g class="mark-rule role-axis-domain" pointer-events="none"><line transform="translate(0,0)" x2="300" y2="0" stroke="#888" stroke-width="1" opacity="1"/></g><g class="mark-text role-axis-title" pointer-events="none"><text text-anchor="middle" transform="translate(150,43)" font-family="sans-serif" font-size="20px" font-weight="bold" fill="#000" opacity="1">q / p</text></g></g><path class="foreground" aria-hidden="true" d="" pointer-events="none" display="none"/></g></g></g><path class="foreground" aria-hidden="true" d="" display="none"/></g><g transform="translate(652,303)"><path class="background" aria-hidden="true" d="M0,0h300v0h-300Z"/><g><g class="mark-group role-axis" role="graphics-symbol" aria-roledescription="axis" aria-label="X-axis titled 'q / p' for a linear scale with values from 0.0 to 1.0"><g transform="translate(0.5,0.5)"><path class="background" aria-hidden="true" d="M0,0h0v0h0Z" pointer-events="none"/><g><g class="mark-rule role-axis-tick" pointer-events="none"><line transform="translate(0,0)" x2="0" y2="5" stroke="#888" stroke-width="1" opacity="1"/><line transform="translate(30,0)" x2="0" y2="5" stroke="#888" stroke-width="1" opacity="1"/><line transform="translate(60,0)" x2="0" y2="5" stroke="#888" stroke-width="1" opacity="1"/><line transform="translate(90,0)" x2="0" y2="5" stroke="#888" stroke-width="1" opacity="1"/><line transform="translate(120,0)" x2="0" y2="5" stroke="#888" stroke-width="1" opacity="1"/><line transform="translate(150,0)" x2="0" y2="5" stroke="#888" stroke-width="1" opacity="1"/><line transform="translate(180,0)" x2="0" y2="5" stroke="#888" stroke-width="1" opacity="1"/><line transform="translate(210,0)" x2="0" y2="5" stroke="#888" stroke-width="1" opacity="1"/><line transform="translate(240,0)" x2="0" y2="5" stroke="#888" stroke-width="1" opacity="1"/><line transform="translate(270,0)" x2="0" y2="5" stroke="#888" stroke-width="1" opacity="1"/><line transform="translate(300,0)" x2="0" y2="5" stroke="#888" stroke-width="1" opacity="1"/></g><g class="mark-text role-axis-label" pointer-events="none"><text text-anchor="start" transform="translate(0,20)" font-family="monospace" font-size="16px" fill="#000" opacity="1">0.0</text><text text-anchor="middle" transform="translate(30,20)" font-family="monospace" font-size="16px" fill="#000" opacity="0">0.1</text><text text-anchor="middle" transform="translate(60,20)" font-family="monospace" font-size="16px" fill="#000" opacity="1">0.2</text><text text-anchor="middle" transform="translate(90,20)" font-family="monospace" font-size="16px" fill="#000" opacity="0">0.3</text><text text-anchor="middle" transform="translate(120,20)" font-family="monospace" font-size="16px" fill="#000" opacity="1">0.4</text><text text-anchor="middle" transform="translate(150,20)" font-family="monospace" font-size="16px" fill="#000" opacity="0">0.5</text><text text-anchor="middle" transform="translate(180,20)" font-family="monospace" font-size="16px" fill="#000" opacity="1">0.6</text><text text-anchor="middle" transform="translate(210,20)" font-family="monospace" font-size="16px" fill="#000" opacity="0">0.7</text><text text-anchor="middle" transform="translate(240,20)" font-family="monospace" font-size="16px" fill="#000" opacity="1">0.8</text><text text-anchor="middle" transform="translate(270,20)" font-family="monospace" font-size="16px" fill="#000" opacity="0">0.9</text><text text-anchor="end" transform="translate(300,20)" font-family="monospace" font-size="16px" fill="#000" opacity="1">1.0</text></g><g class="mark-rule role-axis-domain" pointer-events="none"><line transform="translate(0,0)" x2="300" y2="0" stroke="#888" stroke-width="1" opacity="1"/></g><g class="mark-text role-axis-title" pointer-events="none"><text text-anchor="middle" transform="translate(150,43)" font-family="sans-serif" font-size="20px" font-weight="bold" fill="#000" opacity="1">q / p</text></g></g><path class="foreground" aria-hidden="true" d="" pointer-events="none" display="none"/></g></g></g><path class="foreground" aria-hidden="true" d="" display="none"/></g><g transform="translate(978,303)"><path class="background" aria-hidden="true" d="M0,0h300v0h-300Z"/><g><g class="mark-group role-axis" role="graphics-symbol" aria-roledescription="axis" aria-label="X-axis titled 'q / p' for a linear scale with values from 0.0 to 1.0"><g transform="translate(0.5,0.5)"><path class="background" aria-hidden="true" d="M0,0h0v0h0Z" pointer-events="none"/><g><g class="mark-rule role-axis-tick" pointer-events="none"><line transform="translate(0,0)" x2="0" y2="5" stroke="#888" stroke-width="1" opacity="1"/><line transform="translate(30,0)" x2="0" y2="5" stroke="#888" stroke-width="1" opacity="1"/><line transform="translate(60,0)" x2="0" y2="5" stroke="#888" stroke-width="1" opacity="1"/><line transform="translate(90,0)" x2="0" y2="5" stroke="#888" stroke-width="1" opacity="1"/><line transform="translate(120,0)" x2="0" y2="5" stroke="#888" stroke-width="1" opacity="1"/><line transform="translate(150,0)" x2="0" y2="5" stroke="#888" stroke-width="1" opacity="1"/><line transform="translate(180,0)" x2="0" y2="5" stroke="#888" stroke-width="1" opacity="1"/><line transform="translate(210,0)" x2="0" y2="5" stroke="#888" stroke-width="1" opacity="1"/><line transform="translate(240,0)" x2="0" y2="5" stroke="#888" stroke-width="1" opacity="1"/><line transform="translate(270,0)" x2="0" y2="5" stroke="#888" stroke-width="1" opacity="1"/><line transform="translate(300,0)" x2="0" y2="5" stroke="#888" stroke-width="1" opacity="1"/></g><g class="mark-text role-axis-label" pointer-events="none"><text text-anchor="start" transform="translate(0,20)" font-family="monospace" font-size="16px" fill="#000" opacity="1">0.0</text><text text-anchor="middle" transform="translate(30,20)" font-family="monospace" font-size="16px" fill="#000" opacity="0">0.1</text><text text-anchor="middle" transform="translate(60,20)" font-family="monospace" font-size="16px" fill="#000" opacity="1">0.2</text><text text-anchor="middle" transform="translate(90,20)" font-family="monospace" font-size="16px" fill="#000" opacity="0">0.3</text><text text-anchor="middle" transform="translate(120,20)" font-family="monospace" font-size="16px" fill="#000" opacity="1">0.4</text><text text-anchor="middle" transform="translate(150,20)" font-family="monospace" font-size="16px" fill="#000" opacity="0">0.5</text><text text-anchor="middle" transform="translate(180,20)" font-family="monospace" font-size="16px" fill="#000" opacity="1">0.6</text><text text-anchor="middle" transform="translate(210,20)" font-family="monospace" font-size="16px" fill="#000" opacity="0">0.7</text><text text-anchor="middle" transform="translate(240,20)" font-family="monospace" font-size="16px" fill="#000" opacity="1">0.8</text><text text-anchor="middle" transform="translate(270,20)" font-family="monospace" font-size="16px" fill="#000" opacity="0">0.9</text><text text-anchor="end" transform="translate(300,20)" font-family="monospace" font-size="16px" fill="#000" opacity="1">1.0</text></g><g class="mark-rule role-axis-domain" pointer-events="none"><line transform="translate(0,0)" x2="300" y2="0" stroke="#888" stroke-width="1" opacity="1"/></g><g class="mark-text role-axis-title" pointer-events="none"><text text-anchor="middle" transform="translate(150,43)" font-family="sans-serif" font-size="20px" font-weight="bold" fill="#000" opacity="1">q / p</text></g></g><path class="foreground" aria-hidden="true" d="" pointer-events="none" display="none"/></g></g></g><path class="foreground" aria-hidden="true" d="" display="none"/></g></g><g class="mark-group role-scope cell" role="graphics-object" aria-roledescription="group mark container"><g transform="translate(0,0)"><path class="background" aria-hidden="true" d="M0.5,0.5h300v300h-300Z" stroke="#ddd"/><g><g class="mark-group role-scope child_pathgroup" role="graphics-object" aria-roledescription="group mark container"><g transform="translate(0,0)"><path class="background" aria-hidden="true" d="M0,0h300v300h-300Z"/><g><g class="mark-line role-mark child_marks" role="graphics-object" aria-roledescription="line mark container"><path aria-label="q / p: 0; δ: 0; N / E: 1" role="graphics-symbol" aria-roledescription="line mark" d="M0,300L3,274.608L15,241.119L30,217.222L60,179.086L90,151.827L120,127.419L150,108.772L180,90.887L210,78.169L240,68.185L270,57.667L300,51.156" stroke="rgb(181, 212, 233)" stroke-width="2"/></g></g><path class="foreground" aria-hidden="true" d="" display="none"/></g><g transform="translate(0,0)"><path class="background" aria-hidden="true" d="M0,0h300v300h-300Z"/><g><g class="mark-line role-mark child_marks" role="graphics-object" aria-roledescription="line mark container"><path aria-label="q / p: 0; δ: 0; N / E: 1.5" role="graphics-symbol" aria-roledescription="line mark" d="M0,300L3,272.14L15,236.779L30,208.925L60,166.099L90,133.658L120,110.457L150,93.859L180,79.741L210,70.283L240,60.226L270,53.473L300,46.312" stroke="rgb(147, 195, 223)" stroke-width="2"/></g></g><path class="foreground" aria-hidden="true" d="" display="none"/></g><g transform="translate(0,0)"><path class="background" aria-hidden="true" d="M0,0h300v300h-300Z"/><g><g class="mark-line role-mark child_marks" role="graphics-object" aria-roledescription="line mark container"><path aria-label="q / p: 0; δ: 0; N / E: 2.5" role="graphics-symbol" aria-roledescription="line mark" d="M0,300L3,273.502L15,234.206L30,200.632L60,158.208L90,128.286L120,109.17L150,93.841L180,81.735L210,75.336L240,65.712L270,58.895L300,54.036" stroke="rgb(109, 174, 213)" stroke-width="2"/></g></g><path class="foreground" aria-hidden="true" d="" display="none"/></g><g transform="translate(0,0)"><path class="background" aria-hidden="true" d="M0,0h300v300h-300Z"/><g><g class="mark-line role-mark child_marks" role="graphics-object" aria-roledescription="line mark container"><path aria-label="q / p: 0; δ: 0; N / E: 3.5" role="graphics-symbol" aria-roledescription="line mark" d="M0,300L3,274.462L15,234.735L30,201.922L60,160.05L90,132.389L120,113.808L150,99.281L180,88.659L210,80.189L240,72.169L270,65.046L300,59.674" stroke="rgb(75, 151, 201)" stroke-width="2"/></g></g><path class="foreground" aria-hidden="true" d="" display="none"/></g><g transform="translate(0,0)"><path class="background" aria-hidden="true" d="M0,0h300v300h-300Z"/><g><g class="mark-line role-mark child_marks" role="graphics-object" aria-roledescription="line mark container"><path aria-label="q / p: 0; δ: 0; N / E: 5" role="graphics-symbol" aria-roledescription="line mark" d="M0,300L3,275.803L15,238.014L30,204.758L60,166.352L90,142.862L120,123.873L150,110.808L180,98.786L210,84.849L240,76.498L270,67.304L300,64.224" stroke="rgb(47, 126, 187)" stroke-width="2"/></g></g><path class="foreground" aria-hidden="true" d="" display="none"/></g><g transform="translate(0,0)"><path class="background" aria-hidden="true" d="M0,0h300v300h-300Z"/><g><g class="mark-line role-mark child_marks" role="graphics-object" aria-roledescription="line mark container"><path aria-label="q / p: 0; δ: 0; N / E: 10" role="graphics-symbol" aria-roledescription="line mark" d="M0,300L3,280.613L15,245.811L30,220.63L60,188.852L90,166.337L120,147.466L150,128.064L180,115.463L210,101.405L240,85.38L270,76.425L300,65.534" stroke="rgb(24, 100, 170)" stroke-width="2"/></g></g><path class="foreground" aria-hidden="true" d="" display="none"/></g></g><g class="mark-group role-title"><g transform="translate(150,-28)"><path class="background" aria-hidden="true" d="M0,0h0v0h0Z" pointer-events="none"/><g><g class="mark-text role-title-text" role="graphics-symbol" aria-roledescription="title" aria-label="Title text 'majority'" pointer-events="none"><text text-anchor="middle" transform="translate(0,14)" font-family="sans-serif" font-size="18px" fill="#000" opacity="1">majority</text></g></g><path class="foreground" aria-hidden="true" d="" pointer-events="none" display="none"/></g></g></g><path class="foreground" aria-hidden="true" d="" display="none"/></g><g transform="translate(326,0)"><path class="background" aria-hidden="true" d="M0.5,0.5h300v300h-300Z" stroke="#ddd"/><g><g class="mark-group role-scope child_pathgroup" role="graphics-object" aria-roledescription="group mark container"><g transform="translate(0,0)"><path class="background" aria-hidden="true" d="M0,0h300v300h-300Z"/><g><g class="mark-line role-mark child_marks" role="graphics-object" aria-roledescription="line mark container"><path aria-label="q / p: 0; δ: 0; N / E: 1" role="graphics-symbol" aria-roledescription="line mark" d="M0,300L3,273.116L15,240.337L30,214.063L60,179.344L90,152.525L120,129.186L150,110.845L180,91.53L210,78.632L240,67.742L270,58.113L300,48.917" stroke="rgb(181, 212, 233)" stroke-width="2"/></g></g><path class="foreground" aria-hidden="true" d="" display="none"/></g><g transform="translate(0,0)"><path class="background" aria-hidden="true" d="M0,0h300v300h-300Z"/><g><g class="mark-line role-mark child_marks" role="graphics-object" aria-roledescription="line mark container"><path aria-label="q / p: 0; δ: 0; N / E: 1.5" role="graphics-symbol" aria-roledescription="line mark" d="M0,300L3,267.85L15,228.264L30,198.225L60,156.174L90,127.103L120,103.235L150,85.58L180,71.239L210,62.141L240,53.566L270,50.408L300,48.086" stroke="rgb(147, 195, 223)" stroke-width="2"/></g></g><path class="foreground" aria-hidden="true" d="" display="none"/></g><g transform="translate(0,0)"><path class="background" aria-hidden="true" d="M0,0h300v300h-300Z"/><g><g class="mark-line role-mark child_marks" role="graphics-object" aria-roledescription="line mark container"><path aria-label="q / p: 0; δ: 0; N / E: 2.5" role="graphics-symbol" aria-roledescription="line mark" d="M0,300L3,259.256L15,207.756L30,171.706L60,122.313L90,89.168L120,69.338L150,57.75L180,51.738L210,46.447L240,49.034L270,53.478L300,54.806" stroke="rgb(109, 174, 213)" stroke-width="2"/></g></g><path class="foreground" aria-hidden="true" d="" display="none"/></g><g transform="translate(0,0)"><path class="background" aria-hidden="true" d="M0,0h300v300h-300Z"/><g><g class="mark-line role-mark child_marks" role="graphics-object" aria-roledescription="line mark container"><path aria-label="q / p: 0; δ: 0; N / E: 3.5" role="graphics-symbol" aria-roledescription="line mark" d="M0,300L3,251.717L15,192.199L30,147.87L60,92.216L90,59.939L120,47.528L150,42.982L180,43.699L210,46.1L240,52.792L270,56.732L300,62.924" stroke="rgb(75, 151, 201)" stroke-width="2"/></g></g><path class="foreground" aria-hidden="true" d="" display="none"/></g><g transform="translate(0,0)"><path class="background" aria-hidden="true" d="M0,0h300v300h-300Z"/><g><g class="mark-line role-mark child_marks" role="graphics-object" aria-roledescription="line mark container"><path aria-label="q / p: 0; δ: 0; N / E: 5" role="graphics-symbol" aria-roledescription="line mark" d="M0,300L3,241.945L15,171.1L30,118.281L60,59.978L90,34.748L120,32.962L150,38.406L180,47.361L210,53.544L240,55.906L270,61.451L300,61.796" stroke="rgb(47, 126, 187)" stroke-width="2"/></g></g><path class="foreground" aria-hidden="true" d="" display="none"/></g><g transform="translate(0,0)"><path class="background" aria-hidden="true" d="M0,0h300v300h-300Z"/><g><g class="mark-line role-mark child_marks" role="graphics-object" aria-roledescription="line mark container"><path aria-label="q / p: 0; δ: 0; N / E: 10" role="graphics-symbol" aria-roledescription="line mark" d="M0,300L3,217.204L15,114.435L30,50.883L60,8.539L90,23.719L120,41.636L150,53.043L180,60.323L210,60.958L240,64.02L270,64.733L300,65.886" stroke="rgb(24, 100, 170)" stroke-width="2"/></g></g><path class="foreground" aria-hidden="true" d="" display="none"/></g></g><g class="mark-group role-title"><g transform="translate(150,-28)"><path class="background" aria-hidden="true" d="M0,0h0v0h0Z" pointer-events="none"/><g><g class="mark-text role-title-text" role="graphics-symbol" aria-roledescription="title" aria-label="Title text 'max'" pointer-events="none"><text text-anchor="middle" transform="translate(0,14)" font-family="sans-serif" font-size="18px" fill="#000" opacity="1">max</text></g></g><path class="foreground" aria-hidden="true" d="" pointer-events="none" display="none"/></g></g></g><path class="foreground" aria-hidden="true" d="" display="none"/></g><g transform="translate(652,0)"><path class="background" aria-hidden="true" d="M0.5,0.5h300v300h-300Z" stroke="#ddd"/><g><g class="mark-group role-scope child_pathgroup" role="graphics-object" aria-roledescription="group mark container"><g transform="translate(0,0)"><path class="background" aria-hidden="true" d="M0,0h300v300h-300Z"/><g><g class="mark-line role-mark child_marks" role="graphics-object" aria-roledescription="line mark container"><path aria-label="q / p: 0; δ: 0; N / E: 1" role="graphics-symbol" aria-roledescription="line mark" d="M0,300L3,268.724L15,230.366L30,201.122L60,159.742L90,131.646L120,106.052L150,89.502L180,72.747L210,66.972L240,60.73L270,55.071L300,49.543" stroke="rgb(181, 212, 233)" stroke-width="2"/></g></g><path class="foreground" aria-hidden="true" d="" display="none"/></g><g transform="translate(0,0)"><path class="background" aria-hidden="true" d="M0,0h300v300h-300Z"/><g><g class="mark-line role-mark child_marks" role="graphics-object" aria-roledescription="line mark container"><path aria-label="q / p: 0; δ: 0; N / E: 1.5" role="graphics-symbol" aria-roledescription="line mark" d="M0,300L3,265.066L15,219.279L30,180.52L60,133.343L90,102.251L120,77.699L150,66.33L180,56.907L210,52.708L240,49.434L270,47.043L300,49.642" stroke="rgb(147, 195, 223)" stroke-width="2"/></g></g><path class="foreground" aria-hidden="true" d="" display="none"/></g><g transform="translate(0,0)"><path class="background" aria-hidden="true" d="M0,0h300v300h-300Z"/><g><g class="mark-line role-mark child_marks" role="graphics-object" aria-roledescription="line mark container"><path aria-label="q / p: 0; δ: 0; N / E: 2.5" role="graphics-symbol" aria-roledescription="line mark" d="M0,300L3,257.826L15,202.063L30,155.353L60,99.192L90,72.718L120,59.452L150,52.576L180,52.683L210,53.452L240,56.339L270,56.414L300,57.192" stroke="rgb(109, 174, 213)" stroke-width="2"/></g></g><path class="foreground" aria-hidden="true" d="" display="none"/></g><g transform="translate(0,0)"><path class="background" aria-hidden="true" d="M0,0h300v300h-300Z"/><g><g class="mark-line role-mark child_marks" role="graphics-object" aria-roledescription="line mark container"><path aria-label="q / p: 0; δ: 0; N / E: 3.5" role="graphics-symbol" aria-roledescription="line mark" d="M0,300L3,254.417L15,187.574L30,136.205L60,79.219L90,60.695L120,54.111L150,56.052L180,55.541L210,56.304L240,57.705L270,59.59L300,58.305" stroke="rgb(75, 151, 201)" stroke-width="2"/></g></g><path class="foreground" aria-hidden="true" d="" display="none"/></g><g transform="translate(0,0)"><path class="background" aria-hidden="true" d="M0,0h300v300h-300Z"/><g><g class="mark-line role-mark child_marks" role="graphics-object" aria-roledescription="line mark container"><path aria-label="q / p: 0; δ: 0; N / E: 5" role="graphics-symbol" aria-roledescription="line mark" d="M0,300L3,250.652L15,171.302L30,111.806L60,67.158L90,55.543L120,55.33L150,57.957L180,58.933L210,60.341L240,60.579L270,62.479L300,60.294" stroke="rgb(47, 126, 187)" stroke-width="2"/></g></g><path class="foreground" aria-hidden="true" d="" display="none"/></g><g transform="translate(0,0)"><path class="background" aria-hidden="true" d="M0,0h300v300h-300Z"/><g><g class="mark-line role-mark child_marks" role="graphics-object" aria-roledescription="line mark container"><path aria-label="q / p: 0; δ: 0; N / E: 10" role="graphics-symbol" aria-roledescription="line mark" d="M0,300L3,239.361L15,138.837L30,79.724L60,54.645L90,58.102L120,60.282L150,64.422L180,62.011L210,63.982L240,64.571L270,64.564L300,65.579" stroke="rgb(24, 100, 170)" stroke-width="2"/></g></g><path class="foreground" aria-hidden="true" d="" display="none"/></g></g><g class="mark-group role-title"><g transform="translate(150,-28)"><path class="background" aria-hidden="true" d="M0,0h0v0h0Z" pointer-events="none"/><g><g class="mark-text role-title-text" role="graphics-symbol" aria-roledescription="title" aria-label="Title text 'min'" pointer-events="none"><text text-anchor="middle" transform="translate(0,14)" font-family="sans-serif" font-size="18px" fill="#000" opacity="1">min</text></g></g><path class="foreground" aria-hidden="true" d="" pointer-events="none" display="none"/></g></g></g><path class="foreground" aria-hidden="true" d="" display="none"/></g><g transform="translate(978,0)"><path class="background" aria-hidden="true" d="M0.5,0.5h300v300h-300Z" stroke="#ddd"/><g><g class="mark-group role-scope child_pathgroup" role="graphics-object" aria-roledescription="group mark container"><g transform="translate(0,0)"><path class="background" aria-hidden="true" d="M0,0h300v300h-300Z"/><g><g class="mark-line role-mark child_marks" role="graphics-object" aria-roledescription="line mark container"><path aria-label="q / p: 0; δ: 0; N / E: 1" role="graphics-symbol" aria-roledescription="line mark" d="M0,300L3,273.34L15,239.541L30,212.912L60,173.919L90,145.328L120,121.442L150,102.257L180,86.643L210,73.436L240,65.563L270,56.196L300,49.346" stroke="rgb(181, 212, 233)" stroke-width="2"/></g></g><path class="foreground" aria-hidden="true" d="" display="none"/></g><g transform="translate(0,0)"><path class="background" aria-hidden="true" d="M0,0h300v300h-300Z"/><g><g class="mark-line role-mark child_marks" role="graphics-object" aria-roledescription="line mark container"><path aria-label="q / p: 0; δ: 0; N / E: 1.5" role="graphics-symbol" aria-roledescription="line mark" d="M0,300L3,269.478L15,229.058L30,200.443L60,155.842L90,120.842L120,98.855L150,81.582L180,69.114L210,59.762L240,55.746L270,51.781L300,48.271" stroke="rgb(147, 195, 223)" stroke-width="2"/></g></g><path class="foreground" aria-hidden="true" d="" display="none"/></g><g transform="translate(0,0)"><path class="background" aria-hidden="true" d="M0,0h300v300h-300Z"/><g><g class="mark-line role-mark child_marks" role="graphics-object" aria-roledescription="line mark container"><path aria-label="q / p: 0; δ: 0; N / E: 2.5" role="graphics-symbol" aria-roledescription="line mark" d="M0,300L3,264.898L15,220.3L30,182.396L60,134.61L90,99.677L120,81.571L150,70.496L180,65.395L210,59.394L240,56.399L270,55.248L300,56.398" stroke="rgb(109, 174, 213)" stroke-width="2"/></g></g><path class="foreground" aria-hidden="true" d="" display="none"/></g><g transform="translate(0,0)"><path class="background" aria-hidden="true" d="M0,0h300v300h-300Z"/><g><g class="mark-line role-mark child_marks" role="graphics-object" aria-roledescription="line mark container"><path aria-label="q / p: 0; δ: 0; N / E: 3.5" role="graphics-symbol" aria-roledescription="line mark" d="M0,300L3,263.59L15,212.097L30,171.883L60,122.368L90,93.848L120,77.352L150,66.306L180,64.35L210,60.302L240,59.694L270,59.155L300,59.982" stroke="rgb(75, 151, 201)" stroke-width="2"/></g></g><path class="foreground" aria-hidden="true" d="" display="none"/></g><g transform="translate(0,0)"><path class="background" aria-hidden="true" d="M0,0h300v300h-300Z"/><g><g class="mark-line role-mark child_marks" role="graphics-object" aria-roledescription="line mark container"><path aria-label="q / p: 0; δ: 0; N / E: 5" role="graphics-symbol" aria-roledescription="line mark" d="M0,300L3,260.056L15,204.313L30,161.96L60,112.112L90,85.064L120,74.357L150,67.475L180,64.346L210,62.364L240,62.174L270,61.847L300,63.853" stroke="rgb(47, 126, 187)" stroke-width="2"/></g></g><path class="foreground" aria-hidden="true" d="" display="none"/></g><g transform="translate(0,0)"><path class="background" aria-hidden="true" d="M0,0h300v300h-300Z"/><g><g class="mark-line role-mark child_marks" role="graphics-object" aria-roledescription="line mark container"><path aria-label="q / p: 0; δ: 0; N / E: 10" role="graphics-symbol" aria-roledescription="line mark" d="M0,300L3,255.165L15,189.402L30,143.791L60,98.386L90,79.683L120,70.931L150,70.319L180,65.367L210,64.733L240,66.558L270,65.287L300,67.202" stroke="rgb(24, 100, 170)" stroke-width="2"/></g></g><path class="foreground" aria-hidden="true" d="" display="none"/></g></g><g class="mark-group role-title"><g transform="translate(150,-28)"><path class="background" aria-hidden="true" d="M0,0h0v0h0Z" pointer-events="none"/><g><g class="mark-text role-title-text" role="graphics-symbol" aria-roledescription="title" aria-label="Title text 'weighted'" pointer-events="none"><text text-anchor="middle" transform="translate(0,14)" font-family="sans-serif" font-size="18px" fill="#000" opacity="1">weighted</text></g></g><path class="foreground" aria-hidden="true" d="" pointer-events="none" display="none"/></g></g></g><path class="foreground" aria-hidden="true" d="" display="none"/></g></g><g class="mark-group role-legend" role="graphics-symbol" aria-roledescription="legend" aria-label="Symbol legend titled 'N / E' for stroke color with 6 values: 1, 1.5, 2.5, 3.5, 5, 10"><g transform="translate(1299,0)"><path class="background" aria-hidden="true" d="M0,0h45v131h-45Z" pointer-events="none"/><g><g class="mark-group role-legend-entry"><g transform="translate(0,25)"><path class="background" aria-hidden="true" d="M0,0h0v0h0Z" pointer-events="none"/><g><g class="mark-group role-scope" role="graphics-object" aria-roledescription="group mark container"><g transform="translate(0,0)"><path class="background" aria-hidden="true" d="M0,0h42.2421875v16h-42.2421875Z" pointer-events="none" opacity="1"/><g><g class="mark-symbol role-legend-symbol" pointer-events="none"><path transform="translate(8,8)" d="M-5,0L5,0" stroke="rgb(181, 212, 233)" stroke-width="1.5" opacity="1"/></g><g class="mark-text role-legend-label" pointer-events="none"><text text-anchor="start" transform="translate(20,13)" font-family="sans-serif" font-size="16px" fill="#000" opacity="1">1</text></g></g><path class="foreground" aria-hidden="true" d="" pointer-events="none" display="none"/></g><g transform="translate(0,18)"><path class="background" aria-hidden="true" d="M0,0h42.2421875v16h-42.2421875Z" pointer-events="none" opacity="1"/><g><g class="mark-symbol role-legend-symbol" pointer-events="none"><path transform="translate(8,8)" d="M-5,0L5,0" stroke="rgb(147, 195, 223)" stroke-width="1.5" opacity="1"/></g><g class="mark-text role-legend-label" pointer-events="none"><text text-anchor="start" transform="translate(20,13)" font-family="sans-serif" font-size="16px" fill="#000" opacity="1">1.5</text></g></g><path class="foreground" aria-hidden="true" d="" pointer-events="none" display="none"/></g><g transform="translate(0,36)"><path class="background" aria-hidden="true" d="M0,0h42.2421875v16h-42.2421875Z" pointer-events="none" opacity="1"/><g><g class="mark-symbol role-legend-symbol" pointer-events="none"><path transform="translate(8,8)" d="M-5,0L5,0" stroke="rgb(109, 174, 213)" stroke-width="1.5" opacity="1"/></g><g class="mark-text role-legend-label" pointer-events="none"><text text-anchor="start" transform="translate(20,13)" font-family="sans-serif" font-size="16px" fill="#000" opacity="1">2.5</text></g></g><path class="foreground" aria-hidden="true" d="" pointer-events="none" display="none"/></g><g transform="translate(0,54)"><path class="background" aria-hidden="true" d="M0,0h42.2421875v16h-42.2421875Z" pointer-events="none" opacity="1"/><g><g class="mark-symbol role-legend-symbol" pointer-events="none"><path transform="translate(8,8)" d="M-5,0L5,0" stroke="rgb(75, 151, 201)" stroke-width="1.5" opacity="1"/></g><g class="mark-text role-legend-label" pointer-events="none"><text text-anchor="start" transform="translate(20,13)" font-family="sans-serif" font-size="16px" fill="#000" opacity="1">3.5</text></g></g><path class="foreground" aria-hidden="true" d="" pointer-events="none" display="none"/></g><g transform="translate(0,72)"><path class="background" aria-hidden="true" d="M0,0h42.2421875v16h-42.2421875Z" pointer-events="none" opacity="1"/><g><g class="mark-symbol role-legend-symbol" pointer-events="none"><path transform="translate(8,8)" d="M-5,0L5,0" stroke="rgb(47, 126, 187)" stroke-width="1.5" opacity="1"/></g><g class="mark-text role-legend-label" pointer-events="none"><text text-anchor="start" transform="translate(20,13)" font-family="sans-serif" font-size="16px" fill="#000" opacity="1">5</text></g></g><path class="foreground" aria-hidden="true" d="" pointer-events="none" display="none"/></g><g transform="translate(0,90)"><path class="background" aria-hidden="true" d="M0,0h42.2421875v16h-42.2421875Z" pointer-events="none" opacity="1"/><g><g class="mark-symbol role-legend-symbol" pointer-events="none"><path transform="translate(8,8)" d="M-5,0L5,0" stroke="rgb(24, 100, 170)" stroke-width="1.5" opacity="1"/></g><g class="mark-text role-legend-label" pointer-events="none"><text text-anchor="start" transform="translate(20,13)" font-family="sans-serif" font-size="16px" fill="#000" opacity="1">10</text></g></g><path class="foreground" aria-hidden="true" d="" pointer-events="none" display="none"/></g></g></g><path class="foreground" aria-hidden="true" d="" pointer-events="none" display="none"/></g></g><g class="mark-text role-legend-title" pointer-events="none"><text text-anchor="start" transform="translate(0,16)" font-family="sans-serif" font-size="20px" font-weight="bold" fill="#000" opacity="1">N / E</text></g></g><path class="foreground" aria-hidden="true" d="" pointer-events="none" display="none"/></g></g></g><path class="foreground" aria-hidden="true" d="" display="none"/></g></g></g></svg>