<svg xmlns="http://www.w3.org/2000/svg" xmlns:xlink="http://www.w3.org/1999/xlink" version="1.1" class="marks" width="1439" height="419" viewBox="0 0 1439 419"><rect width="1439" height="419" fill="white"/><g fill="none" stroke-miterlimit="10" transform="translate(90,64)"><g class="mark-group role-frame root" role="graphics-object" aria-roledescription="group mark container"><g transform="translate(0,0)"><path class="background" aria-hidden="true" d="M0,0h0v0h0Z"/><g><g class="mark-group role-column-title facet-title" role="graphics-object" aria-roledescription="group mark container"><g transform="translate(639,-29)"><path class="background" aria-hidden="true" d="M0,0h0v0h0Z"/><g><g class="mark-group role-title"><g transform="translate(0,-30)"><path class="background" aria-hidden="true" d="M0,0h0v0h0Z" pointer-events="none"/><g><g class="mark-text role-title-text" role="graphics-symbol" aria-roledescription="title" aria-label="Title text 'Strategy'" pointer-events="none"><text text-anchor="middle" transform="translate(0,16)" font-family="sans-serif" font-size="20px" font-weight="bold" fill="#000" opacity="1">Strategy</text></g></g><path class="foreground" aria-hidden="true" d="" pointer-events="none" display="none"/></g></g></g><path class="foreground" aria-hidden="true" d="" display="none"/></g></g><g class="mark-group role-row-header row_header" role="graphics-object" aria-roledescription="group mark container"><g transform="translate(-3,0)"><path class="background" aria-hidden="true" d="M0,0h0v300h0Z"/><g><g class="mark-group role-axis" role="graphics-symbol" aria-roledescription="axis" aria-label="Y-axis titled 'P(G)' for a linear scale with values from 0 to 8"><g transform="translate(0.5,0.5)"><path class="background" aria-hidden="true" d="M0,0h0v0h0Z" pointer-events="none"/><g><g class="mark-rule role-axis-tick" pointer-events="none"><line transform="translate(0,300)" x2="-5" y2="0" stroke="#888" stroke-width="1" opacity="1"/><line transform="translate(0,263)" x2="-5" y2="0" stroke="#888" stroke-width="1" opacity="1"/><line transform="translate(0,225)" x2="-5" y2="0" stroke="#888" stroke-width="1" opacity="1"/><line transform="translate(0,188)" x2="-5" y2="0" stroke="#888" stroke-width="1" opacity="1"/><line transform="translate(0,150)" x2="-5" y2="0" stroke="#888" stroke-width="1" opacity="1"/><line transform="translate(0,113)" x2="-5" y2="0" stroke="#888" stroke-width="1" opacity="1"/><line transform="translate(0,75)" x2="-5" y2="0" stroke="#888" stroke-width="1" opacity="1"/><line transform="translate(0,38)" x2="-5" y2="0" stroke="#888" stroke-width="1" opacity="1"/><line transform="translate(0,0)" x2="-5" y2="0" stroke="#888" stroke-width="1" opacity="1"/></g><g class="mark-text role-axis-label" pointer-events="none"><text text-anchor="end" transform="translate(-7,305)" font-family="monospace" font-size="16px" fill="#000" opacity="1">0</text><text text-anchor="end" transform="translate(-7,267.5)" font-family="monospace" font-size="16px" fill="#000" opacity="1">1</text><text text-anchor="end" transform="translate(-7,230)" font-family="monospace" font-size="16px" fill="#000" opacity="1">2</text><text text-anchor="end" transform="translate(-7,192.5)" font-family="monospace" font-size="16px" fill="#000" opacity="1">3</text><text text-anchor="end" transform="translate(-7,155)" font-family="monospace" font-size="16px" fill="#000" opacity="1">4</text><text text-anchor="end" transform="translate(-7,117.5)" font-family="monospace" font-size="16px" fill="#000" opacity="1">5</text><text text-anchor="end" transform="translate(-7,80)" font-family="monospace" font-size="16px" fill="#000" opacity="1">6</text><text text-anchor="end" transform="translate(-7,42.5)" font-family="monospace" font-size="16px" fill="#000" opacity="1">7</text><text text-anchor="end" transform="translate(-7,5)" font-family="monospace" font-size="16px" fill="#000" opacity="1">8</text></g><g class="mark-text role-axis-title" pointer-events="none"><text text-anchor="middle" transform="translate(-60,146)" font-family="sans-serif" font-size="20px" font-weight="bold" fill="#000" opacity="1">P(G)</text></g></g><path class="foreground" aria-hidden="true" d="" pointer-events="none" display="none"/></g></g></g><path class="foreground" aria-hidden="true" d="" display="none"/></g></g><g class="mark-group role-column-footer column_footer" role="graphics-object" aria-roledescription="group mark container"><g transform="translate(0,303)"><path class="background" aria-hidden="true" d="M0,0h300v0h-300Z"/><g><g class="mark-group role-axis" role="graphics-symbol" aria-roledescription="axis" aria-label="X-axis titled 'G' for a linear scale with values from 0.0 to 1.0"><g transform="translate(0.5,0.5)"><path class="background" aria-hidden="true" d="M0,0h0v0h0Z" pointer-events="none"/><g><g class="mark-rule role-axis-tick" pointer-events="none"><line transform="translate(0,0)" x2="0" y2="5" stroke="#888" stroke-width="1" opacity="1"/><line transform="translate(30,0)" x2="0" y2="5" stroke="#888" stroke-width="1" opacity="1"/><line transform="translate(60,0)" x2="0" y2="5" stroke="#888" stroke-width="1" opacity="1"/><line transform="translate(90,0)" x2="0" y2="5" stroke="#888" stroke-width="1" opacity="1"/><line transform="translate(120,0)" x2="0" y2="5" stroke="#888" stroke-width="1" opacity="1"/><line transform="translate(150,0)" x2="0" y2="5" stroke="#888" stroke-width="1" opacity="1"/><line transform="translate(180,0)" x2="0" y2="5" stroke="#888" stroke-width="1" opacity="1"/><line transform="translate(210,0)" x2="0" y2="5" stroke="#888" stroke-width="1" opacity="1"/><line transform="translate(240,0)" x2="0" y2="5" stroke="#888" stroke-width="1" opacity="1"/><line transform="translate(270,0)" x2="0" y2="5" stroke="#888" stroke-width="1" opacity="1"/><line transform="translate(300,0)" x2="0" y2="5" stroke="#888" stroke-width="1" opacity="1"/></g><g class="mark-text role-axis-label" pointer-events="none"><text text-anchor="start" transform="translate(0,20)" font-family="monospace" font-size="16px" fill="#000" opacity="1">0.0</text><text text-anchor="middle" transform="translate(30,20)" font-family="monospace" font-size="16px" fill="#000" opacity="0">0.1</text><text text-anchor="middle" transform="translate(60,20)" font-family="monospace" font-size="16px" fill="#000" opacity="1">0.2</text><text text-anchor="middle" transform="translate(90,20)" font-family="monospace" font-size="16px" fill="#000" opacity="0">0.3</text><text text-anchor="middle" transform="translate(120,20)" font-family="monospace" font-size="16px" fill="#000" opacity="1">0.4</text><text text-anchor="middle" transform="translate(150,20)" font-family="monospace" font-size="16px" fill="#000" opacity="0">0.5</text><text text-anchor="middle" transform="translate(180,20)" font-family="monospace" font-size="16px" fill="#000" opacity="1">0.6</text><text text-anchor="middle" transform="translate(210,20)" font-family="monospace" font-size="16px" fill="#000" opacity="0">0.7</text><text text-anchor="middle" transform="translate(240,20)" font-family="monospace" font-size="16px" fill="#000" opacity="1">0.8</text><text text-anchor="middle" transform="translate(270,20)" font-family="monospace" font-size="16px" fill="#000" opacity="0">0.9</text><text text-anchor="end" transform="translate(300,20)" font-family="monospace" font-size="16px" fill="#000" opacity="1">1.0</text></g><g class="mark-rule role-axis-domain" pointer-events="none"><line transform="translate(0,0)" x2="300" y2="0" stroke="#888" stroke-width="1" opacity="1"/></g><g class="mark-text role-axis-title" pointer-events="none"><text text-anchor="middle" transform="translate(150,43)" font-family="sans-serif" font-size="20px" font-weight="bold" fill="#000" opacity="1">G</text></g></g><path class="foreground" aria-hidden="true" d="" pointer-events="none" display="none"/></g></g></g><path class="foreground" aria-hidden="true" d="" display="none"/></g><g transform="translate(326,303)"><path class="background" aria-hidden="true" d="M0,0h300v0h-300Z"/><g><g class="mark-group role-axis" role="graphics-symbol" aria-roledescription="axis" aria-label="X-axis titled 'G' for a linear scale with values from 0.0 to 1.0"><g transform="translate(0.5,0.5)"><path class="background" aria-hidden="true" d="M0,0h0v0h0Z" pointer-events="none"/><g><g class="mark-rule role-axis-tick" pointer-events="none"><line transform="translate(0,0)" x2="0" y2="5" stroke="#888" stroke-width="1" opacity="1"/><line transform="translate(30,0)" x2="0" y2="5" stroke="#888" stroke-width="1" opacity="1"/><line transform="translate(60,0)" x2="0" y2="5" stroke="#888" stroke-width="1" opacity="1"/><line transform="translate(90,0)" x2="0" y2="5" stroke="#888" stroke-width="1" opacity="1"/><line transform="translate(120,0)" x2="0" y2="5" stroke="#888" stroke-width="1" opacity="1"/><line transform="translate(150,0)" x2="0" y2="5" stroke="#888" stroke-width="1" opacity="1"/><line transform="translate(180,0)" x2="0" y2="5" stroke="#888" stroke-width="1" opacity="1"/><line transform="translate(210,0)" x2="0" y2="5" stroke="#888" stroke-width="1" opacity="1"/><line transform="translate(240,0)" x2="0" y2="5" stroke="#888" stroke-width="1" opacity="1"/><line transform="translate(270,0)" x2="0" y2="5" stroke="#888" stroke-width="1" opacity="1"/><line transform="translate(300,0)" x2="0" y2="5" stroke="#888" stroke-width="1" opacity="1"/></g><g class="mark-text role-axis-label" pointer-events="none"><text text-anchor="start" transform="translate(0,20)" font-family="monospace" font-size="16px" fill="#000" opacity="1">0.0</text><text text-anchor="middle" transform="translate(30,20)" font-family="monospace" font-size="16px" fill="#000" opacity="0">0.1</text><text text-anchor="middle" transform="translate(60,20)" font-family="monospace" font-size="16px" fill="#000" opacity="1">0.2</text><text text-anchor="middle" transform="translate(90,20)" font-family="monospace" font-size="16px" fill="#000" opacity="0">0.3</text><text text-anchor="middle" transform="translate(120,20)" font-family="monospace" font-size="16px" fill="#000" opacity="1">0.4</text><text text-anchor="middle" transform="translate(150,20)" font-family="monospace" font-size="16px" fill="#000" opacity="0">0.5</text><text text-anchor="middle" transform="translate(180,20)" font-family="monospace" font-size="16px" fill="#000" opacity="1">0.6</text><text text-anchor="middle" transform="translate(210,20)" font-family="monospace" font-size="16px" fill="#000" opacity="0">0.7</text><text text-anchor="middle" transform="translate(240,20)" font-family="monospace" font-size="16px" fill="#000" opacity="1">0.8</text><text text-anchor="middle" transform="translate(270,20)" font-family="monospace" font-size="16px" fill="#000" opacity="0">0.9</text><text text-anchor="end" transform="translate(300,20)" font-family="monospace" font-size="16px" fill="#000" opacity="1">1.0</text></g><g class="mark-rule role-axis-domain" pointer-events="none"><line transform="translate(0,0)" x2="300" y2="0" stroke="#888" stroke-width="1" opacity="1"/></g><g class="mark-text role-axis-title" pointer-events="none"><text text-anchor="middle" transform="translate(150,43)" font-family="sans-serif" font-size="20px" font-weight="bold" fill="#000" opacity="1">G</text></g></g><path class="foreground" aria-hidden="true" d="" pointer-events="none" display="none"/></g></g></g><path class="foreground" aria-hidden="true" d="" display="none"/></g><g transform="translate(652,303)"><path class="background" aria-hidden="true" d="M0,0h300v0h-300Z"/><g><g class="mark-group role-axis" role="graphics-symbol" aria-roledescription="axis" aria-label="X-axis titled 'G' for a linear scale with values from 0.0 to 1.0"><g transform="translate(0.5,0.5)"><path class="background" aria-hidden="true" d="M0,0h0v0h0Z" pointer-events="none"/><g><g class="mark-rule role-axis-tick" pointer-events="none"><line transform="translate(0,0)" x2="0" y2="5" stroke="#888" stroke-width="1" opacity="1"/><line transform="translate(30,0)" x2="0" y2="5" stroke="#888" stroke-width="1" opacity="1"/><line transform="translate(60,0)" x2="0" y2="5" stroke="#888" stroke-width="1" opacity="1"/><line transform="translate(90,0)" x2="0" y2="5" stroke="#888" stroke-width="1" opacity="1"/><line transform="translate(120,0)" x2="0" y2="5" stroke="#888" stroke-width="1" opacity="1"/><line transform="translate(150,0)" x2="0" y2="5" stroke="#888" stroke-width="1" opacity="1"/><line transform="translate(180,0)" x2="0" y2="5" stroke="#888" stroke-width="1" opacity="1"/><line transform="translate(210,0)" x2="0" y2="5" stroke="#888" stroke-width="1" opacity="1"/><line transform="translate(240,0)" x2="0" y2="5" stroke="#888" stroke-width="1" opacity="1"/><line transform="translate(270,0)" x2="0" y2="5" stroke="#888" stroke-width="1" opacity="1"/><line transform="translate(300,0)" x2="0" y2="5" stroke="#888" stroke-width="1" opacity="1"/></g><g class="mark-text role-axis-label" pointer-events="none"><text text-anchor="start" transform="translate(0,20)" font-family="monospace" font-size="16px" fill="#000" opacity="1">0.0</text><text text-anchor="middle" transform="translate(30,20)" font-family="monospace" font-size="16px" fill="#000" opacity="0">0.1</text><text text-anchor="middle" transform="translate(60,20)" font-family="monospace" font-size="16px" fill="#000" opacity="1">0.2</text><text text-anchor="middle" transform="translate(90,20)" font-family="monospace" font-size="16px" fill="#000" opacity="0">0.3</text><text text-anchor="middle" transform="translate(120,20)" font-family="monospace" font-size="16px" fill="#000" opacity="1">0.4</text><text text-anchor="middle" transform="translate(150,20)" font-family="monospace" font-size="16px" fill="#000" opacity="0">0.5</text><text text-anchor="middle" transform="translate(180,20)" font-family="monospace" font-size="16px" fill="#000" opacity="1">0.6</text><text text-anchor="middle" transform="translate(210,20)" font-family="monospace" font-size="16px" fill="#000" opacity="0">0.7</text><text text-anchor="middle" transform="translate(240,20)" font-family="monospace" font-size="16px" fill="#000" opacity="1">0.8</text><text text-anchor="middle" transform="translate(270,20)" font-family="monospace" font-size="16px" fill="#000" opacity="0">0.9</text><text text-anchor="end" transform="translate(300,20)" font-family="monospace" font-size="16px" fill="#000" opacity="1">1.0</text></g><g class="mark-rule role-axis-domain" pointer-events="none"><line transform="translate(0,0)" x2="300" y2="0" stroke="#888" stroke-width="1" opacity="1"/></g><g class="mark-text role-axis-title" pointer-events="none"><text text-anchor="middle" transform="translate(150,43)" font-family="sans-serif" font-size="20px" font-weight="bold" fill="#000" opacity="1">G</text></g></g><path class="foreground" aria-hidden="true" d="" pointer-events="none" display="none"/></g></g></g><path class="foreground" aria-hidden="true" d="" display="none"/></g><g transform="translate(978,303)"><path class="background" aria-hidden="true" d="M0,0h300v0h-300Z"/><g><g class="mark-group role-axis" role="graphics-symbol" aria-roledescription="axis" aria-label="X-axis titled 'G' for a linear scale with values from 0.0 to 1.0"><g transform="translate(0.5,0.5)"><path class="background" aria-hidden="true" d="M0,0h0v0h0Z" pointer-events="none"/><g><g class="mark-rule role-axis-tick" pointer-events="none"><line transform="translate(0,0)" x2="0" y2="5" stroke="#888" stroke-width="1" opacity="1"/><line transform="translate(30,0)" x2="0" y2="5" stroke="#888" stroke-width="1" opacity="1"/><line transform="translate(60,0)" x2="0" y2="5" stroke="#888" stroke-width="1" opacity="1"/><line transform="translate(90,0)" x2="0" y2="5" stroke="#888" stroke-width="1" opacity="1"/><line transform="translate(120,0)" x2="0" y2="5" stroke="#888" stroke-width="1" opacity="1"/><line transform="translate(150,0)" x2="0" y2="5" stroke="#888" stroke-width="1" opacity="1"/><line transform="translate(180,0)" x2="0" y2="5" stroke="#888" stroke-width="1" opacity="1"/><line transform="translate(210,0)" x2="0" y2="5" stroke="#888" stroke-width="1" opacity="1"/><line transform="translate(240,0)" x2="0" y2="5" stroke="#888" stroke-width="1" opacity="1"/><line transform="translate(270,0)" x2="0" y2="5" stroke="#888" stroke-width="1" opacity="1"/><line transform="translate(300,0)" x2="0" y2="5" stroke="#888" stroke-width="1" opacity="1"/></g><g class="mark-text role-axis-label" pointer-events="none"><text text-anchor="start" transform="translate(0,20)" font-family="monospace" font-size="16px" fill="#000" opacity="1">0.0</text><text text-anchor="middle" transform="translate(30,20)" font-family="monospace" font-size="16px" fill="#000" opacity="0">0.1</text><text text-anchor="middle" transform="translate(60,20)" font-family="monospace" font-size="16px" fill="#000" opacity="1">0.2</text><text text-anchor="middle" transform="translate(90,20)" font-family="monospace" font-size="16px" fill="#000" opacity="0">0.3</text><text text-anchor="middle" transform="translate(120,20)" font-family="monospace" font-size="16px" fill="#000" opacity="1">0.4</text><text text-anchor="middle" transform="translate(150,20)" font-family="monospace" font-size="16px" fill="#000" opacity="0">0.5</text><text text-anchor="middle" transform="translate(180,20)" font-family="monospace" font-size="16px" fill="#000" opacity="1">0.6</text><text text-anchor="middle" transform="translate(210,20)" font-family="monospace" font-size="16px" fill="#000" opacity="0">0.7</text><text text-anchor="middle" transform="translate(240,20)" font-family="monospace" font-size="16px" fill="#000" opacity="1">0.8</text><text text-anchor="middle" transform="translate(270,20)" font-family="monospace" font-size="16px" fill="#000" opacity="0">0.9</text><text text-anchor="end" transform="translate(300,20)" font-family="monospace" font-size="16px" fill="#000" opacity="1">1.0</text></g><g class="mark-rule role-axis-domain" pointer-events="none"><line transform="translate(0,0)" x2="300" y2="0" stroke="#888" stroke-width="1" opacity="1"/></g><g class="mark-text role-axis-title" pointer-events="none"><text text-anchor="middle" transform="translate(150,43)" font-family="sans-serif" font-size="20px" font-weight="bold" fill="#000" opacity="1">G</text></g></g><path class="foreground" aria-hidden="true" d="" pointer-events="none" display="none"/></g></g></g><path class="foreground" aria-hidden="true" d="" display="none"/></g></g><g class="mark-group role-scope cell" role="graphics-object" aria-roledescription="group mark container"><g transform="translate(0,0)"><path class="background" aria-hidden="true" d="M0.5,0.5h300v300h-300Z" stroke="#ddd"/><g><g class="mark-group role-scope child_pathgroup" role="graphics-object" aria-roledescription="group mark container"><g transform="translate(0,0)"><path class="background" aria-hidden="true" d="M0,0h300v300h-300Z"/><g><g class="mark-line role-mark child_marks" role="graphics-object" aria-roledescription="line mark container"><path aria-label="G: 0; P(G): 0.0436602642353; N / E: 1" role="graphics-symbol" aria-roledescription="line mark" d="M0,298.363L1.5,298.397L3,298.496L4.5,298.648L6,298.834L7.5,299.037L9,299.238L10.5,299.422L12,299.579L13.5,299.707L15,299.804L16.5,299.875L18,299.923L19.5,299.955L21,299.974L22.5,299.986L24,299.993L25.5,299.996L27,299.998L28.5,299.999L30,299.999L31.5,299.999L33,299.998L34.5,299.996L36,299.991L37.5,299.983L39,299.969L40.5,299.945L42,299.906L43.5,299.847L45,299.759L46.5,299.637L48,299.474L49.5,299.27L51,299.026L52.5,298.752L54,298.463L55.5,298.18L57,297.927L58.5,297.725L60,297.596L61.5,297.55L63,297.59L64.5,297.709L66,297.894L67.5,298.125L69,298.38L70.5,298.64L72,298.885L73.5,299.101L75,299.276L76.5,299.397L78,299.449L79.5,299.411L81,299.255L82.5,298.942L84,298.424L85.5,297.654L87,296.587L88.5,295.204L90,293.516L91.5,291.586L93,289.528L94.5,287.504L96,285.708L97.5,284.331L99,283.535L100.5,283.418L102,283.993L103.5,285.189L105,286.863L106.5,288.827L108,290.885L109.5,292.858L111,294.614L112.5,296.071L114,297.2L115.5,298.011L117,298.542L118.5,298.841L120,298.961L121.5,298.943L123,298.822L124.5,298.615L126,298.325L127.5,297.942L129,297.443L130.5,296.79L132,295.938L133.5,294.837L135,293.436L136.5,291.695L138,289.598L139.5,287.167L141,284.478L142.5,281.665L144,278.923L145.5,276.487L147,274.604L148.5,273.486L150,273.274L151.5,273.999L153,275.579L154.5,277.824L156,280.476L157.5,283.254L159,285.893L160.5,288.189L162,290.006L163.5,291.28L165,292.004L166.5,292.207L168,291.943L169.5,291.275L171,290.281L172.5,289.054L174,287.699L175.5,286.332L177,285.055L178.5,283.93L180,282.947L181.5,281.996L183,280.859L184.5,279.229L186,276.751L187.5,273.099L189,268.063L190.5,261.636L192,254.078L193.5,245.924L195,237.944L196.5,231.029L198,226.042L199.5,223.654L201,224.209L202.5,227.658L204,233.567L205.5,241.208L207,249.703L208.5,258.171L210,265.857L211.5,272.209L213,276.885L214.5,279.724L216,280.673L217.5,279.727L219,276.893L220.5,272.183L222,265.662L223.5,257.516L225,248.115L226.5,238.054L228,228.13L229.5,219.253L231,212.297L232.5,207.931L234,206.465L235.5,207.77L237,211.295L238.5,216.187L240,221.48L241.5,226.301L243,230.05L244.5,232.492L246,233.755L247.5,234.241L249,234.485L250.5,235.005L252,236.187L253.5,238.228L255,241.133L256.5,244.77L258,248.931L259.5,253.399L261,257.989L262.5,262.564L264,267.032L265.5,271.329L267,275.404L268.5,279.208L270,282.691L271.5,285.793L273,288.442L274.5,290.542L276,291.951L277.5,292.447L279,291.692L280.5,289.193L282,284.283L283.5,276.14L285,263.857L286.5,246.598L288,223.809L289.5,195.484L291,162.403L292.5,126.283L294,89.746L295.5,56.077L297,28.769L298.5,10.936L300,4.735" stroke="rgb(156, 200, 226)" stroke-width="2"/></g></g><path class="foreground" aria-hidden="true" d="" display="none"/></g><g transform="translate(0,0)"><path class="background" aria-hidden="true" d="M0,0h300v300h-300Z"/><g><g class="mark-line role-mark child_marks" role="graphics-object" aria-roledescription="line mark container"><path aria-label="G: 0; P(G): 0.0194475064254; N / E: 2.5" role="graphics-symbol" aria-roledescription="line mark" d="M0,299.271L1.5,299.282L3,299.317L4.5,299.37L6,299.438L7.5,299.514L9,299.593L10.5,299.669L12,299.738L13.5,299.798L15,299.845L16.5,299.88L18,299.903L19.5,299.914L21,299.914L22.5,299.904L24,299.883L25.5,299.853L27,299.815L28.5,299.767L30,299.711L31.5,299.647L33,299.577L34.5,299.501L36,299.419L37.5,299.33L39,299.232L40.5,299.12L42,298.987L43.5,298.825L45,298.624L46.5,298.373L48,298.066L49.5,297.698L51,297.274L52.5,296.803L54,296.302L55.5,295.794L57,295.306L58.5,294.862L60,294.488L61.5,294.199L63,294.007L64.5,293.911L66,293.908L67.5,293.988L69,294.135L70.5,294.337L72,294.577L73.5,294.839L75,295.104L76.5,295.351L78,295.55L79.5,295.667L81,295.658L82.5,295.478L84,295.081L85.5,294.431L87,293.506L88.5,292.311L90,290.882L91.5,289.289L93,287.633L94.5,286.04L96,284.641L97.5,283.558L99,282.884L100.5,282.668L102,282.903L103.5,283.527L105,284.429L106.5,285.466L108,286.481L109.5,287.327L111,287.882L112.5,288.065L114,287.844L115.5,287.233L117,286.291L118.5,285.104L120,283.78L121.5,282.425L123,281.134L124.5,279.977L126,278.988L127.5,278.164L129,277.469L130.5,276.836L132,276.185L133.5,275.434L135,274.517L136.5,273.393L138,272.061L139.5,270.557L141,268.954L142.5,267.351L144,265.863L145.5,264.598L147,263.644L148.5,263.052L150,262.828L151.5,262.93L153,263.277L154.5,263.757L156,264.248L157.5,264.637L159,264.829L160.5,264.762L162,264.404L163.5,263.746L165,262.8L166.5,261.583L168,260.117L169.5,258.429L171,256.554L172.5,254.543L174,252.468L175.5,250.422L177,248.507L178.5,246.821L180,245.437L181.5,244.377L183,243.608L184.5,243.033L186,242.509L187.5,241.874L189,240.981L190.5,239.734L192,238.117L193.5,236.201L195,234.136L196.5,232.123L198,230.371L199.5,229.053L201,228.274L202.5,228.048L204,228.305L205.5,228.909L207,229.692L208.5,230.494L210,231.184L211.5,231.685L213,231.968L214.5,232.043L216,231.941L217.5,231.699L219,231.347L220.5,230.904L222,230.388L223.5,229.823L225,229.246L226.5,228.715L228,228.304L229.5,228.088L231,228.129L232.5,228.455L234,229.046L235.5,229.83L237,230.691L238.5,231.483L240,232.059L241.5,232.293L243,232.101L244.5,231.454L246,230.372L247.5,228.919L249,227.184L250.5,225.267L252,223.262L253.5,221.257L255,219.329L256.5,217.555L258,216.015L259.5,214.799L261,214.006L262.5,213.745L264,214.121L265.5,215.226L267,217.132L268.5,219.872L270,223.439L271.5,227.771L273,232.756L274.5,238.223L276,243.951L277.5,249.673L279,255.09L280.5,259.883L282,263.74L283.5,266.379L285,267.576L286.5,267.201L288,265.247L289.5,261.849L291,257.295L292.5,252.017L294,246.554L295.5,241.506L297,237.455L298.5,234.901L300,234.19" stroke="rgb(91, 163, 207)" stroke-width="2"/></g></g><path class="foreground" aria-hidden="true" d="" display="none"/></g><g transform="translate(0,0)"><path class="background" aria-hidden="true" d="M0,0h300v300h-300Z"/><g><g class="mark-line role-mark child_marks" role="graphics-object" aria-roledescription="line mark container"><path aria-label="G: 0; P(G): 2.16581677805e-10; N / E: 10" role="graphics-symbol" aria-roledescription="line mark" d="M0,300L1.5,300L3,300L4.5,300L6,300L7.5,300L9,300L10.5,300L12,300L13.5,300L15,299.999L16.5,299.998L18,299.996L19.5,299.994L21,299.99L22.5,299.984L24,299.977L25.5,299.969L27,299.961L28.5,299.953L30,299.946L31.5,299.939L33,299.93L34.5,299.919L36,299.906L37.5,299.889L39,299.872L40.5,299.854L42,299.837L43.5,299.821L45,299.803L46.5,299.78L48,299.748L49.5,299.703L51,299.641L52.5,299.559L54,299.457L55.5,299.336L57,299.202L58.5,299.061L60,298.922L61.5,298.793L63,298.675L64.5,298.565L66,298.454L67.5,298.329L69,298.178L70.5,297.993L72,297.768L73.5,297.506L75,297.215L76.5,296.905L78,296.586L79.5,296.264L81,295.938L82.5,295.6L84,295.239L85.5,294.847L87,294.416L88.5,293.942L90,293.414L91.5,292.815L93,292.123L94.5,291.326L96,290.437L97.5,289.487L99,288.513L100.5,287.537L102,286.547L103.5,285.506L105,284.378L106.5,283.143L108,281.813L109.5,280.407L111,278.941L112.5,277.407L114,275.787L115.5,274.06L117,272.214L118.5,270.256L120,268.197L121.5,266.057L123,263.86L124.5,261.628L126,259.38L127.5,257.122L129,254.842L130.5,252.519L132,250.129L133.5,247.663L135,245.129L136.5,242.556L138,239.974L139.5,237.403L141,234.847L142.5,232.293L144,229.725L145.5,227.14L147,224.542L148.5,221.942L150,219.34L151.5,216.721L153,214.057L154.5,211.32L156,208.496L157.5,205.594L159,202.656L160.5,199.749L162,196.964L163.5,194.394L165,192.12L166.5,190.187L168,188.587L169.5,187.272L171,186.163L172.5,185.183L174,184.281L175.5,183.441L177,182.687L178.5,182.058L180,181.595L181.5,181.325L183,181.247L184.5,181.347L186,181.602L187.5,181.992L189,182.513L190.5,183.172L192,183.988L193.5,184.98L195,186.156L196.5,187.509L198,189.017L199.5,190.654L201,192.395L202.5,194.235L204,196.184L205.5,198.267L207,200.515L208.5,202.95L210,205.577L211.5,208.382L213,211.334L214.5,214.393L216,217.518L217.5,220.68L219,223.861L220.5,227.052L222,230.251L223.5,233.448L225,236.628L226.5,239.772L228,242.863L229.5,245.895L231,248.872L232.5,251.811L234,254.727L235.5,257.623L237,260.49L238.5,263.297L240,266.002L241.5,268.558L243,270.922L244.5,273.067L246,274.984L247.5,276.689L249,278.213L250.5,279.598L252,280.885L253.5,282.108L255,283.29L256.5,284.446L258,285.583L259.5,286.705L261,287.814L262.5,288.904L264,289.964L265.5,290.982L267,291.943L268.5,292.842L270,293.678L271.5,294.453L273,295.171L274.5,295.828L276,296.412L277.5,296.912L279,297.315L280.5,297.623L282,297.848L283.5,298.016L285,298.156L286.5,298.299L288,298.462L289.5,298.652L291,298.862L292.5,299.075L294,299.275L295.5,299.447L297,299.583L298.5,299.686L300,299.762" stroke="rgb(41, 120, 184)" stroke-width="2"/></g></g><path class="foreground" aria-hidden="true" d="" display="none"/></g></g><g class="mark-group role-title"><g transform="translate(150,-28)"><path class="background" aria-hidden="true" d="M0,0h0v0h0Z" pointer-events="none"/><g><g class="mark-text role-title-text" role="graphics-symbol" aria-roledescription="title" aria-label="Title text 'majority'" pointer-events="none"><text text-anchor="middle" transform="translate(0,14)" font-family="sans-serif" font-size="18px" fill="#000" opacity="1">majority</text></g></g><path class="foreground" aria-hidden="true" d="" pointer-events="none" display="none"/></g></g></g><path class="foreground" aria-hidden="true" d="" display="none"/></g><g transform="translate(326,0)"><path class="background" aria-hidden="true" d="M0.5,0.5h300v300h-300Z" stroke="#ddd"/><g><g class="mark-group role-scope child_pathgroup" role="graphics-object" aria-roledescription="group mark container"><g transform="translate(0,0)"><path class="background" aria-hidden="true" d="M0,0h300v300h-300Z"/><g><g class="mark-line role-mark child_marks" role="graphics-object" aria-roledescription="line mark container"><path aria-label="G: 0; P(G): 0.00589957707984; N / E: 1" role="graphics-symbol" aria-roledescription="line mark" d="M0,299.779L1.5,299.782L3,299.793L4.5,299.809L6,299.83L7.5,299.852L9,299.875L10.5,299.897L12,299.915L13.5,299.929L15,299.939L16.5,299.944L18,299.944L19.5,299.941L21,299.934L22.5,299.924L24,299.911L25.5,299.895L27,299.877L28.5,299.856L30,299.831L31.5,299.804L33,299.774L34.5,299.741L36,299.707L37.5,299.672L39,299.636L40.5,299.601L42,299.565L43.5,299.528L45,299.486L46.5,299.435L48,299.374L49.5,299.297L51,299.202L52.5,299.089L54,298.96L55.5,298.816L57,298.666L58.5,298.516L60,298.375L61.5,298.25L63,298.149L64.5,298.077L66,298.037L67.5,298.029L69,298.052L70.5,298.101L72,298.171L73.5,298.254L75,298.338L76.5,298.412L78,298.456L79.5,298.452L81,298.373L82.5,298.193L84,297.887L85.5,297.433L87,296.818L88.5,296.045L90,295.136L91.5,294.132L93,293.098L94.5,292.109L96,291.25L97.5,290.601L99,290.224L100.5,290.154L102,290.396L103.5,290.917L105,291.656L106.5,292.531L108,293.45L109.5,294.325L111,295.078L112.5,295.655L114,296.02L115.5,296.163L117,296.091L118.5,295.825L120,295.396L121.5,294.833L123,294.164L124.5,293.409L126,292.576L127.5,291.666L129,290.674L130.5,289.588L132,288.402L133.5,287.117L135,285.744L136.5,284.309L138,282.853L139.5,281.431L141,280.104L142.5,278.941L144,278.006L145.5,277.359L147,277.037L148.5,277.059L150,277.413L151.5,278.059L153,278.93L154.5,279.94L156,280.998L157.5,282.017L159,282.929L160.5,283.691L162,284.288L163.5,284.73L165,285.043L166.5,285.259L168,285.41L169.5,285.515L171,285.584L172.5,285.612L174,285.58L175.5,285.456L177,285.191L178.5,284.713L180,283.927L181.5,282.707L183,280.908L184.5,278.378L186,274.987L187.5,270.661L189,265.419L190.5,259.406L192,252.903L193.5,246.317L195,240.148L196.5,234.914L198,231.085L199.5,228.995L201,228.783L202.5,230.371L204,233.463L205.5,237.601L207,242.233L208.5,246.802L210,250.816L211.5,253.904L213,255.842L214.5,256.538L216,256.014L217.5,254.359L219,251.701L220.5,248.186L222,243.979L223.5,239.275L225,234.317L226.5,229.406L228,224.898L229.5,221.166L231,218.554L232.5,217.317L234,217.568L235.5,219.249L237,222.134L238.5,225.868L240,230.033L241.5,234.222L243,238.112L244.5,241.506L246,244.352L247.5,246.722L249,248.775L250.5,250.705L252,252.694L253.5,254.878L255,257.327L256.5,260.053L258,263.017L259.5,266.149L261,269.37L262.5,272.6L264,275.769L265.5,278.818L267,281.692L268.5,284.337L270,286.694L271.5,288.685L273,290.203L274.5,291.094L276,291.142L277.5,290.048L279,287.418L280.5,282.765L282,275.527L283.5,265.128L285,251.058L286.5,232.992L288,210.928L289.5,185.308L291,157.105L292.5,127.826L294,99.429L295.5,74.126L297,54.114L298.5,41.264L300,36.835" stroke="rgb(156, 200, 226)" stroke-width="2"/></g></g><path class="foreground" aria-hidden="true" d="" display="none"/></g><g transform="translate(0,0)"><path class="background" aria-hidden="true" d="M0,0h300v300h-300Z"/><g><g class="mark-line role-mark child_marks" role="graphics-object" aria-roledescription="line mark container"><path aria-label="G: 0; P(G): 0.00787651843917; N / E: 2.5" role="graphics-symbol" aria-roledescription="line mark" d="M0,299.705L1.5,299.661L3,299.61L4.5,299.55L6,299.478L7.5,299.394L9,299.294L10.5,299.18L12,299.05L13.5,298.904L15,298.742L16.5,298.566L18,298.376L19.5,298.173L21,297.958L22.5,297.731L24,297.493L25.5,297.246L27,296.988L28.5,296.721L30,296.446L31.5,296.166L33,295.88L34.5,295.593L36,295.306L37.5,295.02L39,294.736L40.5,294.456L42,294.177L43.5,293.896L45,293.611L46.5,293.315L48,293.006L49.5,292.676L51,292.324L52.5,291.947L54,291.545L55.5,291.12L57,290.677L58.5,290.222L60,289.762L61.5,289.307L63,288.863L64.5,288.439L66,288.042L67.5,287.674L69,287.34L70.5,287.04L72,286.772L73.5,286.534L75,286.319L76.5,286.121L78,285.929L79.5,285.731L81,285.514L82.5,285.26L84,284.955L85.5,284.585L87,284.138L88.5,283.613L90,283.01L91.5,282.343L93,281.628L94.5,280.888L96,280.143L97.5,279.412L99,278.703L100.5,278.013L102,277.326L103.5,276.617L105,275.853L106.5,275.001L108,274.033L109.5,272.933L111,271.698L112.5,270.344L114,268.898L115.5,267.402L117,265.9L118.5,264.437L120,263.052L121.5,261.774L123,260.619L124.5,259.591L126,258.682L127.5,257.875L129,257.146L130.5,256.471L132,255.825L133.5,255.188L135,254.546L136.5,253.895L138,253.234L139.5,252.571L141,251.917L142.5,251.287L144,250.695L145.5,250.151L147,249.664L148.5,249.238L150,248.872L151.5,248.565L153,248.311L154.5,248.106L156,247.944L157.5,247.824L159,247.744L160.5,247.705L162,247.707L163.5,247.752L165,247.837L166.5,247.96L168,248.117L169.5,248.3L171,248.501L172.5,248.709L174,248.914L175.5,249.101L177,249.252L178.5,249.348L180,249.361L181.5,249.262L183,249.017L184.5,248.589L186,247.948L187.5,247.068L189,245.939L190.5,244.565L192,242.968L193.5,241.189L195,239.279L196.5,237.299L198,235.308L199.5,233.359L201,231.496L202.5,229.746L204,228.129L205.5,226.654L207,225.328L208.5,224.16L210,223.166L211.5,222.366L213,221.784L214.5,221.447L216,221.373L217.5,221.572L219,222.044L220.5,222.773L222,223.735L223.5,224.897L225,226.225L226.5,227.684L228,229.247L229.5,230.888L231,232.588L232.5,234.33L234,236.099L235.5,237.875L237,239.641L238.5,241.377L240,243.064L241.5,244.689L243,246.244L244.5,247.727L246,249.146L247.5,250.511L249,251.838L250.5,253.144L252,254.442L253.5,255.745L255,257.061L256.5,258.396L258,259.755L259.5,261.144L261,262.569L262.5,264.04L264,265.564L265.5,267.149L267,268.798L268.5,270.507L270,272.257L271.5,274.015L273,275.73L274.5,277.329L276,278.721L277.5,279.795L279,280.432L280.5,280.506L282,279.905L283.5,278.539L285,276.358L286.5,273.368L288,269.644L289.5,265.333L291,260.658L292.5,255.902L294,251.391L295.5,247.462L297,244.43L298.5,242.555L300,242.012" stroke="rgb(91, 163, 207)" stroke-width="2"/></g></g><path class="foreground" aria-hidden="true" d="" display="none"/></g><g transform="translate(0,0)"><path class="background" aria-hidden="true" d="M0,0h300v300h-300Z"/><g><g class="mark-line role-mark child_marks" role="graphics-object" aria-roledescription="line mark container"><path aria-label="G: 0; P(G): 0.0679378132988; N / E: 10" role="graphics-symbol" aria-roledescription="line mark" d="M0,297.452L1.5,296.426L3,295.108L4.5,293.458L6,291.438L7.5,289.024L9,286.199L10.5,282.965L12,279.339L13.5,275.355L15,271.057L16.5,266.5L18,261.741L19.5,256.831L21,251.823L22.5,246.761L24,241.692L25.5,236.667L27,231.738L28.5,226.958L30,222.375L31.5,218.024L33,213.923L34.5,210.075L36,206.471L37.5,203.099L39,199.952L40.5,197.034L42,194.364L43.5,191.97L45,189.886L46.5,188.14L48,186.75L49.5,185.719L51,185.031L52.5,184.659L54,184.569L55.5,184.724L57,185.095L58.5,185.659L60,186.402L61.5,187.311L63,188.375L64.5,189.579L66,190.91L67.5,192.353L69,193.902L70.5,195.552L72,197.306L73.5,199.166L75,201.129L76.5,203.184L78,205.311L79.5,207.483L81,209.673L82.5,211.853L84,214.001L85.5,216.099L87,218.13L88.5,220.081L90,221.943L91.5,223.712L93,225.387L94.5,226.974L96,228.478L97.5,229.904L99,231.253L100.5,232.518L102,233.692L103.5,234.764L105,235.729L106.5,236.593L108,237.37L109.5,238.086L111,238.776L112.5,239.476L114,240.221L115.5,241.039L117,241.95L118.5,242.961L120,244.074L121.5,245.28L123,246.563L124.5,247.9L126,249.266L127.5,250.634L129,251.985L130.5,253.308L132,254.604L133.5,255.883L135,257.162L136.5,258.456L138,259.772L139.5,261.107L141,262.448L142.5,263.778L144,265.078L145.5,266.333L147,267.54L148.5,268.703L150,269.832L151.5,270.942L153,272.048L154.5,273.159L156,274.278L157.5,275.405L159,276.529L160.5,277.64L162,278.723L163.5,279.767L165,280.761L166.5,281.7L168,282.582L169.5,283.411L171,284.191L172.5,284.932L174,285.641L175.5,286.326L177,286.993L178.5,287.643L180,288.278L181.5,288.892L183,289.482L184.5,290.041L186,290.565L187.5,291.049L189,291.492L190.5,291.894L192,292.255L193.5,292.578L195,292.863L196.5,293.116L198,293.338L199.5,293.538L201,293.722L202.5,293.898L204,294.076L205.5,294.263L207,294.465L208.5,294.687L210,294.932L211.5,295.203L213,295.498L214.5,295.814L216,296.144L217.5,296.478L219,296.803L220.5,297.109L222,297.385L223.5,297.623L225,297.822L226.5,297.984L228,298.115L229.5,298.224L231,298.321L232.5,298.413L234,298.509L235.5,298.61L237,298.718L238.5,298.83L240,298.944L241.5,299.054L243,299.158L244.5,299.253L246,299.338L247.5,299.413L249,299.477L250.5,299.533L252,299.58L253.5,299.622L255,299.659L256.5,299.692L258,299.723L259.5,299.751L261,299.777L262.5,299.799L264,299.817L265.5,299.83L267,299.84L268.5,299.846L270,299.85L271.5,299.852L273,299.855L274.5,299.857L276,299.859L277.5,299.861L279,299.863L280.5,299.865L282,299.867L283.5,299.869L285,299.872L286.5,299.874L288,299.875L289.5,299.872L291,299.864L292.5,299.85L294,299.833L295.5,299.814L297,299.798L298.5,299.787L300,299.785" stroke="rgb(41, 120, 184)" stroke-width="2"/></g></g><path class="foreground" aria-hidden="true" d="" display="none"/></g></g><g class="mark-group role-title"><g transform="translate(150,-28)"><path class="background" aria-hidden="true" d="M0,0h0v0h0Z" pointer-events="none"/><g><g class="mark-text role-title-text" role="graphics-symbol" aria-roledescription="title" aria-label="Title text 'max'" pointer-events="none"><text text-anchor="middle" transform="translate(0,14)" font-family="sans-serif" font-size="18px" fill="#000" opacity="1">max</text></g></g><path class="foreground" aria-hidden="true" d="" pointer-events="none" display="none"/></g></g></g><path class="foreground" aria-hidden="true" d="" display="none"/></g><g transform="translate(652,0)"><path class="background" aria-hidden="true" d="M0.5,0.5h300v300h-300Z" stroke="#ddd"/><g><g class="mark-group role-scope child_pathgroup" role="graphics-object" aria-roledescription="group mark container"><g transform="translate(0,0)"><path class="background" aria-hidden="true" d="M0,0h300v300h-300Z"/><g><g class="mark-line role-mark child_marks" role="graphics-object" aria-roledescription="line mark container"><path aria-label="G: 0; P(G): 0.0584520936866; N / E: 1" role="graphics-symbol" aria-roledescription="line mark" d="M0,297.808L1.5,297.837L3,297.921L4.5,298.053L6,298.225L7.5,298.424L9,298.636L10.5,298.851L12,299.057L13.5,299.246L15,299.413L16.5,299.554L18,299.669L19.5,299.76L21,299.828L22.5,299.878L24,299.912L25.5,299.933L27,299.943L28.5,299.945L30,299.94L31.5,299.928L33,299.909L34.5,299.882L36,299.846L37.5,299.797L39,299.733L40.5,299.652L42,299.547L43.5,299.418L45,299.261L46.5,299.075L48,298.861L49.5,298.625L51,298.372L52.5,298.113L54,297.861L55.5,297.629L57,297.432L58.5,297.282L60,297.189L61.5,297.159L63,297.194L64.5,297.288L66,297.432L67.5,297.611L69,297.807L70.5,297.995L72,298.15L73.5,298.241L75,298.233L76.5,298.09L78,297.771L79.5,297.234L81,296.438L82.5,295.347L84,293.937L85.5,292.2L87,290.155L88.5,287.847L90,285.356L91.5,282.795L93,280.298L94.5,278.019L96,276.11L97.5,274.708L99,273.919L100.5,273.804L102,274.373L103.5,275.58L105,277.335L106.5,279.508L108,281.95L109.5,284.508L111,287.037L112.5,289.418L114,291.558L115.5,293.398L117,294.908L118.5,296.081L120,296.93L121.5,297.474L123,297.738L124.5,297.743L126,297.505L127.5,297.034L129,296.334L130.5,295.404L132,294.246L133.5,292.864L135,291.273L136.5,289.501L138,287.593L139.5,285.611L141,283.639L142.5,281.77L144,280.109L145.5,278.756L147,277.801L148.5,277.31L150,277.32L151.5,277.829L153,278.799L154.5,280.159L156,281.81L157.5,283.639L159,285.528L160.5,287.366L162,289.06L163.5,290.538L165,291.75L166.5,292.67L168,293.29L169.5,293.608L171,293.629L172.5,293.347L174,292.742L175.5,291.771L177,290.366L178.5,288.43L180,285.846L181.5,282.488L183,278.236L184.5,273.006L186,266.773L187.5,259.595L189,251.642L190.5,243.195L192,234.645L193.5,226.468L195,219.182L196.5,213.295L198,209.244L199.5,207.343L201,207.735L202.5,210.376L204,215.032L205.5,221.305L207,228.679L208.5,236.568L210,244.378L211.5,251.557L213,257.636L214.5,262.256L216,265.183L217.5,266.312L219,265.665L220.5,263.376L222,259.69L223.5,254.934L225,249.508L226.5,243.852L228,238.414L229.5,233.617L231,229.816L232.5,227.269L234,226.116L235.5,226.364L237,227.899L238.5,230.51L240,233.924L241.5,237.843L243,241.989L244.5,246.132L246,250.108L247.5,253.827L249,257.265L250.5,260.444L252,263.419L253.5,266.25L255,268.991L256.5,271.679L258,274.327L259.5,276.93L261,279.464L262.5,281.895L264,284.18L265.5,286.272L267,288.119L268.5,289.658L270,290.808L271.5,291.463L273,291.482L274.5,290.678L276,288.814L277.5,285.601L279,280.712L280.5,273.8L282,264.537L283.5,252.661L285,238.039L286.5,220.729L288,201.034L289.5,179.536L291,157.105L292.5,134.86L294,114.089L295.5,96.133L297,82.252L298.5,73.473L300,70.471" stroke="rgb(156, 200, 226)" stroke-width="2"/></g></g><path class="foreground" aria-hidden="true" d="" display="none"/></g><g transform="translate(0,0)"><path class="background" aria-hidden="true" d="M0,0h300v300h-300Z"/><g><g class="mark-line role-mark child_marks" role="graphics-object" aria-roledescription="line mark container"><path aria-label="G: 0; P(G): 0.14034200274; N / E: 2.5" role="graphics-symbol" aria-roledescription="line mark" d="M0,294.737L1.5,294.789L3,294.945L4.5,295.195L6,295.523L7.5,295.909L9,296.331L10.5,296.767L12,297.194L13.5,297.594L15,297.95L16.5,298.25L18,298.485L19.5,298.651L21,298.745L22.5,298.768L24,298.723L25.5,298.611L27,298.437L28.5,298.206L30,297.919L31.5,297.58L33,297.189L34.5,296.747L36,296.248L37.5,295.688L39,295.057L40.5,294.345L42,293.538L43.5,292.626L45,291.598L46.5,290.452L48,289.191L49.5,287.827L51,286.385L52.5,284.901L54,283.422L55.5,282.001L57,280.698L58.5,279.57L60,278.673L61.5,278.049L63,277.728L64.5,277.722L66,278.022L67.5,278.602L69,279.414L70.5,280.396L72,281.471L73.5,282.552L75,283.547L76.5,284.364L78,284.915L79.5,285.122L81,284.921L82.5,284.27L84,283.153L85.5,281.582L87,279.602L88.5,277.294L90,274.767L91.5,272.157L93,269.616L94.5,267.302L96,265.366L97.5,263.938L99,263.113L100.5,262.945L102,263.441L103.5,264.558L105,266.207L106.5,268.267L108,270.59L109.5,273.017L111,275.393L112.5,277.576L114,279.445L115.5,280.907L117,281.899L118.5,282.384L120,282.35L121.5,281.802L123,280.758L124.5,279.243L126,277.288L127.5,274.927L129,272.195L130.5,269.136L132,265.798L133.5,262.244L135,258.546L136.5,254.795L138,251.093L139.5,247.554L141,244.295L142.5,241.433L144,239.074L145.5,237.303L147,236.179L148.5,235.727L150,235.931L151.5,236.742L153,238.074L154.5,239.814L156,241.833L157.5,243.993L159,246.162L160.5,248.22L162,250.071L163.5,251.645L165,252.901L166.5,253.825L168,254.428L169.5,254.742L171,254.81L172.5,254.681L174,254.406L175.5,254.025L177,253.568L178.5,253.051L180,252.473L181.5,251.822L183,251.074L184.5,250.204L186,249.195L187.5,248.043L189,246.764L190.5,245.402L192,244.026L193.5,242.724L195,241.6L196.5,240.757L198,240.289L199.5,240.261L201,240.706L202.5,241.613L204,242.929L205.5,244.564L207,246.393L208.5,248.276L210,250.067L211.5,251.627L213,252.836L214.5,253.602L216,253.87L217.5,253.618L219,252.864L220.5,251.658L222,250.082L223.5,248.239L225,246.247L226.5,244.231L228,242.312L229.5,240.598L231,239.172L232.5,238.093L234,237.384L235.5,237.038L237,237.018L238.5,237.265L240,237.708L241.5,238.274L243,238.897L244.5,239.525L246,240.13L247.5,240.702L249,241.257L250.5,241.823L252,242.444L253.5,243.168L255,244.041L256.5,245.106L258,246.395L259.5,247.929L261,249.715L262.5,251.748L264,254.008L265.5,256.463L267,259.066L268.5,261.76L270,264.474L271.5,267.127L273,269.629L274.5,271.88L276,273.779L277.5,275.223L279,276.119L280.5,276.386L282,275.965L283.5,274.829L285,272.99L286.5,270.503L288,267.472L289.5,264.045L291,260.414L292.5,256.799L294,253.436L295.5,250.56L297,248.381L298.5,247.07L300,246.741" stroke="rgb(91, 163, 207)" stroke-width="2"/></g></g><path class="foreground" aria-hidden="true" d="" display="none"/></g><g transform="translate(0,0)"><path class="background" aria-hidden="true" d="M0,0h300v300h-300Z"/><g><g class="mark-line role-mark child_marks" role="graphics-object" aria-roledescription="line mark container"><path aria-label="G: 0; P(G): 0.0712594471124; N / E: 10" role="graphics-symbol" aria-roledescription="line mark" d="M0,297.328L1.5,297.226L3,297.142L4.5,297.022L6,296.799L7.5,296.403L9,295.773L10.5,294.862L12,293.65L13.5,292.145L15,290.383L16.5,288.419L18,286.326L19.5,284.179L21,282.047L22.5,279.983L24,278.016L25.5,276.147L27,274.351L28.5,272.582L30,270.782L31.5,268.896L33,266.879L34.5,264.713L36,262.404L37.5,259.981L39,257.491L40.5,254.984L42,252.513L43.5,250.118L45,247.832L46.5,245.674L48,243.647L49.5,241.732L51,239.893L52.5,238.069L54,236.192L55.5,234.196L57,232.038L58.5,229.711L60,227.253L61.5,224.734L63,222.25L64.5,219.897L66,217.751L67.5,215.854L69,214.208L70.5,212.774L72,211.486L73.5,210.274L75,209.085L76.5,207.917L78,206.832L79.5,205.952L81,205.435L82.5,205.415L84,205.937L85.5,206.904L87,208.054L88.5,209.001L90,209.335L91.5,208.747L93,207.16L94.5,204.798L96,202.161L97.5,199.908L99,198.673L100.5,198.876L102,200.59L103.5,203.518L105,207.08L106.5,210.59L108,213.448L109.5,215.292L111,216.072L112.5,216.015L114,215.525L115.5,215.053L117,214.973L118.5,215.508L120,216.711L121.5,218.493L123,220.681L124.5,223.074L126,225.494L127.5,227.811L129,229.95L130.5,231.88L132,233.601L133.5,235.129L135,236.484L136.5,237.691L138,238.777L139.5,239.778L141,240.737L142.5,241.701L144,242.721L145.5,243.841L147,245.089L148.5,246.474L150,247.985L151.5,249.591L153,251.254L154.5,252.931L156,254.586L157.5,256.189L159,257.725L160.5,259.183L162,260.565L163.5,261.874L165,263.118L166.5,264.309L168,265.455L169.5,266.567L171,267.651L172.5,268.711L174,269.749L175.5,270.762L177,271.748L178.5,272.709L180,273.646L181.5,274.564L183,275.469L184.5,276.368L186,277.262L187.5,278.154L189,279.036L190.5,279.903L192,280.745L193.5,281.555L195,282.329L196.5,283.07L198,283.782L199.5,284.474L201,285.151L202.5,285.814L204,286.465L205.5,287.097L207,287.708L208.5,288.297L210,288.861L211.5,289.404L213,289.925L214.5,290.423L216,290.896L217.5,291.337L219,291.742L220.5,292.108L222,292.437L223.5,292.731L225,292.998L226.5,293.246L228,293.483L229.5,293.719L231,293.959L232.5,294.209L234,294.469L235.5,294.741L237,295.021L238.5,295.305L240,295.587L241.5,295.862L243,296.123L244.5,296.368L246,296.594L247.5,296.801L249,296.99L250.5,297.163L252,297.322L253.5,297.468L255,297.606L256.5,297.737L258,297.863L259.5,297.987L261,298.11L262.5,298.235L264,298.36L265.5,298.484L267,298.606L268.5,298.722L270,298.83L271.5,298.927L273,299.011L274.5,299.083L276,299.144L277.5,299.195L279,299.239L280.5,299.278L282,299.317L283.5,299.356L285,299.398L286.5,299.441L288,299.486L289.5,299.53L291,299.572L292.5,299.61L294,299.643L295.5,299.671L297,299.696L298.5,299.719L300,299.743" stroke="rgb(41, 120, 184)" stroke-width="2"/></g></g><path class="foreground" aria-hidden="true" d="" display="none"/></g></g><g class="mark-group role-title"><g transform="translate(150,-28)"><path class="background" aria-hidden="true" d="M0,0h0v0h0Z" pointer-events="none"/><g><g class="mark-text role-title-text" role="graphics-symbol" aria-roledescription="title" aria-label="Title text 'min'" pointer-events="none"><text text-anchor="middle" transform="translate(0,14)" font-family="sans-serif" font-size="18px" fill="#000" opacity="1">min</text></g></g><path class="foreground" aria-hidden="true" d="" pointer-events="none" display="none"/></g></g></g><path class="foreground" aria-hidden="true" d="" display="none"/></g><g transform="translate(978,0)"><path class="background" aria-hidden="true" d="M0.5,0.5h300v300h-300Z" stroke="#ddd"/><g><g class="mark-group role-scope child_pathgroup" role="graphics-object" aria-roledescription="group mark container"><g transform="translate(0,0)"><path class="background" aria-hidden="true" d="M0,0h300v300h-300Z"/><g><g class="mark-line role-mark child_marks" role="graphics-object" aria-roledescription="line mark container"><path aria-label="G: 0; P(G): 0.0304941058123; N / E: 1" role="graphics-symbol" aria-roledescription="line mark" d="M0,298.856L1.5,298.874L3,298.926L4.5,299.007L6,299.111L7.5,299.228L9,299.351L10.5,299.471L12,299.582L13.5,299.68L15,299.762L16.5,299.828L18,299.879L19.5,299.916L21,299.942L22.5,299.958L24,299.966L25.5,299.968L27,299.964L28.5,299.956L30,299.944L31.5,299.927L33,299.905L34.5,299.878L36,299.845L37.5,299.805L39,299.753L40.5,299.688L42,299.604L43.5,299.497L45,299.362L46.5,299.194L48,298.991L49.5,298.754L51,298.488L52.5,298.2L54,297.906L55.5,297.619L57,297.36L58.5,297.144L60,296.988L61.5,296.903L63,296.894L64.5,296.959L66,297.093L67.5,297.282L69,297.511L70.5,297.76L72,298.009L73.5,298.236L75,298.418L76.5,298.531L78,298.551L79.5,298.448L81,298.192L82.5,297.755L84,297.108L85.5,296.235L87,295.132L88.5,293.815L90,292.326L91.5,290.735L93,289.134L94.5,287.634L96,286.352L97.5,285.397L99,284.855L100.5,284.775L102,285.165L103.5,285.988L105,287.167L106.5,288.6L108,290.17L109.5,291.761L111,293.271L112.5,294.621L114,295.759L115.5,296.657L117,297.31L118.5,297.726L120,297.925L121.5,297.925L123,297.742L124.5,297.387L126,296.862L127.5,296.162L129,295.278L130.5,294.197L132,292.909L133.5,291.411L135,289.708L136.5,287.824L138,285.799L139.5,283.697L141,281.602L142.5,279.617L144,277.856L145.5,276.435L147,275.454L148.5,274.989L150,275.074L151.5,275.697L153,276.798L154.5,278.277L156,280.002L157.5,281.831L159,283.624L160.5,285.261L162,286.651L163.5,287.737L165,288.493L166.5,288.922L168,289.048L169.5,288.91L171,288.553L172.5,288.02L174,287.346L175.5,286.548L177,285.616L178.5,284.506L180,283.132L181.5,281.37L183,279.07L184.5,276.075L186,272.256L187.5,267.548L189,261.984L190.5,255.727L192,249.072L193.5,242.438L195,236.325L196.5,231.253L198,227.686L199.5,225.969L201,226.263L202.5,228.522L204,232.495L205.5,237.759L207,243.782L208.5,249.985L210,255.816L211.5,260.797L213,264.558L214.5,266.849L216,267.534L217.5,266.579L219,264.038L220.5,260.048L222,254.825L223.5,248.664L225,241.945L226.5,235.109L228,228.64L229.5,223.012L231,218.635L232.5,215.8L234,214.634L235.5,215.083L237,216.921L238.5,219.798L240,223.297L241.5,227.018L243,230.631L244.5,233.932L246,236.846L247.5,239.425L249,241.801L250.5,244.147L252,246.628L253.5,249.363L255,252.411L256.5,255.768L258,259.376L259.5,263.144L261,266.966L262.5,270.742L264,274.382L265.5,277.81L267,280.967L268.5,283.797L270,286.239L271.5,288.215L273,289.617L274.5,290.288L276,290.007L277.5,288.481L279,285.336L280.5,280.127L282,272.372L283.5,261.604L285,247.451L286.5,229.737L288,208.588L289.5,184.516L291,158.475L292.5,131.843L294,106.332L295.5,83.827L297,66.161L298.5,54.875L300,50.995" stroke="rgb(156, 200, 226)" stroke-width="2"/></g></g><path class="foreground" aria-hidden="true" d="" display="none"/></g><g transform="translate(0,0)"><path class="background" aria-hidden="true" d="M0,0h300v300h-300Z"/><g><g class="mark-line role-mark child_marks" role="graphics-object" aria-roledescription="line mark container"><path aria-label="G: 0; P(G): 0.0231674838278; N / E: 2.5" role="graphics-symbol" aria-roledescription="line mark" d="M0,299.131L1.5,299.14L3,299.169L4.5,299.217L6,299.277L7.5,299.344L9,299.413L10.5,299.476L12,299.528L13.5,299.565L15,299.583L16.5,299.579L18,299.552L19.5,299.501L21,299.426L22.5,299.326L24,299.203L25.5,299.058L27,298.892L28.5,298.708L30,298.509L31.5,298.299L33,298.083L34.5,297.865L36,297.649L37.5,297.437L39,297.229L40.5,297.02L42,296.803L43.5,296.566L45,296.295L46.5,295.975L48,295.594L49.5,295.14L51,294.611L52.5,294.01L54,293.348L55.5,292.646L57,291.93L58.5,291.229L60,290.575L61.5,289.995L63,289.515L64.5,289.15L66,288.911L67.5,288.801L69,288.813L70.5,288.936L72,289.151L73.5,289.434L75,289.752L76.5,290.068L78,290.337L79.5,290.509L81,290.529L82.5,290.345L84,289.91L85.5,289.192L87,288.18L88.5,286.89L90,285.371L91.5,283.702L93,281.986L94.5,280.346L96,278.904L97.5,277.77L99,277.024L100.5,276.704L102,276.8L103.5,277.249L105,277.951L106.5,278.772L108,279.568L109.5,280.199L111,280.55L112.5,280.542L114,280.141L115.5,279.357L117,278.239L118.5,276.869L120,275.342L121.5,273.758L123,272.206L124.5,270.751L126,269.432L127.5,268.256L129,267.204L130.5,266.239L132,265.312L133.5,264.376L135,263.395L136.5,262.349L138,261.238L139.5,260.082L141,258.919L142.5,257.794L144,256.752L145.5,255.833L147,255.06L148.5,254.441L150,253.963L151.5,253.595L153,253.293L154.5,253.011L156,252.703L157.5,252.332L159,251.876L160.5,251.331L162,250.706L163.5,250.024L165,249.312L166.5,248.599L168,247.911L169.5,247.266L171,246.677L172.5,246.15L174,245.688L175.5,245.292L177,244.958L178.5,244.678L180,244.431L181.5,244.189L183,243.908L184.5,243.535L186,243.012L187.5,242.292L189,241.345L190.5,240.171L192,238.809L193.5,237.33L195,235.837L196.5,234.442L198,233.256L199.5,232.36L201,231.799L202.5,231.569L204,231.623L205.5,231.879L207,232.238L208.5,232.603L210,232.897L211.5,233.069L213,233.104L214.5,233.017L216,232.843L217.5,232.63L219,232.427L220.5,232.275L222,232.207L223.5,232.25L225,232.42L226.5,232.732L228,233.199L229.5,233.826L231,234.614L232.5,235.548L234,236.597L235.5,237.715L237,238.839L238.5,239.896L240,240.818L241.5,241.545L243,242.038L244.5,242.281L246,242.286L247.5,242.086L249,241.73L250.5,241.277L252,240.789L253.5,240.323L255,239.932L256.5,239.667L258,239.573L259.5,239.695L261,240.08L262.5,240.773L264,241.814L265.5,243.237L267,245.061L268.5,247.287L270,249.888L271.5,252.81L273,255.963L274.5,259.228L276,262.455L277.5,265.468L279,268.078L280.5,270.088L282,271.316L283.5,271.61L285,270.867L286.5,269.057L288,266.233L289.5,262.544L291,258.235L292.5,253.634L294,249.124L295.5,245.112L297,241.983L298.5,240.06L300,239.564" stroke="rgb(91, 163, 207)" stroke-width="2"/></g></g><path class="foreground" aria-hidden="true" d="" display="none"/></g><g transform="translate(0,0)"><path class="background" aria-hidden="true" d="M0,0h300v300h-300Z"/><g><g class="mark-line role-mark child_marks" role="graphics-object" aria-roledescription="line mark container"><path aria-label="G: 0; P(G): 0.00903492399843; N / E: 10" role="graphics-symbol" aria-roledescription="line mark" d="M0,299.661L1.5,299.566L3,299.444L4.5,299.291L6,299.102L7.5,298.873L9,298.601L10.5,298.284L12,297.921L13.5,297.508L15,297.046L16.5,296.533L18,295.969L19.5,295.355L21,294.694L22.5,293.991L24,293.253L25.5,292.486L27,291.695L28.5,290.884L30,290.054L31.5,289.199L33,288.315L34.5,287.395L36,286.431L37.5,285.419L39,284.357L40.5,283.247L42,282.093L43.5,280.903L45,279.684L46.5,278.443L48,277.186L49.5,275.913L51,274.617L52.5,273.29L54,271.915L55.5,270.474L57,268.946L58.5,267.316L60,265.574L61.5,263.719L63,261.759L64.5,259.713L66,257.606L67.5,255.469L69,253.334L70.5,251.232L72,249.189L73.5,247.228L75,245.361L76.5,243.597L78,241.938L79.5,240.381L81,238.919L82.5,237.544L84,236.25L85.5,235.027L87,233.869L88.5,232.766L90,231.705L91.5,230.676L93,229.668L94.5,228.675L96,227.695L97.5,226.729L99,225.776L100.5,224.832L102,223.885L103.5,222.92L105,221.922L106.5,220.886L108,219.821L109.5,218.748L111,217.701L112.5,216.718L114,215.835L115.5,215.081L117,214.472L118.5,214.016L120,213.712L121.5,213.548L123,213.507L124.5,213.566L126,213.701L127.5,213.882L129,214.085L130.5,214.288L132,214.478L133.5,214.655L135,214.826L136.5,215.01L138,215.229L139.5,215.505L141,215.855L142.5,216.287L144,216.798L145.5,217.377L147,218.009L148.5,218.68L150,219.38L151.5,220.11L153,220.878L154.5,221.704L156,222.614L157.5,223.634L159,224.788L160.5,226.091L162,227.545L163.5,229.137L165,230.841L166.5,232.619L168,234.427L169.5,236.218L171,237.953L172.5,239.596L174,241.129L175.5,242.542L177,243.84L178.5,245.038L180,246.157L181.5,247.224L183,248.268L184.5,249.317L186,250.397L187.5,251.533L189,252.742L190.5,254.035L192,255.417L193.5,256.883L195,258.417L196.5,259.999L198,261.601L199.5,263.197L201,264.762L202.5,266.278L204,267.734L205.5,269.126L207,270.457L208.5,271.732L210,272.958L211.5,274.141L213,275.284L214.5,276.386L216,277.446L217.5,278.459L219,279.42L220.5,280.328L222,281.181L223.5,281.985L225,282.746L226.5,283.476L228,284.187L229.5,284.893L231,285.601L232.5,286.316L234,287.035L235.5,287.752L237,288.456L238.5,289.135L240,289.779L241.5,290.379L243,290.932L244.5,291.438L246,291.901L247.5,292.326L249,292.72L250.5,293.087L252,293.435L253.5,293.767L255,294.09L256.5,294.408L258,294.725L259.5,295.044L261,295.368L262.5,295.697L264,296.031L265.5,296.365L267,296.694L268.5,297.014L270,297.319L271.5,297.604L273,297.866L274.5,298.105L276,298.321L277.5,298.516L279,298.692L280.5,298.852L282,298.997L283.5,299.127L285,299.241L286.5,299.34L288,299.422L289.5,299.489L291,299.54L292.5,299.578L294,299.605L295.5,299.625L297,299.643L298.5,299.66L300,299.681" stroke="rgb(41, 120, 184)" stroke-width="2"/></g></g><path class="foreground" aria-hidden="true" d="" display="none"/></g></g><g class="mark-group role-title"><g transform="translate(150,-28)"><path class="background" aria-hidden="true" d="M0,0h0v0h0Z" pointer-events="none"/><g><g class="mark-text role-title-text" role="graphics-symbol" aria-roledescription="title" aria-label="Title text 'weighted'" pointer-events="none"><text text-anchor="middle" transform="translate(0,14)" font-family="sans-serif" font-size="18px" fill="#000" opacity="1">weighted</text></g></g><path class="foreground" aria-hidden="true" d="" pointer-events="none" display="none"/></g></g></g><path class="foreground" aria-hidden="true" d="" display="none"/></g></g><g class="mark-group role-legend" role="graphics-symbol" aria-roledescription="legend" aria-label="Symbol legend titled 'N / E' for stroke color with 3 values: 1, 2.5, 10"><g transform="translate(1299,0)"><path class="background" aria-hidden="true" d="M0,0h45v77h-45Z" pointer-events="none"/><g><g class="mark-group role-legend-entry"><g transform="translate(0,25)"><path class="background" aria-hidden="true" d="M0,0h0v0h0Z" pointer-events="none"/><g><g class="mark-group role-scope" role="graphics-object" aria-roledescription="group mark container"><g transform="translate(0,0)"><path class="background" aria-hidden="true" d="M0,0h42.2421875v16h-42.2421875Z" pointer-events="none" opacity="1"/><g><g class="mark-symbol role-legend-symbol" pointer-events="none"><path transform="translate(8,8)" d="M-5,0L5,0" stroke="rgb(156, 200, 226)" stroke-width="1.5" opacity="1"/></g><g class="mark-text role-legend-label" pointer-events="none"><text text-anchor="start" transform="translate(20,13)" font-family="sans-serif" font-size="16px" fill="#000" opacity="1">1</text></g></g><path class="foreground" aria-hidden="true" d="" pointer-events="none" display="none"/></g><g transform="translate(0,18)"><path class="background" aria-hidden="true" d="M0,0h42.2421875v16h-42.2421875Z" pointer-events="none" opacity="1"/><g><g class="mark-symbol role-legend-symbol" pointer-events="none"><path transform="translate(8,8)" d="M-5,0L5,0" stroke="rgb(91, 163, 207)" stroke-width="1.5" opacity="1"/></g><g class="mark-text role-legend-label" pointer-events="none"><text text-anchor="start" transform="translate(20,13)" font-family="sans-serif" font-size="16px" fill="#000" opacity="1">2.5</text></g></g><path class="foreground" aria-hidden="true" d="" pointer-events="none" display="none"/></g><g transform="translate(0,36)"><path class="background" aria-hidden="true" d="M0,0h42.2421875v16h-42.2421875Z" pointer-events="none" opacity="1"/><g><g class="mark-symbol role-legend-symbol" pointer-events="none"><path transform="translate(8,8)" d="M-5,0L5,0" stroke="rgb(41, 120, 184)" stroke-width="1.5" opacity="1"/></g><g class="mark-text role-legend-label" pointer-events="none"><text text-anchor="start" transform="translate(20,13)" font-family="sans-serif" font-size="16px" fill="#000" opacity="1">10</text></g></g><path class="foreground" aria-hidden="true" d="" pointer-events="none" display="none"/></g></g></g><path class="foreground" aria-hidden="true" d="" pointer-events="none" display="none"/></g></g><g class="mark-text role-legend-title" pointer-events="none"><text text-anchor="start" transform="translate(0,16)" font-family="sans-serif" font-size="20px" font-weight="bold" fill="#000" opacity="1">N / E</text></g></g><path class="foreground" aria-hidden="true" d="" pointer-events="none" display="none"/></g></g></g><path class="foreground" aria-hidden="true" d="" display="none"/></g></g></g></svg>