<svg xmlns="http://www.w3.org/2000/svg" xmlns:xlink="http://www.w3.org/1999/xlink" version="1.1" class="marks" width="737" height="771" viewBox="0 0 737 771"><rect width="737" height="771" fill="white"/><g fill="none" stroke-miterlimit="10" transform="translate(109,64)"><g class="mark-group role-frame root" role="graphics-object" aria-roledescription="group mark container"><g transform="translate(0,0)"><path class="background" aria-hidden="true" d="M0,0h0v0h0Z"/><g><g class="mark-group role-column-title facet-title" role="graphics-object" aria-roledescription="group mark container"><g transform="translate(311,-29)"><path class="background" aria-hidden="true" d="M0,0h0v0h0Z"/><g><g class="mark-group role-title"><g transform="translate(0,-30)"><path class="background" aria-hidden="true" d="M0,0h0v0h0Z" pointer-events="none"/><g><g class="mark-text role-title-text" role="graphics-symbol" aria-roledescription="title" aria-label="Title text 'q / p'" pointer-events="none"><text text-anchor="middle" transform="translate(0,16)" font-family="sans-serif" font-size="20px" font-weight="bold" fill="#000" opacity="1">q / p</text></g></g><path class="foreground" aria-hidden="true" d="" pointer-events="none" display="none"/></g></g></g><path class="foreground" aria-hidden="true" d="" display="none"/></g></g><g class="mark-group role-row-header row_header" role="graphics-object" aria-roledescription="group mark container"><g transform="translate(-1,0)"><path class="background" aria-hidden="true" d="M0,0h0v300h0Z"/><g><g class="mark-group role-axis" role="graphics-symbol" aria-roledescription="axis" aria-label="Y-axis titled 'P(m)' for a linear scale with values from 0.00 to 0.16"><g transform="translate(0.5,0.5)"><path class="background" aria-hidden="true" d="M0,0h0v0h0Z" pointer-events="none"/><g><g class="mark-rule role-axis-tick" pointer-events="none"><line transform="translate(0,300)" x2="-5" y2="0" stroke="#888" stroke-width="1" opacity="1"/><line transform="translate(0,263)" x2="-5" y2="0" stroke="#888" stroke-width="1" opacity="1"/><line transform="translate(0,225)" x2="-5" y2="0" stroke="#888" stroke-width="1" opacity="1"/><line transform="translate(0,188)" x2="-5" y2="0" stroke="#888" stroke-width="1" opacity="1"/><line transform="translate(0,150)" x2="-5" y2="0" stroke="#888" stroke-width="1" opacity="1"/><line transform="translate(0,113)" x2="-5" y2="0" stroke="#888" stroke-width="1" opacity="1"/><line transform="translate(0,75)" x2="-5" y2="0" stroke="#888" stroke-width="1" opacity="1"/><line transform="translate(0,37)" x2="-5" y2="0" stroke="#888" stroke-width="1" opacity="1"/><line transform="translate(0,0)" x2="-5" y2="0" stroke="#888" stroke-width="1" opacity="1"/></g><g class="mark-text role-axis-label" pointer-events="none"><text text-anchor="end" transform="translate(-7,305)" font-family="monospace" font-size="16px" fill="#000" opacity="1">0.00</text><text text-anchor="end" transform="translate(-7,267.5)" font-family="monospace" font-size="16px" fill="#000" opacity="1">0.02</text><text text-anchor="end" transform="translate(-7,230)" font-family="monospace" font-size="16px" fill="#000" opacity="1">0.04</text><text text-anchor="end" transform="translate(-7,192.5)" font-family="monospace" font-size="16px" fill="#000" opacity="1">0.06</text><text text-anchor="end" transform="translate(-7,155)" font-family="monospace" font-size="16px" fill="#000" opacity="1">0.08</text><text text-anchor="end" transform="translate(-7,117.5)" font-family="monospace" font-size="16px" fill="#000" opacity="1">0.10</text><text text-anchor="end" transform="translate(-7,80)" font-family="monospace" font-size="16px" fill="#000" opacity="1">0.12</text><text text-anchor="end" transform="translate(-7,42.499999999999964)" font-family="monospace" font-size="16px" fill="#000" opacity="1">0.14</text><text text-anchor="end" transform="translate(-7,5)" font-family="monospace" font-size="16px" fill="#000" opacity="1">0.16</text></g><g class="mark-text role-axis-title" pointer-events="none"><text text-anchor="middle" transform="translate(-80,146)" font-family="sans-serif" font-size="20px" font-weight="bold" fill="#000" opacity="1">P(m)</text></g></g><path class="foreground" aria-hidden="true" d="" pointer-events="none" display="none"/></g></g></g><path class="foreground" aria-hidden="true" d="" display="none"/></g><g transform="translate(-1,352)"><path class="background" aria-hidden="true" d="M0,0h0v300h0Z"/><g><g class="mark-group role-axis" role="graphics-symbol" aria-roledescription="axis" aria-label="Y-axis titled 'P(m)' for a linear scale with values from 0.00 to 0.16"><g transform="translate(0.5,0.5)"><path class="background" aria-hidden="true" d="M0,0h0v0h0Z" pointer-events="none"/><g><g class="mark-rule role-axis-tick" pointer-events="none"><line transform="translate(0,300)" x2="-5" y2="0" stroke="#888" stroke-width="1" opacity="1"/><line transform="translate(0,263)" x2="-5" y2="0" stroke="#888" stroke-width="1" opacity="1"/><line transform="translate(0,225)" x2="-5" y2="0" stroke="#888" stroke-width="1" opacity="1"/><line transform="translate(0,188)" x2="-5" y2="0" stroke="#888" stroke-width="1" opacity="1"/><line transform="translate(0,150)" x2="-5" y2="0" stroke="#888" stroke-width="1" opacity="1"/><line transform="translate(0,113)" x2="-5" y2="0" stroke="#888" stroke-width="1" opacity="1"/><line transform="translate(0,75)" x2="-5" y2="0" stroke="#888" stroke-width="1" opacity="1"/><line transform="translate(0,37)" x2="-5" y2="0" stroke="#888" stroke-width="1" opacity="1"/><line transform="translate(0,0)" x2="-5" y2="0" stroke="#888" stroke-width="1" opacity="1"/></g><g class="mark-text role-axis-label" pointer-events="none"><text text-anchor="end" transform="translate(-7,305)" font-family="monospace" font-size="16px" fill="#000" opacity="1">0.00</text><text text-anchor="end" transform="translate(-7,267.5)" font-family="monospace" font-size="16px" fill="#000" opacity="1">0.02</text><text text-anchor="end" transform="translate(-7,230)" font-family="monospace" font-size="16px" fill="#000" opacity="1">0.04</text><text text-anchor="end" transform="translate(-7,192.5)" font-family="monospace" font-size="16px" fill="#000" opacity="1">0.06</text><text text-anchor="end" transform="translate(-7,155)" font-family="monospace" font-size="16px" fill="#000" opacity="1">0.08</text><text text-anchor="end" transform="translate(-7,117.5)" font-family="monospace" font-size="16px" fill="#000" opacity="1">0.10</text><text text-anchor="end" transform="translate(-7,80)" font-family="monospace" font-size="16px" fill="#000" opacity="1">0.12</text><text text-anchor="end" transform="translate(-7,42.499999999999964)" font-family="monospace" font-size="16px" fill="#000" opacity="1">0.14</text><text text-anchor="end" transform="translate(-7,5)" font-family="monospace" font-size="16px" fill="#000" opacity="1">0.16</text></g><g class="mark-text role-axis-title" pointer-events="none"><text text-anchor="middle" transform="translate(-80,146)" font-family="sans-serif" font-size="20px" font-weight="bold" fill="#000" opacity="1">P(m)</text></g></g><path class="foreground" aria-hidden="true" d="" pointer-events="none" display="none"/></g></g></g><path class="foreground" aria-hidden="true" d="" display="none"/></g></g><g class="mark-group role-column-footer column_footer" role="graphics-object" aria-roledescription="group mark container"><g transform="translate(0,655)"><path class="background" aria-hidden="true" d="M0,0h300v0h-300Z"/><g><g class="mark-group role-axis" role="graphics-symbol" aria-roledescription="axis" aria-label="X-axis titled 'm' for a linear scale with values from −5 to 60"><g transform="translate(0.5,0.5)"><path class="background" aria-hidden="true" d="M0,0h0v0h0Z" pointer-events="none"/><g><g class="mark-rule role-axis-tick" pointer-events="none"><line transform="translate(23,0)" x2="0" y2="5" stroke="#888" stroke-width="1" opacity="1"/><line transform="translate(69,0)" x2="0" y2="5" stroke="#888" stroke-width="1" opacity="1"/><line transform="translate(115,0)" x2="0" y2="5" stroke="#888" stroke-width="1" opacity="1"/><line transform="translate(162,0)" x2="0" y2="5" stroke="#888" stroke-width="1" opacity="1"/><line transform="translate(208,0)" x2="0" y2="5" stroke="#888" stroke-width="1" opacity="1"/><line transform="translate(254,0)" x2="0" y2="5" stroke="#888" stroke-width="1" opacity="1"/><line transform="translate(300,0)" x2="0" y2="5" stroke="#888" stroke-width="1" opacity="1"/></g><g class="mark-text role-axis-label" pointer-events="none"><text text-anchor="middle" transform="translate(23.076923076923077,20)" font-family="monospace" font-size="16px" fill="#000" opacity="1">0</text><text text-anchor="middle" transform="translate(69.23076923076924,20)" font-family="monospace" font-size="16px" fill="#000" opacity="1">10</text><text text-anchor="middle" transform="translate(115.38461538461539,20)" font-family="monospace" font-size="16px" fill="#000" opacity="1">20</text><text text-anchor="middle" transform="translate(161.53846153846152,20)" font-family="monospace" font-size="16px" fill="#000" opacity="1">30</text><text text-anchor="middle" transform="translate(207.69230769230768,20)" font-family="monospace" font-size="16px" fill="#000" opacity="1">40</text><text text-anchor="middle" transform="translate(253.84615384615384,20)" font-family="monospace" font-size="16px" fill="#000" opacity="1">50</text><text text-anchor="end" transform="translate(300,20)" font-family="monospace" font-size="16px" fill="#000" opacity="1">60</text></g><g class="mark-rule role-axis-domain" pointer-events="none"><line transform="translate(0,0)" x2="300" y2="0" stroke="#888" stroke-width="1" opacity="1"/></g><g class="mark-text role-axis-title" pointer-events="none"><text text-anchor="middle" transform="translate(150,43)" font-family="sans-serif" font-size="20px" font-weight="bold" fill="#000" opacity="1">m</text></g></g><path class="foreground" aria-hidden="true" d="" pointer-events="none" display="none"/></g></g></g><path class="foreground" aria-hidden="true" d="" display="none"/></g><g transform="translate(322,655)"><path class="background" aria-hidden="true" d="M0,0h300v0h-300Z"/><g><g class="mark-group role-axis" role="graphics-symbol" aria-roledescription="axis" aria-label="X-axis titled 'm' for a linear scale with values from −5 to 60"><g transform="translate(0.5,0.5)"><path class="background" aria-hidden="true" d="M0,0h0v0h0Z" pointer-events="none"/><g><g class="mark-rule role-axis-tick" pointer-events="none"><line transform="translate(23,0)" x2="0" y2="5" stroke="#888" stroke-width="1" opacity="1"/><line transform="translate(69,0)" x2="0" y2="5" stroke="#888" stroke-width="1" opacity="1"/><line transform="translate(115,0)" x2="0" y2="5" stroke="#888" stroke-width="1" opacity="1"/><line transform="translate(162,0)" x2="0" y2="5" stroke="#888" stroke-width="1" opacity="1"/><line transform="translate(208,0)" x2="0" y2="5" stroke="#888" stroke-width="1" opacity="1"/><line transform="translate(254,0)" x2="0" y2="5" stroke="#888" stroke-width="1" opacity="1"/><line transform="translate(300,0)" x2="0" y2="5" stroke="#888" stroke-width="1" opacity="1"/></g><g class="mark-text role-axis-label" pointer-events="none"><text text-anchor="middle" transform="translate(23.076923076923077,20)" font-family="monospace" font-size="16px" fill="#000" opacity="1">0</text><text text-anchor="middle" transform="translate(69.23076923076924,20)" font-family="monospace" font-size="16px" fill="#000" opacity="1">10</text><text text-anchor="middle" transform="translate(115.38461538461539,20)" font-family="monospace" font-size="16px" fill="#000" opacity="1">20</text><text text-anchor="middle" transform="translate(161.53846153846152,20)" font-family="monospace" font-size="16px" fill="#000" opacity="1">30</text><text text-anchor="middle" transform="translate(207.69230769230768,20)" font-family="monospace" font-size="16px" fill="#000" opacity="1">40</text><text text-anchor="middle" transform="translate(253.84615384615384,20)" font-family="monospace" font-size="16px" fill="#000" opacity="1">50</text><text text-anchor="end" transform="translate(300,20)" font-family="monospace" font-size="16px" fill="#000" opacity="1">60</text></g><g class="mark-rule role-axis-domain" pointer-events="none"><line transform="translate(0,0)" x2="300" y2="0" stroke="#888" stroke-width="1" opacity="1"/></g><g class="mark-text role-axis-title" pointer-events="none"><text text-anchor="middle" transform="translate(150,43)" font-family="sans-serif" font-size="20px" font-weight="bold" fill="#000" opacity="1">m</text></g></g><path class="foreground" aria-hidden="true" d="" pointer-events="none" display="none"/></g></g></g><path class="foreground" aria-hidden="true" d="" display="none"/></g></g><g class="mark-group role-scope cell" role="graphics-object" aria-roledescription="group mark container"><g transform="translate(0,0)"><path class="background" aria-hidden="true" d="M0.5,0.5h300v300h-300Z" stroke="#ddd"/><g><g class="mark-line role-mark child_layer_0_marks" role="graphics-object" aria-roledescription="line mark container"><path aria-label="m: 1; P(m): 0.00201166320428" role="graphics-symbol" aria-roledescription="line mark" d="M27.692,296.228L32.308,284.076L36.923,255.349L41.538,206.439L46.154,143.744L50.769,83.335L55.385,43.448L60,35.183L64.615,57.934L69.231,101.605L73.846,152.738L78.462,200.181L83.077,237.781L87.692,264.126L92.308,280.768L96.923,290.372L101.538,295.481L106.154,298.004L110.769,299.168L115.385,299.672L124.615,299.956" stroke="black" stroke-width="2" opacity="0.7"/></g><g class="mark-rect role-mark child_layer_1_marks" role="graphics-object" aria-roledescription="rect mark container"><path aria-label="m: 8; Percentage: 0.1543" role="graphics-symbol" aria-roledescription="bar" d="M57.5,10.687500000000005h5v289.3125h-5Z" fill="#9ebcda" opacity="0.7"/><path aria-label="m: 7; Percentage: 0.14835" role="graphics-symbol" aria-roledescription="bar" d="M52.88461538461539,21.843749999999986h5v278.15625h-5Z" fill="#9ebcda" opacity="0.7"/><path aria-label="m: 9; Percentage: 0.1291" role="graphics-symbol" aria-roledescription="bar" d="M62.11538461538461,57.93750000000003h5v242.06249999999997h-5Z" fill="#9ebcda" opacity="0.7"/><path aria-label="m: 6; Percentage: 0.12165" role="graphics-symbol" aria-roledescription="bar" d="M48.269230769230774,71.90625000000001h5v228.09375h-5Z" fill="#9ebcda" opacity="0.7"/><path aria-label="m: 10; Percentage: 0.1063" role="graphics-symbol" aria-roledescription="bar" d="M66.73076923076924,100.68749999999999h5v199.3125h-5Z" fill="#9ebcda" opacity="0.7"/><path aria-label="m: 5; Percentage: 0.0816" role="graphics-symbol" aria-roledescription="bar" d="M43.65384615384615,147h5v153h-5Z" fill="#9ebcda" opacity="0.7"/><path aria-label="m: 11; Percentage: 0.0807" role="graphics-symbol" aria-roledescription="bar" d="M71.34615384615385,148.68750000000003h5v151.31249999999997h-5Z" fill="#9ebcda" opacity="0.7"/><path aria-label="m: 12; Percentage: 0.0513" role="graphics-symbol" aria-roledescription="bar" d="M75.96153846153847,203.81250000000003h5v96.18749999999997h-5Z" fill="#9ebcda" opacity="0.7"/><path aria-label="m: 4; Percentage: 0.04365" role="graphics-symbol" aria-roledescription="bar" d="M39.03846153846154,218.15625h5v81.84375h-5Z" fill="#9ebcda" opacity="0.7"/><path aria-label="m: 13; Percentage: 0.03045" role="graphics-symbol" aria-roledescription="bar" d="M80.57692307692308,242.90625h5v57.09375h-5Z" fill="#9ebcda" opacity="0.7"/><path aria-label="m: 3; Percentage: 0.0166" role="graphics-symbol" aria-roledescription="bar" d="M34.42307692307693,268.875h5v31.125h-5Z" fill="#9ebcda" opacity="0.7"/><path aria-label="m: 14; Percentage: 0.01515" role="graphics-symbol" aria-roledescription="bar" d="M85.1923076923077,271.59375h5v28.40625h-5Z" fill="#9ebcda" opacity="0.7"/><path aria-label="m: 15; Percentage: 0.0077" role="graphics-symbol" aria-roledescription="bar" d="M89.8076923076923,285.5625h5v14.4375h-5Z" fill="#9ebcda" opacity="0.7"/><path aria-label="m: 2; Percentage: 0.0055" role="graphics-symbol" aria-roledescription="bar" d="M29.807692307692307,289.6875h5v10.3125h-5Z" fill="#9ebcda" opacity="0.7"/><path aria-label="m: 16; Percentage: 0.0043" role="graphics-symbol" aria-roledescription="bar" d="M94.42307692307693,291.9375h5v8.0625h-5Z" fill="#9ebcda" opacity="0.7"/><path aria-label="m: 17; Percentage: 0.0013" role="graphics-symbol" aria-roledescription="bar" d="M99.03846153846155,297.5625h5v2.4375h-5Z" fill="#9ebcda" opacity="0.7"/><path aria-label="m: 18; Percentage: 0.00085" role="graphics-symbol" aria-roledescription="bar" d="M103.65384615384616,298.40625h5v1.59375h-5Z" fill="#9ebcda" opacity="0.7"/><path aria-label="m: 1; Percentage: 0.00065" role="graphics-symbol" aria-roledescription="bar" d="M25.192307692307693,298.78125h5v1.21875h-5Z" fill="#9ebcda" opacity="0.7"/><path aria-label="m: 19; Percentage: 0.00035" role="graphics-symbol" aria-roledescription="bar" d="M108.26923076923077,299.34375h5v0.65625h-5Z" fill="#9ebcda" opacity="0.7"/><path aria-label="m: 20; Percentage: 0.00015" role="graphics-symbol" aria-roledescription="bar" d="M112.88461538461539,299.71875h5v0.28125h-5Z" fill="#9ebcda" opacity="0.7"/><path aria-label="m: 22; Percentage: 0.00005" role="graphics-symbol" aria-roledescription="bar" d="M122.11538461538463,299.90625h5v0.09375h-5Z" fill="#9ebcda" opacity="0.7"/></g><g class="mark-group role-title"><g transform="translate(150,-28)"><path class="background" aria-hidden="true" d="M0,0h0v0h0Z" pointer-events="none"/><g><g class="mark-text role-title-text" role="graphics-symbol" aria-roledescription="title" aria-label="Title text '0'" pointer-events="none"><text text-anchor="middle" transform="translate(0,14)" font-family="sans-serif" font-size="18px" fill="#000" opacity="1">0</text></g></g><path class="foreground" aria-hidden="true" d="" pointer-events="none" display="none"/></g></g></g><path class="foreground" aria-hidden="true" d="" display="none"/></g><g transform="translate(322,0)"><path class="background" aria-hidden="true" d="M0.5,0.5h300v300h-300Z" stroke="#ddd"/><g><g class="mark-line role-mark child_layer_0_marks" role="graphics-object" aria-roledescription="line mark container"><path aria-label="m: 4; P(m): 0.000700026721237" role="graphics-symbol" aria-roledescription="line mark" d="M41.538,298.687L46.154,296.046L50.769,290.095L55.385,278.775L60,260.285L64.615,234.081L69.231,201.733L73.846,167.105L78.462,135.593L83.077,112.647L87.692,102.162L92.308,105.425L96.923,120.971L101.538,145.29L106.154,173.999L110.769,202.987L115.385,229.191L120,250.882L124.615,267.546L129.231,279.533L133.846,287.656L138.462,292.869L143.077,296.047L147.692,297.894L152.308,298.921L156.923,299.467L161.538,299.746L166.154,299.883L175.385,299.978" stroke="black" stroke-width="2" opacity="0.7"/></g><g class="mark-rect role-mark child_layer_1_marks" role="graphics-object" aria-roledescription="rect mark container"><path aria-label="m: 14; Percentage: 0.1079" role="graphics-symbol" aria-roledescription="bar" d="M85.1923076923077,97.68750000000001h5v202.3125h-5Z" fill="#9ebcda" opacity="0.7"/><path aria-label="m: 15; Percentage: 0.1055" role="graphics-symbol" aria-roledescription="bar" d="M89.8076923076923,102.18750000000001h5v197.8125h-5Z" fill="#9ebcda" opacity="0.7"/><path aria-label="m: 13; Percentage: 0.0998" role="graphics-symbol" aria-roledescription="bar" d="M80.57692307692308,112.87499999999999h5v187.125h-5Z" fill="#9ebcda" opacity="0.7"/><path aria-label="m: 16; Percentage: 0.09495" role="graphics-symbol" aria-roledescription="bar" d="M94.42307692307693,121.96874999999999h5v178.03125h-5Z" fill="#9ebcda" opacity="0.7"/><path aria-label="m: 12; Percentage: 0.09125" role="graphics-symbol" aria-roledescription="bar" d="M75.96153846153847,128.90625h5v171.09375h-5Z" fill="#9ebcda" opacity="0.7"/><path aria-label="m: 17; Percentage: 0.0845" role="graphics-symbol" aria-roledescription="bar" d="M99.03846153846155,141.56249999999997h5v158.43750000000003h-5Z" fill="#9ebcda" opacity="0.7"/><path aria-label="m: 11; Percentage: 0.0739" role="graphics-symbol" aria-roledescription="bar" d="M71.34615384615385,161.43750000000003h5v138.56249999999997h-5Z" fill="#9ebcda" opacity="0.7"/><path aria-label="m: 18; Percentage: 0.0677" role="graphics-symbol" aria-roledescription="bar" d="M103.65384615384616,173.0625h5v126.9375h-5Z" fill="#9ebcda" opacity="0.7"/><path aria-label="m: 10; Percentage: 0.05305" role="graphics-symbol" aria-roledescription="bar" d="M66.73076923076924,200.53125h5v99.46875h-5Z" fill="#9ebcda" opacity="0.7"/><path aria-label="m: 19; Percentage: 0.0508" role="graphics-symbol" aria-roledescription="bar" d="M108.26923076923077,204.75h5v95.25h-5Z" fill="#9ebcda" opacity="0.7"/><path aria-label="m: 20; Percentage: 0.0361" role="graphics-symbol" aria-roledescription="bar" d="M112.88461538461539,232.3125h5v67.6875h-5Z" fill="#9ebcda" opacity="0.7"/><path aria-label="m: 9; Percentage: 0.0324" role="graphics-symbol" aria-roledescription="bar" d="M62.11538461538461,239.25h5v60.75h-5Z" fill="#9ebcda" opacity="0.7"/><path aria-label="m: 21; Percentage: 0.0261" role="graphics-symbol" aria-roledescription="bar" d="M117.5,251.0625h5v48.9375h-5Z" fill="#9ebcda" opacity="0.7"/><path aria-label="m: 8; Percentage: 0.0197" role="graphics-symbol" aria-roledescription="bar" d="M57.5,263.0625h5v36.9375h-5Z" fill="#9ebcda" opacity="0.7"/><path aria-label="m: 22; Percentage: 0.01635" role="graphics-symbol" aria-roledescription="bar" d="M122.11538461538463,269.34375h5v30.65625h-5Z" fill="#9ebcda" opacity="0.7"/><path aria-label="m: 7; Percentage: 0.01015" role="graphics-symbol" aria-roledescription="bar" d="M52.88461538461539,280.96875h5v19.03125h-5Z" fill="#9ebcda" opacity="0.7"/><path aria-label="m: 23; Percentage: 0.0099" role="graphics-symbol" aria-roledescription="bar" d="M126.73076923076923,281.4375h5v18.5625h-5Z" fill="#9ebcda" opacity="0.7"/><path aria-label="m: 24; Percentage: 0.00635" role="graphics-symbol" aria-roledescription="bar" d="M131.34615384615384,288.09375h5v11.90625h-5Z" fill="#9ebcda" opacity="0.7"/><path aria-label="m: 6; Percentage: 0.0042" role="graphics-symbol" aria-roledescription="bar" d="M48.269230769230774,292.125h5v7.875h-5Z" fill="#9ebcda" opacity="0.7"/><path aria-label="m: 25; Percentage: 0.0035" role="graphics-symbol" aria-roledescription="bar" d="M135.96153846153848,293.4375h5v6.5625h-5Z" fill="#9ebcda" opacity="0.7"/><path aria-label="m: 26; Percentage: 0.0021" role="graphics-symbol" aria-roledescription="bar" d="M140.5769230769231,296.0625h5v3.9375h-5Z" fill="#9ebcda" opacity="0.7"/><path aria-label="m: 5; Percentage: 0.0013" role="graphics-symbol" aria-roledescription="bar" d="M43.65384615384615,297.5625h5v2.4375h-5Z" fill="#9ebcda" opacity="0.7"/><path aria-label="m: 27; Percentage: 0.00095" role="graphics-symbol" aria-roledescription="bar" d="M145.1923076923077,298.21875h5v1.78125h-5Z" fill="#9ebcda" opacity="0.7"/><path aria-label="m: 28; Percentage: 0.0007" role="graphics-symbol" aria-roledescription="bar" d="M149.8076923076923,298.6875h5v1.3125h-5Z" fill="#9ebcda" opacity="0.7"/><path aria-label="m: 4; Percentage: 0.00055" role="graphics-symbol" aria-roledescription="bar" d="M39.03846153846154,298.96875h5v1.03125h-5Z" fill="#9ebcda" opacity="0.7"/><path aria-label="m: 29; Percentage: 0.00015" role="graphics-symbol" aria-roledescription="bar" d="M154.42307692307693,299.71875h5v0.28125h-5Z" fill="#9ebcda" opacity="0.7"/><path aria-label="m: 30; Percentage: 0.00005" role="graphics-symbol" aria-roledescription="bar" d="M159.03846153846152,299.90625h5v0.09375h-5Z" fill="#9ebcda" opacity="0.7"/><path aria-label="m: 31; Percentage: 0.00005" role="graphics-symbol" aria-roledescription="bar" d="M163.65384615384616,299.90625h5v0.09375h-5Z" fill="#9ebcda" opacity="0.7"/><path aria-label="m: 33; Percentage: 0.00005" role="graphics-symbol" aria-roledescription="bar" d="M172.8846153846154,299.90625h5v0.09375h-5Z" fill="#9ebcda" opacity="0.7"/></g><g class="mark-group role-title"><g transform="translate(150,-28)"><path class="background" aria-hidden="true" d="M0,0h0v0h0Z" pointer-events="none"/><g><g class="mark-text role-title-text" role="graphics-symbol" aria-roledescription="title" aria-label="Title text '0.3'" pointer-events="none"><text text-anchor="middle" transform="translate(0,14)" font-family="sans-serif" font-size="18px" fill="#000" opacity="1">0.3</text></g></g><path class="foreground" aria-hidden="true" d="" pointer-events="none" display="none"/></g></g></g><path class="foreground" aria-hidden="true" d="" display="none"/></g><g transform="translate(0,352)"><path class="background" aria-hidden="true" d="M0.5,0.5h300v300h-300Z" stroke="#ddd"/><g><g class="mark-line role-mark child_layer_0_marks" role="graphics-object" aria-roledescription="line mark container"><path aria-label="m: 7; P(m): 0.0000441474776128" role="graphics-symbol" aria-roledescription="line mark" d="M55.385,299.917L60,299.753L64.615,299.344L69.231,298.435L73.846,296.612L78.462,293.285L83.077,287.732L87.692,279.213L92.308,267.169L96.923,251.451L101.538,232.52L106.154,211.534L110.769,190.27L115.385,170.869L120,155.465L124.615,145.78L129.231,142.807L133.846,146.656L138.462,156.584L143.077,171.198L147.692,188.756L152.308,207.474L156.923,225.795L161.538,242.548L166.154,257.012L170.769,268.88L175.385,278.184L180,285.176L184.615,290.228L189.231,293.746L193.846,296.11L198.462,297.648L203.077,298.616L207.692,299.207L212.308,299.557L216.923,299.759L226.154,299.934L235.385,299.983" stroke="black" stroke-width="2" opacity="0.7"/></g><g class="mark-rect role-mark child_layer_1_marks" role="graphics-object" aria-roledescription="rect mark container"><path aria-label="m: 23; Percentage: 0.0833" role="graphics-symbol" aria-roledescription="bar" d="M126.73076923076923,143.8125h5v156.1875h-5Z" fill="#9ebcda" opacity="0.7"/><path aria-label="m: 22; Percentage: 0.08065" role="graphics-symbol" aria-roledescription="bar" d="M122.11538461538463,148.78125h5v151.21875h-5Z" fill="#9ebcda" opacity="0.7"/><path aria-label="m: 24; Percentage: 0.0791" role="graphics-symbol" aria-roledescription="bar" d="M131.34615384615384,151.6875h5v148.3125h-5Z" fill="#9ebcda" opacity="0.7"/><path aria-label="m: 21; Percentage: 0.0785" role="graphics-symbol" aria-roledescription="bar" d="M117.5,152.8125h5v147.1875h-5Z" fill="#9ebcda" opacity="0.7"/><path aria-label="m: 25; Percentage: 0.0775" role="graphics-symbol" aria-roledescription="bar" d="M135.96153846153848,154.6875h5v145.3125h-5Z" fill="#9ebcda" opacity="0.7"/><path aria-label="m: 26; Percentage: 0.0712" role="graphics-symbol" aria-roledescription="bar" d="M140.5769230769231,166.49999999999997h5v133.50000000000003h-5Z" fill="#9ebcda" opacity="0.7"/><path aria-label="m: 20; Percentage: 0.0686" role="graphics-symbol" aria-roledescription="bar" d="M112.88461538461539,171.375h5v128.625h-5Z" fill="#9ebcda" opacity="0.7"/><path aria-label="m: 19; Percentage: 0.0622" role="graphics-symbol" aria-roledescription="bar" d="M108.26923076923077,183.37500000000003h5v116.62499999999997h-5Z" fill="#9ebcda" opacity="0.7"/><path aria-label="m: 27; Percentage: 0.06065" role="graphics-symbol" aria-roledescription="bar" d="M145.1923076923077,186.28124999999997h5v113.71875000000003h-5Z" fill="#9ebcda" opacity="0.7"/><path aria-label="m: 28; Percentage: 0.05075" role="graphics-symbol" aria-roledescription="bar" d="M149.8076923076923,204.84375h5v95.15625h-5Z" fill="#9ebcda" opacity="0.7"/><path aria-label="m: 18; Percentage: 0.0448" role="graphics-symbol" aria-roledescription="bar" d="M103.65384615384616,216h5v84h-5Z" fill="#9ebcda" opacity="0.7"/><path aria-label="m: 29; Percentage: 0.039" role="graphics-symbol" aria-roledescription="bar" d="M154.42307692307693,226.875h5v73.125h-5Z" fill="#9ebcda" opacity="0.7"/><path aria-label="m: 17; Percentage: 0.03345" role="graphics-symbol" aria-roledescription="bar" d="M99.03846153846155,237.28125h5v62.71875h-5Z" fill="#9ebcda" opacity="0.7"/><path aria-label="m: 30; Percentage: 0.03125" role="graphics-symbol" aria-roledescription="bar" d="M159.03846153846152,241.40625h5v58.59375h-5Z" fill="#9ebcda" opacity="0.7"/><path aria-label="m: 16; Percentage: 0.02535" role="graphics-symbol" aria-roledescription="bar" d="M94.42307692307693,252.46875h5v47.53125h-5Z" fill="#9ebcda" opacity="0.7"/><path aria-label="m: 31; Percentage: 0.0218" role="graphics-symbol" aria-roledescription="bar" d="M163.65384615384616,259.125h5v40.875h-5Z" fill="#9ebcda" opacity="0.7"/><path aria-label="m: 15; Percentage: 0.01815" role="graphics-symbol" aria-roledescription="bar" d="M89.8076923076923,265.96875h5v34.03125h-5Z" fill="#9ebcda" opacity="0.7"/><path aria-label="m: 32; Percentage: 0.0163" role="graphics-symbol" aria-roledescription="bar" d="M168.26923076923077,269.4375h5v30.5625h-5Z" fill="#9ebcda" opacity="0.7"/><path aria-label="m: 14; Percentage: 0.01165" role="graphics-symbol" aria-roledescription="bar" d="M85.1923076923077,278.15625h5v21.84375h-5Z" fill="#9ebcda" opacity="0.7"/><path aria-label="m: 33; Percentage: 0.0111" role="graphics-symbol" aria-roledescription="bar" d="M172.8846153846154,279.1875h5v20.8125h-5Z" fill="#9ebcda" opacity="0.7"/><path aria-label="m: 34; Percentage: 0.0093" role="graphics-symbol" aria-roledescription="bar" d="M177.5,282.5625h5v17.4375h-5Z" fill="#9ebcda" opacity="0.7"/><path aria-label="m: 13; Percentage: 0.00565" role="graphics-symbol" aria-roledescription="bar" d="M80.57692307692308,289.40625h5v10.59375h-5Z" fill="#9ebcda" opacity="0.7"/><path aria-label="m: 35; Percentage: 0.0043" role="graphics-symbol" aria-roledescription="bar" d="M182.1153846153846,291.9375h5v8.0625h-5Z" fill="#9ebcda" opacity="0.7"/><path aria-label="m: 12; Percentage: 0.00355" role="graphics-symbol" aria-roledescription="bar" d="M75.96153846153847,293.34375h5v6.65625h-5Z" fill="#9ebcda" opacity="0.7"/><path aria-label="m: 36; Percentage: 0.00335" role="graphics-symbol" aria-roledescription="bar" d="M186.73076923076923,293.71875h5v6.28125h-5Z" fill="#9ebcda" opacity="0.7"/><path aria-label="m: 37; Percentage: 0.0024" role="graphics-symbol" aria-roledescription="bar" d="M191.34615384615387,295.5h5v4.5h-5Z" fill="#9ebcda" opacity="0.7"/><path aria-label="m: 11; Percentage: 0.00175" role="graphics-symbol" aria-roledescription="bar" d="M71.34615384615385,296.71875h5v3.28125h-5Z" fill="#9ebcda" opacity="0.7"/><path aria-label="m: 38; Percentage: 0.00145" role="graphics-symbol" aria-roledescription="bar" d="M195.96153846153845,297.28125h5v2.71875h-5Z" fill="#9ebcda" opacity="0.7"/><path aria-label="m: 10; Percentage: 0.00075" role="graphics-symbol" aria-roledescription="bar" d="M66.73076923076924,298.59375h5v1.40625h-5Z" fill="#9ebcda" opacity="0.7"/><path aria-label="m: 39; Percentage: 0.00075" role="graphics-symbol" aria-roledescription="bar" d="M200.5769230769231,298.59375h5v1.40625h-5Z" fill="#9ebcda" opacity="0.7"/><path aria-label="m: 40; Percentage: 0.00045" role="graphics-symbol" aria-roledescription="bar" d="M205.19230769230768,299.15625h5v0.84375h-5Z" fill="#9ebcda" opacity="0.7"/><path aria-label="m: 8; Percentage: 0.00025" role="graphics-symbol" aria-roledescription="bar" d="M57.5,299.53125h5v0.46875h-5Z" fill="#9ebcda" opacity="0.7"/><path aria-label="m: 41; Percentage: 0.00025" role="graphics-symbol" aria-roledescription="bar" d="M209.80769230769232,299.53125h5v0.46875h-5Z" fill="#9ebcda" opacity="0.7"/><path aria-label="m: 9; Percentage: 0.0002" role="graphics-symbol" aria-roledescription="bar" d="M62.11538461538461,299.625h5v0.375h-5Z" fill="#9ebcda" opacity="0.7"/><path aria-label="m: 44; Percentage: 0.0001" role="graphics-symbol" aria-roledescription="bar" d="M223.65384615384616,299.8125h5v0.1875h-5Z" fill="#9ebcda" opacity="0.7"/><path aria-label="m: 46; Percentage: 0.0001" role="graphics-symbol" aria-roledescription="bar" d="M232.8846153846154,299.8125h5v0.1875h-5Z" fill="#9ebcda" opacity="0.7"/><path aria-label="m: 42; Percentage: 0.00005" role="graphics-symbol" aria-roledescription="bar" d="M214.4230769230769,299.90625h5v0.09375h-5Z" fill="#9ebcda" opacity="0.7"/><path aria-label="m: 7; Percentage: 0.00005" role="graphics-symbol" aria-roledescription="bar" d="M52.88461538461539,299.90625h5v0.09375h-5Z" fill="#9ebcda" opacity="0.7"/></g><g class="mark-group role-title"><g transform="translate(150,-28)"><path class="background" aria-hidden="true" d="M0,0h0v0h0Z" pointer-events="none"/><g><g class="mark-text role-title-text" role="graphics-symbol" aria-roledescription="title" aria-label="Title text '0.7'" pointer-events="none"><text text-anchor="middle" transform="translate(0,14)" font-family="sans-serif" font-size="18px" fill="#000" opacity="1">0.7</text></g></g><path class="foreground" aria-hidden="true" d="" pointer-events="none" display="none"/></g></g></g><path class="foreground" aria-hidden="true" d="" display="none"/></g><g transform="translate(322,352)"><path class="background" aria-hidden="true" d="M0.5,0.5h300v300h-300Z" stroke="#ddd"/><g><g class="mark-line role-mark child_layer_0_marks" role="graphics-object" aria-roledescription="line mark container"><path aria-label="m: 11; P(m): 0.0000367885093541" role="graphics-symbol" aria-roledescription="line mark" d="M73.846,299.931L78.462,299.825L83.077,299.589L87.692,299.107L92.308,298.19L96.923,296.565L101.538,293.869L106.154,289.676L110.769,283.548L115.385,275.118L120,264.198L124.615,250.877L129.231,235.597L133.846,219.164L138.462,202.697L143.077,187.495L147.692,174.866L152.308,165.928L156.923,161.448L161.538,161.733L166.154,166.608L170.769,175.46L175.385,187.366L180,201.231L184.615,215.952L189.231,230.538L193.846,244.202L198.462,256.403L203.077,266.844L207.692,275.441L212.308,282.271L216.923,287.519L221.538,291.427L226.154,294.251L230.769,296.235L235.385,297.59L240,298.492L244.615,299.077L249.231,299.447L253.846,299.676L258.462,299.814L263.077,299.895L272.308,299.969L295.385,299.999" stroke="black" stroke-width="2" opacity="0.7"/></g><g class="mark-rect role-mark child_layer_1_marks" role="graphics-object" aria-roledescription="rect mark container"><path aria-label="m: 29; Percentage: 0.07585" role="graphics-symbol" aria-roledescription="bar" d="M154.42307692307693,157.78124999999997h5v142.21875000000003h-5Z" fill="#9ebcda" opacity="0.7"/><path aria-label="m: 28; Percentage: 0.0747" role="graphics-symbol" aria-roledescription="bar" d="M149.8076923076923,159.93750000000003h5v140.06249999999997h-5Z" fill="#9ebcda" opacity="0.7"/><path aria-label="m: 30; Percentage: 0.0741" role="graphics-symbol" aria-roledescription="bar" d="M159.03846153846152,161.0625h5v138.9375h-5Z" fill="#9ebcda" opacity="0.7"/><path aria-label="m: 31; Percentage: 0.06905" role="graphics-symbol" aria-roledescription="bar" d="M163.65384615384616,170.53124999999997h5v129.46875000000003h-5Z" fill="#9ebcda" opacity="0.7"/><path aria-label="m: 27; Percentage: 0.0664" role="graphics-symbol" aria-roledescription="bar" d="M145.1923076923077,175.5h5v124.5h-5Z" fill="#9ebcda" opacity="0.7"/><path aria-label="m: 32; Percentage: 0.0663" role="graphics-symbol" aria-roledescription="bar" d="M168.26923076923077,175.68750000000003h5v124.31249999999997h-5Z" fill="#9ebcda" opacity="0.7"/><path aria-label="m: 26; Percentage: 0.0598" role="graphics-symbol" aria-roledescription="bar" d="M140.5769230769231,187.875h5v112.125h-5Z" fill="#9ebcda" opacity="0.7"/><path aria-label="m: 33; Percentage: 0.05825" role="graphics-symbol" aria-roledescription="bar" d="M172.8846153846154,190.78125h5v109.21875h-5Z" fill="#9ebcda" opacity="0.7"/><path aria-label="m: 25; Percentage: 0.0524" role="graphics-symbol" aria-roledescription="bar" d="M135.96153846153848,201.75h5v98.25h-5Z" fill="#9ebcda" opacity="0.7"/><path aria-label="m: 34; Percentage: 0.0506" role="graphics-symbol" aria-roledescription="bar" d="M177.5,205.12500000000003h5v94.87499999999997h-5Z" fill="#9ebcda" opacity="0.7"/><path aria-label="m: 35; Percentage: 0.04355" role="graphics-symbol" aria-roledescription="bar" d="M182.1153846153846,218.34375h5v81.65625h-5Z" fill="#9ebcda" opacity="0.7"/><path aria-label="m: 24; Percentage: 0.04315" role="graphics-symbol" aria-roledescription="bar" d="M131.34615384615384,219.09374999999997h5v80.90625000000003h-5Z" fill="#9ebcda" opacity="0.7"/><path aria-label="m: 36; Percentage: 0.03935" role="graphics-symbol" aria-roledescription="bar" d="M186.73076923076923,226.21875h5v73.78125h-5Z" fill="#9ebcda" opacity="0.7"/><path aria-label="m: 23; Percentage: 0.03645" role="graphics-symbol" aria-roledescription="bar" d="M126.73076923076923,231.65625h5v68.34375h-5Z" fill="#9ebcda" opacity="0.7"/><path aria-label="m: 37; Percentage: 0.0311" role="graphics-symbol" aria-roledescription="bar" d="M191.34615384615387,241.6875h5v58.3125h-5Z" fill="#9ebcda" opacity="0.7"/><path aria-label="m: 22; Percentage: 0.02435" role="graphics-symbol" aria-roledescription="bar" d="M122.11538461538463,254.34375h5v45.65625h-5Z" fill="#9ebcda" opacity="0.7"/><path aria-label="m: 38; Percentage: 0.02295" role="graphics-symbol" aria-roledescription="bar" d="M195.96153846153845,256.96875h5v43.03125h-5Z" fill="#9ebcda" opacity="0.7"/><path aria-label="m: 21; Percentage: 0.01765" role="graphics-symbol" aria-roledescription="bar" d="M117.5,266.90625h5v33.09375h-5Z" fill="#9ebcda" opacity="0.7"/><path aria-label="m: 39; Percentage: 0.0171" role="graphics-symbol" aria-roledescription="bar" d="M200.5769230769231,267.9375h5v32.0625h-5Z" fill="#9ebcda" opacity="0.7"/><path aria-label="m: 40; Percentage: 0.0125" role="graphics-symbol" aria-roledescription="bar" d="M205.19230769230768,276.5625h5v23.4375h-5Z" fill="#9ebcda" opacity="0.7"/><path aria-label="m: 20; Percentage: 0.01225" role="graphics-symbol" aria-roledescription="bar" d="M112.88461538461539,277.03125h5v22.96875h-5Z" fill="#9ebcda" opacity="0.7"/><path aria-label="m: 41; Percentage: 0.00985" role="graphics-symbol" aria-roledescription="bar" d="M209.80769230769232,281.53125h5v18.46875h-5Z" fill="#9ebcda" opacity="0.7"/><path aria-label="m: 19; Percentage: 0.0088" role="graphics-symbol" aria-roledescription="bar" d="M108.26923076923077,283.5h5v16.5h-5Z" fill="#9ebcda" opacity="0.7"/><path aria-label="m: 42; Percentage: 0.0063" role="graphics-symbol" aria-roledescription="bar" d="M214.4230769230769,288.1875h5v11.8125h-5Z" fill="#9ebcda" opacity="0.7"/><path aria-label="m: 18; Percentage: 0.0056" role="graphics-symbol" aria-roledescription="bar" d="M103.65384615384616,289.5h5v10.5h-5Z" fill="#9ebcda" opacity="0.7"/><path aria-label="m: 43; Percentage: 0.0049" role="graphics-symbol" aria-roledescription="bar" d="M219.03846153846155,290.8125h5v9.1875h-5Z" fill="#9ebcda" opacity="0.7"/><path aria-label="m: 44; Percentage: 0.00365" role="graphics-symbol" aria-roledescription="bar" d="M223.65384615384616,293.15625h5v6.84375h-5Z" fill="#9ebcda" opacity="0.7"/><path aria-label="m: 17; Percentage: 0.0031" role="graphics-symbol" aria-roledescription="bar" d="M99.03846153846155,294.1875h5v5.8125h-5Z" fill="#9ebcda" opacity="0.7"/><path aria-label="m: 16; Percentage: 0.00225" role="graphics-symbol" aria-roledescription="bar" d="M94.42307692307693,295.78125h5v4.21875h-5Z" fill="#9ebcda" opacity="0.7"/><path aria-label="m: 45; Percentage: 0.00225" role="graphics-symbol" aria-roledescription="bar" d="M228.26923076923077,295.78125h5v4.21875h-5Z" fill="#9ebcda" opacity="0.7"/><path aria-label="m: 46; Percentage: 0.0016" role="graphics-symbol" aria-roledescription="bar" d="M232.8846153846154,297h5v3h-5Z" fill="#9ebcda" opacity="0.7"/><path aria-label="m: 47; Percentage: 0.0012" role="graphics-symbol" aria-roledescription="bar" d="M237.5,297.75h5v2.25h-5Z" fill="#9ebcda" opacity="0.7"/><path aria-label="m: 15; Percentage: 0.00065" role="graphics-symbol" aria-roledescription="bar" d="M89.8076923076923,298.78125h5v1.21875h-5Z" fill="#9ebcda" opacity="0.7"/><path aria-label="m: 14; Percentage: 0.00055" role="graphics-symbol" aria-roledescription="bar" d="M85.1923076923077,298.96875h5v1.03125h-5Z" fill="#9ebcda" opacity="0.7"/><path aria-label="m: 48; Percentage: 0.00045" role="graphics-symbol" aria-roledescription="bar" d="M242.1153846153846,299.15625h5v0.84375h-5Z" fill="#9ebcda" opacity="0.7"/><path aria-label="m: 13; Percentage: 0.0002" role="graphics-symbol" aria-roledescription="bar" d="M80.57692307692308,299.625h5v0.375h-5Z" fill="#9ebcda" opacity="0.7"/><path aria-label="m: 51; Percentage: 0.0002" role="graphics-symbol" aria-roledescription="bar" d="M255.96153846153845,299.625h5v0.375h-5Z" fill="#9ebcda" opacity="0.7"/><path aria-label="m: 50; Percentage: 0.00015" role="graphics-symbol" aria-roledescription="bar" d="M251.34615384615384,299.71875h5v0.28125h-5Z" fill="#9ebcda" opacity="0.7"/><path aria-label="m: 49; Percentage: 0.0001" role="graphics-symbol" aria-roledescription="bar" d="M246.73076923076925,299.8125h5v0.1875h-5Z" fill="#9ebcda" opacity="0.7"/><path aria-label="m: 11; Percentage: 0.0001" role="graphics-symbol" aria-roledescription="bar" d="M71.34615384615385,299.8125h5v0.1875h-5Z" fill="#9ebcda" opacity="0.7"/><path aria-label="m: 12; Percentage: 0.0001" role="graphics-symbol" aria-roledescription="bar" d="M75.96153846153847,299.8125h5v0.1875h-5Z" fill="#9ebcda" opacity="0.7"/><path aria-label="m: 52; Percentage: 0.00005" role="graphics-symbol" aria-roledescription="bar" d="M260.5769230769231,299.90625h5v0.09375h-5Z" fill="#9ebcda" opacity="0.7"/><path aria-label="m: 54; Percentage: 0.00005" role="graphics-symbol" aria-roledescription="bar" d="M269.8076923076923,299.90625h5v0.09375h-5Z" fill="#9ebcda" opacity="0.7"/><path aria-label="m: 59; Percentage: 0.00005" role="graphics-symbol" aria-roledescription="bar" d="M292.8846153846154,299.90625h5v0.09375h-5Z" fill="#9ebcda" opacity="0.7"/></g><g class="mark-group role-title"><g transform="translate(150,-28)"><path class="background" aria-hidden="true" d="M0,0h0v0h0Z" pointer-events="none"/><g><g class="mark-text role-title-text" role="graphics-symbol" aria-roledescription="title" aria-label="Title text '1'" pointer-events="none"><text text-anchor="middle" transform="translate(0,14)" font-family="sans-serif" font-size="18px" fill="#000" opacity="1">1</text></g></g><path class="foreground" aria-hidden="true" d="" pointer-events="none" display="none"/></g></g></g><path class="foreground" aria-hidden="true" d="" display="none"/></g></g></g><path class="foreground" aria-hidden="true" d="" display="none"/></g></g></g></svg>