<svg xmlns="http://www.w3.org/2000/svg" xmlns:xlink="http://www.w3.org/1999/xlink" version="1.1" class="marks" width="380" height="395" viewBox="0 0 380 395"><rect width="380" height="395" fill="white"/><g fill="none" stroke-miterlimit="10" transform="translate(73,13)"><g class="mark-group role-frame root" role="graphics-object" aria-roledescription="group mark container"><g transform="translate(0,0)"><path class="background" aria-hidden="true" d="M0.5,0.5h300v330h-300Z" stroke="#ddd"/><g><g class="mark-group role-axis" role="graphics-symbol" aria-roledescription="axis" aria-label="X-axis titled 'q / p' for a linear scale with values from 0.0 to 1.0"><g transform="translate(0.5,330.5)"><path class="background" aria-hidden="true" d="M0,0h0v0h0Z" pointer-events="none"/><g><g class="mark-rule role-axis-tick" pointer-events="none"><line transform="translate(0,0)" x2="0" y2="5" stroke="#888" stroke-width="1" opacity="1"/><line transform="translate(30,0)" x2="0" y2="5" stroke="#888" stroke-width="1" opacity="1"/><line transform="translate(60,0)" x2="0" y2="5" stroke="#888" stroke-width="1" opacity="1"/><line transform="translate(90,0)" x2="0" y2="5" stroke="#888" stroke-width="1" opacity="1"/><line transform="translate(120,0)" x2="0" y2="5" stroke="#888" stroke-width="1" opacity="1"/><line transform="translate(150,0)" x2="0" y2="5" stroke="#888" stroke-width="1" opacity="1"/><line transform="translate(180,0)" x2="0" y2="5" stroke="#888" stroke-width="1" opacity="1"/><line transform="translate(210,0)" x2="0" y2="5" stroke="#888" stroke-width="1" opacity="1"/><line transform="translate(240,0)" x2="0" y2="5" stroke="#888" stroke-width="1" opacity="1"/><line transform="translate(270,0)" x2="0" y2="5" stroke="#888" stroke-width="1" opacity="1"/><line transform="translate(300,0)" x2="0" y2="5" stroke="#888" stroke-width="1" opacity="1"/></g><g class="mark-text role-axis-label" pointer-events="none"><text text-anchor="start" transform="translate(0,20)" font-family="monospace" font-size="16px" fill="#000" opacity="1">0.0</text><text text-anchor="middle" transform="translate(30,20)" font-family="monospace" font-size="16px" fill="#000" opacity="0">0.1</text><text text-anchor="middle" transform="translate(60,20)" font-family="monospace" font-size="16px" fill="#000" opacity="1">0.2</text><text text-anchor="middle" transform="translate(90,20)" font-family="monospace" font-size="16px" fill="#000" opacity="0">0.3</text><text text-anchor="middle" transform="translate(120,20)" font-family="monospace" font-size="16px" fill="#000" opacity="1">0.4</text><text text-anchor="middle" transform="translate(150,20)" font-family="monospace" font-size="16px" fill="#000" opacity="0">0.5</text><text text-anchor="middle" transform="translate(180,20)" font-family="monospace" font-size="16px" fill="#000" opacity="1">0.6</text><text text-anchor="middle" transform="translate(210,20)" font-family="monospace" font-size="16px" fill="#000" opacity="0">0.7</text><text text-anchor="middle" transform="translate(240,20)" font-family="monospace" font-size="16px" fill="#000" opacity="1">0.8</text><text text-anchor="middle" transform="translate(270,20)" font-family="monospace" font-size="16px" fill="#000" opacity="0">0.9</text><text text-anchor="end" transform="translate(300,20)" font-family="monospace" font-size="16px" fill="#000" opacity="1">1.0</text></g><g class="mark-rule role-axis-domain" pointer-events="none"><line transform="translate(0,0)" x2="300" y2="0" stroke="#888" stroke-width="1" opacity="1"/></g><g class="mark-text role-axis-title" pointer-events="none"><text text-anchor="middle" transform="translate(150,43)" font-family="sans-serif" font-size="20px" font-weight="bold" fill="#000" opacity="1">q / p</text></g></g><path class="foreground" aria-hidden="true" d="" pointer-events="none" display="none"/></g></g><g class="mark-group role-axis" role="graphics-symbol" aria-roledescription="axis" aria-label="Y-axis titled 'G' for a linear scale with values from 0.0 to 1.0"><g transform="translate(0.5,0.5)"><path class="background" aria-hidden="true" d="M0,0h0v0h0Z" pointer-events="none"/><g><g class="mark-rule role-axis-tick" pointer-events="none"><line transform="translate(0,330)" x2="-5" y2="0" stroke="#888" stroke-width="1" opacity="1"/><line transform="translate(0,297)" x2="-5" y2="0" stroke="#888" stroke-width="1" opacity="1"/><line transform="translate(0,264)" x2="-5" y2="0" stroke="#888" stroke-width="1" opacity="1"/><line transform="translate(0,231)" x2="-5" y2="0" stroke="#888" stroke-width="1" opacity="1"/><line transform="translate(0,198)" x2="-5" y2="0" stroke="#888" stroke-width="1" opacity="1"/><line transform="translate(0,165)" x2="-5" y2="0" stroke="#888" stroke-width="1" opacity="1"/><line transform="translate(0,132)" x2="-5" y2="0" stroke="#888" stroke-width="1" opacity="1"/><line transform="translate(0,99)" x2="-5" y2="0" stroke="#888" stroke-width="1" opacity="1"/><line transform="translate(0,66)" x2="-5" y2="0" stroke="#888" stroke-width="1" opacity="1"/><line transform="translate(0,33)" x2="-5" y2="0" stroke="#888" stroke-width="1" opacity="1"/><line transform="translate(0,0)" x2="-5" y2="0" stroke="#888" stroke-width="1" opacity="1"/></g><g class="mark-text role-axis-label" pointer-events="none"><text text-anchor="end" transform="translate(-7,335)" font-family="monospace" font-size="16px" fill="#000" opacity="1">0.0</text><text text-anchor="end" transform="translate(-7,302)" font-family="monospace" font-size="16px" fill="#000" opacity="1">0.1</text><text text-anchor="end" transform="translate(-7,269)" font-family="monospace" font-size="16px" fill="#000" opacity="1">0.2</text><text text-anchor="end" transform="translate(-7,235.99999999999997)" font-family="monospace" font-size="16px" fill="#000" opacity="1">0.3</text><text text-anchor="end" transform="translate(-7,203)" font-family="monospace" font-size="16px" fill="#000" opacity="1">0.4</text><text text-anchor="end" transform="translate(-7,170)" font-family="monospace" font-size="16px" fill="#000" opacity="1">0.5</text><text text-anchor="end" transform="translate(-7,137)" font-family="monospace" font-size="16px" fill="#000" opacity="1">0.6</text><text text-anchor="end" transform="translate(-7,104.00000000000001)" font-family="monospace" font-size="16px" fill="#000" opacity="1">0.7</text><text text-anchor="end" transform="translate(-7,70.99999999999999)" font-family="monospace" font-size="16px" fill="#000" opacity="1">0.8</text><text text-anchor="end" transform="translate(-7,37.99999999999999)" font-family="monospace" font-size="16px" fill="#000" opacity="1">0.9</text><text text-anchor="end" transform="translate(-7,5)" font-family="monospace" font-size="16px" fill="#000" opacity="1">1.0</text></g><g class="mark-text role-axis-title" pointer-events="none"><text text-anchor="middle" transform="translate(-60,161)" font-family="sans-serif" font-size="20px" font-weight="bold" fill="#000" opacity="1">G</text></g></g><path class="foreground" aria-hidden="true" d="" pointer-events="none" display="none"/></g></g><g class="mark-group role-scope pathgroup" role="graphics-object" aria-roledescription="group mark container"><g transform="translate(0,0)"><path class="background" aria-hidden="true" d="M0,0h300v330h-300Z"/><g><g class="mark-line role-mark marks" role="graphics-object" aria-roledescription="line mark container"><path aria-label="q / p: 0; G: 1; type: Ḡ" role="graphics-symbol" aria-roledescription="line mark" d="M0,0L3,28.667L15,116.034L30,181.227L60,239.875L90,262.221L120,271.309L150,275.68L180,278.132L210,280.255L240,281.032L270,281.746L300,282.589" stroke="#9ebcda" stroke-width="2"/></g></g><path class="foreground" aria-hidden="true" d="" display="none"/></g><g transform="translate(0,0)"><path class="background" aria-hidden="true" d="M0,0h300v330h-300Z"/><g><g class="mark-line role-mark marks" role="graphics-object" aria-roledescription="line mark container"><path aria-label="q / p: 0; G: 0; type: σ" role="graphics-symbol" aria-roledescription="line mark" d="M0,330L3,284.26L15,257.208L30,262.053L60,281.842L90,295.669L120,302.2L150,305.406L180,307.209L210,308.2L240,308.815L270,309.187L300,309.651" stroke="black" stroke-width="2"/></g></g><path class="foreground" aria-hidden="true" d="" display="none"/></g></g><g class="mark-group role-legend" role="graphics-symbol" aria-roledescription="legend" aria-label="Symbol legend for stroke color with 2 values: σ, Ḡ"><g transform="translate(234,18)"><path class="background" aria-hidden="true" d="M0,0h48v50h-48Z" pointer-events="none"/><g><g class="mark-group role-legend-entry"><g transform="translate(0,0)"><path class="background" aria-hidden="true" d="M0,0h0v0h0Z" pointer-events="none"/><g><g class="mark-group role-scope" role="graphics-object" aria-roledescription="group mark container"><g transform="translate(0,0)"><path class="background" aria-hidden="true" d="M0,0h47.3984375v23.5h-47.3984375Z" pointer-events="none" opacity="1"/><g><g class="mark-symbol role-legend-symbol" pointer-events="none"><path transform="translate(15.5,15.5)" d="M-13.693,0L13.693,0" stroke="black" stroke-width="3" opacity="1"/></g><g class="mark-text role-legend-label" pointer-events="none"><text text-anchor="start" transform="translate(35,20.5)" font-family="sans-serif" font-size="16px" fill="#000" opacity="1">σ</text></g></g><path class="foreground" aria-hidden="true" d="" pointer-events="none" display="none"/></g><g transform="translate(0,26)"><path class="background" aria-hidden="true" d="M0,0h47.3984375v23.5h-47.3984375Z" pointer-events="none" opacity="1"/><g><g class="mark-symbol role-legend-symbol" pointer-events="none"><path transform="translate(15.5,15.5)" d="M-13.693,0L13.693,0" stroke="#9ebcda" stroke-width="3" opacity="1"/></g><g class="mark-text role-legend-label" pointer-events="none"><text text-anchor="start" transform="translate(35,20.5)" font-family="sans-serif" font-size="16px" fill="#000" opacity="1">Ḡ</text></g></g><path class="foreground" aria-hidden="true" d="" pointer-events="none" display="none"/></g></g></g><path class="foreground" aria-hidden="true" d="" pointer-events="none" display="none"/></g></g></g><path class="foreground" aria-hidden="true" d="" pointer-events="none" display="none"/></g></g></g><path class="foreground" aria-hidden="true" d="" display="none"/></g></g></g></svg>