<svg xmlns="http://www.w3.org/2000/svg" xmlns:xlink="http://www.w3.org/1999/xlink" version="1.1" class="marks" width="385" height="395" viewBox="0 0 385 395"><rect width="385" height="395" fill="white"/><g fill="none" stroke-miterlimit="10" transform="translate(73,13)"><g class="mark-group role-frame root" role="graphics-object" aria-roledescription="group mark container"><g transform="translate(0,0)"><path class="background" aria-hidden="true" d="M0.5,0.5h300v330h-300Z" stroke="#ddd"/><g><g class="mark-group role-axis" role="graphics-symbol" aria-roledescription="axis" aria-label="X-axis titled '1 / sqrt(N / E)' for a linear scale with values from 0.3 to 1.0"><g transform="translate(0.5,330.5)"><path class="background" aria-hidden="true" d="M0,0h0v0h0Z" pointer-events="none"/><g><g class="mark-rule role-axis-tick" pointer-events="none"><line transform="translate(0,0)" x2="0" y2="5" stroke="#888" stroke-width="1" opacity="1"/><line transform="translate(43,0)" x2="0" y2="5" stroke="#888" stroke-width="1" opacity="1"/><line transform="translate(86,0)" x2="0" y2="5" stroke="#888" stroke-width="1" opacity="1"/><line transform="translate(129,0)" x2="0" y2="5" stroke="#888" stroke-width="1" opacity="1"/><line transform="translate(171,0)" x2="0" y2="5" stroke="#888" stroke-width="1" opacity="1"/><line transform="translate(214,0)" x2="0" y2="5" stroke="#888" stroke-width="1" opacity="1"/><line transform="translate(257,0)" x2="0" y2="5" stroke="#888" stroke-width="1" opacity="1"/><line transform="translate(300,0)" x2="0" y2="5" stroke="#888" stroke-width="1" opacity="1"/></g><g class="mark-text role-axis-label" pointer-events="none"><text text-anchor="start" transform="translate(0,20)" font-family="monospace" font-size="16px" fill="#000" opacity="1">0.3</text><text text-anchor="middle" transform="translate(42.85714285714287,20)" font-family="monospace" font-size="16px" fill="#000" opacity="0">0.4</text><text text-anchor="middle" transform="translate(85.71428571428572,20)" font-family="monospace" font-size="16px" fill="#000" opacity="1">0.5</text><text text-anchor="middle" transform="translate(128.57142857142858,20)" font-family="monospace" font-size="16px" fill="#000" opacity="0">0.6</text><text text-anchor="middle" transform="translate(171.42857142857142,20)" font-family="monospace" font-size="16px" fill="#000" opacity="1">0.7</text><text text-anchor="middle" transform="translate(214.28571428571428,20)" font-family="monospace" font-size="16px" fill="#000" opacity="0">0.8</text><text text-anchor="middle" transform="translate(257.14285714285717,20)" font-family="monospace" font-size="16px" fill="#000" opacity="1">0.9</text><text text-anchor="end" transform="translate(300,20)" font-family="monospace" font-size="16px" fill="#000" opacity="0">1.0</text></g><g class="mark-rule role-axis-domain" pointer-events="none"><line transform="translate(0,0)" x2="300" y2="0" stroke="#888" stroke-width="1" opacity="1"/></g><g class="mark-text role-axis-title" pointer-events="none"><text text-anchor="middle" transform="translate(150,43)" font-family="sans-serif" font-size="20px" font-weight="bold" fill="#000" opacity="1">1 / sqrt(N / E)</text></g></g><path class="foreground" aria-hidden="true" d="" pointer-events="none" display="none"/></g></g><g class="mark-group role-axis" role="graphics-symbol" aria-roledescription="axis" aria-label="Y-axis titled 'Ḡ' for a linear scale with values from 0.0 to 0.5"><g transform="translate(0.5,0.5)"><path class="background" aria-hidden="true" d="M0,0h0v0h0Z" pointer-events="none"/><g><g class="mark-rule role-axis-tick" pointer-events="none"><line transform="translate(0,330)" x2="-5" y2="0" stroke="#888" stroke-width="1" opacity="1"/><line transform="translate(0,297)" x2="-5" y2="0" stroke="#888" stroke-width="1" opacity="1"/><line transform="translate(0,264)" x2="-5" y2="0" stroke="#888" stroke-width="1" opacity="1"/><line transform="translate(0,231)" x2="-5" y2="0" stroke="#888" stroke-width="1" opacity="1"/><line transform="translate(0,198)" x2="-5" y2="0" stroke="#888" stroke-width="1" opacity="1"/><line transform="translate(0,165)" x2="-5" y2="0" stroke="#888" stroke-width="1" opacity="1"/><line transform="translate(0,132)" x2="-5" y2="0" stroke="#888" stroke-width="1" opacity="1"/><line transform="translate(0,99)" x2="-5" y2="0" stroke="#888" stroke-width="1" opacity="1"/><line transform="translate(0,66)" x2="-5" y2="0" stroke="#888" stroke-width="1" opacity="1"/><line transform="translate(0,33)" x2="-5" y2="0" stroke="#888" stroke-width="1" opacity="1"/><line transform="translate(0,0)" x2="-5" y2="0" stroke="#888" stroke-width="1" opacity="1"/></g><g class="mark-text role-axis-label" pointer-events="none"><text text-anchor="end" transform="translate(-7,335)" font-family="monospace" font-size="16px" fill="#000" opacity="1">0.00</text><text text-anchor="end" transform="translate(-7,302)" font-family="monospace" font-size="16px" fill="#000" opacity="1">0.05</text><text text-anchor="end" transform="translate(-7,269)" font-family="monospace" font-size="16px" fill="#000" opacity="1">0.10</text><text text-anchor="end" transform="translate(-7,235.99999999999997)" font-family="monospace" font-size="16px" fill="#000" opacity="1">0.15</text><text text-anchor="end" transform="translate(-7,203)" font-family="monospace" font-size="16px" fill="#000" opacity="1">0.20</text><text text-anchor="end" transform="translate(-7,170)" font-family="monospace" font-size="16px" fill="#000" opacity="1">0.25</text><text text-anchor="end" transform="translate(-7,137)" font-family="monospace" font-size="16px" fill="#000" opacity="1">0.30</text><text text-anchor="end" transform="translate(-7,104.00000000000001)" font-family="monospace" font-size="16px" fill="#000" opacity="1">0.35</text><text text-anchor="end" transform="translate(-7,70.99999999999999)" font-family="monospace" font-size="16px" fill="#000" opacity="1">0.40</text><text text-anchor="end" transform="translate(-7,37.99999999999999)" font-family="monospace" font-size="16px" fill="#000" opacity="1">0.45</text><text text-anchor="end" transform="translate(-7,5)" font-family="monospace" font-size="16px" fill="#000" opacity="1">0.50</text></g><g class="mark-text role-axis-title" pointer-events="none"><text text-anchor="middle" transform="translate(-60,161)" font-family="sans-serif" font-size="20px" font-weight="bold" fill="#000" opacity="1">Ḡ</text></g></g><path class="foreground" aria-hidden="true" d="" pointer-events="none" display="none"/></g></g><g class="mark-line role-mark layer_0_marks" role="graphics-object" aria-roledescription="line mark container"><path aria-label="1 / sqrt(N / E): 0.316227766017; Ḡ: 0.144183568246" role="graphics-symbol" aria-roledescription="line mark" d="M6.955,234.839L63.092,194.808L100.51,168.069L142.481,137.192L221.356,77.448L300,15.666" stroke="#9ebcda" stroke-width="3" opacity="1"/></g><g class="mark-symbol role-mark layer_1_marks" role="graphics-object" aria-roledescription="symbol mark container"><path aria-label="1 / sqrt(N / E): 1; Ḡ: 0.476263750616" role="graphics-symbol" aria-roledescription="point" transform="translate(300,15.66592459354012)" d="M-4.472,0L0,-4.472L4.472,0L0,4.472Z" fill="#9ebcda" stroke="black" stroke-width="2" opacity="0.8"/><path aria-label="1 / sqrt(N / E): 0.816496580928; Ḡ: 0.382654932556" role="graphics-symbol" aria-roledescription="point" transform="translate(221.3556775404541,77.44774451275173)" d="M-4.472,0L0,-4.472L4.472,0L0,4.472Z" fill="#9ebcda" stroke="black" stroke-width="2" opacity="0.8"/><path aria-label="1 / sqrt(N / E): 0.632455532034; Ḡ: 0.292133473101" role="graphics-symbol" aria-roledescription="point" transform="translate(142.48094230014684,137.19190775306885)" d="M-4.472,0L0,-4.472L4.472,0L0,4.472Z" fill="#9ebcda" stroke="black" stroke-width="2" opacity="0.8"/><path aria-label="1 / sqrt(N / E): 0.534522483825; Ḡ: 0.245350456204" role="graphics-symbol" aria-roledescription="point" transform="translate(100.50963592493521,168.06869890520065)" d="M-4.472,0L0,-4.472L4.472,0L0,4.472Z" fill="#9ebcda" stroke="black" stroke-width="2" opacity="0.8"/><path aria-label="1 / sqrt(N / E): 0.4472135955; Ḡ: 0.20483709233" role="graphics-symbol" aria-roledescription="point" transform="translate(63.0915409285534,194.8075190622447)" d="M-4.472,0L0,-4.472L4.472,0L0,4.472Z" fill="#9ebcda" stroke="black" stroke-width="2" opacity="0.8"/><path aria-label="1 / sqrt(N / E): 0.316227766017; Ḡ: 0.144183568246" role="graphics-symbol" aria-roledescription="point" transform="translate(6.9547568643591235,234.83884495765147)" d="M-4.472,0L0,-4.472L4.472,0L0,4.472Z" fill="#9ebcda" stroke="black" stroke-width="2" opacity="0.8"/></g></g><path class="foreground" aria-hidden="true" d="" display="none"/></g></g></g></svg>